  0
SECTION
  2
BLOCKS
  0
ENDSEC
  0
SECTION
  2
ENTITIES
  0
LINE
  8
0
 10
0.957321
 20
-25.3819
 11
1.59488
 21
-25.3499
  0
LINE
  8
0
 10
1.59488
 20
-25.3499
 11
2.23141
 21
-25.3018
  0
LINE
  8
0
 10
2.23141
 20
-25.3018
 11
2.86655
 21
-25.2377
  0
LINE
  8
0
 10
2.86655
 20
-25.2377
 11
3.49986
 21
-25.1577
  0
LINE
  8
0
 10
3.49986
 20
-25.1577
 11
4.13098
 21
-25.0618
  0
LINE
  8
0
 10
4.13098
 20
-25.0618
 11
4.75948
 21
-24.9501
  0
LINE
  8
0
 10
4.75948
 20
-24.9501
 11
5.38498
 21
-24.8226
  0
LINE
  8
0
 10
5.38498
 20
-24.8226
 11
6.00706
 21
-24.6794
  0
LINE
  8
0
 10
6.00706
 20
-24.6794
 11
6.62537
 21
-24.5207
  0
LINE
  8
0
 10
6.62537
 20
-24.5207
 11
7.23949
 21
-24.3465
  0
LINE
  8
0
 10
7.23949
 20
-24.3465
 11
7.84903
 21
-24.1568
  0
LINE
  8
0
 10
7.84903
 20
-24.1568
 11
8.45361
 21
-23.952
  0
LINE
  8
0
 10
8.45361
 20
-23.952
 11
9.05286
 21
-23.7319
  0
LINE
  8
0
 10
9.05286
 20
-23.7319
 11
9.64638
 21
-23.4969
  0
LINE
  8
0
 10
9.64638
 20
-23.4969
 11
10.2338
 21
-23.2471
  0
LINE
  8
0
 10
10.2338
 20
-23.2471
 11
10.8148
 21
-22.9826
  0
LINE
  8
0
 10
10.8148
 20
-22.9826
 11
11.3889
 21
-22.7036
  0
LINE
  8
0
 10
11.3889
 20
-22.7036
 11
11.9559
 21
-22.4102
  0
LINE
  8
0
 10
11.9559
 20
-22.4102
 11
12.5153
 21
-22.1027
  0
LINE
  8
0
 10
12.5153
 20
-22.1027
 11
13.0668
 21
-21.7812
  0
LINE
  8
0
 10
13.0668
 20
-21.7812
 11
13.61
 21
-21.4459
  0
LINE
  8
0
 10
13.61
 20
-21.4459
 11
14.1446
 21
-21.0971
  0
LINE
  8
0
 10
14.1446
 20
-21.0971
 11
14.6703
 21
-20.735
  0
LINE
  8
0
 10
14.6703
 20
-20.735
 11
15.1868
 21
-20.3598
  0
LINE
  8
0
 10
15.1868
 20
-20.3598
 11
15.6936
 21
-19.9717
  0
LINE
  8
0
 10
15.6936
 20
-19.9717
 11
16.1906
 21
-19.571
  0
LINE
  8
0
 10
16.1906
 20
-19.571
 11
16.6773
 21
-19.158
  0
LINE
  8
0
 10
16.6773
 20
-19.158
 11
17.1534
 21
-18.7328
  0
LINE
  8
0
 10
17.1534
 20
-18.7328
 11
17.6188
 21
-18.2958
  0
LINE
  8
0
 10
17.6188
 20
-18.2958
 11
18.073
 21
-17.8473
  0
LINE
  8
0
 10
18.073
 20
-17.8473
 11
18.5158
 21
-17.3875
  0
LINE
  8
0
 10
18.5158
 20
-17.3875
 11
18.9469
 21
-16.9167
  0
LINE
  8
0
 10
18.9469
 20
-16.9167
 11
19.366
 21
-16.4352
  0
LINE
  8
0
 10
19.366
 20
-16.4352
 11
19.7729
 21
-15.9434
  0
LINE
  8
0
 10
19.7729
 20
-15.9434
 11
20.1673
 21
-15.4414
  0
LINE
  8
0
 10
20.1673
 20
-15.4414
 11
20.549
 21
-14.9297
  0
LINE
  8
0
 10
20.549
 20
-14.9297
 11
20.9177
 21
-14.4086
  0
LINE
  8
0
 10
20.9177
 20
-14.4086
 11
21.2732
 21
-13.8784
  0
LINE
  8
0
 10
21.2732
 20
-13.8784
 11
21.6152
 21
-13.3394
  0
LINE
  8
0
 10
21.6152
 20
-13.3394
 11
21.9436
 21
-12.792
  0
LINE
  8
0
 10
21.9436
 20
-12.792
 11
22.2582
 21
-12.2365
  0
LINE
  8
0
 10
22.2582
 20
-12.2365
 11
22.5587
 21
-11.6733
  0
LINE
  8
0
 10
22.5587
 20
-11.6733
 11
22.8449
 21
-11.1027
  0
LINE
  8
0
 10
22.8449
 20
-11.1027
 11
23.1167
 21
-10.5251
  0
LINE
  8
0
 10
23.1167
 20
-10.5251
 11
23.3739
 21
-9.94089
  0
LINE
  8
0
 10
23.3739
 20
-9.94089
 11
23.6163
 21
-9.35036
  0
LINE
  8
0
 10
23.6163
 20
-9.35036
 11
23.8438
 21
-8.75392
  0
LINE
  8
0
 10
23.8438
 20
-8.75392
 11
24.0563
 21
-8.15196
  0
LINE
  8
0
 10
24.0563
 20
-8.15196
 11
24.2536
 21
-7.54485
  0
LINE
  8
0
 10
24.2536
 20
-7.54485
 11
24.4355
 21
-6.93297
  0
LINE
  8
0
 10
24.4355
 20
-6.93297
 11
24.602
 21
-6.31671
  0
LINE
  8
0
 10
24.602
 20
-6.31671
 11
24.753
 21
-5.69647
  0
LINE
  8
0
 10
24.753
 20
-5.69647
 11
24.8883
 21
-5.07263
  0
LINE
  8
0
 10
24.8883
 20
-5.07263
 11
25.0079
 21
-4.44557
  0
LINE
  8
0
 10
25.0079
 20
-4.44557
 11
25.1117
 21
-3.81572
  0
LINE
  8
0
 10
25.1117
 20
-3.81572
 11
25.1997
 21
-3.18346
  0
LINE
  8
0
 10
25.1997
 20
-3.18346
 11
25.2717
 21
-2.54918
  0
LINE
  8
0
 10
25.2717
 20
-2.54918
 11
25.3278
 21
-1.9133
  0
LINE
  8
0
 10
25.3278
 20
-1.9133
 11
25.3679
 21
-1.2762
  0
LINE
  8
0
 10
25.3679
 20
-1.2762
 11
25.392
 21
-0.63829
  0
LINE
  8
0
 10
25.392
 20
-0.63829
 11
25.4
 21
0
  0
LINE
  8
0
 10
25.4
 20
0
 11
25.392
 21
0.63829
  0
LINE
  8
0
 10
25.392
 20
0.63829
 11
25.3679
 21
1.2762
  0
LINE
  8
0
 10
25.3679
 20
1.2762
 11
25.3278
 21
1.9133
  0
LINE
  8
0
 10
25.3278
 20
1.9133
 11
25.2717
 21
2.54918
  0
LINE
  8
0
 10
25.2717
 20
2.54918
 11
25.1997
 21
3.18346
  0
LINE
  8
0
 10
25.1997
 20
3.18346
 11
25.1117
 21
3.81572
  0
LINE
  8
0
 10
25.1117
 20
3.81572
 11
25.0079
 21
4.44557
  0
LINE
  8
0
 10
25.0079
 20
4.44557
 11
24.8883
 21
5.07263
  0
LINE
  8
0
 10
24.8883
 20
5.07263
 11
24.753
 21
5.69647
  0
LINE
  8
0
 10
24.753
 20
5.69647
 11
24.602
 21
6.31671
  0
LINE
  8
0
 10
24.602
 20
6.31671
 11
24.4355
 21
6.93297
  0
LINE
  8
0
 10
24.4355
 20
6.93297
 11
24.2536
 21
7.54485
  0
LINE
  8
0
 10
24.2536
 20
7.54485
 11
24.0563
 21
8.15196
  0
LINE
  8
0
 10
24.0563
 20
8.15196
 11
23.8438
 21
8.75392
  0
LINE
  8
0
 10
23.8438
 20
8.75392
 11
23.6163
 21
9.35036
  0
LINE
  8
0
 10
23.6163
 20
9.35036
 11
23.3739
 21
9.94089
  0
LINE
  8
0
 10
23.3739
 20
9.94089
 11
23.1167
 21
10.5251
  0
LINE
  8
0
 10
23.1167
 20
10.5251
 11
22.8449
 21
11.1027
  0
LINE
  8
0
 10
22.8449
 20
11.1027
 11
22.5587
 21
11.6733
  0
LINE
  8
0
 10
22.5587
 20
11.6733
 11
22.2582
 21
12.2365
  0
LINE
  8
0
 10
22.2582
 20
12.2365
 11
21.9436
 21
12.792
  0
LINE
  8
0
 10
21.9436
 20
12.792
 11
21.6152
 21
13.3394
  0
LINE
  8
0
 10
21.6152
 20
13.3394
 11
21.2732
 21
13.8784
  0
LINE
  8
0
 10
21.2732
 20
13.8784
 11
20.9177
 21
14.4086
  0
LINE
  8
0
 10
20.9177
 20
14.4086
 11
20.549
 21
14.9297
  0
LINE
  8
0
 10
20.549
 20
14.9297
 11
20.1673
 21
15.4414
  0
LINE
  8
0
 10
20.1673
 20
15.4414
 11
19.7729
 21
15.9434
  0
LINE
  8
0
 10
19.7729
 20
15.9434
 11
19.366
 21
16.4352
  0
LINE
  8
0
 10
19.366
 20
16.4352
 11
18.9469
 21
16.9167
  0
LINE
  8
0
 10
18.9469
 20
16.9167
 11
18.5158
 21
17.3875
  0
LINE
  8
0
 10
18.5158
 20
17.3875
 11
18.073
 21
17.8473
  0
LINE
  8
0
 10
18.073
 20
17.8473
 11
17.6188
 21
18.2958
  0
LINE
  8
0
 10
17.6188
 20
18.2958
 11
17.1534
 21
18.7328
  0
LINE
  8
0
 10
17.1534
 20
18.7328
 11
16.6773
 21
19.158
  0
LINE
  8
0
 10
16.6773
 20
19.158
 11
16.1906
 21
19.571
  0
LINE
  8
0
 10
16.1906
 20
19.571
 11
15.6936
 21
19.9717
  0
LINE
  8
0
 10
15.6936
 20
19.9717
 11
15.1868
 21
20.3598
  0
LINE
  8
0
 10
15.1868
 20
20.3598
 11
14.6703
 21
20.735
  0
LINE
  8
0
 10
14.6703
 20
20.735
 11
14.1446
 21
21.0971
  0
LINE
  8
0
 10
14.1446
 20
21.0971
 11
13.61
 21
21.4459
  0
LINE
  8
0
 10
13.61
 20
21.4459
 11
13.0668
 21
21.7812
  0
LINE
  8
0
 10
13.0668
 20
21.7812
 11
12.5153
 21
22.1027
  0
LINE
  8
0
 10
12.5153
 20
22.1027
 11
11.9559
 21
22.4102
  0
LINE
  8
0
 10
11.9559
 20
22.4102
 11
11.3889
 21
22.7036
  0
LINE
  8
0
 10
11.3889
 20
22.7036
 11
10.8148
 21
22.9826
  0
LINE
  8
0
 10
10.8148
 20
22.9826
 11
10.2338
 21
23.2471
  0
LINE
  8
0
 10
10.2338
 20
23.2471
 11
9.64638
 21
23.4969
  0
LINE
  8
0
 10
9.64638
 20
23.4969
 11
9.05286
 21
23.7319
  0
LINE
  8
0
 10
9.05286
 20
23.7319
 11
8.45361
 21
23.952
  0
LINE
  8
0
 10
8.45361
 20
23.952
 11
7.84903
 21
24.1568
  0
LINE
  8
0
 10
7.84903
 20
24.1568
 11
7.23949
 21
24.3465
  0
LINE
  8
0
 10
7.23949
 20
24.3465
 11
6.62537
 21
24.5207
  0
LINE
  8
0
 10
6.62537
 20
24.5207
 11
6.00706
 21
24.6794
  0
LINE
  8
0
 10
6.00706
 20
24.6794
 11
5.38498
 21
24.8226
  0
LINE
  8
0
 10
5.38498
 20
24.8226
 11
4.75948
 21
24.9501
  0
LINE
  8
0
 10
4.75948
 20
24.9501
 11
4.13098
 21
25.0618
  0
LINE
  8
0
 10
4.13098
 20
25.0618
 11
3.49986
 21
25.1577
  0
LINE
  8
0
 10
3.49986
 20
25.1577
 11
2.86655
 21
25.2377
  0
LINE
  8
0
 10
2.86655
 20
25.2377
 11
2.23141
 21
25.3018
  0
LINE
  8
0
 10
2.23141
 20
25.3018
 11
1.59488
 21
25.3499
  0
LINE
  8
0
 10
1.59488
 20
25.3499
 11
0.957321
 21
25.3819
  0
LINE
  8
0
 10
0.957321
 20
25.3819
 11
0.319168
 21
25.398
  0
LINE
  8
0
 10
0.319168
 20
25.398
 11
-0.319168
 21
25.398
  0
LINE
  8
0
 10
-0.319168
 20
25.398
 11
-0.957321
 21
25.3819
  0
LINE
  8
0
 10
-0.957321
 20
25.3819
 11
-1.59488
 21
25.3499
  0
LINE
  8
0
 10
-1.59488
 20
25.3499
 11
-2.23141
 21
25.3018
  0
LINE
  8
0
 10
-2.23141
 20
25.3018
 11
-2.86655
 21
25.2377
  0
LINE
  8
0
 10
-2.86655
 20
25.2377
 11
-3.49986
 21
25.1577
  0
LINE
  8
0
 10
-3.49986
 20
25.1577
 11
-4.13098
 21
25.0618
  0
LINE
  8
0
 10
-4.13098
 20
25.0618
 11
-4.75948
 21
24.9501
  0
LINE
  8
0
 10
-4.75948
 20
24.9501
 11
-5.38498
 21
24.8226
  0
LINE
  8
0
 10
-5.38498
 20
24.8226
 11
-6.00706
 21
24.6794
  0
LINE
  8
0
 10
-6.00706
 20
24.6794
 11
-6.62537
 21
24.5207
  0
LINE
  8
0
 10
-6.62537
 20
24.5207
 11
-7.23949
 21
24.3465
  0
LINE
  8
0
 10
-7.23949
 20
24.3465
 11
-7.84903
 21
24.1568
  0
LINE
  8
0
 10
-7.84903
 20
24.1568
 11
-8.45361
 21
23.952
  0
LINE
  8
0
 10
-8.45361
 20
23.952
 11
-9.05286
 21
23.7319
  0
LINE
  8
0
 10
-9.05286
 20
23.7319
 11
-9.64638
 21
23.4969
  0
LINE
  8
0
 10
-9.64638
 20
23.4969
 11
-10.2338
 21
23.2471
  0
LINE
  8
0
 10
-10.2338
 20
23.2471
 11
-10.8148
 21
22.9826
  0
LINE
  8
0
 10
-10.8148
 20
22.9826
 11
-11.3889
 21
22.7036
  0
LINE
  8
0
 10
-11.3889
 20
22.7036
 11
-11.9559
 21
22.4102
  0
LINE
  8
0
 10
-11.9559
 20
22.4102
 11
-12.5153
 21
22.1027
  0
LINE
  8
0
 10
-12.5153
 20
22.1027
 11
-13.0668
 21
21.7812
  0
LINE
  8
0
 10
-13.0668
 20
21.7812
 11
-13.61
 21
21.4459
  0
LINE
  8
0
 10
-13.61
 20
21.4459
 11
-14.1446
 21
21.0971
  0
LINE
  8
0
 10
-14.1446
 20
21.0971
 11
-14.6703
 21
20.735
  0
LINE
  8
0
 10
-14.6703
 20
20.735
 11
-15.1868
 21
20.3598
  0
LINE
  8
0
 10
-15.1868
 20
20.3598
 11
-15.6936
 21
19.9717
  0
LINE
  8
0
 10
-15.6936
 20
19.9717
 11
-16.1906
 21
19.571
  0
LINE
  8
0
 10
-16.1906
 20
19.571
 11
-16.6773
 21
19.158
  0
LINE
  8
0
 10
-16.6773
 20
19.158
 11
-17.1534
 21
18.7328
  0
LINE
  8
0
 10
-17.1534
 20
18.7328
 11
-17.6188
 21
18.2958
  0
LINE
  8
0
 10
-17.6188
 20
18.2958
 11
-18.073
 21
17.8473
  0
LINE
  8
0
 10
-18.073
 20
17.8473
 11
-18.5158
 21
17.3875
  0
LINE
  8
0
 10
-18.5158
 20
17.3875
 11
-18.9469
 21
16.9167
  0
LINE
  8
0
 10
-18.9469
 20
16.9167
 11
-19.366
 21
16.4352
  0
LINE
  8
0
 10
-19.366
 20
16.4352
 11
-19.7729
 21
15.9434
  0
LINE
  8
0
 10
-19.7729
 20
15.9434
 11
-20.1673
 21
15.4414
  0
LINE
  8
0
 10
-20.1673
 20
15.4414
 11
-20.549
 21
14.9297
  0
LINE
  8
0
 10
-20.549
 20
14.9297
 11
-20.9177
 21
14.4086
  0
LINE
  8
0
 10
-20.9177
 20
14.4086
 11
-21.2732
 21
13.8784
  0
LINE
  8
0
 10
-21.2732
 20
13.8784
 11
-21.6152
 21
13.3394
  0
LINE
  8
0
 10
-21.6152
 20
13.3394
 11
-21.9436
 21
12.792
  0
LINE
  8
0
 10
-21.9436
 20
12.792
 11
-22.2582
 21
12.2365
  0
LINE
  8
0
 10
-22.2582
 20
12.2365
 11
-22.5587
 21
11.6733
  0
LINE
  8
0
 10
-22.5587
 20
11.6733
 11
-22.8449
 21
11.1027
  0
LINE
  8
0
 10
-22.8449
 20
11.1027
 11
-23.1167
 21
10.5251
  0
LINE
  8
0
 10
-23.1167
 20
10.5251
 11
-23.3739
 21
9.94089
  0
LINE
  8
0
 10
-23.3739
 20
9.94089
 11
-23.6163
 21
9.35036
  0
LINE
  8
0
 10
-23.6163
 20
9.35036
 11
-23.8438
 21
8.75392
  0
LINE
  8
0
 10
-23.8438
 20
8.75392
 11
-24.0563
 21
8.15196
  0
LINE
  8
0
 10
-24.0563
 20
8.15196
 11
-24.2536
 21
7.54485
  0
LINE
  8
0
 10
-24.2536
 20
7.54485
 11
-24.4355
 21
6.93297
  0
LINE
  8
0
 10
-24.4355
 20
6.93297
 11
-24.602
 21
6.31671
  0
LINE
  8
0
 10
-24.602
 20
6.31671
 11
-24.753
 21
5.69647
  0
LINE
  8
0
 10
-24.753
 20
5.69647
 11
-24.8883
 21
5.07263
  0
LINE
  8
0
 10
-24.8883
 20
5.07263
 11
-25.0079
 21
4.44557
  0
LINE
  8
0
 10
-25.0079
 20
4.44557
 11
-25.1117
 21
3.81572
  0
LINE
  8
0
 10
-25.1117
 20
3.81572
 11
-25.1997
 21
3.18346
  0
LINE
  8
0
 10
-25.1997
 20
3.18346
 11
-25.2717
 21
2.54918
  0
LINE
  8
0
 10
-25.2717
 20
2.54918
 11
-25.3278
 21
1.9133
  0
LINE
  8
0
 10
-25.3278
 20
1.9133
 11
-25.3679
 21
1.2762
  0
LINE
  8
0
 10
-25.3679
 20
1.2762
 11
-25.392
 21
0.63829
  0
LINE
  8
0
 10
-25.392
 20
0.63829
 11
-25.4
 21
0
  0
LINE
  8
0
 10
-25.4
 20
0
 11
-25.392
 21
-0.63829
  0
LINE
  8
0
 10
-25.392
 20
-0.63829
 11
-25.3679
 21
-1.2762
  0
LINE
  8
0
 10
-25.3679
 20
-1.2762
 11
-25.3278
 21
-1.9133
  0
LINE
  8
0
 10
-25.3278
 20
-1.9133
 11
-25.2717
 21
-2.54918
  0
LINE
  8
0
 10
-25.2717
 20
-2.54918
 11
-25.1997
 21
-3.18346
  0
LINE
  8
0
 10
-25.1997
 20
-3.18346
 11
-25.1117
 21
-3.81572
  0
LINE
  8
0
 10
-25.1117
 20
-3.81572
 11
-25.0079
 21
-4.44557
  0
LINE
  8
0
 10
-25.0079
 20
-4.44557
 11
-24.8883
 21
-5.07263
  0
LINE
  8
0
 10
-24.8883
 20
-5.07263
 11
-24.753
 21
-5.69647
  0
LINE
  8
0
 10
-24.753
 20
-5.69647
 11
-24.602
 21
-6.31671
  0
LINE
  8
0
 10
-24.602
 20
-6.31671
 11
-24.4355
 21
-6.93297
  0
LINE
  8
0
 10
-24.4355
 20
-6.93297
 11
-24.2536
 21
-7.54485
  0
LINE
  8
0
 10
-24.2536
 20
-7.54485
 11
-24.0563
 21
-8.15196
  0
LINE
  8
0
 10
-24.0563
 20
-8.15196
 11
-23.8438
 21
-8.75392
  0
LINE
  8
0
 10
-23.8438
 20
-8.75392
 11
-23.6163
 21
-9.35036
  0
LINE
  8
0
 10
-23.6163
 20
-9.35036
 11
-23.3739
 21
-9.94089
  0
LINE
  8
0
 10
-23.3739
 20
-9.94089
 11
-23.1167
 21
-10.5251
  0
LINE
  8
0
 10
-23.1167
 20
-10.5251
 11
-22.8449
 21
-11.1027
  0
LINE
  8
0
 10
-22.8449
 20
-11.1027
 11
-22.5587
 21
-11.6733
  0
LINE
  8
0
 10
-22.5587
 20
-11.6733
 11
-22.2582
 21
-12.2365
  0
LINE
  8
0
 10
-22.2582
 20
-12.2365
 11
-21.9436
 21
-12.792
  0
LINE
  8
0
 10
-21.9436
 20
-12.792
 11
-21.6152
 21
-13.3394
  0
LINE
  8
0
 10
-21.6152
 20
-13.3394
 11
-21.2732
 21
-13.8784
  0
LINE
  8
0
 10
-21.2732
 20
-13.8784
 11
-20.9177
 21
-14.4086
  0
LINE
  8
0
 10
-20.9177
 20
-14.4086
 11
-20.549
 21
-14.9297
  0
LINE
  8
0
 10
-20.549
 20
-14.9297
 11
-20.1673
 21
-15.4414
  0
LINE
  8
0
 10
-20.1673
 20
-15.4414
 11
-19.7729
 21
-15.9434
  0
LINE
  8
0
 10
-19.7729
 20
-15.9434
 11
-19.366
 21
-16.4352
  0
LINE
  8
0
 10
-19.366
 20
-16.4352
 11
-18.9469
 21
-16.9167
  0
LINE
  8
0
 10
-18.9469
 20
-16.9167
 11
-18.5158
 21
-17.3875
  0
LINE
  8
0
 10
-18.5158
 20
-17.3875
 11
-18.073
 21
-17.8473
  0
LINE
  8
0
 10
-18.073
 20
-17.8473
 11
-17.6188
 21
-18.2958
  0
LINE
  8
0
 10
-17.6188
 20
-18.2958
 11
-17.1534
 21
-18.7328
  0
LINE
  8
0
 10
-17.1534
 20
-18.7328
 11
-16.6773
 21
-19.158
  0
LINE
  8
0
 10
-16.6773
 20
-19.158
 11
-16.1906
 21
-19.571
  0
LINE
  8
0
 10
-16.1906
 20
-19.571
 11
-15.6936
 21
-19.9717
  0
LINE
  8
0
 10
-15.6936
 20
-19.9717
 11
-15.1868
 21
-20.3598
  0
LINE
  8
0
 10
-15.1868
 20
-20.3598
 11
-14.6703
 21
-20.735
  0
LINE
  8
0
 10
-14.6703
 20
-20.735
 11
-14.1446
 21
-21.0971
  0
LINE
  8
0
 10
-14.1446
 20
-21.0971
 11
-13.61
 21
-21.4459
  0
LINE
  8
0
 10
-13.61
 20
-21.4459
 11
-13.0668
 21
-21.7812
  0
LINE
  8
0
 10
-13.0668
 20
-21.7812
 11
-12.5153
 21
-22.1027
  0
LINE
  8
0
 10
-12.5153
 20
-22.1027
 11
-11.9559
 21
-22.4102
  0
LINE
  8
0
 10
-11.9559
 20
-22.4102
 11
-11.3889
 21
-22.7036
  0
LINE
  8
0
 10
-11.3889
 20
-22.7036
 11
-10.8148
 21
-22.9826
  0
LINE
  8
0
 10
-10.8148
 20
-22.9826
 11
-10.2338
 21
-23.2471
  0
LINE
  8
0
 10
-10.2338
 20
-23.2471
 11
-9.64638
 21
-23.4969
  0
LINE
  8
0
 10
-9.64638
 20
-23.4969
 11
-9.05286
 21
-23.7319
  0
LINE
  8
0
 10
-9.05286
 20
-23.7319
 11
-8.45361
 21
-23.952
  0
LINE
  8
0
 10
-8.45361
 20
-23.952
 11
-7.84903
 21
-24.1568
  0
LINE
  8
0
 10
-7.84903
 20
-24.1568
 11
-7.23949
 21
-24.3465
  0
LINE
  8
0
 10
-7.23949
 20
-24.3465
 11
-6.62537
 21
-24.5207
  0
LINE
  8
0
 10
-6.62537
 20
-24.5207
 11
-6.00706
 21
-24.6794
  0
LINE
  8
0
 10
-6.00706
 20
-24.6794
 11
-5.38498
 21
-24.8226
  0
LINE
  8
0
 10
-5.38498
 20
-24.8226
 11
-4.75948
 21
-24.9501
  0
LINE
  8
0
 10
-4.75948
 20
-24.9501
 11
-4.13098
 21
-25.0618
  0
LINE
  8
0
 10
-4.13098
 20
-25.0618
 11
-3.49986
 21
-25.1577
  0
LINE
  8
0
 10
-3.49986
 20
-25.1577
 11
-2.86655
 21
-25.2377
  0
LINE
  8
0
 10
-2.86655
 20
-25.2377
 11
-2.23141
 21
-25.3018
  0
LINE
  8
0
 10
-2.23141
 20
-25.3018
 11
-1.59488
 21
-25.3499
  0
LINE
  8
0
 10
-1.59488
 20
-25.3499
 11
-0.957321
 21
-25.3819
  0
LINE
  8
0
 10
-0.957321
 20
-25.3819
 11
-0.319168
 21
-25.398
  0
LINE
  8
0
 10
-0.319168
 20
-25.398
 11
0.319168
 21
-25.398
  0
LINE
  8
0
 10
0.319168
 20
-25.398
 11
0.957321
 21
-25.3819
  0
LINE
  8
0
 10
-0.192886
 20
-15.3488
 11
-0.578537
 21
-15.3391
  0
LINE
  8
0
 10
-0.578537
 20
-15.3391
 11
-0.963821
 21
-15.3197
  0
LINE
  8
0
 10
-0.963821
 20
-15.3197
 11
-1.34851
 21
-15.2906
  0
LINE
  8
0
 10
-1.34851
 20
-15.2906
 11
-1.73233
 21
-15.2519
  0
LINE
  8
0
 10
-1.73233
 20
-15.2519
 11
-2.11507
 21
-15.2036
  0
LINE
  8
0
 10
-2.11507
 20
-15.2036
 11
-2.49648
 21
-15.1456
  0
LINE
  8
0
 10
-2.49648
 20
-15.1456
 11
-2.8763
 21
-15.0781
  0
LINE
  8
0
 10
-2.8763
 20
-15.0781
 11
-3.2543
 21
-15.0011
  0
LINE
  8
0
 10
-3.2543
 20
-15.0011
 11
-3.63025
 21
-14.9145
  0
LINE
  8
0
 10
-3.63025
 20
-14.9145
 11
-4.00391
 21
-14.8186
  0
LINE
  8
0
 10
-4.00391
 20
-14.8186
 11
-4.37503
 21
-14.7133
  0
LINE
  8
0
 10
-4.37503
 20
-14.7133
 11
-4.74341
 21
-14.5987
  0
LINE
  8
0
 10
-4.74341
 20
-14.5987
 11
-5.10878
 21
-14.4749
  0
LINE
  8
0
 10
-5.10878
 20
-14.4749
 11
-5.47092
 21
-14.3419
  0
LINE
  8
0
 10
-5.47092
 20
-14.3419
 11
-5.82961
 21
-14.1999
  0
LINE
  8
0
 10
-5.82961
 20
-14.1999
 11
-6.1846
 21
-14.049
  0
LINE
  8
0
 10
-6.1846
 20
-14.049
 11
-6.53571
 21
-13.8891
  0
LINE
  8
0
 10
-6.53571
 20
-13.8891
 11
-6.88268
 21
-13.7205
  0
LINE
  8
0
 10
-6.88268
 20
-13.7205
 11
-7.2253
 21
-13.5432
  0
LINE
  8
0
 10
-7.2253
 20
-13.5432
 11
-7.56335
 21
-13.3573
  0
LINE
  8
0
 10
-7.56335
 20
-13.3573
 11
-7.89664
 21
-13.163
  0
LINE
  8
0
 10
-7.89664
 20
-13.163
 11
-8.22493
 21
-12.9604
  0
LINE
  8
0
 10
-8.22493
 20
-12.9604
 11
-8.54803
 21
-12.7496
  0
LINE
  8
0
 10
-8.54803
 20
-12.7496
 11
-8.86574
 21
-12.5308
  0
LINE
  8
0
 10
-8.86574
 20
-12.5308
 11
-9.17784
 21
-12.304
  0
LINE
  8
0
 10
-9.17784
 20
-12.304
 11
-9.48413
 21
-12.0695
  0
LINE
  8
0
 10
-9.48413
 20
-12.0695
 11
-9.78445
 21
-11.8274
  0
LINE
  8
0
 10
-9.78445
 20
-11.8274
 11
-10.0786
 21
-11.5777
  0
LINE
  8
0
 10
-10.0786
 20
-11.5777
 11
-10.3663
 21
-11.3208
  0
LINE
  8
0
 10
-10.3663
 20
-11.3208
 11
-10.6476
 21
-11.0567
  0
LINE
  8
0
 10
-10.6476
 20
-11.0567
 11
-10.9221
 21
-10.7857
  0
LINE
  8
0
 10
-10.9221
 20
-10.7857
 11
-11.1897
 21
-10.5078
  0
LINE
  8
0
 10
-11.1897
 20
-10.5078
 11
-11.4502
 21
-10.2233
  0
LINE
  8
0
 10
-11.4502
 20
-10.2233
 11
-11.7035
 21
-9.9323
  0
LINE
  8
0
 10
-11.7035
 20
-9.9323
 11
-11.9494
 21
-9.63506
  0
LINE
  8
0
 10
-11.9494
 20
-9.63506
 11
-12.1877
 21
-9.33173
  0
LINE
  8
0
 10
-12.1877
 20
-9.33173
 11
-12.4061
 21
-9.03902
  0
LINE
  8
0
 10
-12.4061
 20
-9.03902
 11
-16.8111
 21
-11.5823
  0
LINE
  8
0
 10
-16.8111
 20
-11.5823
 11
-18.4361
 21
-8.7677
  0
LINE
  8
0
 10
-18.4361
 20
-8.7677
 11
-14.0303
 21
-6.22398
  0
LINE
  8
0
 10
-14.0303
 20
-6.22398
 11
-14.1255
 21
-6.00758
  0
LINE
  8
0
 10
-14.1255
 20
-6.00758
 11
-14.2721
 21
-5.65071
  0
LINE
  8
0
 10
-14.2721
 20
-5.65071
 11
-14.4096
 21
-5.29027
  0
LINE
  8
0
 10
-14.4096
 20
-5.29027
 11
-14.5379
 21
-4.92648
  0
LINE
  8
0
 10
-14.5379
 20
-4.92648
 11
-14.6572
 21
-4.55959
  0
LINE
  8
0
 10
-14.6572
 20
-4.55959
 11
-14.7671
 21
-4.1898
  0
LINE
  8
0
 10
-14.7671
 20
-4.1898
 11
-14.8677
 21
-3.81738
  0
LINE
  8
0
 10
-14.8677
 20
-3.81738
 11
-14.959
 21
-3.44255
  0
LINE
  8
0
 10
-14.959
 20
-3.44255
 11
-15.0408
 21
-3.06554
  0
LINE
  8
0
 10
-15.0408
 20
-3.06554
 11
-15.1131
 21
-2.6866
  0
LINE
  8
0
 10
-15.1131
 20
-2.6866
 11
-15.1758
 21
-2.30595
  0
LINE
  8
0
 10
-15.1758
 20
-2.30595
 11
-15.229
 21
-1.92386
  0
LINE
  8
0
 10
-15.229
 20
-1.92386
 11
-15.2725
 21
-1.54054
  0
LINE
  8
0
 10
-15.2725
 20
-1.54054
 11
-15.3064
 21
-1.15627
  0
LINE
  8
0
 10
-15.3064
 20
-1.15627
 11
-15.3306
 21
-0.77124
  0
LINE
  8
0
 10
-15.3306
 20
-0.77124
 11
-15.3451
 21
-0.385742
  0
LINE
  8
0
 10
-15.3451
 20
-0.385742
 11
-15.35
 21
0
  0
LINE
  8
0
 10
-15.35
 20
0
 11
-15.3451
 21
0.385742
  0
LINE
  8
0
 10
-15.3451
 20
0.385742
 11
-15.3306
 21
0.77124
  0
LINE
  8
0
 10
-15.3306
 20
0.77124
 11
-15.3064
 21
1.15627
  0
LINE
  8
0
 10
-15.3064
 20
1.15627
 11
-15.2725
 21
1.54054
  0
LINE
  8
0
 10
-15.2725
 20
1.54054
 11
-15.229
 21
1.92386
  0
LINE
  8
0
 10
-15.229
 20
1.92386
 11
-15.1758
 21
2.30595
  0
LINE
  8
0
 10
-15.1758
 20
2.30595
 11
-15.1131
 21
2.6866
  0
LINE
  8
0
 10
-15.1131
 20
2.6866
 11
-15.0408
 21
3.06554
  0
LINE
  8
0
 10
-15.0408
 20
3.06554
 11
-14.959
 21
3.44255
  0
LINE
  8
0
 10
-14.959
 20
3.44255
 11
-14.8677
 21
3.81738
  0
LINE
  8
0
 10
-14.8677
 20
3.81738
 11
-14.7671
 21
4.1898
  0
LINE
  8
0
 10
-14.7671
 20
4.1898
 11
-14.6572
 21
4.55959
  0
LINE
  8
0
 10
-14.6572
 20
4.55959
 11
-14.5379
 21
4.92648
  0
LINE
  8
0
 10
-14.5379
 20
4.92648
 11
-14.4096
 21
5.29027
  0
LINE
  8
0
 10
-14.4096
 20
5.29027
 11
-14.2721
 21
5.65071
  0
LINE
  8
0
 10
-14.2721
 20
5.65071
 11
-14.1255
 21
6.00758
  0
LINE
  8
0
 10
-14.1255
 20
6.00758
 11
-13.9701
 21
6.36066
  0
LINE
  8
0
 10
-13.9701
 20
6.36066
 11
-13.8059
 21
6.70972
  0
LINE
  8
0
 10
-13.8059
 20
6.70972
 11
-13.6329
 21
7.05455
  0
LINE
  8
0
 10
-13.6329
 20
7.05455
 11
-13.4513
 21
7.39491
  0
LINE
  8
0
 10
-13.4513
 20
7.39491
 11
-13.2612
 21
7.73061
  0
LINE
  8
0
 10
-13.2612
 20
7.73061
 11
-13.0628
 21
8.06142
  0
LINE
  8
0
 10
-13.0628
 20
8.06142
 11
-12.856
 21
8.38715
  0
LINE
  8
0
 10
-12.856
 20
8.38715
 11
-12.6412
 21
8.70757
  0
LINE
  8
0
 10
-12.6412
 20
8.70757
 11
-12.4184
 21
9.02249
  0
LINE
  8
0
 10
-12.4184
 20
9.02249
 11
-12.1877
 21
9.33173
  0
LINE
  8
0
 10
-12.1877
 20
9.33173
 11
-11.9494
 21
9.63506
  0
LINE
  8
0
 10
-11.9494
 20
9.63506
 11
-11.7035
 21
9.9323
  0
LINE
  8
0
 10
-11.7035
 20
9.9323
 11
-11.4502
 21
10.2233
  0
LINE
  8
0
 10
-11.4502
 20
10.2233
 11
-11.1897
 21
10.5078
  0
LINE
  8
0
 10
-11.1897
 20
10.5078
 11
-10.9221
 21
10.7857
  0
LINE
  8
0
 10
-10.9221
 20
10.7857
 11
-10.6476
 21
11.0567
  0
LINE
  8
0
 10
-10.6476
 20
11.0567
 11
-10.3663
 21
11.3208
  0
LINE
  8
0
 10
-10.3663
 20
11.3208
 11
-10.0786
 21
11.5777
  0
LINE
  8
0
 10
-10.0786
 20
11.5777
 11
-9.78445
 21
11.8274
  0
LINE
  8
0
 10
-9.78445
 20
11.8274
 11
-9.48413
 21
12.0695
  0
LINE
  8
0
 10
-9.48413
 20
12.0695
 11
-9.17784
 21
12.304
  0
LINE
  8
0
 10
-9.17784
 20
12.304
 11
-8.86574
 21
12.5308
  0
LINE
  8
0
 10
-8.86574
 20
12.5308
 11
-8.54803
 21
12.7496
  0
LINE
  8
0
 10
-8.54803
 20
12.7496
 11
-8.22493
 21
12.9604
  0
LINE
  8
0
 10
-8.22493
 20
12.9604
 11
-7.89664
 21
13.163
  0
LINE
  8
0
 10
-7.89664
 20
13.163
 11
-7.56335
 21
13.3573
  0
LINE
  8
0
 10
-7.56335
 20
13.3573
 11
-7.2253
 21
13.5432
  0
LINE
  8
0
 10
-7.2253
 20
13.5432
 11
-6.88268
 21
13.7205
  0
LINE
  8
0
 10
-6.88268
 20
13.7205
 11
-6.53571
 21
13.8891
  0
LINE
  8
0
 10
-6.53571
 20
13.8891
 11
-6.1846
 21
14.049
  0
LINE
  8
0
 10
-6.1846
 20
14.049
 11
-5.82961
 21
14.1999
  0
LINE
  8
0
 10
-5.82961
 20
14.1999
 11
-5.47092
 21
14.3419
  0
LINE
  8
0
 10
-5.47092
 20
14.3419
 11
-5.10878
 21
14.4749
  0
LINE
  8
0
 10
-5.10878
 20
14.4749
 11
-4.74341
 21
14.5987
  0
LINE
  8
0
 10
-4.74341
 20
14.5987
 11
-4.37503
 21
14.7133
  0
LINE
  8
0
 10
-4.37503
 20
14.7133
 11
-4.00391
 21
14.8186
  0
LINE
  8
0
 10
-4.00391
 20
14.8186
 11
-3.63025
 21
14.9145
  0
LINE
  8
0
 10
-3.63025
 20
14.9145
 11
-3.2543
 21
15.0011
  0
LINE
  8
0
 10
-3.2543
 20
15.0011
 11
-2.8763
 21
15.0781
  0
LINE
  8
0
 10
-2.8763
 20
15.0781
 11
-2.49648
 21
15.1456
  0
LINE
  8
0
 10
-2.49648
 20
15.1456
 11
-2.11507
 21
15.2036
  0
LINE
  8
0
 10
-2.11507
 20
15.2036
 11
-1.73233
 21
15.2519
  0
LINE
  8
0
 10
-1.73233
 20
15.2519
 11
-1.625
 21
15.2627
  0
LINE
  8
0
 10
-1.625
 20
15.2627
 11
-1.625
 21
20.35
  0
LINE
  8
0
 10
-1.625
 20
20.35
 11
1.625
 21
20.35
  0
LINE
  8
0
 10
1.625
 20
20.35
 11
1.625
 21
15.2627
  0
LINE
  8
0
 10
1.625
 20
15.2627
 11
1.73233
 21
15.2519
  0
LINE
  8
0
 10
1.73233
 20
15.2519
 11
2.11507
 21
15.2036
  0
LINE
  8
0
 10
2.11507
 20
15.2036
 11
2.49648
 21
15.1456
  0
LINE
  8
0
 10
2.49648
 20
15.1456
 11
2.8763
 21
15.0781
  0
LINE
  8
0
 10
2.8763
 20
15.0781
 11
3.2543
 21
15.0011
  0
LINE
  8
0
 10
3.2543
 20
15.0011
 11
3.63025
 21
14.9145
  0
LINE
  8
0
 10
3.63025
 20
14.9145
 11
4.00391
 21
14.8186
  0
LINE
  8
0
 10
4.00391
 20
14.8186
 11
4.37503
 21
14.7133
  0
LINE
  8
0
 10
4.37503
 20
14.7133
 11
4.74341
 21
14.5987
  0
LINE
  8
0
 10
4.74341
 20
14.5987
 11
5.10878
 21
14.4749
  0
LINE
  8
0
 10
5.10878
 20
14.4749
 11
5.47092
 21
14.3419
  0
LINE
  8
0
 10
5.47092
 20
14.3419
 11
5.82961
 21
14.1999
  0
LINE
  8
0
 10
5.82961
 20
14.1999
 11
6.1846
 21
14.049
  0
LINE
  8
0
 10
6.1846
 20
14.049
 11
6.53571
 21
13.8891
  0
LINE
  8
0
 10
6.53571
 20
13.8891
 11
6.88268
 21
13.7205
  0
LINE
  8
0
 10
6.88268
 20
13.7205
 11
7.2253
 21
13.5432
  0
LINE
  8
0
 10
7.2253
 20
13.5432
 11
7.56335
 21
13.3573
  0
LINE
  8
0
 10
7.56335
 20
13.3573
 11
7.89664
 21
13.163
  0
LINE
  8
0
 10
7.89664
 20
13.163
 11
8.22493
 21
12.9604
  0
LINE
  8
0
 10
8.22493
 20
12.9604
 11
8.54803
 21
12.7496
  0
LINE
  8
0
 10
8.54803
 20
12.7496
 11
8.86574
 21
12.5308
  0
LINE
  8
0
 10
8.86574
 20
12.5308
 11
9.17784
 21
12.304
  0
LINE
  8
0
 10
9.17784
 20
12.304
 11
9.48413
 21
12.0695
  0
LINE
  8
0
 10
9.48413
 20
12.0695
 11
9.78445
 21
11.8274
  0
LINE
  8
0
 10
9.78445
 20
11.8274
 11
10.0786
 21
11.5777
  0
LINE
  8
0
 10
10.0786
 20
11.5777
 11
10.3663
 21
11.3208
  0
LINE
  8
0
 10
10.3663
 20
11.3208
 11
10.6476
 21
11.0567
  0
LINE
  8
0
 10
10.6476
 20
11.0567
 11
10.9221
 21
10.7857
  0
LINE
  8
0
 10
10.9221
 20
10.7857
 11
11.1897
 21
10.5078
  0
LINE
  8
0
 10
11.1897
 20
10.5078
 11
11.4502
 21
10.2233
  0
LINE
  8
0
 10
11.4502
 20
10.2233
 11
11.7035
 21
9.9323
  0
LINE
  8
0
 10
11.7035
 20
9.9323
 11
11.9494
 21
9.63506
  0
LINE
  8
0
 10
11.9494
 20
9.63506
 11
12.1877
 21
9.33173
  0
LINE
  8
0
 10
12.1877
 20
9.33173
 11
12.4184
 21
9.02249
  0
LINE
  8
0
 10
12.4184
 20
9.02249
 11
12.6412
 21
8.70757
  0
LINE
  8
0
 10
12.6412
 20
8.70757
 11
12.856
 21
8.38715
  0
LINE
  8
0
 10
12.856
 20
8.38715
 11
13.0628
 21
8.06142
  0
LINE
  8
0
 10
13.0628
 20
8.06142
 11
13.2612
 21
7.73061
  0
LINE
  8
0
 10
13.2612
 20
7.73061
 11
13.4513
 21
7.39491
  0
LINE
  8
0
 10
13.4513
 20
7.39491
 11
13.6329
 21
7.05455
  0
LINE
  8
0
 10
13.6329
 20
7.05455
 11
13.8059
 21
6.70972
  0
LINE
  8
0
 10
13.8059
 20
6.70972
 11
13.9701
 21
6.36066
  0
LINE
  8
0
 10
13.9701
 20
6.36066
 11
14.1255
 21
6.00758
  0
LINE
  8
0
 10
14.1255
 20
6.00758
 11
14.2721
 21
5.65071
  0
LINE
  8
0
 10
14.2721
 20
5.65071
 11
14.4096
 21
5.29027
  0
LINE
  8
0
 10
14.4096
 20
5.29027
 11
14.5379
 21
4.92648
  0
LINE
  8
0
 10
14.5379
 20
4.92648
 11
14.6572
 21
4.55959
  0
LINE
  8
0
 10
14.6572
 20
4.55959
 11
14.7671
 21
4.1898
  0
LINE
  8
0
 10
14.7671
 20
4.1898
 11
14.8677
 21
3.81738
  0
LINE
  8
0
 10
14.8677
 20
3.81738
 11
14.959
 21
3.44255
  0
LINE
  8
0
 10
14.959
 20
3.44255
 11
15.0408
 21
3.06554
  0
LINE
  8
0
 10
15.0408
 20
3.06554
 11
15.1131
 21
2.6866
  0
LINE
  8
0
 10
15.1131
 20
2.6866
 11
15.1758
 21
2.30595
  0
LINE
  8
0
 10
15.1758
 20
2.30595
 11
15.229
 21
1.92386
  0
LINE
  8
0
 10
15.229
 20
1.92386
 11
15.2725
 21
1.54054
  0
LINE
  8
0
 10
15.2725
 20
1.54054
 11
15.3064
 21
1.15627
  0
LINE
  8
0
 10
15.3064
 20
1.15627
 11
15.3306
 21
0.77124
  0
LINE
  8
0
 10
15.3306
 20
0.77124
 11
15.3451
 21
0.385742
  0
LINE
  8
0
 10
15.3451
 20
0.385742
 11
15.35
 21
0
  0
LINE
  8
0
 10
15.35
 20
0
 11
15.3451
 21
-0.385742
  0
LINE
  8
0
 10
15.3451
 20
-0.385742
 11
15.3306
 21
-0.77124
  0
LINE
  8
0
 10
15.3306
 20
-0.77124
 11
15.3064
 21
-1.15627
  0
LINE
  8
0
 10
15.3064
 20
-1.15627
 11
15.2725
 21
-1.54054
  0
LINE
  8
0
 10
15.2725
 20
-1.54054
 11
15.229
 21
-1.92386
  0
LINE
  8
0
 10
15.229
 20
-1.92386
 11
15.1758
 21
-2.30595
  0
LINE
  8
0
 10
15.1758
 20
-2.30595
 11
15.1131
 21
-2.6866
  0
LINE
  8
0
 10
15.1131
 20
-2.6866
 11
15.0408
 21
-3.06554
  0
LINE
  8
0
 10
15.0408
 20
-3.06554
 11
14.959
 21
-3.44255
  0
LINE
  8
0
 10
14.959
 20
-3.44255
 11
14.8677
 21
-3.81738
  0
LINE
  8
0
 10
14.8677
 20
-3.81738
 11
14.7671
 21
-4.1898
  0
LINE
  8
0
 10
14.7671
 20
-4.1898
 11
14.6572
 21
-4.55959
  0
LINE
  8
0
 10
14.6572
 20
-4.55959
 11
14.5379
 21
-4.92648
  0
LINE
  8
0
 10
14.5379
 20
-4.92648
 11
14.4096
 21
-5.29027
  0
LINE
  8
0
 10
14.4096
 20
-5.29027
 11
14.2721
 21
-5.65071
  0
LINE
  8
0
 10
14.2721
 20
-5.65071
 11
14.1255
 21
-6.00758
  0
LINE
  8
0
 10
14.1255
 20
-6.00758
 11
14.0303
 21
-6.22398
  0
LINE
  8
0
 10
14.0303
 20
-6.22398
 11
18.4361
 21
-8.7677
  0
LINE
  8
0
 10
18.4361
 20
-8.7677
 11
16.8111
 21
-11.5823
  0
LINE
  8
0
 10
16.8111
 20
-11.5823
 11
12.4061
 21
-9.03902
  0
LINE
  8
0
 10
12.4061
 20
-9.03902
 11
12.1877
 21
-9.33173
  0
LINE
  8
0
 10
12.1877
 20
-9.33173
 11
11.9494
 21
-9.63506
  0
LINE
  8
0
 10
11.9494
 20
-9.63506
 11
11.7035
 21
-9.9323
  0
LINE
  8
0
 10
11.7035
 20
-9.9323
 11
11.4502
 21
-10.2233
  0
LINE
  8
0
 10
11.4502
 20
-10.2233
 11
11.1897
 21
-10.5078
  0
LINE
  8
0
 10
11.1897
 20
-10.5078
 11
10.9221
 21
-10.7857
  0
LINE
  8
0
 10
10.9221
 20
-10.7857
 11
10.6476
 21
-11.0567
  0
LINE
  8
0
 10
10.6476
 20
-11.0567
 11
10.3663
 21
-11.3208
  0
LINE
  8
0
 10
10.3663
 20
-11.3208
 11
10.0786
 21
-11.5777
  0
LINE
  8
0
 10
10.0786
 20
-11.5777
 11
9.78445
 21
-11.8274
  0
LINE
  8
0
 10
9.78445
 20
-11.8274
 11
9.48413
 21
-12.0695
  0
LINE
  8
0
 10
9.48413
 20
-12.0695
 11
9.17784
 21
-12.304
  0
LINE
  8
0
 10
9.17784
 20
-12.304
 11
8.86574
 21
-12.5308
  0
LINE
  8
0
 10
8.86574
 20
-12.5308
 11
8.54803
 21
-12.7496
  0
LINE
  8
0
 10
8.54803
 20
-12.7496
 11
8.22493
 21
-12.9604
  0
LINE
  8
0
 10
8.22493
 20
-12.9604
 11
7.89664
 21
-13.163
  0
LINE
  8
0
 10
7.89664
 20
-13.163
 11
7.56335
 21
-13.3573
  0
LINE
  8
0
 10
7.56335
 20
-13.3573
 11
7.2253
 21
-13.5432
  0
LINE
  8
0
 10
7.2253
 20
-13.5432
 11
6.88268
 21
-13.7205
  0
LINE
  8
0
 10
6.88268
 20
-13.7205
 11
6.53571
 21
-13.8891
  0
LINE
  8
0
 10
6.53571
 20
-13.8891
 11
6.1846
 21
-14.049
  0
LINE
  8
0
 10
6.1846
 20
-14.049
 11
5.82961
 21
-14.1999
  0
LINE
  8
0
 10
5.82961
 20
-14.1999
 11
5.47092
 21
-14.3419
  0
LINE
  8
0
 10
5.47092
 20
-14.3419
 11
5.10878
 21
-14.4749
  0
LINE
  8
0
 10
5.10878
 20
-14.4749
 11
4.74341
 21
-14.5987
  0
LINE
  8
0
 10
4.74341
 20
-14.5987
 11
4.37503
 21
-14.7133
  0
LINE
  8
0
 10
4.37503
 20
-14.7133
 11
4.00391
 21
-14.8186
  0
LINE
  8
0
 10
4.00391
 20
-14.8186
 11
3.63025
 21
-14.9145
  0
LINE
  8
0
 10
3.63025
 20
-14.9145
 11
3.2543
 21
-15.0011
  0
LINE
  8
0
 10
3.2543
 20
-15.0011
 11
2.8763
 21
-15.0781
  0
LINE
  8
0
 10
2.8763
 20
-15.0781
 11
2.49648
 21
-15.1456
  0
LINE
  8
0
 10
2.49648
 20
-15.1456
 11
2.11507
 21
-15.2036
  0
LINE
  8
0
 10
2.11507
 20
-15.2036
 11
1.73233
 21
-15.2519
  0
LINE
  8
0
 10
1.73233
 20
-15.2519
 11
1.34851
 21
-15.2906
  0
LINE
  8
0
 10
1.34851
 20
-15.2906
 11
0.963821
 21
-15.3197
  0
LINE
  8
0
 10
0.963821
 20
-15.3197
 11
0.578537
 21
-15.3391
  0
LINE
  8
0
 10
0.578537
 20
-15.3391
 11
0.192886
 21
-15.3488
  0
LINE
  8
0
 10
0.192886
 20
-15.3488
 11
-0.192886
 21
-15.3488
  0
ENDSEC
  0
SECTION
  2
OBJECTS
  0
DICTIONARY
  0
ENDSEC
  0
EOF
