  0
SECTION
  2
BLOCKS
  0
ENDSEC
  0
SECTION
  2
ENTITIES
  0
LINE
  8
0
 10
1.32933
 20
-25.3652
 11
2.65501
 21
-25.2608
  0
LINE
  8
0
 10
2.65501
 20
-25.2608
 11
3.97343
 21
-25.0873
  0
LINE
  8
0
 10
3.97343
 20
-25.0873
 11
5.28096
 21
-24.8449
  0
LINE
  8
0
 10
5.28096
 20
-24.8449
 11
6.57399
 21
-24.5345
  0
LINE
  8
0
 10
6.57399
 20
-24.5345
 11
7.84903
 21
-24.1568
  0
LINE
  8
0
 10
7.84903
 20
-24.1568
 11
9.10254
 21
-23.7129
  0
LINE
  8
0
 10
9.10254
 20
-23.7129
 11
10.3311
 21
-23.204
  0
LINE
  8
0
 10
10.3311
 20
-23.204
 11
11.5313
 21
-22.6315
  0
LINE
  8
0
 10
11.5313
 20
-22.6315
 11
12.7
 21
-21.997
  0
LINE
  8
0
 10
12.7
 20
-21.997
 11
13.8338
 21
-21.3022
  0
LINE
  8
0
 10
13.8338
 20
-21.3022
 11
14.9297
 21
-20.549
  0
LINE
  8
0
 10
14.9297
 20
-20.549
 11
15.9847
 21
-19.7395
  0
LINE
  8
0
 10
15.9847
 20
-19.7395
 11
16.9959
 21
-18.8759
  0
LINE
  8
0
 10
16.9959
 20
-18.8759
 11
17.9605
 21
-17.9605
  0
LINE
  8
0
 10
17.9605
 20
-17.9605
 11
18.8759
 21
-16.9959
  0
LINE
  8
0
 10
18.8759
 20
-16.9959
 11
19.7395
 21
-15.9847
  0
LINE
  8
0
 10
19.7395
 20
-15.9847
 11
20.549
 21
-14.9297
  0
LINE
  8
0
 10
20.549
 20
-14.9297
 11
21.3022
 21
-13.8338
  0
LINE
  8
0
 10
21.3022
 20
-13.8338
 11
21.997
 21
-12.7
  0
LINE
  8
0
 10
21.997
 20
-12.7
 11
22.6315
 21
-11.5313
  0
LINE
  8
0
 10
22.6315
 20
-11.5313
 11
23.204
 21
-10.3311
  0
LINE
  8
0
 10
23.204
 20
-10.3311
 11
23.7129
 21
-9.10254
  0
LINE
  8
0
 10
23.7129
 20
-9.10254
 11
24.1568
 21
-7.84903
  0
LINE
  8
0
 10
24.1568
 20
-7.84903
 11
24.5345
 21
-6.57399
  0
LINE
  8
0
 10
24.5345
 20
-6.57399
 11
24.8449
 21
-5.28096
  0
LINE
  8
0
 10
24.8449
 20
-5.28096
 11
25.0873
 21
-3.97343
  0
LINE
  8
0
 10
25.0873
 20
-3.97343
 11
25.2608
 21
-2.65501
  0
LINE
  8
0
 10
25.2608
 20
-2.65501
 11
25.3652
 21
-1.32933
  0
LINE
  8
0
 10
25.3652
 20
-1.32933
 11
25.4
 21
0
  0
LINE
  8
0
 10
25.4
 20
0
 11
25.3652
 21
1.32933
  0
LINE
  8
0
 10
25.3652
 20
1.32933
 11
25.2608
 21
2.65501
  0
LINE
  8
0
 10
25.2608
 20
2.65501
 11
25.0873
 21
3.97343
  0
LINE
  8
0
 10
25.0873
 20
3.97343
 11
24.8449
 21
5.28096
  0
LINE
  8
0
 10
24.8449
 20
5.28096
 11
24.5345
 21
6.57399
  0
LINE
  8
0
 10
24.5345
 20
6.57399
 11
24.1568
 21
7.84903
  0
LINE
  8
0
 10
24.1568
 20
7.84903
 11
23.7129
 21
9.10254
  0
LINE
  8
0
 10
23.7129
 20
9.10254
 11
23.204
 21
10.3311
  0
LINE
  8
0
 10
23.204
 20
10.3311
 11
22.6315
 21
11.5313
  0
LINE
  8
0
 10
22.6315
 20
11.5313
 11
21.997
 21
12.7
  0
LINE
  8
0
 10
21.997
 20
12.7
 11
21.3022
 21
13.8338
  0
LINE
  8
0
 10
21.3022
 20
13.8338
 11
20.549
 21
14.9297
  0
LINE
  8
0
 10
20.549
 20
14.9297
 11
19.7395
 21
15.9847
  0
LINE
  8
0
 10
19.7395
 20
15.9847
 11
18.8759
 21
16.9959
  0
LINE
  8
0
 10
18.8759
 20
16.9959
 11
17.9605
 21
17.9605
  0
LINE
  8
0
 10
17.9605
 20
17.9605
 11
16.9959
 21
18.8759
  0
LINE
  8
0
 10
16.9959
 20
18.8759
 11
15.9847
 21
19.7395
  0
LINE
  8
0
 10
15.9847
 20
19.7395
 11
14.9297
 21
20.549
  0
LINE
  8
0
 10
14.9297
 20
20.549
 11
13.8338
 21
21.3022
  0
LINE
  8
0
 10
13.8338
 20
21.3022
 11
12.7
 21
21.997
  0
LINE
  8
0
 10
12.7
 20
21.997
 11
11.5313
 21
22.6315
  0
LINE
  8
0
 10
11.5313
 20
22.6315
 11
10.3311
 21
23.204
  0
LINE
  8
0
 10
10.3311
 20
23.204
 11
9.10254
 21
23.7129
  0
LINE
  8
0
 10
9.10254
 20
23.7129
 11
7.84903
 21
24.1568
  0
LINE
  8
0
 10
7.84903
 20
24.1568
 11
6.57399
 21
24.5345
  0
LINE
  8
0
 10
6.57399
 20
24.5345
 11
5.28096
 21
24.8449
  0
LINE
  8
0
 10
5.28096
 20
24.8449
 11
3.97343
 21
25.0873
  0
LINE
  8
0
 10
3.97343
 20
25.0873
 11
2.65501
 21
25.2608
  0
LINE
  8
0
 10
2.65501
 20
25.2608
 11
1.32933
 21
25.3652
  0
LINE
  8
0
 10
1.32933
 20
25.3652
 11
0
 21
25.4
  0
LINE
  8
0
 10
0
 20
25.4
 11
-1.32933
 21
25.3652
  0
LINE
  8
0
 10
-1.32933
 20
25.3652
 11
-2.65501
 21
25.2608
  0
LINE
  8
0
 10
-2.65501
 20
25.2608
 11
-3.97343
 21
25.0873
  0
LINE
  8
0
 10
-3.97343
 20
25.0873
 11
-5.28096
 21
24.8449
  0
LINE
  8
0
 10
-5.28096
 20
24.8449
 11
-6.57399
 21
24.5345
  0
LINE
  8
0
 10
-6.57399
 20
24.5345
 11
-7.84903
 21
24.1568
  0
LINE
  8
0
 10
-7.84903
 20
24.1568
 11
-9.10254
 21
23.7129
  0
LINE
  8
0
 10
-9.10254
 20
23.7129
 11
-10.3311
 21
23.204
  0
LINE
  8
0
 10
-10.3311
 20
23.204
 11
-11.5313
 21
22.6315
  0
LINE
  8
0
 10
-11.5313
 20
22.6315
 11
-12.7
 21
21.997
  0
LINE
  8
0
 10
-12.7
 20
21.997
 11
-13.8338
 21
21.3022
  0
LINE
  8
0
 10
-13.8338
 20
21.3022
 11
-14.9297
 21
20.549
  0
LINE
  8
0
 10
-14.9297
 20
20.549
 11
-15.9847
 21
19.7395
  0
LINE
  8
0
 10
-15.9847
 20
19.7395
 11
-16.9959
 21
18.8759
  0
LINE
  8
0
 10
-16.9959
 20
18.8759
 11
-17.9605
 21
17.9605
  0
LINE
  8
0
 10
-17.9605
 20
17.9605
 11
-18.8759
 21
16.9959
  0
LINE
  8
0
 10
-18.8759
 20
16.9959
 11
-19.7395
 21
15.9847
  0
LINE
  8
0
 10
-19.7395
 20
15.9847
 11
-20.549
 21
14.9297
  0
LINE
  8
0
 10
-20.549
 20
14.9297
 11
-21.3022
 21
13.8338
  0
LINE
  8
0
 10
-21.3022
 20
13.8338
 11
-21.997
 21
12.7
  0
LINE
  8
0
 10
-21.997
 20
12.7
 11
-22.6315
 21
11.5313
  0
LINE
  8
0
 10
-22.6315
 20
11.5313
 11
-23.204
 21
10.3311
  0
LINE
  8
0
 10
-23.204
 20
10.3311
 11
-23.7129
 21
9.10254
  0
LINE
  8
0
 10
-23.7129
 20
9.10254
 11
-24.1568
 21
7.84903
  0
LINE
  8
0
 10
-24.1568
 20
7.84903
 11
-24.5345
 21
6.57399
  0
LINE
  8
0
 10
-24.5345
 20
6.57399
 11
-24.8449
 21
5.28096
  0
LINE
  8
0
 10
-24.8449
 20
5.28096
 11
-25.0873
 21
3.97343
  0
LINE
  8
0
 10
-25.0873
 20
3.97343
 11
-25.2608
 21
2.65501
  0
LINE
  8
0
 10
-25.2608
 20
2.65501
 11
-25.3652
 21
1.32933
  0
LINE
  8
0
 10
-25.3652
 20
1.32933
 11
-25.4
 21
0
  0
LINE
  8
0
 10
-25.4
 20
0
 11
-25.3652
 21
-1.32933
  0
LINE
  8
0
 10
-25.3652
 20
-1.32933
 11
-25.2608
 21
-2.65501
  0
LINE
  8
0
 10
-25.2608
 20
-2.65501
 11
-25.0873
 21
-3.97343
  0
LINE
  8
0
 10
-25.0873
 20
-3.97343
 11
-24.8449
 21
-5.28096
  0
LINE
  8
0
 10
-24.8449
 20
-5.28096
 11
-24.5345
 21
-6.57399
  0
LINE
  8
0
 10
-24.5345
 20
-6.57399
 11
-24.1568
 21
-7.84903
  0
LINE
  8
0
 10
-24.1568
 20
-7.84903
 11
-23.7129
 21
-9.10254
  0
LINE
  8
0
 10
-23.7129
 20
-9.10254
 11
-23.204
 21
-10.3311
  0
LINE
  8
0
 10
-23.204
 20
-10.3311
 11
-22.6315
 21
-11.5313
  0
LINE
  8
0
 10
-22.6315
 20
-11.5313
 11
-21.997
 21
-12.7
  0
LINE
  8
0
 10
-21.997
 20
-12.7
 11
-21.3022
 21
-13.8338
  0
LINE
  8
0
 10
-21.3022
 20
-13.8338
 11
-20.549
 21
-14.9297
  0
LINE
  8
0
 10
-20.549
 20
-14.9297
 11
-19.7395
 21
-15.9847
  0
LINE
  8
0
 10
-19.7395
 20
-15.9847
 11
-18.8759
 21
-16.9959
  0
LINE
  8
0
 10
-18.8759
 20
-16.9959
 11
-17.9605
 21
-17.9605
  0
LINE
  8
0
 10
-17.9605
 20
-17.9605
 11
-16.9959
 21
-18.8759
  0
LINE
  8
0
 10
-16.9959
 20
-18.8759
 11
-15.9847
 21
-19.7395
  0
LINE
  8
0
 10
-15.9847
 20
-19.7395
 11
-14.9297
 21
-20.549
  0
LINE
  8
0
 10
-14.9297
 20
-20.549
 11
-13.8338
 21
-21.3022
  0
LINE
  8
0
 10
-13.8338
 20
-21.3022
 11
-12.7
 21
-21.997
  0
LINE
  8
0
 10
-12.7
 20
-21.997
 11
-11.5313
 21
-22.6315
  0
LINE
  8
0
 10
-11.5313
 20
-22.6315
 11
-10.3311
 21
-23.204
  0
LINE
  8
0
 10
-10.3311
 20
-23.204
 11
-9.10254
 21
-23.7129
  0
LINE
  8
0
 10
-9.10254
 20
-23.7129
 11
-7.84903
 21
-24.1568
  0
LINE
  8
0
 10
-7.84903
 20
-24.1568
 11
-6.57399
 21
-24.5345
  0
LINE
  8
0
 10
-6.57399
 20
-24.5345
 11
-5.28096
 21
-24.8449
  0
LINE
  8
0
 10
-5.28096
 20
-24.8449
 11
-3.97343
 21
-25.0873
  0
LINE
  8
0
 10
-3.97343
 20
-25.0873
 11
-2.65501
 21
-25.2608
  0
LINE
  8
0
 10
-2.65501
 20
-25.2608
 11
-1.32933
 21
-25.3652
  0
LINE
  8
0
 10
-1.32933
 20
-25.3652
 11
0
 21
-25.4
  0
LINE
  8
0
 10
0
 20
-25.4
 11
1.32933
 21
-25.3652
  0
LINE
  8
0
 10
10.018
 20
-12.2808
 11
9.97472
 21
-12.3177
  0
LINE
  8
0
 10
9.97472
 20
-12.3177
 11
9.31639
 21
-12.8229
  0
LINE
  8
0
 10
9.31639
 20
-12.8229
 11
8.63252
 21
-13.2929
  0
LINE
  8
0
 10
8.63252
 20
-13.2929
 11
7.92499
 21
-13.7265
  0
LINE
  8
0
 10
7.92499
 20
-13.7265
 11
7.19574
 21
-14.1224
  0
LINE
  8
0
 10
7.19574
 20
-14.1224
 11
6.44676
 21
-14.4797
  0
LINE
  8
0
 10
6.44676
 20
-14.4797
 11
5.68013
 21
-14.7972
  0
LINE
  8
0
 10
5.68013
 20
-14.7972
 11
4.89792
 21
-15.0742
  0
LINE
  8
0
 10
4.89792
 20
-15.0742
 11
4.10228
 21
-15.3099
  0
LINE
  8
0
 10
4.10228
 20
-15.3099
 11
3.29539
 21
-15.5036
  0
LINE
  8
0
 10
3.29539
 20
-15.5036
 11
2.47948
 21
-15.6548
  0
LINE
  8
0
 10
2.47948
 20
-15.6548
 11
1.65677
 21
-15.7632
  0
LINE
  8
0
 10
1.65677
 20
-15.7632
 11
0.829514
 21
-15.8283
  0
LINE
  8
0
 10
0.829514
 20
-15.8283
 11
0
 21
-15.85
  0
LINE
  8
0
 10
0
 20
-15.85
 11
-0.829514
 21
-15.8283
  0
LINE
  8
0
 10
-0.829514
 20
-15.8283
 11
-1.65677
 21
-15.7632
  0
LINE
  8
0
 10
-1.65677
 20
-15.7632
 11
-2.47948
 21
-15.6548
  0
LINE
  8
0
 10
-2.47948
 20
-15.6548
 11
-3.29539
 21
-15.5036
  0
LINE
  8
0
 10
-3.29539
 20
-15.5036
 11
-4.10228
 21
-15.3099
  0
LINE
  8
0
 10
-4.10228
 20
-15.3099
 11
-4.89792
 21
-15.0742
  0
LINE
  8
0
 10
-4.89792
 20
-15.0742
 11
-5.68013
 21
-14.7972
  0
LINE
  8
0
 10
-5.68013
 20
-14.7972
 11
-6.44676
 21
-14.4797
  0
LINE
  8
0
 10
-6.44676
 20
-14.4797
 11
-7.19574
 21
-14.1224
  0
LINE
  8
0
 10
-7.19574
 20
-14.1224
 11
-7.92499
 21
-13.7265
  0
LINE
  8
0
 10
-7.92499
 20
-13.7265
 11
-8.63252
 21
-13.2929
  0
LINE
  8
0
 10
-8.63252
 20
-13.2929
 11
-9.31639
 21
-12.8229
  0
LINE
  8
0
 10
-9.31639
 20
-12.8229
 11
-9.97472
 21
-12.3177
  0
LINE
  8
0
 10
-9.97472
 20
-12.3177
 11
-10.018
 21
-12.2808
  0
LINE
  8
0
 10
-10.018
 20
-12.2808
 11
-13.6118
 21
-15.8745
  0
LINE
  8
0
 10
-13.6118
 20
-15.8745
 11
-15.8745
 21
-13.6118
  0
LINE
  8
0
 10
-15.8745
 20
-13.6118
 11
-12.2808
 21
-10.018
  0
LINE
  8
0
 10
-12.2808
 20
-10.018
 11
-12.3177
 21
-9.97472
  0
LINE
  8
0
 10
-12.3177
 20
-9.97472
 11
-12.8229
 21
-9.31639
  0
LINE
  8
0
 10
-12.8229
 20
-9.31639
 11
-13.2929
 21
-8.63252
  0
LINE
  8
0
 10
-13.2929
 20
-8.63252
 11
-13.7265
 21
-7.92499
  0
LINE
  8
0
 10
-13.7265
 20
-7.92499
 11
-14.1224
 21
-7.19574
  0
LINE
  8
0
 10
-14.1224
 20
-7.19574
 11
-14.4797
 21
-6.44676
  0
LINE
  8
0
 10
-14.4797
 20
-6.44676
 11
-14.7972
 21
-5.68013
  0
LINE
  8
0
 10
-14.7972
 20
-5.68013
 11
-15.0742
 21
-4.89792
  0
LINE
  8
0
 10
-15.0742
 20
-4.89792
 11
-15.3099
 21
-4.10228
  0
LINE
  8
0
 10
-15.3099
 20
-4.10228
 11
-15.5036
 21
-3.29539
  0
LINE
  8
0
 10
-15.5036
 20
-3.29539
 11
-15.6548
 21
-2.47948
  0
LINE
  8
0
 10
-15.6548
 20
-2.47948
 11
-15.7632
 21
-1.65677
  0
LINE
  8
0
 10
-15.7632
 20
-1.65677
 11
-15.8283
 21
-0.829514
  0
LINE
  8
0
 10
-15.8283
 20
-0.829514
 11
-15.85
 21
0
  0
LINE
  8
0
 10
-15.85
 20
0
 11
-15.8283
 21
0.829514
  0
LINE
  8
0
 10
-15.8283
 20
0.829514
 11
-15.7632
 21
1.65677
  0
LINE
  8
0
 10
-15.7632
 20
1.65677
 11
-15.6548
 21
2.47948
  0
LINE
  8
0
 10
-15.6548
 20
2.47948
 11
-15.5036
 21
3.29539
  0
LINE
  8
0
 10
-15.5036
 20
3.29539
 11
-15.3099
 21
4.10228
  0
LINE
  8
0
 10
-15.3099
 20
4.10228
 11
-15.0742
 21
4.89792
  0
LINE
  8
0
 10
-15.0742
 20
4.89792
 11
-14.7972
 21
5.68013
  0
LINE
  8
0
 10
-14.7972
 20
5.68013
 11
-14.4797
 21
6.44676
  0
LINE
  8
0
 10
-14.4797
 20
6.44676
 11
-14.1224
 21
7.19574
  0
LINE
  8
0
 10
-14.1224
 20
7.19574
 11
-13.7265
 21
7.92499
  0
LINE
  8
0
 10
-13.7265
 20
7.92499
 11
-13.2929
 21
8.63252
  0
LINE
  8
0
 10
-13.2929
 20
8.63252
 11
-12.8229
 21
9.31639
  0
LINE
  8
0
 10
-12.8229
 20
9.31639
 11
-12.3177
 21
9.97472
  0
LINE
  8
0
 10
-12.3177
 20
9.97472
 11
-12.2808
 21
10.018
  0
LINE
  8
0
 10
-12.2808
 20
10.018
 11
-15.8745
 21
13.6118
  0
LINE
  8
0
 10
-15.8745
 20
13.6118
 11
-13.6118
 21
15.8745
  0
LINE
  8
0
 10
-13.6118
 20
15.8745
 11
-10.018
 21
12.2808
  0
LINE
  8
0
 10
-10.018
 20
12.2808
 11
-9.97472
 21
12.3177
  0
LINE
  8
0
 10
-9.97472
 20
12.3177
 11
-9.31639
 21
12.8229
  0
LINE
  8
0
 10
-9.31639
 20
12.8229
 11
-8.63252
 21
13.2929
  0
LINE
  8
0
 10
-8.63252
 20
13.2929
 11
-7.92499
 21
13.7265
  0
LINE
  8
0
 10
-7.92499
 20
13.7265
 11
-7.19574
 21
14.1224
  0
LINE
  8
0
 10
-7.19574
 20
14.1224
 11
-6.44676
 21
14.4797
  0
LINE
  8
0
 10
-6.44676
 20
14.4797
 11
-5.68013
 21
14.7972
  0
LINE
  8
0
 10
-5.68013
 20
14.7972
 11
-4.89792
 21
15.0742
  0
LINE
  8
0
 10
-4.89792
 20
15.0742
 11
-4.10228
 21
15.3099
  0
LINE
  8
0
 10
-4.10228
 20
15.3099
 11
-3.29539
 21
15.5036
  0
LINE
  8
0
 10
-3.29539
 20
15.5036
 11
-2.47948
 21
15.6548
  0
LINE
  8
0
 10
-2.47948
 20
15.6548
 11
-1.65677
 21
15.7632
  0
LINE
  8
0
 10
-1.65677
 20
15.7632
 11
-0.829514
 21
15.8283
  0
LINE
  8
0
 10
-0.829514
 20
15.8283
 11
0
 21
15.85
  0
LINE
  8
0
 10
0
 20
15.85
 11
0.829514
 21
15.8283
  0
LINE
  8
0
 10
0.829514
 20
15.8283
 11
1.65677
 21
15.7632
  0
LINE
  8
0
 10
1.65677
 20
15.7632
 11
2.47948
 21
15.6548
  0
LINE
  8
0
 10
2.47948
 20
15.6548
 11
3.29539
 21
15.5036
  0
LINE
  8
0
 10
3.29539
 20
15.5036
 11
4.10228
 21
15.3099
  0
LINE
  8
0
 10
4.10228
 20
15.3099
 11
4.89792
 21
15.0742
  0
LINE
  8
0
 10
4.89792
 20
15.0742
 11
5.68013
 21
14.7972
  0
LINE
  8
0
 10
5.68013
 20
14.7972
 11
6.44676
 21
14.4797
  0
LINE
  8
0
 10
6.44676
 20
14.4797
 11
7.19574
 21
14.1224
  0
LINE
  8
0
 10
7.19574
 20
14.1224
 11
7.92499
 21
13.7265
  0
LINE
  8
0
 10
7.92499
 20
13.7265
 11
8.63252
 21
13.2929
  0
LINE
  8
0
 10
8.63252
 20
13.2929
 11
9.31639
 21
12.8229
  0
LINE
  8
0
 10
9.31639
 20
12.8229
 11
9.97472
 21
12.3177
  0
LINE
  8
0
 10
9.97472
 20
12.3177
 11
10.018
 21
12.2808
  0
LINE
  8
0
 10
10.018
 20
12.2808
 11
13.6118
 21
15.8745
  0
LINE
  8
0
 10
13.6118
 20
15.8745
 11
15.8745
 21
13.6118
  0
LINE
  8
0
 10
15.8745
 20
13.6118
 11
12.2808
 21
10.018
  0
LINE
  8
0
 10
12.2808
 20
10.018
 11
12.3177
 21
9.97472
  0
LINE
  8
0
 10
12.3177
 20
9.97472
 11
12.8229
 21
9.31639
  0
LINE
  8
0
 10
12.8229
 20
9.31639
 11
13.2929
 21
8.63252
  0
LINE
  8
0
 10
13.2929
 20
8.63252
 11
13.7265
 21
7.92499
  0
LINE
  8
0
 10
13.7265
 20
7.92499
 11
14.1224
 21
7.19574
  0
LINE
  8
0
 10
14.1224
 20
7.19574
 11
14.4797
 21
6.44676
  0
LINE
  8
0
 10
14.4797
 20
6.44676
 11
14.7972
 21
5.68013
  0
LINE
  8
0
 10
14.7972
 20
5.68013
 11
15.0742
 21
4.89792
  0
LINE
  8
0
 10
15.0742
 20
4.89792
 11
15.3099
 21
4.10228
  0
LINE
  8
0
 10
15.3099
 20
4.10228
 11
15.5036
 21
3.29539
  0
LINE
  8
0
 10
15.5036
 20
3.29539
 11
15.6548
 21
2.47948
  0
LINE
  8
0
 10
15.6548
 20
2.47948
 11
15.7632
 21
1.65677
  0
LINE
  8
0
 10
15.7632
 20
1.65677
 11
15.8283
 21
0.829514
  0
LINE
  8
0
 10
15.8283
 20
0.829514
 11
15.85
 21
0
  0
LINE
  8
0
 10
15.85
 20
0
 11
15.8283
 21
-0.829514
  0
LINE
  8
0
 10
15.8283
 20
-0.829514
 11
15.7632
 21
-1.65677
  0
LINE
  8
0
 10
15.7632
 20
-1.65677
 11
15.6548
 21
-2.47948
  0
LINE
  8
0
 10
15.6548
 20
-2.47948
 11
15.5036
 21
-3.29539
  0
LINE
  8
0
 10
15.5036
 20
-3.29539
 11
15.3099
 21
-4.10228
  0
LINE
  8
0
 10
15.3099
 20
-4.10228
 11
15.0742
 21
-4.89792
  0
LINE
  8
0
 10
15.0742
 20
-4.89792
 11
14.7972
 21
-5.68013
  0
LINE
  8
0
 10
14.7972
 20
-5.68013
 11
14.4797
 21
-6.44676
  0
LINE
  8
0
 10
14.4797
 20
-6.44676
 11
14.1224
 21
-7.19574
  0
LINE
  8
0
 10
14.1224
 20
-7.19574
 11
13.7265
 21
-7.92499
  0
LINE
  8
0
 10
13.7265
 20
-7.92499
 11
13.2929
 21
-8.63252
  0
LINE
  8
0
 10
13.2929
 20
-8.63252
 11
12.8229
 21
-9.31639
  0
LINE
  8
0
 10
12.8229
 20
-9.31639
 11
12.3177
 21
-9.97472
  0
LINE
  8
0
 10
12.3177
 20
-9.97472
 11
12.2808
 21
-10.018
  0
LINE
  8
0
 10
12.2808
 20
-10.018
 11
15.8745
 21
-13.6118
  0
LINE
  8
0
 10
15.8745
 20
-13.6118
 11
13.6118
 21
-15.8745
  0
LINE
  8
0
 10
13.6118
 20
-15.8745
 11
10.018
 21
-12.2808
  0
ENDSEC
  0
SECTION
  2
OBJECTS
  0
DICTIONARY
  0
ENDSEC
  0
EOF
