  0
SECTION
  2
BLOCKS
  0
ENDSEC
  0
SECTION
  2
ENTITIES
  0
LINE
  8
0
 10
110.557
 20
-25.3819
 11
111.195
 21
-25.3499
  0
LINE
  8
0
 10
111.195
 20
-25.3499
 11
111.831
 21
-25.3018
  0
LINE
  8
0
 10
111.831
 20
-25.3018
 11
112.467
 21
-25.2377
  0
LINE
  8
0
 10
112.467
 20
-25.2377
 11
113.1
 21
-25.1577
  0
LINE
  8
0
 10
113.1
 20
-25.1577
 11
113.731
 21
-25.0618
  0
LINE
  8
0
 10
113.731
 20
-25.0618
 11
114.359
 21
-24.9501
  0
LINE
  8
0
 10
114.359
 20
-24.9501
 11
114.985
 21
-24.8226
  0
LINE
  8
0
 10
114.985
 20
-24.8226
 11
115.607
 21
-24.6794
  0
LINE
  8
0
 10
115.607
 20
-24.6794
 11
116.225
 21
-24.5207
  0
LINE
  8
0
 10
116.225
 20
-24.5207
 11
116.839
 21
-24.3465
  0
LINE
  8
0
 10
116.839
 20
-24.3465
 11
117.449
 21
-24.1568
  0
LINE
  8
0
 10
117.449
 20
-24.1568
 11
118.054
 21
-23.952
  0
LINE
  8
0
 10
118.054
 20
-23.952
 11
118.653
 21
-23.7319
  0
LINE
  8
0
 10
118.653
 20
-23.7319
 11
119.246
 21
-23.4969
  0
LINE
  8
0
 10
119.246
 20
-23.4969
 11
119.834
 21
-23.2471
  0
LINE
  8
0
 10
119.834
 20
-23.2471
 11
120.415
 21
-22.9826
  0
LINE
  8
0
 10
120.415
 20
-22.9826
 11
120.989
 21
-22.7036
  0
LINE
  8
0
 10
120.989
 20
-22.7036
 11
121.556
 21
-22.4102
  0
LINE
  8
0
 10
121.556
 20
-22.4102
 11
122.115
 21
-22.1027
  0
LINE
  8
0
 10
122.115
 20
-22.1027
 11
122.667
 21
-21.7812
  0
LINE
  8
0
 10
122.667
 20
-21.7812
 11
123.21
 21
-21.4459
  0
LINE
  8
0
 10
123.21
 20
-21.4459
 11
123.745
 21
-21.0971
  0
LINE
  8
0
 10
123.745
 20
-21.0971
 11
124.27
 21
-20.735
  0
LINE
  8
0
 10
124.27
 20
-20.735
 11
124.787
 21
-20.3598
  0
LINE
  8
0
 10
124.787
 20
-20.3598
 11
125.294
 21
-19.9717
  0
LINE
  8
0
 10
125.294
 20
-19.9717
 11
125.791
 21
-19.571
  0
LINE
  8
0
 10
125.791
 20
-19.571
 11
126.277
 21
-19.158
  0
LINE
  8
0
 10
126.277
 20
-19.158
 11
126.753
 21
-18.7328
  0
LINE
  8
0
 10
126.753
 20
-18.7328
 11
127.219
 21
-18.2958
  0
LINE
  8
0
 10
127.219
 20
-18.2958
 11
127.673
 21
-17.8473
  0
LINE
  8
0
 10
127.673
 20
-17.8473
 11
128.116
 21
-17.3875
  0
LINE
  8
0
 10
128.116
 20
-17.3875
 11
128.547
 21
-16.9167
  0
LINE
  8
0
 10
128.547
 20
-16.9167
 11
128.966
 21
-16.4352
  0
LINE
  8
0
 10
128.966
 20
-16.4352
 11
129.373
 21
-15.9434
  0
LINE
  8
0
 10
129.373
 20
-15.9434
 11
129.767
 21
-15.4414
  0
LINE
  8
0
 10
129.767
 20
-15.4414
 11
130.149
 21
-14.9297
  0
LINE
  8
0
 10
130.149
 20
-14.9297
 11
130.518
 21
-14.4086
  0
LINE
  8
0
 10
130.518
 20
-14.4086
 11
130.873
 21
-13.8784
  0
LINE
  8
0
 10
130.873
 20
-13.8784
 11
131.215
 21
-13.3394
  0
LINE
  8
0
 10
131.215
 20
-13.3394
 11
131.544
 21
-12.792
  0
LINE
  8
0
 10
131.544
 20
-12.792
 11
131.858
 21
-12.2365
  0
LINE
  8
0
 10
131.858
 20
-12.2365
 11
132.159
 21
-11.6733
  0
LINE
  8
0
 10
132.159
 20
-11.6733
 11
132.445
 21
-11.1027
  0
LINE
  8
0
 10
132.445
 20
-11.1027
 11
132.717
 21
-10.5251
  0
LINE
  8
0
 10
132.717
 20
-10.5251
 11
132.974
 21
-9.94089
  0
LINE
  8
0
 10
132.974
 20
-9.94089
 11
133.216
 21
-9.35036
  0
LINE
  8
0
 10
133.216
 20
-9.35036
 11
133.444
 21
-8.75392
  0
LINE
  8
0
 10
133.444
 20
-8.75392
 11
133.656
 21
-8.15196
  0
LINE
  8
0
 10
133.656
 20
-8.15196
 11
133.854
 21
-7.54485
  0
LINE
  8
0
 10
133.854
 20
-7.54485
 11
134.036
 21
-6.93297
  0
LINE
  8
0
 10
134.036
 20
-6.93297
 11
134.202
 21
-6.31671
  0
LINE
  8
0
 10
134.202
 20
-6.31671
 11
134.353
 21
-5.69647
  0
LINE
  8
0
 10
134.353
 20
-5.69647
 11
134.488
 21
-5.07263
  0
LINE
  8
0
 10
134.488
 20
-5.07263
 11
134.608
 21
-4.44557
  0
LINE
  8
0
 10
134.608
 20
-4.44557
 11
134.712
 21
-3.81572
  0
LINE
  8
0
 10
134.712
 20
-3.81572
 11
134.8
 21
-3.18346
  0
LINE
  8
0
 10
134.8
 20
-3.18346
 11
134.872
 21
-2.54918
  0
LINE
  8
0
 10
134.872
 20
-2.54918
 11
134.928
 21
-1.9133
  0
LINE
  8
0
 10
134.928
 20
-1.9133
 11
134.968
 21
-1.2762
  0
LINE
  8
0
 10
134.968
 20
-1.2762
 11
134.992
 21
-0.63829
  0
LINE
  8
0
 10
134.992
 20
-0.63829
 11
135
 21
0
  0
LINE
  8
0
 10
135
 20
0
 11
134.992
 21
0.63829
  0
LINE
  8
0
 10
134.992
 20
0.63829
 11
134.968
 21
1.2762
  0
LINE
  8
0
 10
134.968
 20
1.2762
 11
134.928
 21
1.9133
  0
LINE
  8
0
 10
134.928
 20
1.9133
 11
134.872
 21
2.54918
  0
LINE
  8
0
 10
134.872
 20
2.54918
 11
134.8
 21
3.18346
  0
LINE
  8
0
 10
134.8
 20
3.18346
 11
134.712
 21
3.81572
  0
LINE
  8
0
 10
134.712
 20
3.81572
 11
134.608
 21
4.44557
  0
LINE
  8
0
 10
134.608
 20
4.44557
 11
134.488
 21
5.07263
  0
LINE
  8
0
 10
134.488
 20
5.07263
 11
134.353
 21
5.69647
  0
LINE
  8
0
 10
134.353
 20
5.69647
 11
134.202
 21
6.31671
  0
LINE
  8
0
 10
134.202
 20
6.31671
 11
134.036
 21
6.93297
  0
LINE
  8
0
 10
134.036
 20
6.93297
 11
133.854
 21
7.54485
  0
LINE
  8
0
 10
133.854
 20
7.54485
 11
133.656
 21
8.15196
  0
LINE
  8
0
 10
133.656
 20
8.15196
 11
133.444
 21
8.75392
  0
LINE
  8
0
 10
133.444
 20
8.75392
 11
133.216
 21
9.35036
  0
LINE
  8
0
 10
133.216
 20
9.35036
 11
132.974
 21
9.94089
  0
LINE
  8
0
 10
132.974
 20
9.94089
 11
132.717
 21
10.5251
  0
LINE
  8
0
 10
132.717
 20
10.5251
 11
132.445
 21
11.1027
  0
LINE
  8
0
 10
132.445
 20
11.1027
 11
132.159
 21
11.6733
  0
LINE
  8
0
 10
132.159
 20
11.6733
 11
131.858
 21
12.2365
  0
LINE
  8
0
 10
131.858
 20
12.2365
 11
131.544
 21
12.792
  0
LINE
  8
0
 10
131.544
 20
12.792
 11
131.215
 21
13.3394
  0
LINE
  8
0
 10
131.215
 20
13.3394
 11
130.873
 21
13.8784
  0
LINE
  8
0
 10
130.873
 20
13.8784
 11
130.518
 21
14.4086
  0
LINE
  8
0
 10
130.518
 20
14.4086
 11
130.149
 21
14.9297
  0
LINE
  8
0
 10
130.149
 20
14.9297
 11
129.767
 21
15.4414
  0
LINE
  8
0
 10
129.767
 20
15.4414
 11
129.373
 21
15.9434
  0
LINE
  8
0
 10
129.373
 20
15.9434
 11
128.966
 21
16.4352
  0
LINE
  8
0
 10
128.966
 20
16.4352
 11
128.547
 21
16.9167
  0
LINE
  8
0
 10
128.547
 20
16.9167
 11
128.116
 21
17.3875
  0
LINE
  8
0
 10
128.116
 20
17.3875
 11
127.673
 21
17.8473
  0
LINE
  8
0
 10
127.673
 20
17.8473
 11
127.219
 21
18.2958
  0
LINE
  8
0
 10
127.219
 20
18.2958
 11
126.753
 21
18.7328
  0
LINE
  8
0
 10
126.753
 20
18.7328
 11
126.277
 21
19.158
  0
LINE
  8
0
 10
126.277
 20
19.158
 11
125.791
 21
19.571
  0
LINE
  8
0
 10
125.791
 20
19.571
 11
125.294
 21
19.9717
  0
LINE
  8
0
 10
125.294
 20
19.9717
 11
124.787
 21
20.3598
  0
LINE
  8
0
 10
124.787
 20
20.3598
 11
124.27
 21
20.735
  0
LINE
  8
0
 10
124.27
 20
20.735
 11
123.745
 21
21.0971
  0
LINE
  8
0
 10
123.745
 20
21.0971
 11
123.21
 21
21.4459
  0
LINE
  8
0
 10
123.21
 20
21.4459
 11
122.667
 21
21.7812
  0
LINE
  8
0
 10
122.667
 20
21.7812
 11
122.115
 21
22.1027
  0
LINE
  8
0
 10
122.115
 20
22.1027
 11
121.556
 21
22.4102
  0
LINE
  8
0
 10
121.556
 20
22.4102
 11
120.989
 21
22.7036
  0
LINE
  8
0
 10
120.989
 20
22.7036
 11
120.415
 21
22.9826
  0
LINE
  8
0
 10
120.415
 20
22.9826
 11
119.834
 21
23.2471
  0
LINE
  8
0
 10
119.834
 20
23.2471
 11
119.246
 21
23.4969
  0
LINE
  8
0
 10
119.246
 20
23.4969
 11
118.653
 21
23.7319
  0
LINE
  8
0
 10
118.653
 20
23.7319
 11
118.054
 21
23.952
  0
LINE
  8
0
 10
118.054
 20
23.952
 11
117.449
 21
24.1568
  0
LINE
  8
0
 10
117.449
 20
24.1568
 11
116.839
 21
24.3465
  0
LINE
  8
0
 10
116.839
 20
24.3465
 11
116.225
 21
24.5207
  0
LINE
  8
0
 10
116.225
 20
24.5207
 11
115.607
 21
24.6794
  0
LINE
  8
0
 10
115.607
 20
24.6794
 11
114.985
 21
24.8226
  0
LINE
  8
0
 10
114.985
 20
24.8226
 11
114.359
 21
24.9501
  0
LINE
  8
0
 10
114.359
 20
24.9501
 11
113.731
 21
25.0618
  0
LINE
  8
0
 10
113.731
 20
25.0618
 11
113.1
 21
25.1577
  0
LINE
  8
0
 10
113.1
 20
25.1577
 11
112.467
 21
25.2377
  0
LINE
  8
0
 10
112.467
 20
25.2377
 11
111.831
 21
25.3018
  0
LINE
  8
0
 10
111.831
 20
25.3018
 11
111.195
 21
25.3499
  0
LINE
  8
0
 10
111.195
 20
25.3499
 11
110.557
 21
25.3819
  0
LINE
  8
0
 10
110.557
 20
25.3819
 11
109.919
 21
25.398
  0
LINE
  8
0
 10
109.919
 20
25.398
 11
109.281
 21
25.398
  0
LINE
  8
0
 10
109.281
 20
25.398
 11
108.643
 21
25.3819
  0
LINE
  8
0
 10
108.643
 20
25.3819
 11
108.005
 21
25.3499
  0
LINE
  8
0
 10
108.005
 20
25.3499
 11
107.369
 21
25.3018
  0
LINE
  8
0
 10
107.369
 20
25.3018
 11
106.733
 21
25.2377
  0
LINE
  8
0
 10
106.733
 20
25.2377
 11
106.1
 21
25.1577
  0
LINE
  8
0
 10
106.1
 20
25.1577
 11
105.469
 21
25.0618
  0
LINE
  8
0
 10
105.469
 20
25.0618
 11
104.841
 21
24.9501
  0
LINE
  8
0
 10
104.841
 20
24.9501
 11
104.215
 21
24.8226
  0
LINE
  8
0
 10
104.215
 20
24.8226
 11
103.593
 21
24.6794
  0
LINE
  8
0
 10
103.593
 20
24.6794
 11
102.975
 21
24.5207
  0
LINE
  8
0
 10
102.975
 20
24.5207
 11
102.361
 21
24.3465
  0
LINE
  8
0
 10
102.361
 20
24.3465
 11
101.751
 21
24.1568
  0
LINE
  8
0
 10
101.751
 20
24.1568
 11
101.146
 21
23.952
  0
LINE
  8
0
 10
101.146
 20
23.952
 11
100.547
 21
23.7319
  0
LINE
  8
0
 10
100.547
 20
23.7319
 11
99.9536
 21
23.4969
  0
LINE
  8
0
 10
99.9536
 20
23.4969
 11
99.3662
 21
23.2471
  0
LINE
  8
0
 10
99.3662
 20
23.2471
 11
98.7852
 21
22.9826
  0
LINE
  8
0
 10
98.7852
 20
22.9826
 11
98.2111
 21
22.7036
  0
LINE
  8
0
 10
98.2111
 20
22.7036
 11
97.6441
 21
22.4102
  0
LINE
  8
0
 10
97.6441
 20
22.4102
 11
97.0847
 21
22.1027
  0
LINE
  8
0
 10
97.0847
 20
22.1027
 11
96.5332
 21
21.7812
  0
LINE
  8
0
 10
96.5332
 20
21.7812
 11
95.99
 21
21.4459
  0
LINE
  8
0
 10
95.99
 20
21.4459
 11
95.4554
 21
21.0971
  0
LINE
  8
0
 10
95.4554
 20
21.0971
 11
94.9297
 21
20.735
  0
LINE
  8
0
 10
94.9297
 20
20.735
 11
94.4132
 21
20.3598
  0
LINE
  8
0
 10
94.4132
 20
20.3598
 11
93.9064
 21
19.9717
  0
LINE
  8
0
 10
93.9064
 20
19.9717
 11
93.4094
 21
19.571
  0
LINE
  8
0
 10
93.4094
 20
19.571
 11
92.9227
 21
19.158
  0
LINE
  8
0
 10
92.9227
 20
19.158
 11
92.4465
 21
18.7328
  0
LINE
  8
0
 10
92.4465
 20
18.7328
 11
91.9812
 21
18.2958
  0
LINE
  8
0
 10
91.9812
 20
18.2958
 11
91.527
 21
17.8473
  0
LINE
  8
0
 10
91.527
 20
17.8473
 11
91.0842
 21
17.3875
  0
LINE
  8
0
 10
91.0842
 20
17.3875
 11
90.6531
 21
16.9167
  0
LINE
  8
0
 10
90.6531
 20
16.9167
 11
90.234
 21
16.4352
  0
LINE
  8
0
 10
90.234
 20
16.4352
 11
89.8271
 21
15.9434
  0
LINE
  8
0
 10
89.8271
 20
15.9434
 11
89.4326
 21
15.4414
  0
LINE
  8
0
 10
89.4326
 20
15.4414
 11
89.051
 21
14.9297
  0
LINE
  8
0
 10
89.051
 20
14.9297
 11
88.6823
 21
14.4086
  0
LINE
  8
0
 10
88.6823
 20
14.4086
 11
88.3268
 21
13.8784
  0
LINE
  8
0
 10
88.3268
 20
13.8784
 11
87.9847
 21
13.3394
  0
LINE
  8
0
 10
87.9847
 20
13.3394
 11
87.6563
 21
12.792
  0
LINE
  8
0
 10
87.6563
 20
12.792
 11
87.3418
 21
12.2365
  0
LINE
  8
0
 10
87.3418
 20
12.2365
 11
87.0413
 21
11.6733
  0
LINE
  8
0
 10
87.0413
 20
11.6733
 11
86.7551
 21
11.1027
  0
LINE
  8
0
 10
86.7551
 20
11.1027
 11
86.4833
 21
10.5251
  0
LINE
  8
0
 10
86.4833
 20
10.5251
 11
86.2261
 21
9.94089
  0
LINE
  8
0
 10
86.2261
 20
9.94089
 11
85.9837
 21
9.35036
  0
LINE
  8
0
 10
85.9837
 20
9.35036
 11
85.7562
 21
8.75392
  0
LINE
  8
0
 10
85.7562
 20
8.75392
 11
85.5437
 21
8.15196
  0
LINE
  8
0
 10
85.5437
 20
8.15196
 11
85.3464
 21
7.54485
  0
LINE
  8
0
 10
85.3464
 20
7.54485
 11
85.1645
 21
6.93297
  0
LINE
  8
0
 10
85.1645
 20
6.93297
 11
84.998
 21
6.31671
  0
LINE
  8
0
 10
84.998
 20
6.31671
 11
84.847
 21
5.69647
  0
LINE
  8
0
 10
84.847
 20
5.69647
 11
84.7117
 21
5.07263
  0
LINE
  8
0
 10
84.7117
 20
5.07263
 11
84.5921
 21
4.44557
  0
LINE
  8
0
 10
84.5921
 20
4.44557
 11
84.4883
 21
3.81572
  0
LINE
  8
0
 10
84.4883
 20
3.81572
 11
84.4003
 21
3.18346
  0
LINE
  8
0
 10
84.4003
 20
3.18346
 11
84.3282
 21
2.54918
  0
LINE
  8
0
 10
84.3282
 20
2.54918
 11
84.2722
 21
1.9133
  0
LINE
  8
0
 10
84.2722
 20
1.9133
 11
84.2321
 21
1.2762
  0
LINE
  8
0
 10
84.2321
 20
1.2762
 11
84.208
 21
0.63829
  0
LINE
  8
0
 10
84.208
 20
0.63829
 11
84.2
 21
0
  0
LINE
  8
0
 10
84.2
 20
0
 11
84.208
 21
-0.63829
  0
LINE
  8
0
 10
84.208
 20
-0.63829
 11
84.2321
 21
-1.2762
  0
LINE
  8
0
 10
84.2321
 20
-1.2762
 11
84.2722
 21
-1.9133
  0
LINE
  8
0
 10
84.2722
 20
-1.9133
 11
84.3282
 21
-2.54918
  0
LINE
  8
0
 10
84.3282
 20
-2.54918
 11
84.4003
 21
-3.18346
  0
LINE
  8
0
 10
84.4003
 20
-3.18346
 11
84.4883
 21
-3.81572
  0
LINE
  8
0
 10
84.4883
 20
-3.81572
 11
84.5921
 21
-4.44557
  0
LINE
  8
0
 10
84.5921
 20
-4.44557
 11
84.7117
 21
-5.07263
  0
LINE
  8
0
 10
84.7117
 20
-5.07263
 11
84.847
 21
-5.69647
  0
LINE
  8
0
 10
84.847
 20
-5.69647
 11
84.998
 21
-6.31671
  0
LINE
  8
0
 10
84.998
 20
-6.31671
 11
85.1645
 21
-6.93297
  0
LINE
  8
0
 10
85.1645
 20
-6.93297
 11
85.3464
 21
-7.54485
  0
LINE
  8
0
 10
85.3464
 20
-7.54485
 11
85.5437
 21
-8.15196
  0
LINE
  8
0
 10
85.5437
 20
-8.15196
 11
85.7562
 21
-8.75392
  0
LINE
  8
0
 10
85.7562
 20
-8.75392
 11
85.9837
 21
-9.35036
  0
LINE
  8
0
 10
85.9837
 20
-9.35036
 11
86.2261
 21
-9.94089
  0
LINE
  8
0
 10
86.2261
 20
-9.94089
 11
86.4833
 21
-10.5251
  0
LINE
  8
0
 10
86.4833
 20
-10.5251
 11
86.7551
 21
-11.1027
  0
LINE
  8
0
 10
86.7551
 20
-11.1027
 11
87.0413
 21
-11.6733
  0
LINE
  8
0
 10
87.0413
 20
-11.6733
 11
87.3418
 21
-12.2365
  0
LINE
  8
0
 10
87.3418
 20
-12.2365
 11
87.6563
 21
-12.792
  0
LINE
  8
0
 10
87.6563
 20
-12.792
 11
87.9847
 21
-13.3394
  0
LINE
  8
0
 10
87.9847
 20
-13.3394
 11
88.3268
 21
-13.8784
  0
LINE
  8
0
 10
88.3268
 20
-13.8784
 11
88.6823
 21
-14.4086
  0
LINE
  8
0
 10
88.6823
 20
-14.4086
 11
89.051
 21
-14.9297
  0
LINE
  8
0
 10
89.051
 20
-14.9297
 11
89.4326
 21
-15.4414
  0
LINE
  8
0
 10
89.4326
 20
-15.4414
 11
89.8271
 21
-15.9434
  0
LINE
  8
0
 10
89.8271
 20
-15.9434
 11
90.234
 21
-16.4352
  0
LINE
  8
0
 10
90.234
 20
-16.4352
 11
90.6531
 21
-16.9167
  0
LINE
  8
0
 10
90.6531
 20
-16.9167
 11
91.0842
 21
-17.3875
  0
LINE
  8
0
 10
91.0842
 20
-17.3875
 11
91.527
 21
-17.8473
  0
LINE
  8
0
 10
91.527
 20
-17.8473
 11
91.9812
 21
-18.2958
  0
LINE
  8
0
 10
91.9812
 20
-18.2958
 11
92.4465
 21
-18.7328
  0
LINE
  8
0
 10
92.4465
 20
-18.7328
 11
92.9227
 21
-19.158
  0
LINE
  8
0
 10
92.9227
 20
-19.158
 11
93.4094
 21
-19.571
  0
LINE
  8
0
 10
93.4094
 20
-19.571
 11
93.9064
 21
-19.9717
  0
LINE
  8
0
 10
93.9064
 20
-19.9717
 11
94.4132
 21
-20.3598
  0
LINE
  8
0
 10
94.4132
 20
-20.3598
 11
94.9297
 21
-20.735
  0
LINE
  8
0
 10
94.9297
 20
-20.735
 11
95.4554
 21
-21.0971
  0
LINE
  8
0
 10
95.4554
 20
-21.0971
 11
95.99
 21
-21.4459
  0
LINE
  8
0
 10
95.99
 20
-21.4459
 11
96.5332
 21
-21.7812
  0
LINE
  8
0
 10
96.5332
 20
-21.7812
 11
97.0847
 21
-22.1027
  0
LINE
  8
0
 10
97.0847
 20
-22.1027
 11
97.6441
 21
-22.4102
  0
LINE
  8
0
 10
97.6441
 20
-22.4102
 11
98.2111
 21
-22.7036
  0
LINE
  8
0
 10
98.2111
 20
-22.7036
 11
98.7852
 21
-22.9826
  0
LINE
  8
0
 10
98.7852
 20
-22.9826
 11
99.3662
 21
-23.2471
  0
LINE
  8
0
 10
99.3662
 20
-23.2471
 11
99.9536
 21
-23.4969
  0
LINE
  8
0
 10
99.9536
 20
-23.4969
 11
100.547
 21
-23.7319
  0
LINE
  8
0
 10
100.547
 20
-23.7319
 11
101.146
 21
-23.952
  0
LINE
  8
0
 10
101.146
 20
-23.952
 11
101.751
 21
-24.1568
  0
LINE
  8
0
 10
101.751
 20
-24.1568
 11
102.361
 21
-24.3465
  0
LINE
  8
0
 10
102.361
 20
-24.3465
 11
102.975
 21
-24.5207
  0
LINE
  8
0
 10
102.975
 20
-24.5207
 11
103.593
 21
-24.6794
  0
LINE
  8
0
 10
103.593
 20
-24.6794
 11
104.215
 21
-24.8226
  0
LINE
  8
0
 10
104.215
 20
-24.8226
 11
104.841
 21
-24.9501
  0
LINE
  8
0
 10
104.841
 20
-24.9501
 11
105.469
 21
-25.0618
  0
LINE
  8
0
 10
105.469
 20
-25.0618
 11
106.1
 21
-25.1577
  0
LINE
  8
0
 10
106.1
 20
-25.1577
 11
106.733
 21
-25.2377
  0
LINE
  8
0
 10
106.733
 20
-25.2377
 11
107.369
 21
-25.3018
  0
LINE
  8
0
 10
107.369
 20
-25.3018
 11
108.005
 21
-25.3499
  0
LINE
  8
0
 10
108.005
 20
-25.3499
 11
108.643
 21
-25.3819
  0
LINE
  8
0
 10
108.643
 20
-25.3819
 11
109.281
 21
-25.398
  0
LINE
  8
0
 10
109.281
 20
-25.398
 11
109.919
 21
-25.398
  0
LINE
  8
0
 10
109.919
 20
-25.398
 11
110.557
 21
-25.3819
  0
LINE
  8
0
 10
109.407
 20
-15.3488
 11
109.021
 21
-15.3391
  0
LINE
  8
0
 10
109.021
 20
-15.3391
 11
108.636
 21
-15.3197
  0
LINE
  8
0
 10
108.636
 20
-15.3197
 11
108.251
 21
-15.2906
  0
LINE
  8
0
 10
108.251
 20
-15.2906
 11
107.868
 21
-15.2519
  0
LINE
  8
0
 10
107.868
 20
-15.2519
 11
107.485
 21
-15.2036
  0
LINE
  8
0
 10
107.485
 20
-15.2036
 11
107.104
 21
-15.1456
  0
LINE
  8
0
 10
107.104
 20
-15.1456
 11
106.724
 21
-15.0781
  0
LINE
  8
0
 10
106.724
 20
-15.0781
 11
106.346
 21
-15.0011
  0
LINE
  8
0
 10
106.346
 20
-15.0011
 11
105.97
 21
-14.9145
  0
LINE
  8
0
 10
105.97
 20
-14.9145
 11
105.596
 21
-14.8186
  0
LINE
  8
0
 10
105.596
 20
-14.8186
 11
105.225
 21
-14.7133
  0
LINE
  8
0
 10
105.225
 20
-14.7133
 11
104.857
 21
-14.5987
  0
LINE
  8
0
 10
104.857
 20
-14.5987
 11
104.491
 21
-14.4749
  0
LINE
  8
0
 10
104.491
 20
-14.4749
 11
104.129
 21
-14.3419
  0
LINE
  8
0
 10
104.129
 20
-14.3419
 11
103.77
 21
-14.1999
  0
LINE
  8
0
 10
103.77
 20
-14.1999
 11
103.415
 21
-14.049
  0
LINE
  8
0
 10
103.415
 20
-14.049
 11
103.064
 21
-13.8891
  0
LINE
  8
0
 10
103.064
 20
-13.8891
 11
102.717
 21
-13.7205
  0
LINE
  8
0
 10
102.717
 20
-13.7205
 11
102.375
 21
-13.5432
  0
LINE
  8
0
 10
102.375
 20
-13.5432
 11
102.037
 21
-13.3573
  0
LINE
  8
0
 10
102.037
 20
-13.3573
 11
101.703
 21
-13.163
  0
LINE
  8
0
 10
101.703
 20
-13.163
 11
101.375
 21
-12.9604
  0
LINE
  8
0
 10
101.375
 20
-12.9604
 11
101.052
 21
-12.7496
  0
LINE
  8
0
 10
101.052
 20
-12.7496
 11
100.734
 21
-12.5308
  0
LINE
  8
0
 10
100.734
 20
-12.5308
 11
100.422
 21
-12.304
  0
LINE
  8
0
 10
100.422
 20
-12.304
 11
100.116
 21
-12.0695
  0
LINE
  8
0
 10
100.116
 20
-12.0695
 11
99.8155
 21
-11.8274
  0
LINE
  8
0
 10
99.8155
 20
-11.8274
 11
99.5214
 21
-11.5777
  0
LINE
  8
0
 10
99.5214
 20
-11.5777
 11
99.2336
 21
-11.3208
  0
LINE
  8
0
 10
99.2336
 20
-11.3208
 11
98.9524
 21
-11.0567
  0
LINE
  8
0
 10
98.9524
 20
-11.0567
 11
98.6779
 21
-10.7857
  0
LINE
  8
0
 10
98.6779
 20
-10.7857
 11
98.4103
 21
-10.5078
  0
LINE
  8
0
 10
98.4103
 20
-10.5078
 11
98.1498
 21
-10.2233
  0
LINE
  8
0
 10
98.1498
 20
-10.2233
 11
97.8965
 21
-9.9323
  0
LINE
  8
0
 10
97.8965
 20
-9.9323
 11
97.6506
 21
-9.63506
  0
LINE
  8
0
 10
97.6506
 20
-9.63506
 11
97.4122
 21
-9.33173
  0
LINE
  8
0
 10
97.4122
 20
-9.33173
 11
97.1816
 21
-9.02249
  0
LINE
  8
0
 10
97.1816
 20
-9.02249
 11
97.179
 21
-9.01878
  0
LINE
  8
0
 10
97.179
 20
-9.01878
 11
92.7764
 21
-11.5606
  0
LINE
  8
0
 10
92.7764
 20
-11.5606
 11
91.1764
 21
-8.78935
  0
LINE
  8
0
 10
91.1764
 20
-8.78935
 11
95.5798
 21
-6.24701
  0
LINE
  8
0
 10
95.5798
 20
-6.24701
 11
95.4744
 21
-6.00758
  0
LINE
  8
0
 10
95.4744
 20
-6.00758
 11
95.3279
 21
-5.65071
  0
LINE
  8
0
 10
95.3279
 20
-5.65071
 11
95.1904
 21
-5.29027
  0
LINE
  8
0
 10
95.1904
 20
-5.29027
 11
95.062
 21
-4.92648
  0
LINE
  8
0
 10
95.062
 20
-4.92648
 11
94.9428
 21
-4.55959
  0
LINE
  8
0
 10
94.9428
 20
-4.55959
 11
94.8329
 21
-4.1898
  0
LINE
  8
0
 10
94.8329
 20
-4.1898
 11
94.7323
 21
-3.81738
  0
LINE
  8
0
 10
94.7323
 20
-3.81738
 11
94.641
 21
-3.44255
  0
LINE
  8
0
 10
94.641
 20
-3.44255
 11
94.5592
 21
-3.06554
  0
LINE
  8
0
 10
94.5592
 20
-3.06554
 11
94.4869
 21
-2.6866
  0
LINE
  8
0
 10
94.4869
 20
-2.6866
 11
94.4242
 21
-2.30595
  0
LINE
  8
0
 10
94.4242
 20
-2.30595
 11
94.371
 21
-1.92386
  0
LINE
  8
0
 10
94.371
 20
-1.92386
 11
94.3275
 21
-1.54054
  0
LINE
  8
0
 10
94.3275
 20
-1.54054
 11
94.2936
 21
-1.15627
  0
LINE
  8
0
 10
94.2936
 20
-1.15627
 11
94.2694
 21
-0.77124
  0
LINE
  8
0
 10
94.2694
 20
-0.77124
 11
94.2549
 21
-0.385742
  0
LINE
  8
0
 10
94.2549
 20
-0.385742
 11
94.25
 21
0
  0
LINE
  8
0
 10
94.25
 20
0
 11
94.2549
 21
0.385742
  0
LINE
  8
0
 10
94.2549
 20
0.385742
 11
94.2694
 21
0.77124
  0
LINE
  8
0
 10
94.2694
 20
0.77124
 11
94.2936
 21
1.15627
  0
LINE
  8
0
 10
94.2936
 20
1.15627
 11
94.3275
 21
1.54054
  0
LINE
  8
0
 10
94.3275
 20
1.54054
 11
94.371
 21
1.92386
  0
LINE
  8
0
 10
94.371
 20
1.92386
 11
94.4242
 21
2.30595
  0
LINE
  8
0
 10
94.4242
 20
2.30595
 11
94.4869
 21
2.6866
  0
LINE
  8
0
 10
94.4869
 20
2.6866
 11
94.5592
 21
3.06554
  0
LINE
  8
0
 10
94.5592
 20
3.06554
 11
94.641
 21
3.44255
  0
LINE
  8
0
 10
94.641
 20
3.44255
 11
94.7323
 21
3.81738
  0
LINE
  8
0
 10
94.7323
 20
3.81738
 11
94.8329
 21
4.1898
  0
LINE
  8
0
 10
94.8329
 20
4.1898
 11
94.9428
 21
4.55959
  0
LINE
  8
0
 10
94.9428
 20
4.55959
 11
95.062
 21
4.92648
  0
LINE
  8
0
 10
95.062
 20
4.92648
 11
95.1904
 21
5.29027
  0
LINE
  8
0
 10
95.1904
 20
5.29027
 11
95.3279
 21
5.65071
  0
LINE
  8
0
 10
95.3279
 20
5.65071
 11
95.4744
 21
6.00758
  0
LINE
  8
0
 10
95.4744
 20
6.00758
 11
95.6299
 21
6.36066
  0
LINE
  8
0
 10
95.6299
 20
6.36066
 11
95.7941
 21
6.70972
  0
LINE
  8
0
 10
95.7941
 20
6.70972
 11
95.9671
 21
7.05455
  0
LINE
  8
0
 10
95.9671
 20
7.05455
 11
96.1487
 21
7.39491
  0
LINE
  8
0
 10
96.1487
 20
7.39491
 11
96.3388
 21
7.73061
  0
LINE
  8
0
 10
96.3388
 20
7.73061
 11
96.5372
 21
8.06142
  0
LINE
  8
0
 10
96.5372
 20
8.06142
 11
96.7439
 21
8.38715
  0
LINE
  8
0
 10
96.7439
 20
8.38715
 11
96.9588
 21
8.70757
  0
LINE
  8
0
 10
96.9588
 20
8.70757
 11
97.1816
 21
9.02249
  0
LINE
  8
0
 10
97.1816
 20
9.02249
 11
97.4122
 21
9.33173
  0
LINE
  8
0
 10
97.4122
 20
9.33173
 11
97.6506
 21
9.63506
  0
LINE
  8
0
 10
97.6506
 20
9.63506
 11
97.8965
 21
9.9323
  0
LINE
  8
0
 10
97.8965
 20
9.9323
 11
98.1498
 21
10.2233
  0
LINE
  8
0
 10
98.1498
 20
10.2233
 11
98.4103
 21
10.5078
  0
LINE
  8
0
 10
98.4103
 20
10.5078
 11
98.6779
 21
10.7857
  0
LINE
  8
0
 10
98.6779
 20
10.7857
 11
98.9524
 21
11.0567
  0
LINE
  8
0
 10
98.9524
 20
11.0567
 11
99.2336
 21
11.3208
  0
LINE
  8
0
 10
99.2336
 20
11.3208
 11
99.5214
 21
11.5777
  0
LINE
  8
0
 10
99.5214
 20
11.5777
 11
99.8155
 21
11.8274
  0
LINE
  8
0
 10
99.8155
 20
11.8274
 11
100.116
 21
12.0695
  0
LINE
  8
0
 10
100.116
 20
12.0695
 11
100.422
 21
12.304
  0
LINE
  8
0
 10
100.422
 20
12.304
 11
100.734
 21
12.5308
  0
LINE
  8
0
 10
100.734
 20
12.5308
 11
101.052
 21
12.7496
  0
LINE
  8
0
 10
101.052
 20
12.7496
 11
101.375
 21
12.9604
  0
LINE
  8
0
 10
101.375
 20
12.9604
 11
101.703
 21
13.163
  0
LINE
  8
0
 10
101.703
 20
13.163
 11
102.037
 21
13.3573
  0
LINE
  8
0
 10
102.037
 20
13.3573
 11
102.375
 21
13.5432
  0
LINE
  8
0
 10
102.375
 20
13.5432
 11
102.717
 21
13.7205
  0
LINE
  8
0
 10
102.717
 20
13.7205
 11
103.064
 21
13.8891
  0
LINE
  8
0
 10
103.064
 20
13.8891
 11
103.415
 21
14.049
  0
LINE
  8
0
 10
103.415
 20
14.049
 11
103.77
 21
14.1999
  0
LINE
  8
0
 10
103.77
 20
14.1999
 11
104.129
 21
14.3419
  0
LINE
  8
0
 10
104.129
 20
14.3419
 11
104.491
 21
14.4749
  0
LINE
  8
0
 10
104.491
 20
14.4749
 11
104.857
 21
14.5987
  0
LINE
  8
0
 10
104.857
 20
14.5987
 11
105.225
 21
14.7133
  0
LINE
  8
0
 10
105.225
 20
14.7133
 11
105.596
 21
14.8186
  0
LINE
  8
0
 10
105.596
 20
14.8186
 11
105.97
 21
14.9145
  0
LINE
  8
0
 10
105.97
 20
14.9145
 11
106.346
 21
15.0011
  0
LINE
  8
0
 10
106.346
 20
15.0011
 11
106.724
 21
15.0781
  0
LINE
  8
0
 10
106.724
 20
15.0781
 11
107.104
 21
15.1456
  0
LINE
  8
0
 10
107.104
 20
15.1456
 11
107.485
 21
15.2036
  0
LINE
  8
0
 10
107.485
 20
15.2036
 11
107.868
 21
15.2519
  0
LINE
  8
0
 10
107.868
 20
15.2519
 11
108
 21
15.2653
  0
LINE
  8
0
 10
108
 20
15.2653
 11
108
 21
20.35
  0
LINE
  8
0
 10
108
 20
20.35
 11
111.2
 21
20.35
  0
LINE
  8
0
 10
111.2
 20
20.35
 11
111.2
 21
15.2653
  0
LINE
  8
0
 10
111.2
 20
15.2653
 11
111.332
 21
15.2519
  0
LINE
  8
0
 10
111.332
 20
15.2519
 11
111.715
 21
15.2036
  0
LINE
  8
0
 10
111.715
 20
15.2036
 11
112.096
 21
15.1456
  0
LINE
  8
0
 10
112.096
 20
15.1456
 11
112.476
 21
15.0781
  0
LINE
  8
0
 10
112.476
 20
15.0781
 11
112.854
 21
15.0011
  0
LINE
  8
0
 10
112.854
 20
15.0011
 11
113.23
 21
14.9145
  0
LINE
  8
0
 10
113.23
 20
14.9145
 11
113.604
 21
14.8186
  0
LINE
  8
0
 10
113.604
 20
14.8186
 11
113.975
 21
14.7133
  0
LINE
  8
0
 10
113.975
 20
14.7133
 11
114.343
 21
14.5987
  0
LINE
  8
0
 10
114.343
 20
14.5987
 11
114.709
 21
14.4749
  0
LINE
  8
0
 10
114.709
 20
14.4749
 11
115.071
 21
14.3419
  0
LINE
  8
0
 10
115.071
 20
14.3419
 11
115.43
 21
14.1999
  0
LINE
  8
0
 10
115.43
 20
14.1999
 11
115.785
 21
14.049
  0
LINE
  8
0
 10
115.785
 20
14.049
 11
116.136
 21
13.8891
  0
LINE
  8
0
 10
116.136
 20
13.8891
 11
116.483
 21
13.7205
  0
LINE
  8
0
 10
116.483
 20
13.7205
 11
116.825
 21
13.5432
  0
LINE
  8
0
 10
116.825
 20
13.5432
 11
117.163
 21
13.3573
  0
LINE
  8
0
 10
117.163
 20
13.3573
 11
117.497
 21
13.163
  0
LINE
  8
0
 10
117.497
 20
13.163
 11
117.825
 21
12.9604
  0
LINE
  8
0
 10
117.825
 20
12.9604
 11
118.148
 21
12.7496
  0
LINE
  8
0
 10
118.148
 20
12.7496
 11
118.466
 21
12.5308
  0
LINE
  8
0
 10
118.466
 20
12.5308
 11
118.778
 21
12.304
  0
LINE
  8
0
 10
118.778
 20
12.304
 11
119.084
 21
12.0695
  0
LINE
  8
0
 10
119.084
 20
12.0695
 11
119.384
 21
11.8274
  0
LINE
  8
0
 10
119.384
 20
11.8274
 11
119.679
 21
11.5777
  0
LINE
  8
0
 10
119.679
 20
11.5777
 11
119.966
 21
11.3208
  0
LINE
  8
0
 10
119.966
 20
11.3208
 11
120.248
 21
11.0567
  0
LINE
  8
0
 10
120.248
 20
11.0567
 11
120.522
 21
10.7857
  0
LINE
  8
0
 10
120.522
 20
10.7857
 11
120.79
 21
10.5078
  0
LINE
  8
0
 10
120.79
 20
10.5078
 11
121.05
 21
10.2233
  0
LINE
  8
0
 10
121.05
 20
10.2233
 11
121.303
 21
9.9323
  0
LINE
  8
0
 10
121.303
 20
9.9323
 11
121.549
 21
9.63506
  0
LINE
  8
0
 10
121.549
 20
9.63506
 11
121.788
 21
9.33173
  0
LINE
  8
0
 10
121.788
 20
9.33173
 11
122.018
 21
9.02249
  0
LINE
  8
0
 10
122.018
 20
9.02249
 11
122.241
 21
8.70757
  0
LINE
  8
0
 10
122.241
 20
8.70757
 11
122.456
 21
8.38715
  0
LINE
  8
0
 10
122.456
 20
8.38715
 11
122.663
 21
8.06142
  0
LINE
  8
0
 10
122.663
 20
8.06142
 11
122.861
 21
7.73061
  0
LINE
  8
0
 10
122.861
 20
7.73061
 11
123.051
 21
7.39491
  0
LINE
  8
0
 10
123.051
 20
7.39491
 11
123.233
 21
7.05455
  0
LINE
  8
0
 10
123.233
 20
7.05455
 11
123.406
 21
6.70972
  0
LINE
  8
0
 10
123.406
 20
6.70972
 11
123.57
 21
6.36066
  0
LINE
  8
0
 10
123.57
 20
6.36066
 11
123.726
 21
6.00758
  0
LINE
  8
0
 10
123.726
 20
6.00758
 11
123.872
 21
5.65071
  0
LINE
  8
0
 10
123.872
 20
5.65071
 11
124.01
 21
5.29027
  0
LINE
  8
0
 10
124.01
 20
5.29027
 11
124.138
 21
4.92648
  0
LINE
  8
0
 10
124.138
 20
4.92648
 11
124.257
 21
4.55959
  0
LINE
  8
0
 10
124.257
 20
4.55959
 11
124.367
 21
4.1898
  0
LINE
  8
0
 10
124.367
 20
4.1898
 11
124.468
 21
3.81738
  0
LINE
  8
0
 10
124.468
 20
3.81738
 11
124.559
 21
3.44255
  0
LINE
  8
0
 10
124.559
 20
3.44255
 11
124.641
 21
3.06554
  0
LINE
  8
0
 10
124.641
 20
3.06554
 11
124.713
 21
2.6866
  0
LINE
  8
0
 10
124.713
 20
2.6866
 11
124.776
 21
2.30595
  0
LINE
  8
0
 10
124.776
 20
2.30595
 11
124.829
 21
1.92386
  0
LINE
  8
0
 10
124.829
 20
1.92386
 11
124.872
 21
1.54054
  0
LINE
  8
0
 10
124.872
 20
1.54054
 11
124.906
 21
1.15627
  0
LINE
  8
0
 10
124.906
 20
1.15627
 11
124.931
 21
0.77124
  0
LINE
  8
0
 10
124.931
 20
0.77124
 11
124.945
 21
0.385742
  0
LINE
  8
0
 10
124.945
 20
0.385742
 11
124.95
 21
0
  0
LINE
  8
0
 10
124.95
 20
0
 11
124.945
 21
-0.385742
  0
LINE
  8
0
 10
124.945
 20
-0.385742
 11
124.931
 21
-0.77124
  0
LINE
  8
0
 10
124.931
 20
-0.77124
 11
124.906
 21
-1.15627
  0
LINE
  8
0
 10
124.906
 20
-1.15627
 11
124.872
 21
-1.54054
  0
LINE
  8
0
 10
124.872
 20
-1.54054
 11
124.829
 21
-1.92386
  0
LINE
  8
0
 10
124.829
 20
-1.92386
 11
124.776
 21
-2.30595
  0
LINE
  8
0
 10
124.776
 20
-2.30595
 11
124.713
 21
-2.6866
  0
LINE
  8
0
 10
124.713
 20
-2.6866
 11
124.641
 21
-3.06554
  0
LINE
  8
0
 10
124.641
 20
-3.06554
 11
124.559
 21
-3.44255
  0
LINE
  8
0
 10
124.559
 20
-3.44255
 11
124.468
 21
-3.81738
  0
LINE
  8
0
 10
124.468
 20
-3.81738
 11
124.367
 21
-4.1898
  0
LINE
  8
0
 10
124.367
 20
-4.1898
 11
124.257
 21
-4.55959
  0
LINE
  8
0
 10
124.257
 20
-4.55959
 11
124.138
 21
-4.92648
  0
LINE
  8
0
 10
124.138
 20
-4.92648
 11
124.01
 21
-5.29027
  0
LINE
  8
0
 10
124.01
 20
-5.29027
 11
123.872
 21
-5.65071
  0
LINE
  8
0
 10
123.872
 20
-5.65071
 11
123.726
 21
-6.00758
  0
LINE
  8
0
 10
123.726
 20
-6.00758
 11
123.62
 21
-6.24701
  0
LINE
  8
0
 10
123.62
 20
-6.24701
 11
128.024
 21
-8.78935
  0
LINE
  8
0
 10
128.024
 20
-8.78935
 11
126.424
 21
-11.5606
  0
LINE
  8
0
 10
126.424
 20
-11.5606
 11
122.021
 21
-9.01878
  0
LINE
  8
0
 10
122.021
 20
-9.01878
 11
122.018
 21
-9.02249
  0
LINE
  8
0
 10
122.018
 20
-9.02249
 11
121.788
 21
-9.33173
  0
LINE
  8
0
 10
121.788
 20
-9.33173
 11
121.549
 21
-9.63506
  0
LINE
  8
0
 10
121.549
 20
-9.63506
 11
121.303
 21
-9.9323
  0
LINE
  8
0
 10
121.303
 20
-9.9323
 11
121.05
 21
-10.2233
  0
LINE
  8
0
 10
121.05
 20
-10.2233
 11
120.79
 21
-10.5078
  0
LINE
  8
0
 10
120.79
 20
-10.5078
 11
120.522
 21
-10.7857
  0
LINE
  8
0
 10
120.522
 20
-10.7857
 11
120.248
 21
-11.0567
  0
LINE
  8
0
 10
120.248
 20
-11.0567
 11
119.966
 21
-11.3208
  0
LINE
  8
0
 10
119.966
 20
-11.3208
 11
119.679
 21
-11.5777
  0
LINE
  8
0
 10
119.679
 20
-11.5777
 11
119.384
 21
-11.8274
  0
LINE
  8
0
 10
119.384
 20
-11.8274
 11
119.084
 21
-12.0695
  0
LINE
  8
0
 10
119.084
 20
-12.0695
 11
118.778
 21
-12.304
  0
LINE
  8
0
 10
118.778
 20
-12.304
 11
118.466
 21
-12.5308
  0
LINE
  8
0
 10
118.466
 20
-12.5308
 11
118.148
 21
-12.7496
  0
LINE
  8
0
 10
118.148
 20
-12.7496
 11
117.825
 21
-12.9604
  0
LINE
  8
0
 10
117.825
 20
-12.9604
 11
117.497
 21
-13.163
  0
LINE
  8
0
 10
117.497
 20
-13.163
 11
117.163
 21
-13.3573
  0
LINE
  8
0
 10
117.163
 20
-13.3573
 11
116.825
 21
-13.5432
  0
LINE
  8
0
 10
116.825
 20
-13.5432
 11
116.483
 21
-13.7205
  0
LINE
  8
0
 10
116.483
 20
-13.7205
 11
116.136
 21
-13.8891
  0
LINE
  8
0
 10
116.136
 20
-13.8891
 11
115.785
 21
-14.049
  0
LINE
  8
0
 10
115.785
 20
-14.049
 11
115.43
 21
-14.1999
  0
LINE
  8
0
 10
115.43
 20
-14.1999
 11
115.071
 21
-14.3419
  0
LINE
  8
0
 10
115.071
 20
-14.3419
 11
114.709
 21
-14.4749
  0
LINE
  8
0
 10
114.709
 20
-14.4749
 11
114.343
 21
-14.5987
  0
LINE
  8
0
 10
114.343
 20
-14.5987
 11
113.975
 21
-14.7133
  0
LINE
  8
0
 10
113.975
 20
-14.7133
 11
113.604
 21
-14.8186
  0
LINE
  8
0
 10
113.604
 20
-14.8186
 11
113.23
 21
-14.9145
  0
LINE
  8
0
 10
113.23
 20
-14.9145
 11
112.854
 21
-15.0011
  0
LINE
  8
0
 10
112.854
 20
-15.0011
 11
112.476
 21
-15.0781
  0
LINE
  8
0
 10
112.476
 20
-15.0781
 11
112.096
 21
-15.1456
  0
LINE
  8
0
 10
112.096
 20
-15.1456
 11
111.715
 21
-15.2036
  0
LINE
  8
0
 10
111.715
 20
-15.2036
 11
111.332
 21
-15.2519
  0
LINE
  8
0
 10
111.332
 20
-15.2519
 11
110.949
 21
-15.2906
  0
LINE
  8
0
 10
110.949
 20
-15.2906
 11
110.564
 21
-15.3197
  0
LINE
  8
0
 10
110.564
 20
-15.3197
 11
110.179
 21
-15.3391
  0
LINE
  8
0
 10
110.179
 20
-15.3391
 11
109.793
 21
-15.3488
  0
LINE
  8
0
 10
109.793
 20
-15.3488
 11
109.407
 21
-15.3488
  0
LINE
  8
0
 10
139.032
 20
-1.2762
 11
139.072
 21
-1.9133
  0
LINE
  8
0
 10
139.072
 20
-1.9133
 11
139.128
 21
-2.54918
  0
LINE
  8
0
 10
139.128
 20
-2.54918
 11
139.2
 21
-3.18346
  0
LINE
  8
0
 10
139.2
 20
-3.18346
 11
139.288
 21
-3.81572
  0
LINE
  8
0
 10
139.288
 20
-3.81572
 11
139.392
 21
-4.44557
  0
LINE
  8
0
 10
139.392
 20
-4.44557
 11
139.512
 21
-5.07263
  0
LINE
  8
0
 10
139.512
 20
-5.07263
 11
139.647
 21
-5.69647
  0
LINE
  8
0
 10
139.647
 20
-5.69647
 11
139.798
 21
-6.31671
  0
LINE
  8
0
 10
139.798
 20
-6.31671
 11
139.964
 21
-6.93297
  0
LINE
  8
0
 10
139.964
 20
-6.93297
 11
140.146
 21
-7.54485
  0
LINE
  8
0
 10
140.146
 20
-7.54485
 11
140.344
 21
-8.15196
  0
LINE
  8
0
 10
140.344
 20
-8.15196
 11
140.556
 21
-8.75392
  0
LINE
  8
0
 10
140.556
 20
-8.75392
 11
140.784
 21
-9.35036
  0
LINE
  8
0
 10
140.784
 20
-9.35036
 11
141.026
 21
-9.94089
  0
LINE
  8
0
 10
141.026
 20
-9.94089
 11
141.283
 21
-10.5251
  0
LINE
  8
0
 10
141.283
 20
-10.5251
 11
141.555
 21
-11.1027
  0
LINE
  8
0
 10
141.555
 20
-11.1027
 11
141.841
 21
-11.6733
  0
LINE
  8
0
 10
141.841
 20
-11.6733
 11
142.142
 21
-12.2365
  0
LINE
  8
0
 10
142.142
 20
-12.2365
 11
142.456
 21
-12.792
  0
LINE
  8
0
 10
142.456
 20
-12.792
 11
142.785
 21
-13.3394
  0
LINE
  8
0
 10
142.785
 20
-13.3394
 11
143.127
 21
-13.8784
  0
LINE
  8
0
 10
143.127
 20
-13.8784
 11
143.482
 21
-14.4086
  0
LINE
  8
0
 10
143.482
 20
-14.4086
 11
143.851
 21
-14.9297
  0
LINE
  8
0
 10
143.851
 20
-14.9297
 11
144.233
 21
-15.4414
  0
LINE
  8
0
 10
144.233
 20
-15.4414
 11
144.627
 21
-15.9434
  0
LINE
  8
0
 10
144.627
 20
-15.9434
 11
145.034
 21
-16.4352
  0
LINE
  8
0
 10
145.034
 20
-16.4352
 11
145.453
 21
-16.9167
  0
LINE
  8
0
 10
145.453
 20
-16.9167
 11
145.884
 21
-17.3875
  0
LINE
  8
0
 10
145.884
 20
-17.3875
 11
146.327
 21
-17.8473
  0
LINE
  8
0
 10
146.327
 20
-17.8473
 11
146.781
 21
-18.2958
  0
LINE
  8
0
 10
146.781
 20
-18.2958
 11
147.247
 21
-18.7328
  0
LINE
  8
0
 10
147.247
 20
-18.7328
 11
147.723
 21
-19.158
  0
LINE
  8
0
 10
147.723
 20
-19.158
 11
148.209
 21
-19.571
  0
LINE
  8
0
 10
148.209
 20
-19.571
 11
148.706
 21
-19.9717
  0
LINE
  8
0
 10
148.706
 20
-19.9717
 11
149.213
 21
-20.3598
  0
LINE
  8
0
 10
149.213
 20
-20.3598
 11
149.73
 21
-20.735
  0
LINE
  8
0
 10
149.73
 20
-20.735
 11
150.255
 21
-21.0971
  0
LINE
  8
0
 10
150.255
 20
-21.0971
 11
150.79
 21
-21.4459
  0
LINE
  8
0
 10
150.79
 20
-21.4459
 11
151.333
 21
-21.7812
  0
LINE
  8
0
 10
151.333
 20
-21.7812
 11
151.885
 21
-22.1027
  0
LINE
  8
0
 10
151.885
 20
-22.1027
 11
152.444
 21
-22.4102
  0
LINE
  8
0
 10
152.444
 20
-22.4102
 11
153.011
 21
-22.7036
  0
LINE
  8
0
 10
153.011
 20
-22.7036
 11
153.585
 21
-22.9826
  0
LINE
  8
0
 10
153.585
 20
-22.9826
 11
154.166
 21
-23.2471
  0
LINE
  8
0
 10
154.166
 20
-23.2471
 11
154.754
 21
-23.4969
  0
LINE
  8
0
 10
154.754
 20
-23.4969
 11
155.347
 21
-23.7319
  0
LINE
  8
0
 10
155.347
 20
-23.7319
 11
155.946
 21
-23.952
  0
LINE
  8
0
 10
155.946
 20
-23.952
 11
156.551
 21
-24.1568
  0
LINE
  8
0
 10
156.551
 20
-24.1568
 11
157.161
 21
-24.3465
  0
LINE
  8
0
 10
157.161
 20
-24.3465
 11
157.775
 21
-24.5207
  0
LINE
  8
0
 10
157.775
 20
-24.5207
 11
158.393
 21
-24.6794
  0
LINE
  8
0
 10
158.393
 20
-24.6794
 11
159.015
 21
-24.8226
  0
LINE
  8
0
 10
159.015
 20
-24.8226
 11
159.641
 21
-24.9501
  0
LINE
  8
0
 10
159.641
 20
-24.9501
 11
160.269
 21
-25.0618
  0
LINE
  8
0
 10
160.269
 20
-25.0618
 11
160.9
 21
-25.1577
  0
LINE
  8
0
 10
160.9
 20
-25.1577
 11
161.533
 21
-25.2377
  0
LINE
  8
0
 10
161.533
 20
-25.2377
 11
162.169
 21
-25.3018
  0
LINE
  8
0
 10
162.169
 20
-25.3018
 11
162.805
 21
-25.3499
  0
LINE
  8
0
 10
162.805
 20
-25.3499
 11
163.443
 21
-25.3819
  0
LINE
  8
0
 10
163.443
 20
-25.3819
 11
164.081
 21
-25.398
  0
LINE
  8
0
 10
164.081
 20
-25.398
 11
164.719
 21
-25.398
  0
LINE
  8
0
 10
164.719
 20
-25.398
 11
165.357
 21
-25.3819
  0
LINE
  8
0
 10
165.357
 20
-25.3819
 11
165.995
 21
-25.3499
  0
LINE
  8
0
 10
165.995
 20
-25.3499
 11
166.631
 21
-25.3018
  0
LINE
  8
0
 10
166.631
 20
-25.3018
 11
167.267
 21
-25.2377
  0
LINE
  8
0
 10
167.267
 20
-25.2377
 11
167.9
 21
-25.1577
  0
LINE
  8
0
 10
167.9
 20
-25.1577
 11
168.531
 21
-25.0618
  0
LINE
  8
0
 10
168.531
 20
-25.0618
 11
169.159
 21
-24.9501
  0
LINE
  8
0
 10
169.159
 20
-24.9501
 11
169.785
 21
-24.8226
  0
LINE
  8
0
 10
169.785
 20
-24.8226
 11
170.407
 21
-24.6794
  0
LINE
  8
0
 10
170.407
 20
-24.6794
 11
171.025
 21
-24.5207
  0
LINE
  8
0
 10
171.025
 20
-24.5207
 11
171.639
 21
-24.3465
  0
LINE
  8
0
 10
171.639
 20
-24.3465
 11
172.249
 21
-24.1568
  0
LINE
  8
0
 10
172.249
 20
-24.1568
 11
172.854
 21
-23.952
  0
LINE
  8
0
 10
172.854
 20
-23.952
 11
173.453
 21
-23.7319
  0
LINE
  8
0
 10
173.453
 20
-23.7319
 11
174.046
 21
-23.4969
  0
LINE
  8
0
 10
174.046
 20
-23.4969
 11
174.634
 21
-23.2471
  0
LINE
  8
0
 10
174.634
 20
-23.2471
 11
175.215
 21
-22.9826
  0
LINE
  8
0
 10
175.215
 20
-22.9826
 11
175.789
 21
-22.7036
  0
LINE
  8
0
 10
175.789
 20
-22.7036
 11
176.356
 21
-22.4102
  0
LINE
  8
0
 10
176.356
 20
-22.4102
 11
176.915
 21
-22.1027
  0
LINE
  8
0
 10
176.915
 20
-22.1027
 11
177.467
 21
-21.7812
  0
LINE
  8
0
 10
177.467
 20
-21.7812
 11
178.01
 21
-21.4459
  0
LINE
  8
0
 10
178.01
 20
-21.4459
 11
178.545
 21
-21.0971
  0
LINE
  8
0
 10
178.545
 20
-21.0971
 11
179.07
 21
-20.735
  0
LINE
  8
0
 10
179.07
 20
-20.735
 11
179.587
 21
-20.3598
  0
LINE
  8
0
 10
179.587
 20
-20.3598
 11
180.094
 21
-19.9717
  0
LINE
  8
0
 10
180.094
 20
-19.9717
 11
180.591
 21
-19.571
  0
LINE
  8
0
 10
180.591
 20
-19.571
 11
181.077
 21
-19.158
  0
LINE
  8
0
 10
181.077
 20
-19.158
 11
181.553
 21
-18.7328
  0
LINE
  8
0
 10
181.553
 20
-18.7328
 11
182.019
 21
-18.2958
  0
LINE
  8
0
 10
182.019
 20
-18.2958
 11
182.473
 21
-17.8473
  0
LINE
  8
0
 10
182.473
 20
-17.8473
 11
182.916
 21
-17.3875
  0
LINE
  8
0
 10
182.916
 20
-17.3875
 11
183.347
 21
-16.9167
  0
LINE
  8
0
 10
183.347
 20
-16.9167
 11
183.766
 21
-16.4352
  0
LINE
  8
0
 10
183.766
 20
-16.4352
 11
184.173
 21
-15.9434
  0
LINE
  8
0
 10
184.173
 20
-15.9434
 11
184.567
 21
-15.4414
  0
LINE
  8
0
 10
184.567
 20
-15.4414
 11
184.949
 21
-14.9297
  0
LINE
  8
0
 10
184.949
 20
-14.9297
 11
185.318
 21
-14.4086
  0
LINE
  8
0
 10
185.318
 20
-14.4086
 11
185.673
 21
-13.8784
  0
LINE
  8
0
 10
185.673
 20
-13.8784
 11
186.015
 21
-13.3394
  0
LINE
  8
0
 10
186.015
 20
-13.3394
 11
186.344
 21
-12.792
  0
LINE
  8
0
 10
186.344
 20
-12.792
 11
186.658
 21
-12.2365
  0
LINE
  8
0
 10
186.658
 20
-12.2365
 11
186.959
 21
-11.6733
  0
LINE
  8
0
 10
186.959
 20
-11.6733
 11
187.245
 21
-11.1027
  0
LINE
  8
0
 10
187.245
 20
-11.1027
 11
187.517
 21
-10.5251
  0
LINE
  8
0
 10
187.517
 20
-10.5251
 11
187.774
 21
-9.94089
  0
LINE
  8
0
 10
187.774
 20
-9.94089
 11
188.016
 21
-9.35036
  0
LINE
  8
0
 10
188.016
 20
-9.35036
 11
188.244
 21
-8.75392
  0
LINE
  8
0
 10
188.244
 20
-8.75392
 11
188.456
 21
-8.15196
  0
LINE
  8
0
 10
188.456
 20
-8.15196
 11
188.654
 21
-7.54485
  0
LINE
  8
0
 10
188.654
 20
-7.54485
 11
188.835
 21
-6.93297
  0
LINE
  8
0
 10
188.835
 20
-6.93297
 11
189.002
 21
-6.31671
  0
LINE
  8
0
 10
189.002
 20
-6.31671
 11
189.153
 21
-5.69647
  0
LINE
  8
0
 10
189.153
 20
-5.69647
 11
189.288
 21
-5.07263
  0
LINE
  8
0
 10
189.288
 20
-5.07263
 11
189.408
 21
-4.44557
  0
LINE
  8
0
 10
189.408
 20
-4.44557
 11
189.512
 21
-3.81572
  0
LINE
  8
0
 10
189.512
 20
-3.81572
 11
189.6
 21
-3.18346
  0
LINE
  8
0
 10
189.6
 20
-3.18346
 11
189.672
 21
-2.54918
  0
LINE
  8
0
 10
189.672
 20
-2.54918
 11
189.728
 21
-1.9133
  0
LINE
  8
0
 10
189.728
 20
-1.9133
 11
189.768
 21
-1.2762
  0
LINE
  8
0
 10
189.768
 20
-1.2762
 11
189.792
 21
-0.63829
  0
LINE
  8
0
 10
189.792
 20
-0.63829
 11
189.8
 21
0
  0
LINE
  8
0
 10
189.8
 20
0
 11
189.792
 21
0.63829
  0
LINE
  8
0
 10
189.792
 20
0.63829
 11
189.768
 21
1.2762
  0
LINE
  8
0
 10
189.768
 20
1.2762
 11
189.728
 21
1.9133
  0
LINE
  8
0
 10
189.728
 20
1.9133
 11
189.672
 21
2.54918
  0
LINE
  8
0
 10
189.672
 20
2.54918
 11
189.6
 21
3.18346
  0
LINE
  8
0
 10
189.6
 20
3.18346
 11
189.512
 21
3.81572
  0
LINE
  8
0
 10
189.512
 20
3.81572
 11
189.408
 21
4.44557
  0
LINE
  8
0
 10
189.408
 20
4.44557
 11
189.288
 21
5.07263
  0
LINE
  8
0
 10
189.288
 20
5.07263
 11
189.153
 21
5.69647
  0
LINE
  8
0
 10
189.153
 20
5.69647
 11
189.002
 21
6.31671
  0
LINE
  8
0
 10
189.002
 20
6.31671
 11
188.835
 21
6.93297
  0
LINE
  8
0
 10
188.835
 20
6.93297
 11
188.654
 21
7.54485
  0
LINE
  8
0
 10
188.654
 20
7.54485
 11
188.456
 21
8.15196
  0
LINE
  8
0
 10
188.456
 20
8.15196
 11
188.244
 21
8.75392
  0
LINE
  8
0
 10
188.244
 20
8.75392
 11
188.016
 21
9.35036
  0
LINE
  8
0
 10
188.016
 20
9.35036
 11
187.774
 21
9.94089
  0
LINE
  8
0
 10
187.774
 20
9.94089
 11
187.517
 21
10.5251
  0
LINE
  8
0
 10
187.517
 20
10.5251
 11
187.245
 21
11.1027
  0
LINE
  8
0
 10
187.245
 20
11.1027
 11
186.959
 21
11.6733
  0
LINE
  8
0
 10
186.959
 20
11.6733
 11
186.658
 21
12.2365
  0
LINE
  8
0
 10
186.658
 20
12.2365
 11
186.344
 21
12.792
  0
LINE
  8
0
 10
186.344
 20
12.792
 11
186.015
 21
13.3394
  0
LINE
  8
0
 10
186.015
 20
13.3394
 11
185.673
 21
13.8784
  0
LINE
  8
0
 10
185.673
 20
13.8784
 11
185.318
 21
14.4086
  0
LINE
  8
0
 10
185.318
 20
14.4086
 11
184.949
 21
14.9297
  0
LINE
  8
0
 10
184.949
 20
14.9297
 11
184.567
 21
15.4414
  0
LINE
  8
0
 10
184.567
 20
15.4414
 11
184.173
 21
15.9434
  0
LINE
  8
0
 10
184.173
 20
15.9434
 11
183.766
 21
16.4352
  0
LINE
  8
0
 10
183.766
 20
16.4352
 11
183.347
 21
16.9167
  0
LINE
  8
0
 10
183.347
 20
16.9167
 11
182.916
 21
17.3875
  0
LINE
  8
0
 10
182.916
 20
17.3875
 11
182.473
 21
17.8473
  0
LINE
  8
0
 10
182.473
 20
17.8473
 11
182.019
 21
18.2958
  0
LINE
  8
0
 10
182.019
 20
18.2958
 11
181.553
 21
18.7328
  0
LINE
  8
0
 10
181.553
 20
18.7328
 11
181.077
 21
19.158
  0
LINE
  8
0
 10
181.077
 20
19.158
 11
180.591
 21
19.571
  0
LINE
  8
0
 10
180.591
 20
19.571
 11
180.094
 21
19.9717
  0
LINE
  8
0
 10
180.094
 20
19.9717
 11
179.587
 21
20.3598
  0
LINE
  8
0
 10
179.587
 20
20.3598
 11
179.07
 21
20.735
  0
LINE
  8
0
 10
179.07
 20
20.735
 11
178.545
 21
21.0971
  0
LINE
  8
0
 10
178.545
 20
21.0971
 11
178.01
 21
21.4459
  0
LINE
  8
0
 10
178.01
 20
21.4459
 11
177.467
 21
21.7812
  0
LINE
  8
0
 10
177.467
 20
21.7812
 11
176.915
 21
22.1027
  0
LINE
  8
0
 10
176.915
 20
22.1027
 11
176.356
 21
22.4102
  0
LINE
  8
0
 10
176.356
 20
22.4102
 11
175.789
 21
22.7036
  0
LINE
  8
0
 10
175.789
 20
22.7036
 11
175.215
 21
22.9826
  0
LINE
  8
0
 10
175.215
 20
22.9826
 11
174.634
 21
23.2471
  0
LINE
  8
0
 10
174.634
 20
23.2471
 11
174.046
 21
23.4969
  0
LINE
  8
0
 10
174.046
 20
23.4969
 11
173.453
 21
23.7319
  0
LINE
  8
0
 10
173.453
 20
23.7319
 11
172.854
 21
23.952
  0
LINE
  8
0
 10
172.854
 20
23.952
 11
172.249
 21
24.1568
  0
LINE
  8
0
 10
172.249
 20
24.1568
 11
171.639
 21
24.3465
  0
LINE
  8
0
 10
171.639
 20
24.3465
 11
171.025
 21
24.5207
  0
LINE
  8
0
 10
171.025
 20
24.5207
 11
170.407
 21
24.6794
  0
LINE
  8
0
 10
170.407
 20
24.6794
 11
169.785
 21
24.8226
  0
LINE
  8
0
 10
169.785
 20
24.8226
 11
169.159
 21
24.9501
  0
LINE
  8
0
 10
169.159
 20
24.9501
 11
168.531
 21
25.0618
  0
LINE
  8
0
 10
168.531
 20
25.0618
 11
167.9
 21
25.1577
  0
LINE
  8
0
 10
167.9
 20
25.1577
 11
167.267
 21
25.2377
  0
LINE
  8
0
 10
167.267
 20
25.2377
 11
166.631
 21
25.3018
  0
LINE
  8
0
 10
166.631
 20
25.3018
 11
165.995
 21
25.3499
  0
LINE
  8
0
 10
165.995
 20
25.3499
 11
165.357
 21
25.3819
  0
LINE
  8
0
 10
165.357
 20
25.3819
 11
164.719
 21
25.398
  0
LINE
  8
0
 10
164.719
 20
25.398
 11
164.081
 21
25.398
  0
LINE
  8
0
 10
164.081
 20
25.398
 11
163.443
 21
25.3819
  0
LINE
  8
0
 10
163.443
 20
25.3819
 11
162.805
 21
25.3499
  0
LINE
  8
0
 10
162.805
 20
25.3499
 11
162.169
 21
25.3018
  0
LINE
  8
0
 10
162.169
 20
25.3018
 11
161.533
 21
25.2377
  0
LINE
  8
0
 10
161.533
 20
25.2377
 11
160.9
 21
25.1577
  0
LINE
  8
0
 10
160.9
 20
25.1577
 11
160.269
 21
25.0618
  0
LINE
  8
0
 10
160.269
 20
25.0618
 11
159.641
 21
24.9501
  0
LINE
  8
0
 10
159.641
 20
24.9501
 11
159.015
 21
24.8226
  0
LINE
  8
0
 10
159.015
 20
24.8226
 11
158.393
 21
24.6794
  0
LINE
  8
0
 10
158.393
 20
24.6794
 11
157.775
 21
24.5207
  0
LINE
  8
0
 10
157.775
 20
24.5207
 11
157.161
 21
24.3465
  0
LINE
  8
0
 10
157.161
 20
24.3465
 11
156.551
 21
24.1568
  0
LINE
  8
0
 10
156.551
 20
24.1568
 11
155.946
 21
23.952
  0
LINE
  8
0
 10
155.946
 20
23.952
 11
155.347
 21
23.7319
  0
LINE
  8
0
 10
155.347
 20
23.7319
 11
154.754
 21
23.4969
  0
LINE
  8
0
 10
154.754
 20
23.4969
 11
154.166
 21
23.2471
  0
LINE
  8
0
 10
154.166
 20
23.2471
 11
153.585
 21
22.9826
  0
LINE
  8
0
 10
153.585
 20
22.9826
 11
153.011
 21
22.7036
  0
LINE
  8
0
 10
153.011
 20
22.7036
 11
152.444
 21
22.4102
  0
LINE
  8
0
 10
152.444
 20
22.4102
 11
151.885
 21
22.1027
  0
LINE
  8
0
 10
151.885
 20
22.1027
 11
151.333
 21
21.7812
  0
LINE
  8
0
 10
151.333
 20
21.7812
 11
150.79
 21
21.4459
  0
LINE
  8
0
 10
150.79
 20
21.4459
 11
150.255
 21
21.0971
  0
LINE
  8
0
 10
150.255
 20
21.0971
 11
149.73
 21
20.735
  0
LINE
  8
0
 10
149.73
 20
20.735
 11
149.213
 21
20.3598
  0
LINE
  8
0
 10
149.213
 20
20.3598
 11
148.706
 21
19.9717
  0
LINE
  8
0
 10
148.706
 20
19.9717
 11
148.209
 21
19.571
  0
LINE
  8
0
 10
148.209
 20
19.571
 11
147.723
 21
19.158
  0
LINE
  8
0
 10
147.723
 20
19.158
 11
147.247
 21
18.7328
  0
LINE
  8
0
 10
147.247
 20
18.7328
 11
146.781
 21
18.2958
  0
LINE
  8
0
 10
146.781
 20
18.2958
 11
146.327
 21
17.8473
  0
LINE
  8
0
 10
146.327
 20
17.8473
 11
145.884
 21
17.3875
  0
LINE
  8
0
 10
145.884
 20
17.3875
 11
145.453
 21
16.9167
  0
LINE
  8
0
 10
145.453
 20
16.9167
 11
145.034
 21
16.4352
  0
LINE
  8
0
 10
145.034
 20
16.4352
 11
144.627
 21
15.9434
  0
LINE
  8
0
 10
144.627
 20
15.9434
 11
144.233
 21
15.4414
  0
LINE
  8
0
 10
144.233
 20
15.4414
 11
143.851
 21
14.9297
  0
LINE
  8
0
 10
143.851
 20
14.9297
 11
143.482
 21
14.4086
  0
LINE
  8
0
 10
143.482
 20
14.4086
 11
143.127
 21
13.8784
  0
LINE
  8
0
 10
143.127
 20
13.8784
 11
142.785
 21
13.3394
  0
LINE
  8
0
 10
142.785
 20
13.3394
 11
142.456
 21
12.792
  0
LINE
  8
0
 10
142.456
 20
12.792
 11
142.142
 21
12.2365
  0
LINE
  8
0
 10
142.142
 20
12.2365
 11
141.841
 21
11.6733
  0
LINE
  8
0
 10
141.841
 20
11.6733
 11
141.555
 21
11.1027
  0
LINE
  8
0
 10
141.555
 20
11.1027
 11
141.283
 21
10.5251
  0
LINE
  8
0
 10
141.283
 20
10.5251
 11
141.026
 21
9.94089
  0
LINE
  8
0
 10
141.026
 20
9.94089
 11
140.784
 21
9.35036
  0
LINE
  8
0
 10
140.784
 20
9.35036
 11
140.556
 21
8.75392
  0
LINE
  8
0
 10
140.556
 20
8.75392
 11
140.344
 21
8.15196
  0
LINE
  8
0
 10
140.344
 20
8.15196
 11
140.146
 21
7.54485
  0
LINE
  8
0
 10
140.146
 20
7.54485
 11
139.964
 21
6.93297
  0
LINE
  8
0
 10
139.964
 20
6.93297
 11
139.798
 21
6.31671
  0
LINE
  8
0
 10
139.798
 20
6.31671
 11
139.647
 21
5.69647
  0
LINE
  8
0
 10
139.647
 20
5.69647
 11
139.512
 21
5.07263
  0
LINE
  8
0
 10
139.512
 20
5.07263
 11
139.392
 21
4.44557
  0
LINE
  8
0
 10
139.392
 20
4.44557
 11
139.288
 21
3.81572
  0
LINE
  8
0
 10
139.288
 20
3.81572
 11
139.2
 21
3.18346
  0
LINE
  8
0
 10
139.2
 20
3.18346
 11
139.128
 21
2.54918
  0
LINE
  8
0
 10
139.128
 20
2.54918
 11
139.072
 21
1.9133
  0
LINE
  8
0
 10
139.072
 20
1.9133
 11
139.032
 21
1.2762
  0
LINE
  8
0
 10
139.032
 20
1.2762
 11
139.008
 21
0.63829
  0
LINE
  8
0
 10
139.008
 20
0.63829
 11
139
 21
0
  0
LINE
  8
0
 10
139
 20
0
 11
139.008
 21
-0.63829
  0
LINE
  8
0
 10
139.008
 20
-0.63829
 11
139.032
 21
-1.2762
  0
LINE
  8
0
 10
149.069
 20
0.77124
 11
149.094
 21
1.15627
  0
LINE
  8
0
 10
149.094
 20
1.15627
 11
149.128
 21
1.54054
  0
LINE
  8
0
 10
149.128
 20
1.54054
 11
149.171
 21
1.92386
  0
LINE
  8
0
 10
149.171
 20
1.92386
 11
149.224
 21
2.30595
  0
LINE
  8
0
 10
149.224
 20
2.30595
 11
149.287
 21
2.6866
  0
LINE
  8
0
 10
149.287
 20
2.6866
 11
149.359
 21
3.06554
  0
LINE
  8
0
 10
149.359
 20
3.06554
 11
149.441
 21
3.44255
  0
LINE
  8
0
 10
149.441
 20
3.44255
 11
149.532
 21
3.81738
  0
LINE
  8
0
 10
149.532
 20
3.81738
 11
149.633
 21
4.1898
  0
LINE
  8
0
 10
149.633
 20
4.1898
 11
149.743
 21
4.55959
  0
LINE
  8
0
 10
149.743
 20
4.55959
 11
149.862
 21
4.92648
  0
LINE
  8
0
 10
149.862
 20
4.92648
 11
149.99
 21
5.29027
  0
LINE
  8
0
 10
149.99
 20
5.29027
 11
150.128
 21
5.65071
  0
LINE
  8
0
 10
150.128
 20
5.65071
 11
150.274
 21
6.00758
  0
LINE
  8
0
 10
150.274
 20
6.00758
 11
150.43
 21
6.36066
  0
LINE
  8
0
 10
150.43
 20
6.36066
 11
150.594
 21
6.70972
  0
LINE
  8
0
 10
150.594
 20
6.70972
 11
150.767
 21
7.05455
  0
LINE
  8
0
 10
150.767
 20
7.05455
 11
150.949
 21
7.39491
  0
LINE
  8
0
 10
150.949
 20
7.39491
 11
151.139
 21
7.73061
  0
LINE
  8
0
 10
151.139
 20
7.73061
 11
151.337
 21
8.06142
  0
LINE
  8
0
 10
151.337
 20
8.06142
 11
151.544
 21
8.38715
  0
LINE
  8
0
 10
151.544
 20
8.38715
 11
151.759
 21
8.70757
  0
LINE
  8
0
 10
151.759
 20
8.70757
 11
151.982
 21
9.02249
  0
LINE
  8
0
 10
151.982
 20
9.02249
 11
152.212
 21
9.33173
  0
LINE
  8
0
 10
152.212
 20
9.33173
 11
152.451
 21
9.63506
  0
LINE
  8
0
 10
152.451
 20
9.63506
 11
152.697
 21
9.9323
  0
LINE
  8
0
 10
152.697
 20
9.9323
 11
152.95
 21
10.2233
  0
LINE
  8
0
 10
152.95
 20
10.2233
 11
153.21
 21
10.5078
  0
LINE
  8
0
 10
153.21
 20
10.5078
 11
153.478
 21
10.7857
  0
LINE
  8
0
 10
153.478
 20
10.7857
 11
153.752
 21
11.0567
  0
LINE
  8
0
 10
153.752
 20
11.0567
 11
154.034
 21
11.3208
  0
LINE
  8
0
 10
154.034
 20
11.3208
 11
154.321
 21
11.5777
  0
LINE
  8
0
 10
154.321
 20
11.5777
 11
154.616
 21
11.8274
  0
LINE
  8
0
 10
154.616
 20
11.8274
 11
154.916
 21
12.0695
  0
LINE
  8
0
 10
154.916
 20
12.0695
 11
155.222
 21
12.304
  0
LINE
  8
0
 10
155.222
 20
12.304
 11
155.534
 21
12.5308
  0
LINE
  8
0
 10
155.534
 20
12.5308
 11
155.852
 21
12.7496
  0
LINE
  8
0
 10
155.852
 20
12.7496
 11
156.175
 21
12.9604
  0
LINE
  8
0
 10
156.175
 20
12.9604
 11
156.503
 21
13.163
  0
LINE
  8
0
 10
156.503
 20
13.163
 11
156.837
 21
13.3573
  0
LINE
  8
0
 10
156.837
 20
13.3573
 11
157.175
 21
13.5432
  0
LINE
  8
0
 10
157.175
 20
13.5432
 11
157.517
 21
13.7205
  0
LINE
  8
0
 10
157.517
 20
13.7205
 11
157.864
 21
13.8891
  0
LINE
  8
0
 10
157.864
 20
13.8891
 11
158.215
 21
14.049
  0
LINE
  8
0
 10
158.215
 20
14.049
 11
158.57
 21
14.1999
  0
LINE
  8
0
 10
158.57
 20
14.1999
 11
158.929
 21
14.3419
  0
LINE
  8
0
 10
158.929
 20
14.3419
 11
159.291
 21
14.4749
  0
LINE
  8
0
 10
159.291
 20
14.4749
 11
159.657
 21
14.5987
  0
LINE
  8
0
 10
159.657
 20
14.5987
 11
160.025
 21
14.7133
  0
LINE
  8
0
 10
160.025
 20
14.7133
 11
160.396
 21
14.8186
  0
LINE
  8
0
 10
160.396
 20
14.8186
 11
160.77
 21
14.9145
  0
LINE
  8
0
 10
160.77
 20
14.9145
 11
161.146
 21
15.0011
  0
LINE
  8
0
 10
161.146
 20
15.0011
 11
161.524
 21
15.0781
  0
LINE
  8
0
 10
161.524
 20
15.0781
 11
161.904
 21
15.1456
  0
LINE
  8
0
 10
161.904
 20
15.1456
 11
162.285
 21
15.2036
  0
LINE
  8
0
 10
162.285
 20
15.2036
 11
162.668
 21
15.2519
  0
LINE
  8
0
 10
162.668
 20
15.2519
 11
162.8
 21
15.2653
  0
LINE
  8
0
 10
162.8
 20
15.2653
 11
162.8
 21
20.35
  0
LINE
  8
0
 10
162.8
 20
20.35
 11
166
 21
20.35
  0
LINE
  8
0
 10
166
 20
20.35
 11
166
 21
15.2653
  0
LINE
  8
0
 10
166
 20
15.2653
 11
166.132
 21
15.2519
  0
LINE
  8
0
 10
166.132
 20
15.2519
 11
166.515
 21
15.2036
  0
LINE
  8
0
 10
166.515
 20
15.2036
 11
166.896
 21
15.1456
  0
LINE
  8
0
 10
166.896
 20
15.1456
 11
167.276
 21
15.0781
  0
LINE
  8
0
 10
167.276
 20
15.0781
 11
167.654
 21
15.0011
  0
LINE
  8
0
 10
167.654
 20
15.0011
 11
168.03
 21
14.9145
  0
LINE
  8
0
 10
168.03
 20
14.9145
 11
168.404
 21
14.8186
  0
LINE
  8
0
 10
168.404
 20
14.8186
 11
168.775
 21
14.7133
  0
LINE
  8
0
 10
168.775
 20
14.7133
 11
169.143
 21
14.5987
  0
LINE
  8
0
 10
169.143
 20
14.5987
 11
169.509
 21
14.4749
  0
LINE
  8
0
 10
169.509
 20
14.4749
 11
169.871
 21
14.3419
  0
LINE
  8
0
 10
169.871
 20
14.3419
 11
170.23
 21
14.1999
  0
LINE
  8
0
 10
170.23
 20
14.1999
 11
170.585
 21
14.049
  0
LINE
  8
0
 10
170.585
 20
14.049
 11
170.936
 21
13.8891
  0
LINE
  8
0
 10
170.936
 20
13.8891
 11
171.283
 21
13.7205
  0
LINE
  8
0
 10
171.283
 20
13.7205
 11
171.625
 21
13.5432
  0
LINE
  8
0
 10
171.625
 20
13.5432
 11
171.963
 21
13.3573
  0
LINE
  8
0
 10
171.963
 20
13.3573
 11
172.297
 21
13.163
  0
LINE
  8
0
 10
172.297
 20
13.163
 11
172.625
 21
12.9604
  0
LINE
  8
0
 10
172.625
 20
12.9604
 11
172.948
 21
12.7496
  0
LINE
  8
0
 10
172.948
 20
12.7496
 11
173.266
 21
12.5308
  0
LINE
  8
0
 10
173.266
 20
12.5308
 11
173.578
 21
12.304
  0
LINE
  8
0
 10
173.578
 20
12.304
 11
173.884
 21
12.0695
  0
LINE
  8
0
 10
173.884
 20
12.0695
 11
174.184
 21
11.8274
  0
LINE
  8
0
 10
174.184
 20
11.8274
 11
174.479
 21
11.5777
  0
LINE
  8
0
 10
174.479
 20
11.5777
 11
174.766
 21
11.3208
  0
LINE
  8
0
 10
174.766
 20
11.3208
 11
175.048
 21
11.0567
  0
LINE
  8
0
 10
175.048
 20
11.0567
 11
175.322
 21
10.7857
  0
LINE
  8
0
 10
175.322
 20
10.7857
 11
175.59
 21
10.5078
  0
LINE
  8
0
 10
175.59
 20
10.5078
 11
175.85
 21
10.2233
  0
LINE
  8
0
 10
175.85
 20
10.2233
 11
176.103
 21
9.9323
  0
LINE
  8
0
 10
176.103
 20
9.9323
 11
176.349
 21
9.63506
  0
LINE
  8
0
 10
176.349
 20
9.63506
 11
176.588
 21
9.33173
  0
LINE
  8
0
 10
176.588
 20
9.33173
 11
176.818
 21
9.02249
  0
LINE
  8
0
 10
176.818
 20
9.02249
 11
177.041
 21
8.70757
  0
LINE
  8
0
 10
177.041
 20
8.70757
 11
177.256
 21
8.38715
  0
LINE
  8
0
 10
177.256
 20
8.38715
 11
177.463
 21
8.06142
  0
LINE
  8
0
 10
177.463
 20
8.06142
 11
177.661
 21
7.73061
  0
LINE
  8
0
 10
177.661
 20
7.73061
 11
177.851
 21
7.39491
  0
LINE
  8
0
 10
177.851
 20
7.39491
 11
178.033
 21
7.05455
  0
LINE
  8
0
 10
178.033
 20
7.05455
 11
178.206
 21
6.70972
  0
LINE
  8
0
 10
178.206
 20
6.70972
 11
178.37
 21
6.36066
  0
LINE
  8
0
 10
178.37
 20
6.36066
 11
178.526
 21
6.00758
  0
LINE
  8
0
 10
178.526
 20
6.00758
 11
178.672
 21
5.65071
  0
LINE
  8
0
 10
178.672
 20
5.65071
 11
178.81
 21
5.29027
  0
LINE
  8
0
 10
178.81
 20
5.29027
 11
178.938
 21
4.92648
  0
LINE
  8
0
 10
178.938
 20
4.92648
 11
179.057
 21
4.55959
  0
LINE
  8
0
 10
179.057
 20
4.55959
 11
179.167
 21
4.1898
  0
LINE
  8
0
 10
179.167
 20
4.1898
 11
179.268
 21
3.81738
  0
LINE
  8
0
 10
179.268
 20
3.81738
 11
179.359
 21
3.44255
  0
LINE
  8
0
 10
179.359
 20
3.44255
 11
179.441
 21
3.06554
  0
LINE
  8
0
 10
179.441
 20
3.06554
 11
179.513
 21
2.6866
  0
LINE
  8
0
 10
179.513
 20
2.6866
 11
179.576
 21
2.30595
  0
LINE
  8
0
 10
179.576
 20
2.30595
 11
179.629
 21
1.92386
  0
LINE
  8
0
 10
179.629
 20
1.92386
 11
179.672
 21
1.54054
  0
LINE
  8
0
 10
179.672
 20
1.54054
 11
179.706
 21
1.15627
  0
LINE
  8
0
 10
179.706
 20
1.15627
 11
179.731
 21
0.77124
  0
LINE
  8
0
 10
179.731
 20
0.77124
 11
179.745
 21
0.385742
  0
LINE
  8
0
 10
179.745
 20
0.385742
 11
179.75
 21
0
  0
LINE
  8
0
 10
179.75
 20
0
 11
179.745
 21
-0.385742
  0
LINE
  8
0
 10
179.745
 20
-0.385742
 11
179.731
 21
-0.77124
  0
LINE
  8
0
 10
179.731
 20
-0.77124
 11
179.706
 21
-1.15627
  0
LINE
  8
0
 10
179.706
 20
-1.15627
 11
179.672
 21
-1.54054
  0
LINE
  8
0
 10
179.672
 20
-1.54054
 11
179.629
 21
-1.92386
  0
LINE
  8
0
 10
179.629
 20
-1.92386
 11
179.576
 21
-2.30595
  0
LINE
  8
0
 10
179.576
 20
-2.30595
 11
179.513
 21
-2.6866
  0
LINE
  8
0
 10
179.513
 20
-2.6866
 11
179.441
 21
-3.06554
  0
LINE
  8
0
 10
179.441
 20
-3.06554
 11
179.359
 21
-3.44255
  0
LINE
  8
0
 10
179.359
 20
-3.44255
 11
179.268
 21
-3.81738
  0
LINE
  8
0
 10
179.268
 20
-3.81738
 11
179.167
 21
-4.1898
  0
LINE
  8
0
 10
179.167
 20
-4.1898
 11
179.057
 21
-4.55959
  0
LINE
  8
0
 10
179.057
 20
-4.55959
 11
178.938
 21
-4.92648
  0
LINE
  8
0
 10
178.938
 20
-4.92648
 11
178.81
 21
-5.29027
  0
LINE
  8
0
 10
178.81
 20
-5.29027
 11
178.672
 21
-5.65071
  0
LINE
  8
0
 10
178.672
 20
-5.65071
 11
178.526
 21
-6.00758
  0
LINE
  8
0
 10
178.526
 20
-6.00758
 11
178.42
 21
-6.24701
  0
LINE
  8
0
 10
178.42
 20
-6.24701
 11
182.824
 21
-8.78935
  0
LINE
  8
0
 10
182.824
 20
-8.78935
 11
181.224
 21
-11.5606
  0
LINE
  8
0
 10
181.224
 20
-11.5606
 11
176.821
 21
-9.01878
  0
LINE
  8
0
 10
176.821
 20
-9.01878
 11
176.818
 21
-9.02249
  0
LINE
  8
0
 10
176.818
 20
-9.02249
 11
176.588
 21
-9.33173
  0
LINE
  8
0
 10
176.588
 20
-9.33173
 11
176.349
 21
-9.63506
  0
LINE
  8
0
 10
176.349
 20
-9.63506
 11
176.103
 21
-9.9323
  0
LINE
  8
0
 10
176.103
 20
-9.9323
 11
175.85
 21
-10.2233
  0
LINE
  8
0
 10
175.85
 20
-10.2233
 11
175.59
 21
-10.5078
  0
LINE
  8
0
 10
175.59
 20
-10.5078
 11
175.322
 21
-10.7857
  0
LINE
  8
0
 10
175.322
 20
-10.7857
 11
175.048
 21
-11.0567
  0
LINE
  8
0
 10
175.048
 20
-11.0567
 11
174.766
 21
-11.3208
  0
LINE
  8
0
 10
174.766
 20
-11.3208
 11
174.479
 21
-11.5777
  0
LINE
  8
0
 10
174.479
 20
-11.5777
 11
174.184
 21
-11.8274
  0
LINE
  8
0
 10
174.184
 20
-11.8274
 11
173.884
 21
-12.0695
  0
LINE
  8
0
 10
173.884
 20
-12.0695
 11
173.578
 21
-12.304
  0
LINE
  8
0
 10
173.578
 20
-12.304
 11
173.266
 21
-12.5308
  0
LINE
  8
0
 10
173.266
 20
-12.5308
 11
172.948
 21
-12.7496
  0
LINE
  8
0
 10
172.948
 20
-12.7496
 11
172.625
 21
-12.9604
  0
LINE
  8
0
 10
172.625
 20
-12.9604
 11
172.297
 21
-13.163
  0
LINE
  8
0
 10
172.297
 20
-13.163
 11
171.963
 21
-13.3573
  0
LINE
  8
0
 10
171.963
 20
-13.3573
 11
171.625
 21
-13.5432
  0
LINE
  8
0
 10
171.625
 20
-13.5432
 11
171.283
 21
-13.7205
  0
LINE
  8
0
 10
171.283
 20
-13.7205
 11
170.936
 21
-13.8891
  0
LINE
  8
0
 10
170.936
 20
-13.8891
 11
170.585
 21
-14.049
  0
LINE
  8
0
 10
170.585
 20
-14.049
 11
170.23
 21
-14.1999
  0
LINE
  8
0
 10
170.23
 20
-14.1999
 11
169.871
 21
-14.3419
  0
LINE
  8
0
 10
169.871
 20
-14.3419
 11
169.509
 21
-14.4749
  0
LINE
  8
0
 10
169.509
 20
-14.4749
 11
169.143
 21
-14.5987
  0
LINE
  8
0
 10
169.143
 20
-14.5987
 11
168.775
 21
-14.7133
  0
LINE
  8
0
 10
168.775
 20
-14.7133
 11
168.404
 21
-14.8186
  0
LINE
  8
0
 10
168.404
 20
-14.8186
 11
168.03
 21
-14.9145
  0
LINE
  8
0
 10
168.03
 20
-14.9145
 11
167.654
 21
-15.0011
  0
LINE
  8
0
 10
167.654
 20
-15.0011
 11
167.276
 21
-15.0781
  0
LINE
  8
0
 10
167.276
 20
-15.0781
 11
166.896
 21
-15.1456
  0
LINE
  8
0
 10
166.896
 20
-15.1456
 11
166.515
 21
-15.2036
  0
LINE
  8
0
 10
166.515
 20
-15.2036
 11
166.132
 21
-15.2519
  0
LINE
  8
0
 10
166.132
 20
-15.2519
 11
165.749
 21
-15.2906
  0
LINE
  8
0
 10
165.749
 20
-15.2906
 11
165.364
 21
-15.3197
  0
LINE
  8
0
 10
165.364
 20
-15.3197
 11
164.979
 21
-15.3391
  0
LINE
  8
0
 10
164.979
 20
-15.3391
 11
164.593
 21
-15.3488
  0
LINE
  8
0
 10
164.593
 20
-15.3488
 11
164.207
 21
-15.3488
  0
LINE
  8
0
 10
164.207
 20
-15.3488
 11
163.821
 21
-15.3391
  0
LINE
  8
0
 10
163.821
 20
-15.3391
 11
163.436
 21
-15.3197
  0
LINE
  8
0
 10
163.436
 20
-15.3197
 11
163.051
 21
-15.2906
  0
LINE
  8
0
 10
163.051
 20
-15.2906
 11
162.668
 21
-15.2519
  0
LINE
  8
0
 10
162.668
 20
-15.2519
 11
162.285
 21
-15.2036
  0
LINE
  8
0
 10
162.285
 20
-15.2036
 11
161.904
 21
-15.1456
  0
LINE
  8
0
 10
161.904
 20
-15.1456
 11
161.524
 21
-15.0781
  0
LINE
  8
0
 10
161.524
 20
-15.0781
 11
161.146
 21
-15.0011
  0
LINE
  8
0
 10
161.146
 20
-15.0011
 11
160.77
 21
-14.9145
  0
LINE
  8
0
 10
160.77
 20
-14.9145
 11
160.396
 21
-14.8186
  0
LINE
  8
0
 10
160.396
 20
-14.8186
 11
160.025
 21
-14.7133
  0
LINE
  8
0
 10
160.025
 20
-14.7133
 11
159.657
 21
-14.5987
  0
LINE
  8
0
 10
159.657
 20
-14.5987
 11
159.291
 21
-14.4749
  0
LINE
  8
0
 10
159.291
 20
-14.4749
 11
158.929
 21
-14.3419
  0
LINE
  8
0
 10
158.929
 20
-14.3419
 11
158.57
 21
-14.1999
  0
LINE
  8
0
 10
158.57
 20
-14.1999
 11
158.215
 21
-14.049
  0
LINE
  8
0
 10
158.215
 20
-14.049
 11
157.864
 21
-13.8891
  0
LINE
  8
0
 10
157.864
 20
-13.8891
 11
157.517
 21
-13.7205
  0
LINE
  8
0
 10
157.517
 20
-13.7205
 11
157.175
 21
-13.5432
  0
LINE
  8
0
 10
157.175
 20
-13.5432
 11
156.837
 21
-13.3573
  0
LINE
  8
0
 10
156.837
 20
-13.3573
 11
156.503
 21
-13.163
  0
LINE
  8
0
 10
156.503
 20
-13.163
 11
156.175
 21
-12.9604
  0
LINE
  8
0
 10
156.175
 20
-12.9604
 11
155.852
 21
-12.7496
  0
LINE
  8
0
 10
155.852
 20
-12.7496
 11
155.534
 21
-12.5308
  0
LINE
  8
0
 10
155.534
 20
-12.5308
 11
155.222
 21
-12.304
  0
LINE
  8
0
 10
155.222
 20
-12.304
 11
154.916
 21
-12.0695
  0
LINE
  8
0
 10
154.916
 20
-12.0695
 11
154.616
 21
-11.8274
  0
LINE
  8
0
 10
154.616
 20
-11.8274
 11
154.321
 21
-11.5777
  0
LINE
  8
0
 10
154.321
 20
-11.5777
 11
154.034
 21
-11.3208
  0
LINE
  8
0
 10
154.034
 20
-11.3208
 11
153.752
 21
-11.0567
  0
LINE
  8
0
 10
153.752
 20
-11.0567
 11
153.478
 21
-10.7857
  0
LINE
  8
0
 10
153.478
 20
-10.7857
 11
153.21
 21
-10.5078
  0
LINE
  8
0
 10
153.21
 20
-10.5078
 11
152.95
 21
-10.2233
  0
LINE
  8
0
 10
152.95
 20
-10.2233
 11
152.697
 21
-9.9323
  0
LINE
  8
0
 10
152.697
 20
-9.9323
 11
152.451
 21
-9.63506
  0
LINE
  8
0
 10
152.451
 20
-9.63506
 11
152.212
 21
-9.33173
  0
LINE
  8
0
 10
152.212
 20
-9.33173
 11
151.982
 21
-9.02249
  0
LINE
  8
0
 10
151.982
 20
-9.02249
 11
151.979
 21
-9.01878
  0
LINE
  8
0
 10
151.979
 20
-9.01878
 11
147.576
 21
-11.5606
  0
LINE
  8
0
 10
147.576
 20
-11.5606
 11
145.976
 21
-8.78935
  0
LINE
  8
0
 10
145.976
 20
-8.78935
 11
150.38
 21
-6.24701
  0
LINE
  8
0
 10
150.38
 20
-6.24701
 11
150.274
 21
-6.00758
  0
LINE
  8
0
 10
150.274
 20
-6.00758
 11
150.128
 21
-5.65071
  0
LINE
  8
0
 10
150.128
 20
-5.65071
 11
149.99
 21
-5.29027
  0
LINE
  8
0
 10
149.99
 20
-5.29027
 11
149.862
 21
-4.92648
  0
LINE
  8
0
 10
149.862
 20
-4.92648
 11
149.743
 21
-4.55959
  0
LINE
  8
0
 10
149.743
 20
-4.55959
 11
149.633
 21
-4.1898
  0
LINE
  8
0
 10
149.633
 20
-4.1898
 11
149.532
 21
-3.81738
  0
LINE
  8
0
 10
149.532
 20
-3.81738
 11
149.441
 21
-3.44255
  0
LINE
  8
0
 10
149.441
 20
-3.44255
 11
149.359
 21
-3.06554
  0
LINE
  8
0
 10
149.359
 20
-3.06554
 11
149.287
 21
-2.6866
  0
LINE
  8
0
 10
149.287
 20
-2.6866
 11
149.224
 21
-2.30595
  0
LINE
  8
0
 10
149.224
 20
-2.30595
 11
149.171
 21
-1.92386
  0
LINE
  8
0
 10
149.171
 20
-1.92386
 11
149.128
 21
-1.54054
  0
LINE
  8
0
 10
149.128
 20
-1.54054
 11
149.094
 21
-1.15627
  0
LINE
  8
0
 10
149.094
 20
-1.15627
 11
149.069
 21
-0.77124
  0
LINE
  8
0
 10
149.069
 20
-0.77124
 11
149.055
 21
-0.385742
  0
LINE
  8
0
 10
149.055
 20
-0.385742
 11
149.05
 21
0
  0
LINE
  8
0
 10
149.05
 20
0
 11
149.055
 21
0.385742
  0
LINE
  8
0
 10
149.055
 20
0.385742
 11
149.069
 21
0.77124
  0
LINE
  8
0
 10
29.4321
 20
-1.2762
 11
29.4722
 21
-1.9133
  0
LINE
  8
0
 10
29.4722
 20
-1.9133
 11
29.5282
 21
-2.54918
  0
LINE
  8
0
 10
29.5282
 20
-2.54918
 11
29.6003
 21
-3.18346
  0
LINE
  8
0
 10
29.6003
 20
-3.18346
 11
29.6882
 21
-3.81572
  0
LINE
  8
0
 10
29.6882
 20
-3.81572
 11
29.7921
 21
-4.44557
  0
LINE
  8
0
 10
29.7921
 20
-4.44557
 11
29.9117
 21
-5.07263
  0
LINE
  8
0
 10
29.9117
 20
-5.07263
 11
30.047
 21
-5.69647
  0
LINE
  8
0
 10
30.047
 20
-5.69647
 11
30.198
 21
-6.31671
  0
LINE
  8
0
 10
30.198
 20
-6.31671
 11
30.3645
 21
-6.93297
  0
LINE
  8
0
 10
30.3645
 20
-6.93297
 11
30.5464
 21
-7.54485
  0
LINE
  8
0
 10
30.5464
 20
-7.54485
 11
30.7437
 21
-8.15196
  0
LINE
  8
0
 10
30.7437
 20
-8.15196
 11
30.9562
 21
-8.75392
  0
LINE
  8
0
 10
30.9562
 20
-8.75392
 11
31.1837
 21
-9.35036
  0
LINE
  8
0
 10
31.1837
 20
-9.35036
 11
31.4261
 21
-9.94089
  0
LINE
  8
0
 10
31.4261
 20
-9.94089
 11
31.6833
 21
-10.5251
  0
LINE
  8
0
 10
31.6833
 20
-10.5251
 11
31.9551
 21
-11.1027
  0
LINE
  8
0
 10
31.9551
 20
-11.1027
 11
32.2413
 21
-11.6733
  0
LINE
  8
0
 10
32.2413
 20
-11.6733
 11
32.5418
 21
-12.2365
  0
LINE
  8
0
 10
32.5418
 20
-12.2365
 11
32.8563
 21
-12.792
  0
LINE
  8
0
 10
32.8563
 20
-12.792
 11
33.1847
 21
-13.3394
  0
LINE
  8
0
 10
33.1847
 20
-13.3394
 11
33.5268
 21
-13.8784
  0
LINE
  8
0
 10
33.5268
 20
-13.8784
 11
33.8823
 21
-14.4086
  0
LINE
  8
0
 10
33.8823
 20
-14.4086
 11
34.251
 21
-14.9297
  0
LINE
  8
0
 10
34.251
 20
-14.9297
 11
34.6326
 21
-15.4414
  0
LINE
  8
0
 10
34.6326
 20
-15.4414
 11
35.0271
 21
-15.9434
  0
LINE
  8
0
 10
35.0271
 20
-15.9434
 11
35.434
 21
-16.4352
  0
LINE
  8
0
 10
35.434
 20
-16.4352
 11
35.8531
 21
-16.9167
  0
LINE
  8
0
 10
35.8531
 20
-16.9167
 11
36.2842
 21
-17.3875
  0
LINE
  8
0
 10
36.2842
 20
-17.3875
 11
36.727
 21
-17.8473
  0
LINE
  8
0
 10
36.727
 20
-17.8473
 11
37.1812
 21
-18.2958
  0
LINE
  8
0
 10
37.1812
 20
-18.2958
 11
37.6465
 21
-18.7328
  0
LINE
  8
0
 10
37.6465
 20
-18.7328
 11
38.1227
 21
-19.158
  0
LINE
  8
0
 10
38.1227
 20
-19.158
 11
38.6094
 21
-19.571
  0
LINE
  8
0
 10
38.6094
 20
-19.571
 11
39.1064
 21
-19.9717
  0
LINE
  8
0
 10
39.1064
 20
-19.9717
 11
39.6132
 21
-20.3598
  0
LINE
  8
0
 10
39.6132
 20
-20.3598
 11
40.1297
 21
-20.735
  0
LINE
  8
0
 10
40.1297
 20
-20.735
 11
40.6553
 21
-21.0971
  0
LINE
  8
0
 10
40.6553
 20
-21.0971
 11
41.19
 21
-21.4459
  0
LINE
  8
0
 10
41.19
 20
-21.4459
 11
41.7332
 21
-21.7812
  0
LINE
  8
0
 10
41.7332
 20
-21.7812
 11
42.2847
 21
-22.1027
  0
LINE
  8
0
 10
42.2847
 20
-22.1027
 11
42.8441
 21
-22.4102
  0
LINE
  8
0
 10
42.8441
 20
-22.4102
 11
43.4111
 21
-22.7036
  0
LINE
  8
0
 10
43.4111
 20
-22.7036
 11
43.9852
 21
-22.9826
  0
LINE
  8
0
 10
43.9852
 20
-22.9826
 11
44.5662
 21
-23.2471
  0
LINE
  8
0
 10
44.5662
 20
-23.2471
 11
45.1536
 21
-23.4969
  0
LINE
  8
0
 10
45.1536
 20
-23.4969
 11
45.7471
 21
-23.7319
  0
LINE
  8
0
 10
45.7471
 20
-23.7319
 11
46.3464
 21
-23.952
  0
LINE
  8
0
 10
46.3464
 20
-23.952
 11
46.951
 21
-24.1568
  0
LINE
  8
0
 10
46.951
 20
-24.1568
 11
47.5605
 21
-24.3465
  0
LINE
  8
0
 10
47.5605
 20
-24.3465
 11
48.1746
 21
-24.5207
  0
LINE
  8
0
 10
48.1746
 20
-24.5207
 11
48.7929
 21
-24.6794
  0
LINE
  8
0
 10
48.7929
 20
-24.6794
 11
49.415
 21
-24.8226
  0
LINE
  8
0
 10
49.415
 20
-24.8226
 11
50.0405
 21
-24.9501
  0
LINE
  8
0
 10
50.0405
 20
-24.9501
 11
50.669
 21
-25.0618
  0
LINE
  8
0
 10
50.669
 20
-25.0618
 11
51.3001
 21
-25.1577
  0
LINE
  8
0
 10
51.3001
 20
-25.1577
 11
51.9334
 21
-25.2377
  0
LINE
  8
0
 10
51.9334
 20
-25.2377
 11
52.5686
 21
-25.3018
  0
LINE
  8
0
 10
52.5686
 20
-25.3018
 11
53.2051
 21
-25.3499
  0
LINE
  8
0
 10
53.2051
 20
-25.3499
 11
53.8427
 21
-25.3819
  0
LINE
  8
0
 10
53.8427
 20
-25.3819
 11
54.4808
 21
-25.398
  0
LINE
  8
0
 10
54.4808
 20
-25.398
 11
55.1192
 21
-25.398
  0
LINE
  8
0
 10
55.1192
 20
-25.398
 11
55.7573
 21
-25.3819
  0
LINE
  8
0
 10
55.7573
 20
-25.3819
 11
56.3949
 21
-25.3499
  0
LINE
  8
0
 10
56.3949
 20
-25.3499
 11
57.0314
 21
-25.3018
  0
LINE
  8
0
 10
57.0314
 20
-25.3018
 11
57.6665
 21
-25.2377
  0
LINE
  8
0
 10
57.6665
 20
-25.2377
 11
58.2999
 21
-25.1577
  0
LINE
  8
0
 10
58.2999
 20
-25.1577
 11
58.931
 21
-25.0618
  0
LINE
  8
0
 10
58.931
 20
-25.0618
 11
59.5595
 21
-24.9501
  0
LINE
  8
0
 10
59.5595
 20
-24.9501
 11
60.185
 21
-24.8226
  0
LINE
  8
0
 10
60.185
 20
-24.8226
 11
60.8071
 21
-24.6794
  0
LINE
  8
0
 10
60.8071
 20
-24.6794
 11
61.4254
 21
-24.5207
  0
LINE
  8
0
 10
61.4254
 20
-24.5207
 11
62.0395
 21
-24.3465
  0
LINE
  8
0
 10
62.0395
 20
-24.3465
 11
62.649
 21
-24.1568
  0
LINE
  8
0
 10
62.649
 20
-24.1568
 11
63.2536
 21
-23.952
  0
LINE
  8
0
 10
63.2536
 20
-23.952
 11
63.8528
 21
-23.7319
  0
LINE
  8
0
 10
63.8528
 20
-23.7319
 11
64.4464
 21
-23.4969
  0
LINE
  8
0
 10
64.4464
 20
-23.4969
 11
65.0338
 21
-23.2471
  0
LINE
  8
0
 10
65.0338
 20
-23.2471
 11
65.6148
 21
-22.9826
  0
LINE
  8
0
 10
65.6148
 20
-22.9826
 11
66.1889
 21
-22.7036
  0
LINE
  8
0
 10
66.1889
 20
-22.7036
 11
66.7559
 21
-22.4102
  0
LINE
  8
0
 10
66.7559
 20
-22.4102
 11
67.3153
 21
-22.1027
  0
LINE
  8
0
 10
67.3153
 20
-22.1027
 11
67.8668
 21
-21.7812
  0
LINE
  8
0
 10
67.8668
 20
-21.7812
 11
68.41
 21
-21.4459
  0
LINE
  8
0
 10
68.41
 20
-21.4459
 11
68.9446
 21
-21.0971
  0
LINE
  8
0
 10
68.9446
 20
-21.0971
 11
69.4703
 21
-20.735
  0
LINE
  8
0
 10
69.4703
 20
-20.735
 11
69.9868
 21
-20.3598
  0
LINE
  8
0
 10
69.9868
 20
-20.3598
 11
70.4936
 21
-19.9717
  0
LINE
  8
0
 10
70.4936
 20
-19.9717
 11
70.9906
 21
-19.571
  0
LINE
  8
0
 10
70.9906
 20
-19.571
 11
71.4773
 21
-19.158
  0
LINE
  8
0
 10
71.4773
 20
-19.158
 11
71.9534
 21
-18.7328
  0
LINE
  8
0
 10
71.9534
 20
-18.7328
 11
72.4188
 21
-18.2958
  0
LINE
  8
0
 10
72.4188
 20
-18.2958
 11
72.873
 21
-17.8473
  0
LINE
  8
0
 10
72.873
 20
-17.8473
 11
73.3158
 21
-17.3875
  0
LINE
  8
0
 10
73.3158
 20
-17.3875
 11
73.7469
 21
-16.9167
  0
LINE
  8
0
 10
73.7469
 20
-16.9167
 11
74.166
 21
-16.4352
  0
LINE
  8
0
 10
74.166
 20
-16.4352
 11
74.5729
 21
-15.9434
  0
LINE
  8
0
 10
74.5729
 20
-15.9434
 11
74.9673
 21
-15.4414
  0
LINE
  8
0
 10
74.9673
 20
-15.4414
 11
75.349
 21
-14.9297
  0
LINE
  8
0
 10
75.349
 20
-14.9297
 11
75.7177
 21
-14.4086
  0
LINE
  8
0
 10
75.7177
 20
-14.4086
 11
76.0732
 21
-13.8784
  0
LINE
  8
0
 10
76.0732
 20
-13.8784
 11
76.4153
 21
-13.3394
  0
LINE
  8
0
 10
76.4153
 20
-13.3394
 11
76.7437
 21
-12.792
  0
LINE
  8
0
 10
76.7437
 20
-12.792
 11
77.0582
 21
-12.2365
  0
LINE
  8
0
 10
77.0582
 20
-12.2365
 11
77.3587
 21
-11.6733
  0
LINE
  8
0
 10
77.3587
 20
-11.6733
 11
77.6449
 21
-11.1027
  0
LINE
  8
0
 10
77.6449
 20
-11.1027
 11
77.9167
 21
-10.5251
  0
LINE
  8
0
 10
77.9167
 20
-10.5251
 11
78.1739
 21
-9.94089
  0
LINE
  8
0
 10
78.1739
 20
-9.94089
 11
78.4163
 21
-9.35036
  0
LINE
  8
0
 10
78.4163
 20
-9.35036
 11
78.6438
 21
-8.75392
  0
LINE
  8
0
 10
78.6438
 20
-8.75392
 11
78.8563
 21
-8.15196
  0
LINE
  8
0
 10
78.8563
 20
-8.15196
 11
79.0536
 21
-7.54485
  0
LINE
  8
0
 10
79.0536
 20
-7.54485
 11
79.2355
 21
-6.93297
  0
LINE
  8
0
 10
79.2355
 20
-6.93297
 11
79.402
 21
-6.31671
  0
LINE
  8
0
 10
79.402
 20
-6.31671
 11
79.553
 21
-5.69647
  0
LINE
  8
0
 10
79.553
 20
-5.69647
 11
79.6883
 21
-5.07263
  0
LINE
  8
0
 10
79.6883
 20
-5.07263
 11
79.8079
 21
-4.44557
  0
LINE
  8
0
 10
79.8079
 20
-4.44557
 11
79.9117
 21
-3.81572
  0
LINE
  8
0
 10
79.9117
 20
-3.81572
 11
79.9997
 21
-3.18346
  0
LINE
  8
0
 10
79.9997
 20
-3.18346
 11
80.0717
 21
-2.54918
  0
LINE
  8
0
 10
80.0717
 20
-2.54918
 11
80.1278
 21
-1.9133
  0
LINE
  8
0
 10
80.1278
 20
-1.9133
 11
80.1679
 21
-1.2762
  0
LINE
  8
0
 10
80.1679
 20
-1.2762
 11
80.192
 21
-0.63829
  0
LINE
  8
0
 10
80.192
 20
-0.63829
 11
80.2
 21
0
  0
LINE
  8
0
 10
80.2
 20
0
 11
80.192
 21
0.63829
  0
LINE
  8
0
 10
80.192
 20
0.63829
 11
80.1679
 21
1.2762
  0
LINE
  8
0
 10
80.1679
 20
1.2762
 11
80.1278
 21
1.9133
  0
LINE
  8
0
 10
80.1278
 20
1.9133
 11
80.0717
 21
2.54918
  0
LINE
  8
0
 10
80.0717
 20
2.54918
 11
79.9997
 21
3.18346
  0
LINE
  8
0
 10
79.9997
 20
3.18346
 11
79.9117
 21
3.81572
  0
LINE
  8
0
 10
79.9117
 20
3.81572
 11
79.8079
 21
4.44557
  0
LINE
  8
0
 10
79.8079
 20
4.44557
 11
79.6883
 21
5.07263
  0
LINE
  8
0
 10
79.6883
 20
5.07263
 11
79.553
 21
5.69647
  0
LINE
  8
0
 10
79.553
 20
5.69647
 11
79.402
 21
6.31671
  0
LINE
  8
0
 10
79.402
 20
6.31671
 11
79.2355
 21
6.93297
  0
LINE
  8
0
 10
79.2355
 20
6.93297
 11
79.0536
 21
7.54485
  0
LINE
  8
0
 10
79.0536
 20
7.54485
 11
78.8563
 21
8.15196
  0
LINE
  8
0
 10
78.8563
 20
8.15196
 11
78.6438
 21
8.75392
  0
LINE
  8
0
 10
78.6438
 20
8.75392
 11
78.4163
 21
9.35036
  0
LINE
  8
0
 10
78.4163
 20
9.35036
 11
78.1739
 21
9.94089
  0
LINE
  8
0
 10
78.1739
 20
9.94089
 11
77.9167
 21
10.5251
  0
LINE
  8
0
 10
77.9167
 20
10.5251
 11
77.6449
 21
11.1027
  0
LINE
  8
0
 10
77.6449
 20
11.1027
 11
77.3587
 21
11.6733
  0
LINE
  8
0
 10
77.3587
 20
11.6733
 11
77.0582
 21
12.2365
  0
LINE
  8
0
 10
77.0582
 20
12.2365
 11
76.7437
 21
12.792
  0
LINE
  8
0
 10
76.7437
 20
12.792
 11
76.4153
 21
13.3394
  0
LINE
  8
0
 10
76.4153
 20
13.3394
 11
76.0732
 21
13.8784
  0
LINE
  8
0
 10
76.0732
 20
13.8784
 11
75.7177
 21
14.4086
  0
LINE
  8
0
 10
75.7177
 20
14.4086
 11
75.349
 21
14.9297
  0
LINE
  8
0
 10
75.349
 20
14.9297
 11
74.9673
 21
15.4414
  0
LINE
  8
0
 10
74.9673
 20
15.4414
 11
74.5729
 21
15.9434
  0
LINE
  8
0
 10
74.5729
 20
15.9434
 11
74.166
 21
16.4352
  0
LINE
  8
0
 10
74.166
 20
16.4352
 11
73.7469
 21
16.9167
  0
LINE
  8
0
 10
73.7469
 20
16.9167
 11
73.3158
 21
17.3875
  0
LINE
  8
0
 10
73.3158
 20
17.3875
 11
72.873
 21
17.8473
  0
LINE
  8
0
 10
72.873
 20
17.8473
 11
72.4188
 21
18.2958
  0
LINE
  8
0
 10
72.4188
 20
18.2958
 11
71.9534
 21
18.7328
  0
LINE
  8
0
 10
71.9534
 20
18.7328
 11
71.4773
 21
19.158
  0
LINE
  8
0
 10
71.4773
 20
19.158
 11
70.9906
 21
19.571
  0
LINE
  8
0
 10
70.9906
 20
19.571
 11
70.4936
 21
19.9717
  0
LINE
  8
0
 10
70.4936
 20
19.9717
 11
69.9868
 21
20.3598
  0
LINE
  8
0
 10
69.9868
 20
20.3598
 11
69.4703
 21
20.735
  0
LINE
  8
0
 10
69.4703
 20
20.735
 11
68.9446
 21
21.0971
  0
LINE
  8
0
 10
68.9446
 20
21.0971
 11
68.41
 21
21.4459
  0
LINE
  8
0
 10
68.41
 20
21.4459
 11
67.8668
 21
21.7812
  0
LINE
  8
0
 10
67.8668
 20
21.7812
 11
67.3153
 21
22.1027
  0
LINE
  8
0
 10
67.3153
 20
22.1027
 11
66.7559
 21
22.4102
  0
LINE
  8
0
 10
66.7559
 20
22.4102
 11
66.1889
 21
22.7036
  0
LINE
  8
0
 10
66.1889
 20
22.7036
 11
65.6148
 21
22.9826
  0
LINE
  8
0
 10
65.6148
 20
22.9826
 11
65.0338
 21
23.2471
  0
LINE
  8
0
 10
65.0338
 20
23.2471
 11
64.4464
 21
23.4969
  0
LINE
  8
0
 10
64.4464
 20
23.4969
 11
63.8528
 21
23.7319
  0
LINE
  8
0
 10
63.8528
 20
23.7319
 11
63.2536
 21
23.952
  0
LINE
  8
0
 10
63.2536
 20
23.952
 11
62.649
 21
24.1568
  0
LINE
  8
0
 10
62.649
 20
24.1568
 11
62.0395
 21
24.3465
  0
LINE
  8
0
 10
62.0395
 20
24.3465
 11
61.4254
 21
24.5207
  0
LINE
  8
0
 10
61.4254
 20
24.5207
 11
60.8071
 21
24.6794
  0
LINE
  8
0
 10
60.8071
 20
24.6794
 11
60.185
 21
24.8226
  0
LINE
  8
0
 10
60.185
 20
24.8226
 11
59.5595
 21
24.9501
  0
LINE
  8
0
 10
59.5595
 20
24.9501
 11
58.931
 21
25.0618
  0
LINE
  8
0
 10
58.931
 20
25.0618
 11
58.2999
 21
25.1577
  0
LINE
  8
0
 10
58.2999
 20
25.1577
 11
57.6665
 21
25.2377
  0
LINE
  8
0
 10
57.6665
 20
25.2377
 11
57.0314
 21
25.3018
  0
LINE
  8
0
 10
57.0314
 20
25.3018
 11
56.3949
 21
25.3499
  0
LINE
  8
0
 10
56.3949
 20
25.3499
 11
55.7573
 21
25.3819
  0
LINE
  8
0
 10
55.7573
 20
25.3819
 11
55.1192
 21
25.398
  0
LINE
  8
0
 10
55.1192
 20
25.398
 11
54.4808
 21
25.398
  0
LINE
  8
0
 10
54.4808
 20
25.398
 11
53.8427
 21
25.3819
  0
LINE
  8
0
 10
53.8427
 20
25.3819
 11
53.2051
 21
25.3499
  0
LINE
  8
0
 10
53.2051
 20
25.3499
 11
52.5686
 21
25.3018
  0
LINE
  8
0
 10
52.5686
 20
25.3018
 11
51.9334
 21
25.2377
  0
LINE
  8
0
 10
51.9334
 20
25.2377
 11
51.3001
 21
25.1577
  0
LINE
  8
0
 10
51.3001
 20
25.1577
 11
50.669
 21
25.0618
  0
LINE
  8
0
 10
50.669
 20
25.0618
 11
50.0405
 21
24.9501
  0
LINE
  8
0
 10
50.0405
 20
24.9501
 11
49.415
 21
24.8226
  0
LINE
  8
0
 10
49.415
 20
24.8226
 11
48.7929
 21
24.6794
  0
LINE
  8
0
 10
48.7929
 20
24.6794
 11
48.1746
 21
24.5207
  0
LINE
  8
0
 10
48.1746
 20
24.5207
 11
47.5605
 21
24.3465
  0
LINE
  8
0
 10
47.5605
 20
24.3465
 11
46.951
 21
24.1568
  0
LINE
  8
0
 10
46.951
 20
24.1568
 11
46.3464
 21
23.952
  0
LINE
  8
0
 10
46.3464
 20
23.952
 11
45.7471
 21
23.7319
  0
LINE
  8
0
 10
45.7471
 20
23.7319
 11
45.1536
 21
23.4969
  0
LINE
  8
0
 10
45.1536
 20
23.4969
 11
44.5662
 21
23.2471
  0
LINE
  8
0
 10
44.5662
 20
23.2471
 11
43.9852
 21
22.9826
  0
LINE
  8
0
 10
43.9852
 20
22.9826
 11
43.4111
 21
22.7036
  0
LINE
  8
0
 10
43.4111
 20
22.7036
 11
42.8441
 21
22.4102
  0
LINE
  8
0
 10
42.8441
 20
22.4102
 11
42.2847
 21
22.1027
  0
LINE
  8
0
 10
42.2847
 20
22.1027
 11
41.7332
 21
21.7812
  0
LINE
  8
0
 10
41.7332
 20
21.7812
 11
41.19
 21
21.4459
  0
LINE
  8
0
 10
41.19
 20
21.4459
 11
40.6553
 21
21.0971
  0
LINE
  8
0
 10
40.6553
 20
21.0971
 11
40.1297
 21
20.735
  0
LINE
  8
0
 10
40.1297
 20
20.735
 11
39.6132
 21
20.3598
  0
LINE
  8
0
 10
39.6132
 20
20.3598
 11
39.1064
 21
19.9717
  0
LINE
  8
0
 10
39.1064
 20
19.9717
 11
38.6094
 21
19.571
  0
LINE
  8
0
 10
38.6094
 20
19.571
 11
38.1227
 21
19.158
  0
LINE
  8
0
 10
38.1227
 20
19.158
 11
37.6465
 21
18.7328
  0
LINE
  8
0
 10
37.6465
 20
18.7328
 11
37.1812
 21
18.2958
  0
LINE
  8
0
 10
37.1812
 20
18.2958
 11
36.727
 21
17.8473
  0
LINE
  8
0
 10
36.727
 20
17.8473
 11
36.2842
 21
17.3875
  0
LINE
  8
0
 10
36.2842
 20
17.3875
 11
35.8531
 21
16.9167
  0
LINE
  8
0
 10
35.8531
 20
16.9167
 11
35.434
 21
16.4352
  0
LINE
  8
0
 10
35.434
 20
16.4352
 11
35.0271
 21
15.9434
  0
LINE
  8
0
 10
35.0271
 20
15.9434
 11
34.6326
 21
15.4414
  0
LINE
  8
0
 10
34.6326
 20
15.4414
 11
34.251
 21
14.9297
  0
LINE
  8
0
 10
34.251
 20
14.9297
 11
33.8823
 21
14.4086
  0
LINE
  8
0
 10
33.8823
 20
14.4086
 11
33.5268
 21
13.8784
  0
LINE
  8
0
 10
33.5268
 20
13.8784
 11
33.1847
 21
13.3394
  0
LINE
  8
0
 10
33.1847
 20
13.3394
 11
32.8563
 21
12.792
  0
LINE
  8
0
 10
32.8563
 20
12.792
 11
32.5418
 21
12.2365
  0
LINE
  8
0
 10
32.5418
 20
12.2365
 11
32.2413
 21
11.6733
  0
LINE
  8
0
 10
32.2413
 20
11.6733
 11
31.9551
 21
11.1027
  0
LINE
  8
0
 10
31.9551
 20
11.1027
 11
31.6833
 21
10.5251
  0
LINE
  8
0
 10
31.6833
 20
10.5251
 11
31.4261
 21
9.94089
  0
LINE
  8
0
 10
31.4261
 20
9.94089
 11
31.1837
 21
9.35036
  0
LINE
  8
0
 10
31.1837
 20
9.35036
 11
30.9562
 21
8.75392
  0
LINE
  8
0
 10
30.9562
 20
8.75392
 11
30.7437
 21
8.15196
  0
LINE
  8
0
 10
30.7437
 20
8.15196
 11
30.5464
 21
7.54485
  0
LINE
  8
0
 10
30.5464
 20
7.54485
 11
30.3645
 21
6.93297
  0
LINE
  8
0
 10
30.3645
 20
6.93297
 11
30.198
 21
6.31671
  0
LINE
  8
0
 10
30.198
 20
6.31671
 11
30.047
 21
5.69647
  0
LINE
  8
0
 10
30.047
 20
5.69647
 11
29.9117
 21
5.07263
  0
LINE
  8
0
 10
29.9117
 20
5.07263
 11
29.7921
 21
4.44557
  0
LINE
  8
0
 10
29.7921
 20
4.44557
 11
29.6882
 21
3.81572
  0
LINE
  8
0
 10
29.6882
 20
3.81572
 11
29.6003
 21
3.18346
  0
LINE
  8
0
 10
29.6003
 20
3.18346
 11
29.5282
 21
2.54918
  0
LINE
  8
0
 10
29.5282
 20
2.54918
 11
29.4722
 21
1.9133
  0
LINE
  8
0
 10
29.4722
 20
1.9133
 11
29.4321
 21
1.2762
  0
LINE
  8
0
 10
29.4321
 20
1.2762
 11
29.408
 21
0.63829
  0
LINE
  8
0
 10
29.408
 20
0.63829
 11
29.4
 21
0
  0
LINE
  8
0
 10
29.4
 20
0
 11
29.408
 21
-0.63829
  0
LINE
  8
0
 10
29.408
 20
-0.63829
 11
29.4321
 21
-1.2762
  0
LINE
  8
0
 10
39.4694
 20
0.77124
 11
39.4936
 21
1.15627
  0
LINE
  8
0
 10
39.4936
 20
1.15627
 11
39.5275
 21
1.54054
  0
LINE
  8
0
 10
39.5275
 20
1.54054
 11
39.571
 21
1.92386
  0
LINE
  8
0
 10
39.571
 20
1.92386
 11
39.6242
 21
2.30595
  0
LINE
  8
0
 10
39.6242
 20
2.30595
 11
39.6869
 21
2.6866
  0
LINE
  8
0
 10
39.6869
 20
2.6866
 11
39.7592
 21
3.06554
  0
LINE
  8
0
 10
39.7592
 20
3.06554
 11
39.841
 21
3.44255
  0
LINE
  8
0
 10
39.841
 20
3.44255
 11
39.9323
 21
3.81738
  0
LINE
  8
0
 10
39.9323
 20
3.81738
 11
40.0329
 21
4.1898
  0
LINE
  8
0
 10
40.0329
 20
4.1898
 11
40.1428
 21
4.55959
  0
LINE
  8
0
 10
40.1428
 20
4.55959
 11
40.262
 21
4.92648
  0
LINE
  8
0
 10
40.262
 20
4.92648
 11
40.3904
 21
5.29027
  0
LINE
  8
0
 10
40.3904
 20
5.29027
 11
40.5279
 21
5.65071
  0
LINE
  8
0
 10
40.5279
 20
5.65071
 11
40.6744
 21
6.00758
  0
LINE
  8
0
 10
40.6744
 20
6.00758
 11
40.8299
 21
6.36066
  0
LINE
  8
0
 10
40.8299
 20
6.36066
 11
40.9941
 21
6.70972
  0
LINE
  8
0
 10
40.9941
 20
6.70972
 11
41.1671
 21
7.05455
  0
LINE
  8
0
 10
41.1671
 20
7.05455
 11
41.3487
 21
7.39491
  0
LINE
  8
0
 10
41.3487
 20
7.39491
 11
41.5388
 21
7.73061
  0
LINE
  8
0
 10
41.5388
 20
7.73061
 11
41.7372
 21
8.06142
  0
LINE
  8
0
 10
41.7372
 20
8.06142
 11
41.9439
 21
8.38715
  0
LINE
  8
0
 10
41.9439
 20
8.38715
 11
42.1588
 21
8.70757
  0
LINE
  8
0
 10
42.1588
 20
8.70757
 11
42.3816
 21
9.02249
  0
LINE
  8
0
 10
42.3816
 20
9.02249
 11
42.6122
 21
9.33173
  0
LINE
  8
0
 10
42.6122
 20
9.33173
 11
42.8506
 21
9.63506
  0
LINE
  8
0
 10
42.8506
 20
9.63506
 11
43.0965
 21
9.9323
  0
LINE
  8
0
 10
43.0965
 20
9.9323
 11
43.3498
 21
10.2233
  0
LINE
  8
0
 10
43.3498
 20
10.2233
 11
43.6103
 21
10.5078
  0
LINE
  8
0
 10
43.6103
 20
10.5078
 11
43.8779
 21
10.7857
  0
LINE
  8
0
 10
43.8779
 20
10.7857
 11
44.1524
 21
11.0567
  0
LINE
  8
0
 10
44.1524
 20
11.0567
 11
44.4336
 21
11.3208
  0
LINE
  8
0
 10
44.4336
 20
11.3208
 11
44.7214
 21
11.5777
  0
LINE
  8
0
 10
44.7214
 20
11.5777
 11
45.0155
 21
11.8274
  0
LINE
  8
0
 10
45.0155
 20
11.8274
 11
45.3159
 21
12.0695
  0
LINE
  8
0
 10
45.3159
 20
12.0695
 11
45.6221
 21
12.304
  0
LINE
  8
0
 10
45.6221
 20
12.304
 11
45.9342
 21
12.5308
  0
LINE
  8
0
 10
45.9342
 20
12.5308
 11
46.252
 21
12.7496
  0
LINE
  8
0
 10
46.252
 20
12.7496
 11
46.5751
 21
12.9604
  0
LINE
  8
0
 10
46.5751
 20
12.9604
 11
46.9034
 21
13.163
  0
LINE
  8
0
 10
46.9034
 20
13.163
 11
47.2366
 21
13.3573
  0
LINE
  8
0
 10
47.2366
 20
13.3573
 11
47.5747
 21
13.5432
  0
LINE
  8
0
 10
47.5747
 20
13.5432
 11
47.9173
 21
13.7205
  0
LINE
  8
0
 10
47.9173
 20
13.7205
 11
48.2643
 21
13.8891
  0
LINE
  8
0
 10
48.2643
 20
13.8891
 11
48.6154
 21
14.049
  0
LINE
  8
0
 10
48.6154
 20
14.049
 11
48.9704
 21
14.1999
  0
LINE
  8
0
 10
48.9704
 20
14.1999
 11
49.3291
 21
14.3419
  0
LINE
  8
0
 10
49.3291
 20
14.3419
 11
49.6912
 21
14.4749
  0
LINE
  8
0
 10
49.6912
 20
14.4749
 11
50.0566
 21
14.5987
  0
LINE
  8
0
 10
50.0566
 20
14.5987
 11
50.425
 21
14.7133
  0
LINE
  8
0
 10
50.425
 20
14.7133
 11
50.7961
 21
14.8186
  0
LINE
  8
0
 10
50.7961
 20
14.8186
 11
51.1697
 21
14.9145
  0
LINE
  8
0
 10
51.1697
 20
14.9145
 11
51.5457
 21
15.0011
  0
LINE
  8
0
 10
51.5457
 20
15.0011
 11
51.9237
 21
15.0781
  0
LINE
  8
0
 10
51.9237
 20
15.0781
 11
52.3035
 21
15.1456
  0
LINE
  8
0
 10
52.3035
 20
15.1456
 11
52.6849
 21
15.2036
  0
LINE
  8
0
 10
52.6849
 20
15.2036
 11
53.0677
 21
15.2519
  0
LINE
  8
0
 10
53.0677
 20
15.2519
 11
53.2
 21
15.2653
  0
LINE
  8
0
 10
53.2
 20
15.2653
 11
53.2
 21
20.35
  0
LINE
  8
0
 10
53.2
 20
20.35
 11
56.4
 21
20.35
  0
LINE
  8
0
 10
56.4
 20
20.35
 11
56.4
 21
15.2653
  0
LINE
  8
0
 10
56.4
 20
15.2653
 11
56.5323
 21
15.2519
  0
LINE
  8
0
 10
56.5323
 20
15.2519
 11
56.9151
 21
15.2036
  0
LINE
  8
0
 10
56.9151
 20
15.2036
 11
57.2965
 21
15.1456
  0
LINE
  8
0
 10
57.2965
 20
15.1456
 11
57.6763
 21
15.0781
  0
LINE
  8
0
 10
57.6763
 20
15.0781
 11
58.0543
 21
15.0011
  0
LINE
  8
0
 10
58.0543
 20
15.0011
 11
58.4302
 21
14.9145
  0
LINE
  8
0
 10
58.4302
 20
14.9145
 11
58.8039
 21
14.8186
  0
LINE
  8
0
 10
58.8039
 20
14.8186
 11
59.175
 21
14.7133
  0
LINE
  8
0
 10
59.175
 20
14.7133
 11
59.5434
 21
14.5987
  0
LINE
  8
0
 10
59.5434
 20
14.5987
 11
59.9088
 21
14.4749
  0
LINE
  8
0
 10
59.9088
 20
14.4749
 11
60.2709
 21
14.3419
  0
LINE
  8
0
 10
60.2709
 20
14.3419
 11
60.6296
 21
14.1999
  0
LINE
  8
0
 10
60.6296
 20
14.1999
 11
60.9846
 21
14.049
  0
LINE
  8
0
 10
60.9846
 20
14.049
 11
61.3357
 21
13.8891
  0
LINE
  8
0
 10
61.3357
 20
13.8891
 11
61.6827
 21
13.7205
  0
LINE
  8
0
 10
61.6827
 20
13.7205
 11
62.0253
 21
13.5432
  0
LINE
  8
0
 10
62.0253
 20
13.5432
 11
62.3633
 21
13.3573
  0
LINE
  8
0
 10
62.3633
 20
13.3573
 11
62.6966
 21
13.163
  0
LINE
  8
0
 10
62.6966
 20
13.163
 11
63.0249
 21
12.9604
  0
LINE
  8
0
 10
63.0249
 20
12.9604
 11
63.348
 21
12.7496
  0
LINE
  8
0
 10
63.348
 20
12.7496
 11
63.6657
 21
12.5308
  0
LINE
  8
0
 10
63.6657
 20
12.5308
 11
63.9778
 21
12.304
  0
LINE
  8
0
 10
63.9778
 20
12.304
 11
64.2841
 21
12.0695
  0
LINE
  8
0
 10
64.2841
 20
12.0695
 11
64.5845
 21
11.8274
  0
LINE
  8
0
 10
64.5845
 20
11.8274
 11
64.8786
 21
11.5777
  0
LINE
  8
0
 10
64.8786
 20
11.5777
 11
65.1664
 21
11.3208
  0
LINE
  8
0
 10
65.1664
 20
11.3208
 11
65.4476
 21
11.0567
  0
LINE
  8
0
 10
65.4476
 20
11.0567
 11
65.7221
 21
10.7857
  0
LINE
  8
0
 10
65.7221
 20
10.7857
 11
65.9897
 21
10.5078
  0
LINE
  8
0
 10
65.9897
 20
10.5078
 11
66.2502
 21
10.2233
  0
LINE
  8
0
 10
66.2502
 20
10.2233
 11
66.5035
 21
9.9323
  0
LINE
  8
0
 10
66.5035
 20
9.9323
 11
66.7494
 21
9.63506
  0
LINE
  8
0
 10
66.7494
 20
9.63506
 11
66.9877
 21
9.33173
  0
LINE
  8
0
 10
66.9877
 20
9.33173
 11
67.2184
 21
9.02249
  0
LINE
  8
0
 10
67.2184
 20
9.02249
 11
67.4412
 21
8.70757
  0
LINE
  8
0
 10
67.4412
 20
8.70757
 11
67.6561
 21
8.38715
  0
LINE
  8
0
 10
67.6561
 20
8.38715
 11
67.8628
 21
8.06142
  0
LINE
  8
0
 10
67.8628
 20
8.06142
 11
68.0612
 21
7.73061
  0
LINE
  8
0
 10
68.0612
 20
7.73061
 11
68.2513
 21
7.39491
  0
LINE
  8
0
 10
68.2513
 20
7.39491
 11
68.4329
 21
7.05455
  0
LINE
  8
0
 10
68.4329
 20
7.05455
 11
68.6059
 21
6.70972
  0
LINE
  8
0
 10
68.6059
 20
6.70972
 11
68.7701
 21
6.36066
  0
LINE
  8
0
 10
68.7701
 20
6.36066
 11
68.9256
 21
6.00758
  0
LINE
  8
0
 10
68.9256
 20
6.00758
 11
69.0721
 21
5.65071
  0
LINE
  8
0
 10
69.0721
 20
5.65071
 11
69.2096
 21
5.29027
  0
LINE
  8
0
 10
69.2096
 20
5.29027
 11
69.338
 21
4.92648
  0
LINE
  8
0
 10
69.338
 20
4.92648
 11
69.4572
 21
4.55959
  0
LINE
  8
0
 10
69.4572
 20
4.55959
 11
69.5671
 21
4.1898
  0
LINE
  8
0
 10
69.5671
 20
4.1898
 11
69.6677
 21
3.81738
  0
LINE
  8
0
 10
69.6677
 20
3.81738
 11
69.759
 21
3.44255
  0
LINE
  8
0
 10
69.759
 20
3.44255
 11
69.8408
 21
3.06554
  0
LINE
  8
0
 10
69.8408
 20
3.06554
 11
69.9131
 21
2.6866
  0
LINE
  8
0
 10
69.9131
 20
2.6866
 11
69.9758
 21
2.30595
  0
LINE
  8
0
 10
69.9758
 20
2.30595
 11
70.029
 21
1.92386
  0
LINE
  8
0
 10
70.029
 20
1.92386
 11
70.0725
 21
1.54054
  0
LINE
  8
0
 10
70.0725
 20
1.54054
 11
70.1064
 21
1.15627
  0
LINE
  8
0
 10
70.1064
 20
1.15627
 11
70.1306
 21
0.77124
  0
LINE
  8
0
 10
70.1306
 20
0.77124
 11
70.1451
 21
0.385742
  0
LINE
  8
0
 10
70.1451
 20
0.385742
 11
70.15
 21
0
  0
LINE
  8
0
 10
70.15
 20
0
 11
70.1451
 21
-0.385742
  0
LINE
  8
0
 10
70.1451
 20
-0.385742
 11
70.1306
 21
-0.77124
  0
LINE
  8
0
 10
70.1306
 20
-0.77124
 11
70.1064
 21
-1.15627
  0
LINE
  8
0
 10
70.1064
 20
-1.15627
 11
70.0725
 21
-1.54054
  0
LINE
  8
0
 10
70.0725
 20
-1.54054
 11
70.029
 21
-1.92386
  0
LINE
  8
0
 10
70.029
 20
-1.92386
 11
69.9758
 21
-2.30595
  0
LINE
  8
0
 10
69.9758
 20
-2.30595
 11
69.9131
 21
-2.6866
  0
LINE
  8
0
 10
69.9131
 20
-2.6866
 11
69.8408
 21
-3.06554
  0
LINE
  8
0
 10
69.8408
 20
-3.06554
 11
69.759
 21
-3.44255
  0
LINE
  8
0
 10
69.759
 20
-3.44255
 11
69.6677
 21
-3.81738
  0
LINE
  8
0
 10
69.6677
 20
-3.81738
 11
69.5671
 21
-4.1898
  0
LINE
  8
0
 10
69.5671
 20
-4.1898
 11
69.4572
 21
-4.55959
  0
LINE
  8
0
 10
69.4572
 20
-4.55959
 11
69.338
 21
-4.92648
  0
LINE
  8
0
 10
69.338
 20
-4.92648
 11
69.2096
 21
-5.29027
  0
LINE
  8
0
 10
69.2096
 20
-5.29027
 11
69.0721
 21
-5.65071
  0
LINE
  8
0
 10
69.0721
 20
-5.65071
 11
68.9256
 21
-6.00758
  0
LINE
  8
0
 10
68.9256
 20
-6.00758
 11
68.8201
 21
-6.24701
  0
LINE
  8
0
 10
68.8201
 20
-6.24701
 11
73.2236
 21
-8.78935
  0
LINE
  8
0
 10
73.2236
 20
-8.78935
 11
71.6236
 21
-11.5606
  0
LINE
  8
0
 10
71.6236
 20
-11.5606
 11
67.221
 21
-9.01878
  0
LINE
  8
0
 10
67.221
 20
-9.01878
 11
67.2184
 21
-9.02249
  0
LINE
  8
0
 10
67.2184
 20
-9.02249
 11
66.9877
 21
-9.33173
  0
LINE
  8
0
 10
66.9877
 20
-9.33173
 11
66.7494
 21
-9.63506
  0
LINE
  8
0
 10
66.7494
 20
-9.63506
 11
66.5035
 21
-9.9323
  0
LINE
  8
0
 10
66.5035
 20
-9.9323
 11
66.2502
 21
-10.2233
  0
LINE
  8
0
 10
66.2502
 20
-10.2233
 11
65.9897
 21
-10.5078
  0
LINE
  8
0
 10
65.9897
 20
-10.5078
 11
65.7221
 21
-10.7857
  0
LINE
  8
0
 10
65.7221
 20
-10.7857
 11
65.4476
 21
-11.0567
  0
LINE
  8
0
 10
65.4476
 20
-11.0567
 11
65.1664
 21
-11.3208
  0
LINE
  8
0
 10
65.1664
 20
-11.3208
 11
64.8786
 21
-11.5777
  0
LINE
  8
0
 10
64.8786
 20
-11.5777
 11
64.5845
 21
-11.8274
  0
LINE
  8
0
 10
64.5845
 20
-11.8274
 11
64.2841
 21
-12.0695
  0
LINE
  8
0
 10
64.2841
 20
-12.0695
 11
63.9778
 21
-12.304
  0
LINE
  8
0
 10
63.9778
 20
-12.304
 11
63.6657
 21
-12.5308
  0
LINE
  8
0
 10
63.6657
 20
-12.5308
 11
63.348
 21
-12.7496
  0
LINE
  8
0
 10
63.348
 20
-12.7496
 11
63.0249
 21
-12.9604
  0
LINE
  8
0
 10
63.0249
 20
-12.9604
 11
62.6966
 21
-13.163
  0
LINE
  8
0
 10
62.6966
 20
-13.163
 11
62.3633
 21
-13.3573
  0
LINE
  8
0
 10
62.3633
 20
-13.3573
 11
62.0253
 21
-13.5432
  0
LINE
  8
0
 10
62.0253
 20
-13.5432
 11
61.6827
 21
-13.7205
  0
LINE
  8
0
 10
61.6827
 20
-13.7205
 11
61.3357
 21
-13.8891
  0
LINE
  8
0
 10
61.3357
 20
-13.8891
 11
60.9846
 21
-14.049
  0
LINE
  8
0
 10
60.9846
 20
-14.049
 11
60.6296
 21
-14.1999
  0
LINE
  8
0
 10
60.6296
 20
-14.1999
 11
60.2709
 21
-14.3419
  0
LINE
  8
0
 10
60.2709
 20
-14.3419
 11
59.9088
 21
-14.4749
  0
LINE
  8
0
 10
59.9088
 20
-14.4749
 11
59.5434
 21
-14.5987
  0
LINE
  8
0
 10
59.5434
 20
-14.5987
 11
59.175
 21
-14.7133
  0
LINE
  8
0
 10
59.175
 20
-14.7133
 11
58.8039
 21
-14.8186
  0
LINE
  8
0
 10
58.8039
 20
-14.8186
 11
58.4302
 21
-14.9145
  0
LINE
  8
0
 10
58.4302
 20
-14.9145
 11
58.0543
 21
-15.0011
  0
LINE
  8
0
 10
58.0543
 20
-15.0011
 11
57.6763
 21
-15.0781
  0
LINE
  8
0
 10
57.6763
 20
-15.0781
 11
57.2965
 21
-15.1456
  0
LINE
  8
0
 10
57.2965
 20
-15.1456
 11
56.9151
 21
-15.2036
  0
LINE
  8
0
 10
56.9151
 20
-15.2036
 11
56.5323
 21
-15.2519
  0
LINE
  8
0
 10
56.5323
 20
-15.2519
 11
56.1485
 21
-15.2906
  0
LINE
  8
0
 10
56.1485
 20
-15.2906
 11
55.7638
 21
-15.3197
  0
LINE
  8
0
 10
55.7638
 20
-15.3197
 11
55.3785
 21
-15.3391
  0
LINE
  8
0
 10
55.3785
 20
-15.3391
 11
54.9929
 21
-15.3488
  0
LINE
  8
0
 10
54.9929
 20
-15.3488
 11
54.6071
 21
-15.3488
  0
LINE
  8
0
 10
54.6071
 20
-15.3488
 11
54.2215
 21
-15.3391
  0
LINE
  8
0
 10
54.2215
 20
-15.3391
 11
53.8362
 21
-15.3197
  0
LINE
  8
0
 10
53.8362
 20
-15.3197
 11
53.4515
 21
-15.2906
  0
LINE
  8
0
 10
53.4515
 20
-15.2906
 11
53.0677
 21
-15.2519
  0
LINE
  8
0
 10
53.0677
 20
-15.2519
 11
52.6849
 21
-15.2036
  0
LINE
  8
0
 10
52.6849
 20
-15.2036
 11
52.3035
 21
-15.1456
  0
LINE
  8
0
 10
52.3035
 20
-15.1456
 11
51.9237
 21
-15.0781
  0
LINE
  8
0
 10
51.9237
 20
-15.0781
 11
51.5457
 21
-15.0011
  0
LINE
  8
0
 10
51.5457
 20
-15.0011
 11
51.1697
 21
-14.9145
  0
LINE
  8
0
 10
51.1697
 20
-14.9145
 11
50.7961
 21
-14.8186
  0
LINE
  8
0
 10
50.7961
 20
-14.8186
 11
50.425
 21
-14.7133
  0
LINE
  8
0
 10
50.425
 20
-14.7133
 11
50.0566
 21
-14.5987
  0
LINE
  8
0
 10
50.0566
 20
-14.5987
 11
49.6912
 21
-14.4749
  0
LINE
  8
0
 10
49.6912
 20
-14.4749
 11
49.3291
 21
-14.3419
  0
LINE
  8
0
 10
49.3291
 20
-14.3419
 11
48.9704
 21
-14.1999
  0
LINE
  8
0
 10
48.9704
 20
-14.1999
 11
48.6154
 21
-14.049
  0
LINE
  8
0
 10
48.6154
 20
-14.049
 11
48.2643
 21
-13.8891
  0
LINE
  8
0
 10
48.2643
 20
-13.8891
 11
47.9173
 21
-13.7205
  0
LINE
  8
0
 10
47.9173
 20
-13.7205
 11
47.5747
 21
-13.5432
  0
LINE
  8
0
 10
47.5747
 20
-13.5432
 11
47.2366
 21
-13.3573
  0
LINE
  8
0
 10
47.2366
 20
-13.3573
 11
46.9034
 21
-13.163
  0
LINE
  8
0
 10
46.9034
 20
-13.163
 11
46.5751
 21
-12.9604
  0
LINE
  8
0
 10
46.5751
 20
-12.9604
 11
46.252
 21
-12.7496
  0
LINE
  8
0
 10
46.252
 20
-12.7496
 11
45.9342
 21
-12.5308
  0
LINE
  8
0
 10
45.9342
 20
-12.5308
 11
45.6221
 21
-12.304
  0
LINE
  8
0
 10
45.6221
 20
-12.304
 11
45.3159
 21
-12.0695
  0
LINE
  8
0
 10
45.3159
 20
-12.0695
 11
45.0155
 21
-11.8274
  0
LINE
  8
0
 10
45.0155
 20
-11.8274
 11
44.7214
 21
-11.5777
  0
LINE
  8
0
 10
44.7214
 20
-11.5777
 11
44.4336
 21
-11.3208
  0
LINE
  8
0
 10
44.4336
 20
-11.3208
 11
44.1524
 21
-11.0567
  0
LINE
  8
0
 10
44.1524
 20
-11.0567
 11
43.8779
 21
-10.7857
  0
LINE
  8
0
 10
43.8779
 20
-10.7857
 11
43.6103
 21
-10.5078
  0
LINE
  8
0
 10
43.6103
 20
-10.5078
 11
43.3498
 21
-10.2233
  0
LINE
  8
0
 10
43.3498
 20
-10.2233
 11
43.0965
 21
-9.9323
  0
LINE
  8
0
 10
43.0965
 20
-9.9323
 11
42.8506
 21
-9.63506
  0
LINE
  8
0
 10
42.8506
 20
-9.63506
 11
42.6122
 21
-9.33173
  0
LINE
  8
0
 10
42.6122
 20
-9.33173
 11
42.3816
 21
-9.02249
  0
LINE
  8
0
 10
42.3816
 20
-9.02249
 11
42.379
 21
-9.01878
  0
LINE
  8
0
 10
42.379
 20
-9.01878
 11
37.9764
 21
-11.5606
  0
LINE
  8
0
 10
37.9764
 20
-11.5606
 11
36.3764
 21
-8.78935
  0
LINE
  8
0
 10
36.3764
 20
-8.78935
 11
40.7798
 21
-6.24701
  0
LINE
  8
0
 10
40.7798
 20
-6.24701
 11
40.6744
 21
-6.00758
  0
LINE
  8
0
 10
40.6744
 20
-6.00758
 11
40.5279
 21
-5.65071
  0
LINE
  8
0
 10
40.5279
 20
-5.65071
 11
40.3904
 21
-5.29027
  0
LINE
  8
0
 10
40.3904
 20
-5.29027
 11
40.262
 21
-4.92648
  0
LINE
  8
0
 10
40.262
 20
-4.92648
 11
40.1428
 21
-4.55959
  0
LINE
  8
0
 10
40.1428
 20
-4.55959
 11
40.0329
 21
-4.1898
  0
LINE
  8
0
 10
40.0329
 20
-4.1898
 11
39.9323
 21
-3.81738
  0
LINE
  8
0
 10
39.9323
 20
-3.81738
 11
39.841
 21
-3.44255
  0
LINE
  8
0
 10
39.841
 20
-3.44255
 11
39.7592
 21
-3.06554
  0
LINE
  8
0
 10
39.7592
 20
-3.06554
 11
39.6869
 21
-2.6866
  0
LINE
  8
0
 10
39.6869
 20
-2.6866
 11
39.6242
 21
-2.30595
  0
LINE
  8
0
 10
39.6242
 20
-2.30595
 11
39.571
 21
-1.92386
  0
LINE
  8
0
 10
39.571
 20
-1.92386
 11
39.5275
 21
-1.54054
  0
LINE
  8
0
 10
39.5275
 20
-1.54054
 11
39.4936
 21
-1.15627
  0
LINE
  8
0
 10
39.4936
 20
-1.15627
 11
39.4694
 21
-0.77124
  0
LINE
  8
0
 10
39.4694
 20
-0.77124
 11
39.4548
 21
-0.385742
  0
LINE
  8
0
 10
39.4548
 20
-0.385742
 11
39.45
 21
0
  0
LINE
  8
0
 10
39.45
 20
0
 11
39.4548
 21
0.385742
  0
LINE
  8
0
 10
39.4548
 20
0.385742
 11
39.4694
 21
0.77124
  0
LINE
  8
0
 10
-25.3679
 20
-1.2762
 11
-25.3278
 21
-1.9133
  0
LINE
  8
0
 10
-25.3278
 20
-1.9133
 11
-25.2717
 21
-2.54918
  0
LINE
  8
0
 10
-25.2717
 20
-2.54918
 11
-25.1997
 21
-3.18346
  0
LINE
  8
0
 10
-25.1997
 20
-3.18346
 11
-25.1117
 21
-3.81572
  0
LINE
  8
0
 10
-25.1117
 20
-3.81572
 11
-25.0079
 21
-4.44557
  0
LINE
  8
0
 10
-25.0079
 20
-4.44557
 11
-24.8883
 21
-5.07263
  0
LINE
  8
0
 10
-24.8883
 20
-5.07263
 11
-24.753
 21
-5.69647
  0
LINE
  8
0
 10
-24.753
 20
-5.69647
 11
-24.602
 21
-6.31671
  0
LINE
  8
0
 10
-24.602
 20
-6.31671
 11
-24.4355
 21
-6.93297
  0
LINE
  8
0
 10
-24.4355
 20
-6.93297
 11
-24.2536
 21
-7.54485
  0
LINE
  8
0
 10
-24.2536
 20
-7.54485
 11
-24.0563
 21
-8.15196
  0
LINE
  8
0
 10
-24.0563
 20
-8.15196
 11
-23.8438
 21
-8.75392
  0
LINE
  8
0
 10
-23.8438
 20
-8.75392
 11
-23.6163
 21
-9.35036
  0
LINE
  8
0
 10
-23.6163
 20
-9.35036
 11
-23.3739
 21
-9.94089
  0
LINE
  8
0
 10
-23.3739
 20
-9.94089
 11
-23.1167
 21
-10.5251
  0
LINE
  8
0
 10
-23.1167
 20
-10.5251
 11
-22.8449
 21
-11.1027
  0
LINE
  8
0
 10
-22.8449
 20
-11.1027
 11
-22.5587
 21
-11.6733
  0
LINE
  8
0
 10
-22.5587
 20
-11.6733
 11
-22.2582
 21
-12.2365
  0
LINE
  8
0
 10
-22.2582
 20
-12.2365
 11
-21.9436
 21
-12.792
  0
LINE
  8
0
 10
-21.9436
 20
-12.792
 11
-21.6152
 21
-13.3394
  0
LINE
  8
0
 10
-21.6152
 20
-13.3394
 11
-21.2732
 21
-13.8784
  0
LINE
  8
0
 10
-21.2732
 20
-13.8784
 11
-20.9177
 21
-14.4086
  0
LINE
  8
0
 10
-20.9177
 20
-14.4086
 11
-20.549
 21
-14.9297
  0
LINE
  8
0
 10
-20.549
 20
-14.9297
 11
-20.1673
 21
-15.4414
  0
LINE
  8
0
 10
-20.1673
 20
-15.4414
 11
-19.7729
 21
-15.9434
  0
LINE
  8
0
 10
-19.7729
 20
-15.9434
 11
-19.366
 21
-16.4352
  0
LINE
  8
0
 10
-19.366
 20
-16.4352
 11
-18.9469
 21
-16.9167
  0
LINE
  8
0
 10
-18.9469
 20
-16.9167
 11
-18.5158
 21
-17.3875
  0
LINE
  8
0
 10
-18.5158
 20
-17.3875
 11
-18.073
 21
-17.8473
  0
LINE
  8
0
 10
-18.073
 20
-17.8473
 11
-17.6188
 21
-18.2958
  0
LINE
  8
0
 10
-17.6188
 20
-18.2958
 11
-17.1534
 21
-18.7328
  0
LINE
  8
0
 10
-17.1534
 20
-18.7328
 11
-16.6773
 21
-19.158
  0
LINE
  8
0
 10
-16.6773
 20
-19.158
 11
-16.1906
 21
-19.571
  0
LINE
  8
0
 10
-16.1906
 20
-19.571
 11
-15.6936
 21
-19.9717
  0
LINE
  8
0
 10
-15.6936
 20
-19.9717
 11
-15.1868
 21
-20.3598
  0
LINE
  8
0
 10
-15.1868
 20
-20.3598
 11
-14.6703
 21
-20.735
  0
LINE
  8
0
 10
-14.6703
 20
-20.735
 11
-14.1446
 21
-21.0971
  0
LINE
  8
0
 10
-14.1446
 20
-21.0971
 11
-13.61
 21
-21.4459
  0
LINE
  8
0
 10
-13.61
 20
-21.4459
 11
-13.0668
 21
-21.7812
  0
LINE
  8
0
 10
-13.0668
 20
-21.7812
 11
-12.5153
 21
-22.1027
  0
LINE
  8
0
 10
-12.5153
 20
-22.1027
 11
-11.9559
 21
-22.4102
  0
LINE
  8
0
 10
-11.9559
 20
-22.4102
 11
-11.3889
 21
-22.7036
  0
LINE
  8
0
 10
-11.3889
 20
-22.7036
 11
-10.8148
 21
-22.9826
  0
LINE
  8
0
 10
-10.8148
 20
-22.9826
 11
-10.2338
 21
-23.2471
  0
LINE
  8
0
 10
-10.2338
 20
-23.2471
 11
-9.64638
 21
-23.4969
  0
LINE
  8
0
 10
-9.64638
 20
-23.4969
 11
-9.05286
 21
-23.7319
  0
LINE
  8
0
 10
-9.05286
 20
-23.7319
 11
-8.45361
 21
-23.952
  0
LINE
  8
0
 10
-8.45361
 20
-23.952
 11
-7.84903
 21
-24.1568
  0
LINE
  8
0
 10
-7.84903
 20
-24.1568
 11
-7.23949
 21
-24.3465
  0
LINE
  8
0
 10
-7.23949
 20
-24.3465
 11
-6.62537
 21
-24.5207
  0
LINE
  8
0
 10
-6.62537
 20
-24.5207
 11
-6.00706
 21
-24.6794
  0
LINE
  8
0
 10
-6.00706
 20
-24.6794
 11
-5.38498
 21
-24.8226
  0
LINE
  8
0
 10
-5.38498
 20
-24.8226
 11
-4.75948
 21
-24.9501
  0
LINE
  8
0
 10
-4.75948
 20
-24.9501
 11
-4.13098
 21
-25.0618
  0
LINE
  8
0
 10
-4.13098
 20
-25.0618
 11
-3.49986
 21
-25.1577
  0
LINE
  8
0
 10
-3.49986
 20
-25.1577
 11
-2.86655
 21
-25.2377
  0
LINE
  8
0
 10
-2.86655
 20
-25.2377
 11
-2.23141
 21
-25.3018
  0
LINE
  8
0
 10
-2.23141
 20
-25.3018
 11
-1.59488
 21
-25.3499
  0
LINE
  8
0
 10
-1.59488
 20
-25.3499
 11
-0.957321
 21
-25.3819
  0
LINE
  8
0
 10
-0.957321
 20
-25.3819
 11
-0.319168
 21
-25.398
  0
LINE
  8
0
 10
-0.319168
 20
-25.398
 11
0.319168
 21
-25.398
  0
LINE
  8
0
 10
0.319168
 20
-25.398
 11
0.957321
 21
-25.3819
  0
LINE
  8
0
 10
0.957321
 20
-25.3819
 11
1.59488
 21
-25.3499
  0
LINE
  8
0
 10
1.59488
 20
-25.3499
 11
2.23141
 21
-25.3018
  0
LINE
  8
0
 10
2.23141
 20
-25.3018
 11
2.86655
 21
-25.2377
  0
LINE
  8
0
 10
2.86655
 20
-25.2377
 11
3.49986
 21
-25.1577
  0
LINE
  8
0
 10
3.49986
 20
-25.1577
 11
4.13098
 21
-25.0618
  0
LINE
  8
0
 10
4.13098
 20
-25.0618
 11
4.75948
 21
-24.9501
  0
LINE
  8
0
 10
4.75948
 20
-24.9501
 11
5.38498
 21
-24.8226
  0
LINE
  8
0
 10
5.38498
 20
-24.8226
 11
6.00706
 21
-24.6794
  0
LINE
  8
0
 10
6.00706
 20
-24.6794
 11
6.62537
 21
-24.5207
  0
LINE
  8
0
 10
6.62537
 20
-24.5207
 11
7.23949
 21
-24.3465
  0
LINE
  8
0
 10
7.23949
 20
-24.3465
 11
7.84903
 21
-24.1568
  0
LINE
  8
0
 10
7.84903
 20
-24.1568
 11
8.45361
 21
-23.952
  0
LINE
  8
0
 10
8.45361
 20
-23.952
 11
9.05286
 21
-23.7319
  0
LINE
  8
0
 10
9.05286
 20
-23.7319
 11
9.64638
 21
-23.4969
  0
LINE
  8
0
 10
9.64638
 20
-23.4969
 11
10.2338
 21
-23.2471
  0
LINE
  8
0
 10
10.2338
 20
-23.2471
 11
10.8148
 21
-22.9826
  0
LINE
  8
0
 10
10.8148
 20
-22.9826
 11
11.3889
 21
-22.7036
  0
LINE
  8
0
 10
11.3889
 20
-22.7036
 11
11.9559
 21
-22.4102
  0
LINE
  8
0
 10
11.9559
 20
-22.4102
 11
12.5153
 21
-22.1027
  0
LINE
  8
0
 10
12.5153
 20
-22.1027
 11
13.0668
 21
-21.7812
  0
LINE
  8
0
 10
13.0668
 20
-21.7812
 11
13.61
 21
-21.4459
  0
LINE
  8
0
 10
13.61
 20
-21.4459
 11
14.1446
 21
-21.0971
  0
LINE
  8
0
 10
14.1446
 20
-21.0971
 11
14.6703
 21
-20.735
  0
LINE
  8
0
 10
14.6703
 20
-20.735
 11
15.1868
 21
-20.3598
  0
LINE
  8
0
 10
15.1868
 20
-20.3598
 11
15.6936
 21
-19.9717
  0
LINE
  8
0
 10
15.6936
 20
-19.9717
 11
16.1906
 21
-19.571
  0
LINE
  8
0
 10
16.1906
 20
-19.571
 11
16.6773
 21
-19.158
  0
LINE
  8
0
 10
16.6773
 20
-19.158
 11
17.1534
 21
-18.7328
  0
LINE
  8
0
 10
17.1534
 20
-18.7328
 11
17.6188
 21
-18.2958
  0
LINE
  8
0
 10
17.6188
 20
-18.2958
 11
18.073
 21
-17.8473
  0
LINE
  8
0
 10
18.073
 20
-17.8473
 11
18.5158
 21
-17.3875
  0
LINE
  8
0
 10
18.5158
 20
-17.3875
 11
18.9469
 21
-16.9167
  0
LINE
  8
0
 10
18.9469
 20
-16.9167
 11
19.366
 21
-16.4352
  0
LINE
  8
0
 10
19.366
 20
-16.4352
 11
19.7729
 21
-15.9434
  0
LINE
  8
0
 10
19.7729
 20
-15.9434
 11
20.1673
 21
-15.4414
  0
LINE
  8
0
 10
20.1673
 20
-15.4414
 11
20.549
 21
-14.9297
  0
LINE
  8
0
 10
20.549
 20
-14.9297
 11
20.9177
 21
-14.4086
  0
LINE
  8
0
 10
20.9177
 20
-14.4086
 11
21.2732
 21
-13.8784
  0
LINE
  8
0
 10
21.2732
 20
-13.8784
 11
21.6152
 21
-13.3394
  0
LINE
  8
0
 10
21.6152
 20
-13.3394
 11
21.9436
 21
-12.792
  0
LINE
  8
0
 10
21.9436
 20
-12.792
 11
22.2582
 21
-12.2365
  0
LINE
  8
0
 10
22.2582
 20
-12.2365
 11
22.5587
 21
-11.6733
  0
LINE
  8
0
 10
22.5587
 20
-11.6733
 11
22.8449
 21
-11.1027
  0
LINE
  8
0
 10
22.8449
 20
-11.1027
 11
23.1167
 21
-10.5251
  0
LINE
  8
0
 10
23.1167
 20
-10.5251
 11
23.3739
 21
-9.94089
  0
LINE
  8
0
 10
23.3739
 20
-9.94089
 11
23.6163
 21
-9.35036
  0
LINE
  8
0
 10
23.6163
 20
-9.35036
 11
23.8438
 21
-8.75392
  0
LINE
  8
0
 10
23.8438
 20
-8.75392
 11
24.0563
 21
-8.15196
  0
LINE
  8
0
 10
24.0563
 20
-8.15196
 11
24.2536
 21
-7.54485
  0
LINE
  8
0
 10
24.2536
 20
-7.54485
 11
24.4355
 21
-6.93297
  0
LINE
  8
0
 10
24.4355
 20
-6.93297
 11
24.602
 21
-6.31671
  0
LINE
  8
0
 10
24.602
 20
-6.31671
 11
24.753
 21
-5.69647
  0
LINE
  8
0
 10
24.753
 20
-5.69647
 11
24.8883
 21
-5.07263
  0
LINE
  8
0
 10
24.8883
 20
-5.07263
 11
25.0079
 21
-4.44557
  0
LINE
  8
0
 10
25.0079
 20
-4.44557
 11
25.1117
 21
-3.81572
  0
LINE
  8
0
 10
25.1117
 20
-3.81572
 11
25.1997
 21
-3.18346
  0
LINE
  8
0
 10
25.1997
 20
-3.18346
 11
25.2717
 21
-2.54918
  0
LINE
  8
0
 10
25.2717
 20
-2.54918
 11
25.3278
 21
-1.9133
  0
LINE
  8
0
 10
25.3278
 20
-1.9133
 11
25.3679
 21
-1.2762
  0
LINE
  8
0
 10
25.3679
 20
-1.2762
 11
25.392
 21
-0.63829
  0
LINE
  8
0
 10
25.392
 20
-0.63829
 11
25.4
 21
0
  0
LINE
  8
0
 10
25.4
 20
0
 11
25.392
 21
0.63829
  0
LINE
  8
0
 10
25.392
 20
0.63829
 11
25.3679
 21
1.2762
  0
LINE
  8
0
 10
25.3679
 20
1.2762
 11
25.3278
 21
1.9133
  0
LINE
  8
0
 10
25.3278
 20
1.9133
 11
25.2717
 21
2.54918
  0
LINE
  8
0
 10
25.2717
 20
2.54918
 11
25.1997
 21
3.18346
  0
LINE
  8
0
 10
25.1997
 20
3.18346
 11
25.1117
 21
3.81572
  0
LINE
  8
0
 10
25.1117
 20
3.81572
 11
25.0079
 21
4.44557
  0
LINE
  8
0
 10
25.0079
 20
4.44557
 11
24.8883
 21
5.07263
  0
LINE
  8
0
 10
24.8883
 20
5.07263
 11
24.753
 21
5.69647
  0
LINE
  8
0
 10
24.753
 20
5.69647
 11
24.602
 21
6.31671
  0
LINE
  8
0
 10
24.602
 20
6.31671
 11
24.4355
 21
6.93297
  0
LINE
  8
0
 10
24.4355
 20
6.93297
 11
24.2536
 21
7.54485
  0
LINE
  8
0
 10
24.2536
 20
7.54485
 11
24.0563
 21
8.15196
  0
LINE
  8
0
 10
24.0563
 20
8.15196
 11
23.8438
 21
8.75392
  0
LINE
  8
0
 10
23.8438
 20
8.75392
 11
23.6163
 21
9.35036
  0
LINE
  8
0
 10
23.6163
 20
9.35036
 11
23.3739
 21
9.94089
  0
LINE
  8
0
 10
23.3739
 20
9.94089
 11
23.1167
 21
10.5251
  0
LINE
  8
0
 10
23.1167
 20
10.5251
 11
22.8449
 21
11.1027
  0
LINE
  8
0
 10
22.8449
 20
11.1027
 11
22.5587
 21
11.6733
  0
LINE
  8
0
 10
22.5587
 20
11.6733
 11
22.2582
 21
12.2365
  0
LINE
  8
0
 10
22.2582
 20
12.2365
 11
21.9436
 21
12.792
  0
LINE
  8
0
 10
21.9436
 20
12.792
 11
21.6152
 21
13.3394
  0
LINE
  8
0
 10
21.6152
 20
13.3394
 11
21.2732
 21
13.8784
  0
LINE
  8
0
 10
21.2732
 20
13.8784
 11
20.9177
 21
14.4086
  0
LINE
  8
0
 10
20.9177
 20
14.4086
 11
20.549
 21
14.9297
  0
LINE
  8
0
 10
20.549
 20
14.9297
 11
20.1673
 21
15.4414
  0
LINE
  8
0
 10
20.1673
 20
15.4414
 11
19.7729
 21
15.9434
  0
LINE
  8
0
 10
19.7729
 20
15.9434
 11
19.366
 21
16.4352
  0
LINE
  8
0
 10
19.366
 20
16.4352
 11
18.9469
 21
16.9167
  0
LINE
  8
0
 10
18.9469
 20
16.9167
 11
18.5158
 21
17.3875
  0
LINE
  8
0
 10
18.5158
 20
17.3875
 11
18.073
 21
17.8473
  0
LINE
  8
0
 10
18.073
 20
17.8473
 11
17.6188
 21
18.2958
  0
LINE
  8
0
 10
17.6188
 20
18.2958
 11
17.1534
 21
18.7328
  0
LINE
  8
0
 10
17.1534
 20
18.7328
 11
16.6773
 21
19.158
  0
LINE
  8
0
 10
16.6773
 20
19.158
 11
16.1906
 21
19.571
  0
LINE
  8
0
 10
16.1906
 20
19.571
 11
15.6936
 21
19.9717
  0
LINE
  8
0
 10
15.6936
 20
19.9717
 11
15.1868
 21
20.3598
  0
LINE
  8
0
 10
15.1868
 20
20.3598
 11
14.6703
 21
20.735
  0
LINE
  8
0
 10
14.6703
 20
20.735
 11
14.1446
 21
21.0971
  0
LINE
  8
0
 10
14.1446
 20
21.0971
 11
13.61
 21
21.4459
  0
LINE
  8
0
 10
13.61
 20
21.4459
 11
13.0668
 21
21.7812
  0
LINE
  8
0
 10
13.0668
 20
21.7812
 11
12.5153
 21
22.1027
  0
LINE
  8
0
 10
12.5153
 20
22.1027
 11
11.9559
 21
22.4102
  0
LINE
  8
0
 10
11.9559
 20
22.4102
 11
11.3889
 21
22.7036
  0
LINE
  8
0
 10
11.3889
 20
22.7036
 11
10.8148
 21
22.9826
  0
LINE
  8
0
 10
10.8148
 20
22.9826
 11
10.2338
 21
23.2471
  0
LINE
  8
0
 10
10.2338
 20
23.2471
 11
9.64638
 21
23.4969
  0
LINE
  8
0
 10
9.64638
 20
23.4969
 11
9.05286
 21
23.7319
  0
LINE
  8
0
 10
9.05286
 20
23.7319
 11
8.45361
 21
23.952
  0
LINE
  8
0
 10
8.45361
 20
23.952
 11
7.84903
 21
24.1568
  0
LINE
  8
0
 10
7.84903
 20
24.1568
 11
7.23949
 21
24.3465
  0
LINE
  8
0
 10
7.23949
 20
24.3465
 11
6.62537
 21
24.5207
  0
LINE
  8
0
 10
6.62537
 20
24.5207
 11
6.00706
 21
24.6794
  0
LINE
  8
0
 10
6.00706
 20
24.6794
 11
5.38498
 21
24.8226
  0
LINE
  8
0
 10
5.38498
 20
24.8226
 11
4.75948
 21
24.9501
  0
LINE
  8
0
 10
4.75948
 20
24.9501
 11
4.13098
 21
25.0618
  0
LINE
  8
0
 10
4.13098
 20
25.0618
 11
3.49986
 21
25.1577
  0
LINE
  8
0
 10
3.49986
 20
25.1577
 11
2.86655
 21
25.2377
  0
LINE
  8
0
 10
2.86655
 20
25.2377
 11
2.23141
 21
25.3018
  0
LINE
  8
0
 10
2.23141
 20
25.3018
 11
1.59488
 21
25.3499
  0
LINE
  8
0
 10
1.59488
 20
25.3499
 11
0.957321
 21
25.3819
  0
LINE
  8
0
 10
0.957321
 20
25.3819
 11
0.319168
 21
25.398
  0
LINE
  8
0
 10
0.319168
 20
25.398
 11
-0.319168
 21
25.398
  0
LINE
  8
0
 10
-0.319168
 20
25.398
 11
-0.957321
 21
25.3819
  0
LINE
  8
0
 10
-0.957321
 20
25.3819
 11
-1.59488
 21
25.3499
  0
LINE
  8
0
 10
-1.59488
 20
25.3499
 11
-2.23141
 21
25.3018
  0
LINE
  8
0
 10
-2.23141
 20
25.3018
 11
-2.86655
 21
25.2377
  0
LINE
  8
0
 10
-2.86655
 20
25.2377
 11
-3.49986
 21
25.1577
  0
LINE
  8
0
 10
-3.49986
 20
25.1577
 11
-4.13098
 21
25.0618
  0
LINE
  8
0
 10
-4.13098
 20
25.0618
 11
-4.75948
 21
24.9501
  0
LINE
  8
0
 10
-4.75948
 20
24.9501
 11
-5.38498
 21
24.8226
  0
LINE
  8
0
 10
-5.38498
 20
24.8226
 11
-6.00706
 21
24.6794
  0
LINE
  8
0
 10
-6.00706
 20
24.6794
 11
-6.62537
 21
24.5207
  0
LINE
  8
0
 10
-6.62537
 20
24.5207
 11
-7.23949
 21
24.3465
  0
LINE
  8
0
 10
-7.23949
 20
24.3465
 11
-7.84903
 21
24.1568
  0
LINE
  8
0
 10
-7.84903
 20
24.1568
 11
-8.45361
 21
23.952
  0
LINE
  8
0
 10
-8.45361
 20
23.952
 11
-9.05286
 21
23.7319
  0
LINE
  8
0
 10
-9.05286
 20
23.7319
 11
-9.64638
 21
23.4969
  0
LINE
  8
0
 10
-9.64638
 20
23.4969
 11
-10.2338
 21
23.2471
  0
LINE
  8
0
 10
-10.2338
 20
23.2471
 11
-10.8148
 21
22.9826
  0
LINE
  8
0
 10
-10.8148
 20
22.9826
 11
-11.3889
 21
22.7036
  0
LINE
  8
0
 10
-11.3889
 20
22.7036
 11
-11.9559
 21
22.4102
  0
LINE
  8
0
 10
-11.9559
 20
22.4102
 11
-12.5153
 21
22.1027
  0
LINE
  8
0
 10
-12.5153
 20
22.1027
 11
-13.0668
 21
21.7812
  0
LINE
  8
0
 10
-13.0668
 20
21.7812
 11
-13.61
 21
21.4459
  0
LINE
  8
0
 10
-13.61
 20
21.4459
 11
-14.1446
 21
21.0971
  0
LINE
  8
0
 10
-14.1446
 20
21.0971
 11
-14.6703
 21
20.735
  0
LINE
  8
0
 10
-14.6703
 20
20.735
 11
-15.1868
 21
20.3598
  0
LINE
  8
0
 10
-15.1868
 20
20.3598
 11
-15.6936
 21
19.9717
  0
LINE
  8
0
 10
-15.6936
 20
19.9717
 11
-16.1906
 21
19.571
  0
LINE
  8
0
 10
-16.1906
 20
19.571
 11
-16.6773
 21
19.158
  0
LINE
  8
0
 10
-16.6773
 20
19.158
 11
-17.1534
 21
18.7328
  0
LINE
  8
0
 10
-17.1534
 20
18.7328
 11
-17.6188
 21
18.2958
  0
LINE
  8
0
 10
-17.6188
 20
18.2958
 11
-18.073
 21
17.8473
  0
LINE
  8
0
 10
-18.073
 20
17.8473
 11
-18.5158
 21
17.3875
  0
LINE
  8
0
 10
-18.5158
 20
17.3875
 11
-18.9469
 21
16.9167
  0
LINE
  8
0
 10
-18.9469
 20
16.9167
 11
-19.366
 21
16.4352
  0
LINE
  8
0
 10
-19.366
 20
16.4352
 11
-19.7729
 21
15.9434
  0
LINE
  8
0
 10
-19.7729
 20
15.9434
 11
-20.1673
 21
15.4414
  0
LINE
  8
0
 10
-20.1673
 20
15.4414
 11
-20.549
 21
14.9297
  0
LINE
  8
0
 10
-20.549
 20
14.9297
 11
-20.9177
 21
14.4086
  0
LINE
  8
0
 10
-20.9177
 20
14.4086
 11
-21.2732
 21
13.8784
  0
LINE
  8
0
 10
-21.2732
 20
13.8784
 11
-21.6152
 21
13.3394
  0
LINE
  8
0
 10
-21.6152
 20
13.3394
 11
-21.9436
 21
12.792
  0
LINE
  8
0
 10
-21.9436
 20
12.792
 11
-22.2582
 21
12.2365
  0
LINE
  8
0
 10
-22.2582
 20
12.2365
 11
-22.5587
 21
11.6733
  0
LINE
  8
0
 10
-22.5587
 20
11.6733
 11
-22.8449
 21
11.1027
  0
LINE
  8
0
 10
-22.8449
 20
11.1027
 11
-23.1167
 21
10.5251
  0
LINE
  8
0
 10
-23.1167
 20
10.5251
 11
-23.3739
 21
9.94089
  0
LINE
  8
0
 10
-23.3739
 20
9.94089
 11
-23.6163
 21
9.35036
  0
LINE
  8
0
 10
-23.6163
 20
9.35036
 11
-23.8438
 21
8.75392
  0
LINE
  8
0
 10
-23.8438
 20
8.75392
 11
-24.0563
 21
8.15196
  0
LINE
  8
0
 10
-24.0563
 20
8.15196
 11
-24.2536
 21
7.54485
  0
LINE
  8
0
 10
-24.2536
 20
7.54485
 11
-24.4355
 21
6.93297
  0
LINE
  8
0
 10
-24.4355
 20
6.93297
 11
-24.602
 21
6.31671
  0
LINE
  8
0
 10
-24.602
 20
6.31671
 11
-24.753
 21
5.69647
  0
LINE
  8
0
 10
-24.753
 20
5.69647
 11
-24.8883
 21
5.07263
  0
LINE
  8
0
 10
-24.8883
 20
5.07263
 11
-25.0079
 21
4.44557
  0
LINE
  8
0
 10
-25.0079
 20
4.44557
 11
-25.1117
 21
3.81572
  0
LINE
  8
0
 10
-25.1117
 20
3.81572
 11
-25.1997
 21
3.18346
  0
LINE
  8
0
 10
-25.1997
 20
3.18346
 11
-25.2717
 21
2.54918
  0
LINE
  8
0
 10
-25.2717
 20
2.54918
 11
-25.3278
 21
1.9133
  0
LINE
  8
0
 10
-25.3278
 20
1.9133
 11
-25.3679
 21
1.2762
  0
LINE
  8
0
 10
-25.3679
 20
1.2762
 11
-25.392
 21
0.63829
  0
LINE
  8
0
 10
-25.392
 20
0.63829
 11
-25.4
 21
0
  0
LINE
  8
0
 10
-25.4
 20
0
 11
-25.392
 21
-0.63829
  0
LINE
  8
0
 10
-25.392
 20
-0.63829
 11
-25.3679
 21
-1.2762
  0
LINE
  8
0
 10
-15.3306
 20
0.77124
 11
-15.3064
 21
1.15627
  0
LINE
  8
0
 10
-15.3064
 20
1.15627
 11
-15.2725
 21
1.54054
  0
LINE
  8
0
 10
-15.2725
 20
1.54054
 11
-15.229
 21
1.92386
  0
LINE
  8
0
 10
-15.229
 20
1.92386
 11
-15.1758
 21
2.30595
  0
LINE
  8
0
 10
-15.1758
 20
2.30595
 11
-15.1131
 21
2.6866
  0
LINE
  8
0
 10
-15.1131
 20
2.6866
 11
-15.0408
 21
3.06554
  0
LINE
  8
0
 10
-15.0408
 20
3.06554
 11
-14.959
 21
3.44255
  0
LINE
  8
0
 10
-14.959
 20
3.44255
 11
-14.8677
 21
3.81738
  0
LINE
  8
0
 10
-14.8677
 20
3.81738
 11
-14.7671
 21
4.1898
  0
LINE
  8
0
 10
-14.7671
 20
4.1898
 11
-14.6572
 21
4.55959
  0
LINE
  8
0
 10
-14.6572
 20
4.55959
 11
-14.5379
 21
4.92648
  0
LINE
  8
0
 10
-14.5379
 20
4.92648
 11
-14.4096
 21
5.29027
  0
LINE
  8
0
 10
-14.4096
 20
5.29027
 11
-14.2721
 21
5.65071
  0
LINE
  8
0
 10
-14.2721
 20
5.65071
 11
-14.1255
 21
6.00758
  0
LINE
  8
0
 10
-14.1255
 20
6.00758
 11
-13.9701
 21
6.36066
  0
LINE
  8
0
 10
-13.9701
 20
6.36066
 11
-13.8059
 21
6.70972
  0
LINE
  8
0
 10
-13.8059
 20
6.70972
 11
-13.6329
 21
7.05455
  0
LINE
  8
0
 10
-13.6329
 20
7.05455
 11
-13.4513
 21
7.39491
  0
LINE
  8
0
 10
-13.4513
 20
7.39491
 11
-13.2612
 21
7.73061
  0
LINE
  8
0
 10
-13.2612
 20
7.73061
 11
-13.0628
 21
8.06142
  0
LINE
  8
0
 10
-13.0628
 20
8.06142
 11
-12.856
 21
8.38715
  0
LINE
  8
0
 10
-12.856
 20
8.38715
 11
-12.6412
 21
8.70757
  0
LINE
  8
0
 10
-12.6412
 20
8.70757
 11
-12.4184
 21
9.02249
  0
LINE
  8
0
 10
-12.4184
 20
9.02249
 11
-12.1877
 21
9.33173
  0
LINE
  8
0
 10
-12.1877
 20
9.33173
 11
-11.9494
 21
9.63506
  0
LINE
  8
0
 10
-11.9494
 20
9.63506
 11
-11.7035
 21
9.9323
  0
LINE
  8
0
 10
-11.7035
 20
9.9323
 11
-11.4502
 21
10.2233
  0
LINE
  8
0
 10
-11.4502
 20
10.2233
 11
-11.1897
 21
10.5078
  0
LINE
  8
0
 10
-11.1897
 20
10.5078
 11
-10.9221
 21
10.7857
  0
LINE
  8
0
 10
-10.9221
 20
10.7857
 11
-10.6476
 21
11.0567
  0
LINE
  8
0
 10
-10.6476
 20
11.0567
 11
-10.3663
 21
11.3208
  0
LINE
  8
0
 10
-10.3663
 20
11.3208
 11
-10.0786
 21
11.5777
  0
LINE
  8
0
 10
-10.0786
 20
11.5777
 11
-9.78445
 21
11.8274
  0
LINE
  8
0
 10
-9.78445
 20
11.8274
 11
-9.48413
 21
12.0695
  0
LINE
  8
0
 10
-9.48413
 20
12.0695
 11
-9.17784
 21
12.304
  0
LINE
  8
0
 10
-9.17784
 20
12.304
 11
-8.86574
 21
12.5308
  0
LINE
  8
0
 10
-8.86574
 20
12.5308
 11
-8.54803
 21
12.7496
  0
LINE
  8
0
 10
-8.54803
 20
12.7496
 11
-8.22493
 21
12.9604
  0
LINE
  8
0
 10
-8.22493
 20
12.9604
 11
-7.89664
 21
13.163
  0
LINE
  8
0
 10
-7.89664
 20
13.163
 11
-7.56335
 21
13.3573
  0
LINE
  8
0
 10
-7.56335
 20
13.3573
 11
-7.2253
 21
13.5432
  0
LINE
  8
0
 10
-7.2253
 20
13.5432
 11
-6.88268
 21
13.7205
  0
LINE
  8
0
 10
-6.88268
 20
13.7205
 11
-6.53571
 21
13.8891
  0
LINE
  8
0
 10
-6.53571
 20
13.8891
 11
-6.1846
 21
14.049
  0
LINE
  8
0
 10
-6.1846
 20
14.049
 11
-5.82961
 21
14.1999
  0
LINE
  8
0
 10
-5.82961
 20
14.1999
 11
-5.47092
 21
14.3419
  0
LINE
  8
0
 10
-5.47092
 20
14.3419
 11
-5.10878
 21
14.4749
  0
LINE
  8
0
 10
-5.10878
 20
14.4749
 11
-4.74341
 21
14.5987
  0
LINE
  8
0
 10
-4.74341
 20
14.5987
 11
-4.37503
 21
14.7133
  0
LINE
  8
0
 10
-4.37503
 20
14.7133
 11
-4.00391
 21
14.8186
  0
LINE
  8
0
 10
-4.00391
 20
14.8186
 11
-3.63025
 21
14.9145
  0
LINE
  8
0
 10
-3.63025
 20
14.9145
 11
-3.2543
 21
15.0011
  0
LINE
  8
0
 10
-3.2543
 20
15.0011
 11
-2.8763
 21
15.0781
  0
LINE
  8
0
 10
-2.8763
 20
15.0781
 11
-2.49648
 21
15.1456
  0
LINE
  8
0
 10
-2.49648
 20
15.1456
 11
-2.11507
 21
15.2036
  0
LINE
  8
0
 10
-2.11507
 20
15.2036
 11
-1.73233
 21
15.2519
  0
LINE
  8
0
 10
-1.73233
 20
15.2519
 11
-1.59999
 21
15.2653
  0
LINE
  8
0
 10
-1.59999
 20
15.2653
 11
-1.59999
 21
20.35
  0
LINE
  8
0
 10
-1.59999
 20
20.35
 11
1.59999
 21
20.35
  0
LINE
  8
0
 10
1.59999
 20
20.35
 11
1.59999
 21
15.2653
  0
LINE
  8
0
 10
1.59999
 20
15.2653
 11
1.73233
 21
15.2519
  0
LINE
  8
0
 10
1.73233
 20
15.2519
 11
2.11507
 21
15.2036
  0
LINE
  8
0
 10
2.11507
 20
15.2036
 11
2.49648
 21
15.1456
  0
LINE
  8
0
 10
2.49648
 20
15.1456
 11
2.8763
 21
15.0781
  0
LINE
  8
0
 10
2.8763
 20
15.0781
 11
3.2543
 21
15.0011
  0
LINE
  8
0
 10
3.2543
 20
15.0011
 11
3.63025
 21
14.9145
  0
LINE
  8
0
 10
3.63025
 20
14.9145
 11
4.00391
 21
14.8186
  0
LINE
  8
0
 10
4.00391
 20
14.8186
 11
4.37503
 21
14.7133
  0
LINE
  8
0
 10
4.37503
 20
14.7133
 11
4.74341
 21
14.5987
  0
LINE
  8
0
 10
4.74341
 20
14.5987
 11
5.10878
 21
14.4749
  0
LINE
  8
0
 10
5.10878
 20
14.4749
 11
5.47092
 21
14.3419
  0
LINE
  8
0
 10
5.47092
 20
14.3419
 11
5.82961
 21
14.1999
  0
LINE
  8
0
 10
5.82961
 20
14.1999
 11
6.1846
 21
14.049
  0
LINE
  8
0
 10
6.1846
 20
14.049
 11
6.53571
 21
13.8891
  0
LINE
  8
0
 10
6.53571
 20
13.8891
 11
6.88268
 21
13.7205
  0
LINE
  8
0
 10
6.88268
 20
13.7205
 11
7.2253
 21
13.5432
  0
LINE
  8
0
 10
7.2253
 20
13.5432
 11
7.56335
 21
13.3573
  0
LINE
  8
0
 10
7.56335
 20
13.3573
 11
7.89664
 21
13.163
  0
LINE
  8
0
 10
7.89664
 20
13.163
 11
8.22493
 21
12.9604
  0
LINE
  8
0
 10
8.22493
 20
12.9604
 11
8.54803
 21
12.7496
  0
LINE
  8
0
 10
8.54803
 20
12.7496
 11
8.86574
 21
12.5308
  0
LINE
  8
0
 10
8.86574
 20
12.5308
 11
9.17784
 21
12.304
  0
LINE
  8
0
 10
9.17784
 20
12.304
 11
9.48413
 21
12.0695
  0
LINE
  8
0
 10
9.48413
 20
12.0695
 11
9.78445
 21
11.8274
  0
LINE
  8
0
 10
9.78445
 20
11.8274
 11
10.0786
 21
11.5777
  0
LINE
  8
0
 10
10.0786
 20
11.5777
 11
10.3663
 21
11.3208
  0
LINE
  8
0
 10
10.3663
 20
11.3208
 11
10.6476
 21
11.0567
  0
LINE
  8
0
 10
10.6476
 20
11.0567
 11
10.9221
 21
10.7857
  0
LINE
  8
0
 10
10.9221
 20
10.7857
 11
11.1897
 21
10.5078
  0
LINE
  8
0
 10
11.1897
 20
10.5078
 11
11.4502
 21
10.2233
  0
LINE
  8
0
 10
11.4502
 20
10.2233
 11
11.7035
 21
9.9323
  0
LINE
  8
0
 10
11.7035
 20
9.9323
 11
11.9494
 21
9.63506
  0
LINE
  8
0
 10
11.9494
 20
9.63506
 11
12.1877
 21
9.33173
  0
LINE
  8
0
 10
12.1877
 20
9.33173
 11
12.4184
 21
9.02249
  0
LINE
  8
0
 10
12.4184
 20
9.02249
 11
12.6412
 21
8.70757
  0
LINE
  8
0
 10
12.6412
 20
8.70757
 11
12.856
 21
8.38715
  0
LINE
  8
0
 10
12.856
 20
8.38715
 11
13.0628
 21
8.06142
  0
LINE
  8
0
 10
13.0628
 20
8.06142
 11
13.2612
 21
7.73061
  0
LINE
  8
0
 10
13.2612
 20
7.73061
 11
13.4513
 21
7.39491
  0
LINE
  8
0
 10
13.4513
 20
7.39491
 11
13.6329
 21
7.05455
  0
LINE
  8
0
 10
13.6329
 20
7.05455
 11
13.8059
 21
6.70972
  0
LINE
  8
0
 10
13.8059
 20
6.70972
 11
13.9701
 21
6.36066
  0
LINE
  8
0
 10
13.9701
 20
6.36066
 11
14.1255
 21
6.00758
  0
LINE
  8
0
 10
14.1255
 20
6.00758
 11
14.2721
 21
5.65071
  0
LINE
  8
0
 10
14.2721
 20
5.65071
 11
14.4096
 21
5.29027
  0
LINE
  8
0
 10
14.4096
 20
5.29027
 11
14.5379
 21
4.92648
  0
LINE
  8
0
 10
14.5379
 20
4.92648
 11
14.6572
 21
4.55959
  0
LINE
  8
0
 10
14.6572
 20
4.55959
 11
14.7671
 21
4.1898
  0
LINE
  8
0
 10
14.7671
 20
4.1898
 11
14.8677
 21
3.81738
  0
LINE
  8
0
 10
14.8677
 20
3.81738
 11
14.959
 21
3.44255
  0
LINE
  8
0
 10
14.959
 20
3.44255
 11
15.0408
 21
3.06554
  0
LINE
  8
0
 10
15.0408
 20
3.06554
 11
15.1131
 21
2.6866
  0
LINE
  8
0
 10
15.1131
 20
2.6866
 11
15.1758
 21
2.30595
  0
LINE
  8
0
 10
15.1758
 20
2.30595
 11
15.229
 21
1.92386
  0
LINE
  8
0
 10
15.229
 20
1.92386
 11
15.2725
 21
1.54054
  0
LINE
  8
0
 10
15.2725
 20
1.54054
 11
15.3064
 21
1.15627
  0
LINE
  8
0
 10
15.3064
 20
1.15627
 11
15.3306
 21
0.77124
  0
LINE
  8
0
 10
15.3306
 20
0.77124
 11
15.3451
 21
0.385742
  0
LINE
  8
0
 10
15.3451
 20
0.385742
 11
15.35
 21
0
  0
LINE
  8
0
 10
15.35
 20
0
 11
15.3451
 21
-0.385742
  0
LINE
  8
0
 10
15.3451
 20
-0.385742
 11
15.3306
 21
-0.77124
  0
LINE
  8
0
 10
15.3306
 20
-0.77124
 11
15.3064
 21
-1.15627
  0
LINE
  8
0
 10
15.3064
 20
-1.15627
 11
15.2725
 21
-1.54054
  0
LINE
  8
0
 10
15.2725
 20
-1.54054
 11
15.229
 21
-1.92386
  0
LINE
  8
0
 10
15.229
 20
-1.92386
 11
15.1758
 21
-2.30595
  0
LINE
  8
0
 10
15.1758
 20
-2.30595
 11
15.1131
 21
-2.6866
  0
LINE
  8
0
 10
15.1131
 20
-2.6866
 11
15.0408
 21
-3.06554
  0
LINE
  8
0
 10
15.0408
 20
-3.06554
 11
14.959
 21
-3.44255
  0
LINE
  8
0
 10
14.959
 20
-3.44255
 11
14.8677
 21
-3.81738
  0
LINE
  8
0
 10
14.8677
 20
-3.81738
 11
14.7671
 21
-4.1898
  0
LINE
  8
0
 10
14.7671
 20
-4.1898
 11
14.6572
 21
-4.55959
  0
LINE
  8
0
 10
14.6572
 20
-4.55959
 11
14.5379
 21
-4.92648
  0
LINE
  8
0
 10
14.5379
 20
-4.92648
 11
14.4096
 21
-5.29027
  0
LINE
  8
0
 10
14.4096
 20
-5.29027
 11
14.2721
 21
-5.65071
  0
LINE
  8
0
 10
14.2721
 20
-5.65071
 11
14.1255
 21
-6.00758
  0
LINE
  8
0
 10
14.1255
 20
-6.00758
 11
14.0201
 21
-6.24701
  0
LINE
  8
0
 10
14.0201
 20
-6.24701
 11
18.4236
 21
-8.78935
  0
LINE
  8
0
 10
18.4236
 20
-8.78935
 11
16.8236
 21
-11.5606
  0
LINE
  8
0
 10
16.8236
 20
-11.5606
 11
12.421
 21
-9.01878
  0
LINE
  8
0
 10
12.421
 20
-9.01878
 11
12.4184
 21
-9.02249
  0
LINE
  8
0
 10
12.4184
 20
-9.02249
 11
12.1877
 21
-9.33173
  0
LINE
  8
0
 10
12.1877
 20
-9.33173
 11
11.9494
 21
-9.63506
  0
LINE
  8
0
 10
11.9494
 20
-9.63506
 11
11.7035
 21
-9.9323
  0
LINE
  8
0
 10
11.7035
 20
-9.9323
 11
11.4502
 21
-10.2233
  0
LINE
  8
0
 10
11.4502
 20
-10.2233
 11
11.1897
 21
-10.5078
  0
LINE
  8
0
 10
11.1897
 20
-10.5078
 11
10.9221
 21
-10.7857
  0
LINE
  8
0
 10
10.9221
 20
-10.7857
 11
10.6476
 21
-11.0567
  0
LINE
  8
0
 10
10.6476
 20
-11.0567
 11
10.3663
 21
-11.3208
  0
LINE
  8
0
 10
10.3663
 20
-11.3208
 11
10.0786
 21
-11.5777
  0
LINE
  8
0
 10
10.0786
 20
-11.5777
 11
9.78445
 21
-11.8274
  0
LINE
  8
0
 10
9.78445
 20
-11.8274
 11
9.48413
 21
-12.0695
  0
LINE
  8
0
 10
9.48413
 20
-12.0695
 11
9.17784
 21
-12.304
  0
LINE
  8
0
 10
9.17784
 20
-12.304
 11
8.86574
 21
-12.5308
  0
LINE
  8
0
 10
8.86574
 20
-12.5308
 11
8.54803
 21
-12.7496
  0
LINE
  8
0
 10
8.54803
 20
-12.7496
 11
8.22493
 21
-12.9604
  0
LINE
  8
0
 10
8.22493
 20
-12.9604
 11
7.89664
 21
-13.163
  0
LINE
  8
0
 10
7.89664
 20
-13.163
 11
7.56335
 21
-13.3573
  0
LINE
  8
0
 10
7.56335
 20
-13.3573
 11
7.2253
 21
-13.5432
  0
LINE
  8
0
 10
7.2253
 20
-13.5432
 11
6.88268
 21
-13.7205
  0
LINE
  8
0
 10
6.88268
 20
-13.7205
 11
6.53571
 21
-13.8891
  0
LINE
  8
0
 10
6.53571
 20
-13.8891
 11
6.1846
 21
-14.049
  0
LINE
  8
0
 10
6.1846
 20
-14.049
 11
5.82961
 21
-14.1999
  0
LINE
  8
0
 10
5.82961
 20
-14.1999
 11
5.47092
 21
-14.3419
  0
LINE
  8
0
 10
5.47092
 20
-14.3419
 11
5.10878
 21
-14.4749
  0
LINE
  8
0
 10
5.10878
 20
-14.4749
 11
4.74341
 21
-14.5987
  0
LINE
  8
0
 10
4.74341
 20
-14.5987
 11
4.37503
 21
-14.7133
  0
LINE
  8
0
 10
4.37503
 20
-14.7133
 11
4.00391
 21
-14.8186
  0
LINE
  8
0
 10
4.00391
 20
-14.8186
 11
3.63025
 21
-14.9145
  0
LINE
  8
0
 10
3.63025
 20
-14.9145
 11
3.2543
 21
-15.0011
  0
LINE
  8
0
 10
3.2543
 20
-15.0011
 11
2.8763
 21
-15.0781
  0
LINE
  8
0
 10
2.8763
 20
-15.0781
 11
2.49648
 21
-15.1456
  0
LINE
  8
0
 10
2.49648
 20
-15.1456
 11
2.11507
 21
-15.2036
  0
LINE
  8
0
 10
2.11507
 20
-15.2036
 11
1.73233
 21
-15.2519
  0
LINE
  8
0
 10
1.73233
 20
-15.2519
 11
1.34851
 21
-15.2906
  0
LINE
  8
0
 10
1.34851
 20
-15.2906
 11
0.963821
 21
-15.3197
  0
LINE
  8
0
 10
0.963821
 20
-15.3197
 11
0.578537
 21
-15.3391
  0
LINE
  8
0
 10
0.578537
 20
-15.3391
 11
0.192886
 21
-15.3488
  0
LINE
  8
0
 10
0.192886
 20
-15.3488
 11
-0.192886
 21
-15.3488
  0
LINE
  8
0
 10
-0.192886
 20
-15.3488
 11
-0.578537
 21
-15.3391
  0
LINE
  8
0
 10
-0.578537
 20
-15.3391
 11
-0.963821
 21
-15.3197
  0
LINE
  8
0
 10
-0.963821
 20
-15.3197
 11
-1.34851
 21
-15.2906
  0
LINE
  8
0
 10
-1.34851
 20
-15.2906
 11
-1.73233
 21
-15.2519
  0
LINE
  8
0
 10
-1.73233
 20
-15.2519
 11
-2.11507
 21
-15.2036
  0
LINE
  8
0
 10
-2.11507
 20
-15.2036
 11
-2.49648
 21
-15.1456
  0
LINE
  8
0
 10
-2.49648
 20
-15.1456
 11
-2.8763
 21
-15.0781
  0
LINE
  8
0
 10
-2.8763
 20
-15.0781
 11
-3.2543
 21
-15.0011
  0
LINE
  8
0
 10
-3.2543
 20
-15.0011
 11
-3.63025
 21
-14.9145
  0
LINE
  8
0
 10
-3.63025
 20
-14.9145
 11
-4.00391
 21
-14.8186
  0
LINE
  8
0
 10
-4.00391
 20
-14.8186
 11
-4.37503
 21
-14.7133
  0
LINE
  8
0
 10
-4.37503
 20
-14.7133
 11
-4.74341
 21
-14.5987
  0
LINE
  8
0
 10
-4.74341
 20
-14.5987
 11
-5.10878
 21
-14.4749
  0
LINE
  8
0
 10
-5.10878
 20
-14.4749
 11
-5.47092
 21
-14.3419
  0
LINE
  8
0
 10
-5.47092
 20
-14.3419
 11
-5.82961
 21
-14.1999
  0
LINE
  8
0
 10
-5.82961
 20
-14.1999
 11
-6.1846
 21
-14.049
  0
LINE
  8
0
 10
-6.1846
 20
-14.049
 11
-6.53571
 21
-13.8891
  0
LINE
  8
0
 10
-6.53571
 20
-13.8891
 11
-6.88268
 21
-13.7205
  0
LINE
  8
0
 10
-6.88268
 20
-13.7205
 11
-7.2253
 21
-13.5432
  0
LINE
  8
0
 10
-7.2253
 20
-13.5432
 11
-7.56335
 21
-13.3573
  0
LINE
  8
0
 10
-7.56335
 20
-13.3573
 11
-7.89664
 21
-13.163
  0
LINE
  8
0
 10
-7.89664
 20
-13.163
 11
-8.22493
 21
-12.9604
  0
LINE
  8
0
 10
-8.22493
 20
-12.9604
 11
-8.54803
 21
-12.7496
  0
LINE
  8
0
 10
-8.54803
 20
-12.7496
 11
-8.86574
 21
-12.5308
  0
LINE
  8
0
 10
-8.86574
 20
-12.5308
 11
-9.17784
 21
-12.304
  0
LINE
  8
0
 10
-9.17784
 20
-12.304
 11
-9.48413
 21
-12.0695
  0
LINE
  8
0
 10
-9.48413
 20
-12.0695
 11
-9.78445
 21
-11.8274
  0
LINE
  8
0
 10
-9.78445
 20
-11.8274
 11
-10.0786
 21
-11.5777
  0
LINE
  8
0
 10
-10.0786
 20
-11.5777
 11
-10.3663
 21
-11.3208
  0
LINE
  8
0
 10
-10.3663
 20
-11.3208
 11
-10.6476
 21
-11.0567
  0
LINE
  8
0
 10
-10.6476
 20
-11.0567
 11
-10.9221
 21
-10.7857
  0
LINE
  8
0
 10
-10.9221
 20
-10.7857
 11
-11.1897
 21
-10.5078
  0
LINE
  8
0
 10
-11.1897
 20
-10.5078
 11
-11.4502
 21
-10.2233
  0
LINE
  8
0
 10
-11.4502
 20
-10.2233
 11
-11.7035
 21
-9.9323
  0
LINE
  8
0
 10
-11.7035
 20
-9.9323
 11
-11.9494
 21
-9.63506
  0
LINE
  8
0
 10
-11.9494
 20
-9.63506
 11
-12.1877
 21
-9.33173
  0
LINE
  8
0
 10
-12.1877
 20
-9.33173
 11
-12.4184
 21
-9.02249
  0
LINE
  8
0
 10
-12.4184
 20
-9.02249
 11
-12.421
 21
-9.01878
  0
LINE
  8
0
 10
-12.421
 20
-9.01878
 11
-16.8236
 21
-11.5606
  0
LINE
  8
0
 10
-16.8236
 20
-11.5606
 11
-18.4236
 21
-8.78935
  0
LINE
  8
0
 10
-18.4236
 20
-8.78935
 11
-14.0201
 21
-6.24701
  0
LINE
  8
0
 10
-14.0201
 20
-6.24701
 11
-14.1255
 21
-6.00758
  0
LINE
  8
0
 10
-14.1255
 20
-6.00758
 11
-14.2721
 21
-5.65071
  0
LINE
  8
0
 10
-14.2721
 20
-5.65071
 11
-14.4096
 21
-5.29027
  0
LINE
  8
0
 10
-14.4096
 20
-5.29027
 11
-14.5379
 21
-4.92648
  0
LINE
  8
0
 10
-14.5379
 20
-4.92648
 11
-14.6572
 21
-4.55959
  0
LINE
  8
0
 10
-14.6572
 20
-4.55959
 11
-14.7671
 21
-4.1898
  0
LINE
  8
0
 10
-14.7671
 20
-4.1898
 11
-14.8677
 21
-3.81738
  0
LINE
  8
0
 10
-14.8677
 20
-3.81738
 11
-14.959
 21
-3.44255
  0
LINE
  8
0
 10
-14.959
 20
-3.44255
 11
-15.0408
 21
-3.06554
  0
LINE
  8
0
 10
-15.0408
 20
-3.06554
 11
-15.1131
 21
-2.6866
  0
LINE
  8
0
 10
-15.1131
 20
-2.6866
 11
-15.1758
 21
-2.30595
  0
LINE
  8
0
 10
-15.1758
 20
-2.30595
 11
-15.229
 21
-1.92386
  0
LINE
  8
0
 10
-15.229
 20
-1.92386
 11
-15.2725
 21
-1.54054
  0
LINE
  8
0
 10
-15.2725
 20
-1.54054
 11
-15.3064
 21
-1.15627
  0
LINE
  8
0
 10
-15.3064
 20
-1.15627
 11
-15.3306
 21
-0.77124
  0
LINE
  8
0
 10
-15.3306
 20
-0.77124
 11
-15.3451
 21
-0.385742
  0
LINE
  8
0
 10
-15.3451
 20
-0.385742
 11
-15.35
 21
0
  0
LINE
  8
0
 10
-15.35
 20
0
 11
-15.3451
 21
0.385742
  0
LINE
  8
0
 10
-15.3451
 20
0.385742
 11
-15.3306
 21
0.77124
  0
ENDSEC
  0
SECTION
  2
OBJECTS
  0
DICTIONARY
  0
ENDSEC
  0
EOF
