999
FreeCAD v0.19 24291 (Git)
  0
SECTION
  2
HEADER
  9
$ACADVER
  1
AC1014
  9
$ACADMAINTVER
 70
     9
  9
$DWGCODEPAGE
  3
ANSI_1252
  9
$TEXTSTYLE
  7
STANDARD
  9
$DIMSTYLE
  2
STANDARD
  9
$DIMTXSTY
  7
STANDARD
  9
$CMLSTYLE
  2
STANDARD
  9
$PEXTMAX
 10
50
 20
50
 30
50
  9
$PEXTMIN
 10
0
 20
0
 30
0
  9
$HANDSEED
  5
FFFF
  0
ENDSEC
  0
SECTION
  2
CLASSES
  0
CLASS
  1
ACDBDICTIONARYWDFLT
  2
AcDbDictionaryWithDefault
  3
ObjectDBX Classes
 90
        0
280
     0
281
     0
  0
CLASS
  1
XRECORD
  2
AcDbXrecord
  3
ObjectDBX Classes
 90
        0
280
     0
281
     0
  0
CLASS
  1
LWPOLYLINE
  2
AcDbPolyline
  3
ObjectDBX Classes
 90
        0
280
     0
281
     1
  0
ENDSEC
  0
SECTION
  2
TABLES
  0
TABLE
  2
VPORT
  5
20
330
0
100
AcDbSymbolTable
 70
     1
  0
VPORT
  5
21
330
20
100
AcDbSymbolTableRecord
100
AcDbViewportTableRecord
  2
*ACTIVE
 70
     0
  0
ENDTAB
  0
TABLE
  2
LTYPE
  5
22
330
0
100
AcDbSymbolTable
 70
     1
  0
LTYPE
  5
23
330
21
100
AcDbSymbolTableRecord
100
AcDbLinetypeTableRecord
  2
BYBLOCK
 70
     0
  3

 72
    65
 73
     0
 40
0.0
  0
LTYPE
  5
24
330
21
100
AcDbSymbolTableRecord
100
AcDbLinetypeTableRecord
  2
BYLAYER
 70
     0
  3

 72
    65
 73
     0
 40
0.0
  0
LTYPE
  5
25
330
21
100
AcDbSymbolTableRecord
100
AcDbLinetypeTableRecord
  2
CONTINUOUS
 70
     0
  3
Solid line
 72
    65
 73
     0
 40
0.0
  0
ENDTAB
  0
TABLE
  2
LAYER
  5
DF5
330
0
100
AcDbSymbolTable
 70
3
  0
LAYER
  5
DF6
330
DF5
100
AcDbSymbolTableRecord
100
AcDbLayerTableRecord
  2
0
 70
   0
 62
   7
  6
CONTINUOUS
  0
LAYER
  5
DF7
330
DF5
100
AcDbSymbolTableRecord
100
AcDbLayerTableRecord
  2
none
 70
    0
 62
    7
  6
CONTINUOUS
  0
LAYER
  5
DF8
330
DF5
100
AcDbSymbolTableRecord
100
AcDbLayerTableRecord
  2
Shape
 70
    0
 62
    7
  6
CONTINUOUS
  0
ENDTAB
  0
TABLE
  2
STYLE
  5
70
330
0
100
AcDbSymbolTable
 70
     2
  0
STYLE
  5
71
330
70
100
AcDbSymbolTableRecord
100
AcDbTextStyleTableRecord
  2
STANDARD
 70
     0
 40
0.0
 41
1.0
 50
0.0
 71
     0
 42
2.5
  3
arial.ttf
  4

  0
STYLE
  5
72
330
70
100
AcDbSymbolTableRecord
100
AcDbTextStyleTableRecord
  2
ANNOTATIVE
 70
     0
 40
0.0
 41
1.0
 50
0.0
 71
     0
 42
2.5
  3
arial.ttf
  4

  0
ENDTAB
  0
TABLE
  2
VIEW
  5
73
330
0
100
AcDbSymbolTable
 70
     0
  0
ENDTAB
  0
TABLE
  2
UCS
  5
74
330
0
100
AcDbSymbolTable
 70
     0
  0
ENDTAB
  0
TABLE
  2
APPID
  5
75
330
0
100
AcDbSymbolTable
 70
     2
  0
APPID
  5
76
330
75
100
AcDbSymbolTableRecord
100
AcDbRegAppTableRecord
  2
ACAD
 70
     0
  0
APPID
  5
77
330
75
100
AcDbSymbolTableRecord
100
AcDbRegAppTableRecord
  2
ACADANNOTATIVE
 70
     0
  0
ENDTAB
  0
TABLE
  2
DIMSTYLE
  5
78
330
0
100
AcDbSymbolTable
 70
     2
  0
DIMSTYLE
105
79
330
78
100
AcDbSymbolTableRecord
100
AcDbDimStyleTableRecord
  2
STANDARD
 70
     0
  3

  4

  5

  6

  7

 40
0.0
 41
2.5
 42
0.625
 43
3.75
 44
1.25
 45
0.0
 46
0.0
 47
0.0
 48
0.0
140
2.5
141
2.5
142
0.0
143
0.03937007874016
144
1.0
145
0.0
146
1.0
147
0.625
 71
     0
 72
     0
 73
     0
 74
     0
 75
     0
 76
     0
 77
     1
 78
     8
170
     0
171
     3
172
     1
173
     0
174
     0
175
     0
176
     0
177
     0
178
     0
270
     2
271
     2
272
     2
273
     2
274
     3
340
71
275
     0
280
     0
281
     0
282
     0
283
     0
284
     8
285
     0
286
     0
287
     3
288
     0
  0
ENDTAB
  0
TABLE
  2
BLOCK_RECORD
  5
A01
330
0
100
AcDbSymbolTable
  70
5
  0
BLOCK_RECORD
  5
A02
330
A01
100
AcDbSymbolTableRecord
100
AcDbBlockTableRecord
  2
*MODEL_SPACE
  0
BLOCK_RECORD
  5
A03
330
A01
100
AcDbSymbolTableRecord
100
AcDbBlockTableRecord
  2
*PAPER_SPACE
  0
ENDTAB
  0
ENDSEC
  0
SECTION
  2
BLOCKS
  0
BLOCK
  5
A04
330
A02
100
AcDbEntity
  8
0
100
AcDbBlockBegin
  2
*MODEL_SPACE
 70
   0
 10
0
 20
0
 30
0
  3
*MODEL_SPACE
  1
 
  0
ENDBLK
  5
A05
330
A02
100
AcDbEntity
  8
0
100
AcDbBlockEnd
  0
BLOCK
  5
A06
330
A03
100
AcDbEntity
 67
1
  8
0
100
AcDbBlockBegin
  2
*PAPER_SPACE
 70
   0
 10
0
 20
0
 30
0
  3
*PAPER_SPACE
  1
 
  0
ENDBLK
  5
A07
330
A03
100
AcDbEntity
 67
    1
  8
0
100
AcDbBlockEnd
  0
ENDSEC
  0
SECTION
  2
ENTITIES
  0
LINE
  5
A08
330
A02
100
AcDbEntity
  8
Shape
100
AcDbLine
 10
0
 20
0
 30
0
 11
0.52
 21
0.332606
 31
0
  0
LINE
  5
A09
330
A02
100
AcDbEntity
  8
Shape
100
AcDbLine
 10
0.52
 20
0.332606
 30
0
 11
1.04
 21
0.559207
 31
0
  0
LINE
  5
A0A
330
A02
100
AcDbEntity
  8
Shape
100
AcDbLine
 10
1.04
 20
0.559207
 30
0
 11
1.56
 21
0.757722
 31
0
  0
LINE
  5
A0B
330
A02
100
AcDbEntity
  8
Shape
100
AcDbLine
 10
1.56
 20
0.757722
 30
0
 11
2.08
 21
0.939903
 31
0
  0
LINE
  5
A0C
330
A02
100
AcDbEntity
  8
Shape
100
AcDbLine
 10
2.08
 20
0.939903
 30
0
 11
2.6
 21
1.1108
 31
0
  0
LINE
  5
A0D
330
A02
100
AcDbEntity
  8
Shape
100
AcDbLine
 10
2.6
 20
1.1108
 30
0
 11
3.12
 21
1.27318
 31
0
  0
LINE
  5
A0E
330
A02
100
AcDbEntity
  8
Shape
100
AcDbLine
 10
3.12
 20
1.27318
 30
0
 11
3.64
 21
1.42879
 31
0
  0
LINE
  5
A0F
330
A02
100
AcDbEntity
  8
Shape
100
AcDbLine
 10
3.64
 20
1.42879
 30
0
 11
4.16
 21
1.57881
 31
0
  0
LINE
  5
A10
330
A02
100
AcDbEntity
  8
Shape
100
AcDbLine
 10
4.16
 20
1.57881
 30
0
 11
4.68
 21
1.7241
 31
0
  0
LINE
  5
A11
330
A02
100
AcDbEntity
  8
Shape
100
AcDbLine
 10
4.68
 20
1.7241
 30
0
 11
5.2
 21
1.8653
 31
0
  0
LINE
  5
A12
330
A02
100
AcDbEntity
  8
Shape
100
AcDbLine
 10
5.2
 20
1.8653
 30
0
 11
5.72
 21
2.00291
 31
0
  0
LINE
  5
A13
330
A02
100
AcDbEntity
  8
Shape
100
AcDbLine
 10
5.72
 20
2.00291
 30
0
 11
6.24
 21
2.13733
 31
0
  0
LINE
  5
A14
330
A02
100
AcDbEntity
  8
Shape
100
AcDbLine
 10
6.24
 20
2.13733
 30
0
 11
6.76
 21
2.26887
 31
0
  0
LINE
  5
A15
330
A02
100
AcDbEntity
  8
Shape
100
AcDbLine
 10
6.76
 20
2.26887
 30
0
 11
7.28
 21
2.39782
 31
0
  0
LINE
  5
A16
330
A02
100
AcDbEntity
  8
Shape
100
AcDbLine
 10
7.28
 20
2.39782
 30
0
 11
7.8
 21
2.52438
 31
0
  0
LINE
  5
A17
330
A02
100
AcDbEntity
  8
Shape
100
AcDbLine
 10
7.8
 20
2.52438
 30
0
 11
8.32
 21
2.64877
 31
0
  0
LINE
  5
A18
330
A02
100
AcDbEntity
  8
Shape
100
AcDbLine
 10
8.32
 20
2.64877
 30
0
 11
8.84
 21
2.77113
 31
0
  0
LINE
  5
A19
330
A02
100
AcDbEntity
  8
Shape
100
AcDbLine
 10
8.84
 20
2.77113
 30
0
 11
9.36
 21
2.89162
 31
0
  0
LINE
  5
A1A
330
A02
100
AcDbEntity
  8
Shape
100
AcDbLine
 10
9.36
 20
2.89162
 30
0
 11
9.88
 21
3.01036
 31
0
  0
LINE
  5
A1B
330
A02
100
AcDbEntity
  8
Shape
100
AcDbLine
 10
9.88
 20
3.01036
 30
0
 11
10.4
 21
3.12747
 31
0
  0
LINE
  5
A1C
330
A02
100
AcDbEntity
  8
Shape
100
AcDbLine
 10
10.4
 20
3.12747
 30
0
 11
10.92
 21
3.24303
 31
0
  0
LINE
  5
A1D
330
A02
100
AcDbEntity
  8
Shape
100
AcDbLine
 10
10.92
 20
3.24303
 30
0
 11
11.44
 21
3.35714
 31
0
  0
LINE
  5
A1E
330
A02
100
AcDbEntity
  8
Shape
100
AcDbLine
 10
11.44
 20
3.35714
 30
0
 11
11.96
 21
3.46987
 31
0
  0
LINE
  5
A1F
330
A02
100
AcDbEntity
  8
Shape
100
AcDbLine
 10
11.96
 20
3.46987
 30
0
 11
12.48
 21
3.58131
 31
0
  0
LINE
  5
A20
330
A02
100
AcDbEntity
  8
Shape
100
AcDbLine
 10
12.48
 20
3.58131
 30
0
 11
13
 21
3.69151
 31
0
  0
LINE
  5
A21
330
A02
100
AcDbEntity
  8
Shape
100
AcDbLine
 10
13
 20
3.69151
 30
0
 11
13.52
 21
3.80053
 31
0
  0
LINE
  5
A22
330
A02
100
AcDbEntity
  8
Shape
100
AcDbLine
 10
13.52
 20
3.80053
 30
0
 11
14.04
 21
3.90842
 31
0
  0
LINE
  5
A23
330
A02
100
AcDbEntity
  8
Shape
100
AcDbLine
 10
14.04
 20
3.90842
 30
0
 11
14.56
 21
4.01525
 31
0
  0
LINE
  5
A24
330
A02
100
AcDbEntity
  8
Shape
100
AcDbLine
 10
14.56
 20
4.01525
 30
0
 11
15.08
 21
4.12104
 31
0
  0
LINE
  5
A25
330
A02
100
AcDbEntity
  8
Shape
100
AcDbLine
 10
15.08
 20
4.12104
 30
0
 11
15.6
 21
4.22585
 31
0
  0
LINE
  5
A26
330
A02
100
AcDbEntity
  8
Shape
100
AcDbLine
 10
15.6
 20
4.22585
 30
0
 11
16.12
 21
4.3297
 31
0
  0
LINE
  5
A27
330
A02
100
AcDbEntity
  8
Shape
100
AcDbLine
 10
16.12
 20
4.3297
 30
0
 11
16.64
 21
4.43265
 31
0
  0
LINE
  5
A28
330
A02
100
AcDbEntity
  8
Shape
100
AcDbLine
 10
16.64
 20
4.43265
 30
0
 11
17.16
 21
4.53472
 31
0
  0
LINE
  5
A29
330
A02
100
AcDbEntity
  8
Shape
100
AcDbLine
 10
17.16
 20
4.53472
 30
0
 11
17.68
 21
4.63594
 31
0
  0
LINE
  5
A2A
330
A02
100
AcDbEntity
  8
Shape
100
AcDbLine
 10
17.68
 20
4.63594
 30
0
 11
18.2
 21
4.73634
 31
0
  0
LINE
  5
A2B
330
A02
100
AcDbEntity
  8
Shape
100
AcDbLine
 10
18.2
 20
4.73634
 30
0
 11
18.72
 21
4.83596
 31
0
  0
LINE
  5
A2C
330
A02
100
AcDbEntity
  8
Shape
100
AcDbLine
 10
18.72
 20
4.83596
 30
0
 11
19.24
 21
4.9348
 31
0
  0
LINE
  5
A2D
330
A02
100
AcDbEntity
  8
Shape
100
AcDbLine
 10
19.24
 20
4.9348
 30
0
 11
19.76
 21
5.03291
 31
0
  0
LINE
  5
A2E
330
A02
100
AcDbEntity
  8
Shape
100
AcDbLine
 10
19.76
 20
5.03291
 30
0
 11
20.28
 21
5.1303
 31
0
  0
LINE
  5
A2F
330
A02
100
AcDbEntity
  8
Shape
100
AcDbLine
 10
20.28
 20
5.1303
 30
0
 11
20.8
 21
5.22699
 31
0
  0
LINE
  5
A30
330
A02
100
AcDbEntity
  8
Shape
100
AcDbLine
 10
20.8
 20
5.22699
 30
0
 11
21.32
 21
5.32301
 31
0
  0
LINE
  5
A31
330
A02
100
AcDbEntity
  8
Shape
100
AcDbLine
 10
21.32
 20
5.32301
 30
0
 11
21.84
 21
5.41837
 31
0
  0
LINE
  5
A32
330
A02
100
AcDbEntity
  8
Shape
100
AcDbLine
 10
21.84
 20
5.41837
 30
0
 11
22.36
 21
5.51308
 31
0
  0
LINE
  5
A33
330
A02
100
AcDbEntity
  8
Shape
100
AcDbLine
 10
22.36
 20
5.51308
 30
0
 11
22.88
 21
5.60718
 31
0
  0
LINE
  5
A34
330
A02
100
AcDbEntity
  8
Shape
100
AcDbLine
 10
22.88
 20
5.60718
 30
0
 11
23.4
 21
5.70067
 31
0
  0
LINE
  5
A35
330
A02
100
AcDbEntity
  8
Shape
100
AcDbLine
 10
23.4
 20
5.70067
 30
0
 11
23.92
 21
5.79357
 31
0
  0
LINE
  5
A36
330
A02
100
AcDbEntity
  8
Shape
100
AcDbLine
 10
23.92
 20
5.79357
 30
0
 11
24.44
 21
5.8859
 31
0
  0
LINE
  5
A37
330
A02
100
AcDbEntity
  8
Shape
100
AcDbLine
 10
24.44
 20
5.8859
 30
0
 11
24.96
 21
5.97766
 31
0
  0
LINE
  5
A38
330
A02
100
AcDbEntity
  8
Shape
100
AcDbLine
 10
24.96
 20
5.97766
 30
0
 11
25.48
 21
6.06887
 31
0
  0
LINE
  5
A39
330
A02
100
AcDbEntity
  8
Shape
100
AcDbLine
 10
25.48
 20
6.06887
 30
0
 11
26
 21
6.15955
 31
0
  0
LINE
  5
A3A
330
A02
100
AcDbEntity
  8
Shape
100
AcDbLine
 10
26
 20
6.15955
 30
0
 11
26.52
 21
6.24971
 31
0
  0
LINE
  5
A3B
330
A02
100
AcDbEntity
  8
Shape
100
AcDbLine
 10
26.52
 20
6.24971
 30
0
 11
27.04
 21
6.33935
 31
0
  0
LINE
  5
A3C
330
A02
100
AcDbEntity
  8
Shape
100
AcDbLine
 10
27.04
 20
6.33935
 30
0
 11
27.56
 21
6.42849
 31
0
  0
LINE
  5
A3D
330
A02
100
AcDbEntity
  8
Shape
100
AcDbLine
 10
27.56
 20
6.42849
 30
0
 11
28.08
 21
6.51715
 31
0
  0
LINE
  5
A3E
330
A02
100
AcDbEntity
  8
Shape
100
AcDbLine
 10
28.08
 20
6.51715
 30
0
 11
28.6
 21
6.60532
 31
0
  0
LINE
  5
A3F
330
A02
100
AcDbEntity
  8
Shape
100
AcDbLine
 10
28.6
 20
6.60532
 30
0
 11
29.12
 21
6.69302
 31
0
  0
LINE
  5
A40
330
A02
100
AcDbEntity
  8
Shape
100
AcDbLine
 10
29.12
 20
6.69302
 30
0
 11
29.64
 21
6.78026
 31
0
  0
LINE
  5
A41
330
A02
100
AcDbEntity
  8
Shape
100
AcDbLine
 10
29.64
 20
6.78026
 30
0
 11
30.16
 21
6.86705
 31
0
  0
LINE
  5
A42
330
A02
100
AcDbEntity
  8
Shape
100
AcDbLine
 10
30.16
 20
6.86705
 30
0
 11
30.68
 21
6.9534
 31
0
  0
LINE
  5
A43
330
A02
100
AcDbEntity
  8
Shape
100
AcDbLine
 10
30.68
 20
6.9534
 30
0
 11
31.2
 21
7.03931
 31
0
  0
LINE
  5
A44
330
A02
100
AcDbEntity
  8
Shape
100
AcDbLine
 10
31.2
 20
7.03931
 30
0
 11
31.72
 21
7.1248
 31
0
  0
LINE
  5
A45
330
A02
100
AcDbEntity
  8
Shape
100
AcDbLine
 10
31.72
 20
7.1248
 30
0
 11
32.24
 21
7.20986
 31
0
  0
LINE
  5
A46
330
A02
100
AcDbEntity
  8
Shape
100
AcDbLine
 10
32.24
 20
7.20986
 30
0
 11
32.76
 21
7.29452
 31
0
  0
LINE
  5
A47
330
A02
100
AcDbEntity
  8
Shape
100
AcDbLine
 10
32.76
 20
7.29452
 30
0
 11
33.28
 21
7.37877
 31
0
  0
LINE
  5
A48
330
A02
100
AcDbEntity
  8
Shape
100
AcDbLine
 10
33.28
 20
7.37877
 30
0
 11
33.8
 21
7.46263
 31
0
  0
LINE
  5
A49
330
A02
100
AcDbEntity
  8
Shape
100
AcDbLine
 10
33.8
 20
7.46263
 30
0
 11
34.32
 21
7.54609
 31
0
  0
LINE
  5
A4A
330
A02
100
AcDbEntity
  8
Shape
100
AcDbLine
 10
34.32
 20
7.54609
 30
0
 11
34.84
 21
7.62917
 31
0
  0
LINE
  5
A4B
330
A02
100
AcDbEntity
  8
Shape
100
AcDbLine
 10
34.84
 20
7.62917
 30
0
 11
35.36
 21
7.71187
 31
0
  0
LINE
  5
A4C
330
A02
100
AcDbEntity
  8
Shape
100
AcDbLine
 10
35.36
 20
7.71187
 30
0
 11
35.88
 21
7.7942
 31
0
  0
LINE
  5
A4D
330
A02
100
AcDbEntity
  8
Shape
100
AcDbLine
 10
35.88
 20
7.7942
 30
0
 11
36.4
 21
7.87617
 31
0
  0
LINE
  5
A4E
330
A02
100
AcDbEntity
  8
Shape
100
AcDbLine
 10
36.4
 20
7.87617
 30
0
 11
36.92
 21
7.95777
 31
0
  0
LINE
  5
A4F
330
A02
100
AcDbEntity
  8
Shape
100
AcDbLine
 10
36.92
 20
7.95777
 30
0
 11
37.44
 21
8.03902
 31
0
  0
LINE
  5
A50
330
A02
100
AcDbEntity
  8
Shape
100
AcDbLine
 10
37.44
 20
8.03902
 30
0
 11
37.96
 21
8.11992
 31
0
  0
LINE
  5
A51
330
A02
100
AcDbEntity
  8
Shape
100
AcDbLine
 10
37.96
 20
8.11992
 30
0
 11
38.48
 21
8.20048
 31
0
  0
LINE
  5
A52
330
A02
100
AcDbEntity
  8
Shape
100
AcDbLine
 10
38.48
 20
8.20048
 30
0
 11
39
 21
8.28069
 31
0
  0
LINE
  5
A53
330
A02
100
AcDbEntity
  8
Shape
100
AcDbLine
 10
39
 20
8.28069
 30
0
 11
39.52
 21
8.36058
 31
0
  0
LINE
  5
A54
330
A02
100
AcDbEntity
  8
Shape
100
AcDbLine
 10
39.52
 20
8.36058
 30
0
 11
40.04
 21
8.44013
 31
0
  0
LINE
  5
A55
330
A02
100
AcDbEntity
  8
Shape
100
AcDbLine
 10
40.04
 20
8.44013
 30
0
 11
40.56
 21
8.51936
 31
0
  0
LINE
  5
A56
330
A02
100
AcDbEntity
  8
Shape
100
AcDbLine
 10
40.56
 20
8.51936
 30
0
 11
41.08
 21
8.59826
 31
0
  0
LINE
  5
A57
330
A02
100
AcDbEntity
  8
Shape
100
AcDbLine
 10
41.08
 20
8.59826
 30
0
 11
41.6
 21
8.67686
 31
0
  0
LINE
  5
A58
330
A02
100
AcDbEntity
  8
Shape
100
AcDbLine
 10
41.6
 20
8.67686
 30
0
 11
42.12
 21
8.75513
 31
0
  0
LINE
  5
A59
330
A02
100
AcDbEntity
  8
Shape
100
AcDbLine
 10
42.12
 20
8.75513
 30
0
 11
42.64
 21
8.8331
 31
0
  0
LINE
  5
A5A
330
A02
100
AcDbEntity
  8
Shape
100
AcDbLine
 10
42.64
 20
8.8331
 30
0
 11
43.16
 21
8.91077
 31
0
  0
LINE
  5
A5B
330
A02
100
AcDbEntity
  8
Shape
100
AcDbLine
 10
43.16
 20
8.91077
 30
0
 11
43.68
 21
8.98814
 31
0
  0
LINE
  5
A5C
330
A02
100
AcDbEntity
  8
Shape
100
AcDbLine
 10
43.68
 20
8.98814
 30
0
 11
44.2
 21
9.06521
 31
0
  0
LINE
  5
A5D
330
A02
100
AcDbEntity
  8
Shape
100
AcDbLine
 10
44.2
 20
9.06521
 30
0
 11
44.72
 21
9.14198
 31
0
  0
LINE
  5
A5E
330
A02
100
AcDbEntity
  8
Shape
100
AcDbLine
 10
44.72
 20
9.14198
 30
0
 11
45.24
 21
9.21847
 31
0
  0
LINE
  5
A5F
330
A02
100
AcDbEntity
  8
Shape
100
AcDbLine
 10
45.24
 20
9.21847
 30
0
 11
45.76
 21
9.29467
 31
0
  0
LINE
  5
A60
330
A02
100
AcDbEntity
  8
Shape
100
AcDbLine
 10
45.76
 20
9.29467
 30
0
 11
46.28
 21
9.37059
 31
0
  0
LINE
  5
A61
330
A02
100
AcDbEntity
  8
Shape
100
AcDbLine
 10
46.28
 20
9.37059
 30
0
 11
46.8
 21
9.44623
 31
0
  0
LINE
  5
A62
330
A02
100
AcDbEntity
  8
Shape
100
AcDbLine
 10
46.8
 20
9.44623
 30
0
 11
47.32
 21
9.52159
 31
0
  0
LINE
  5
A63
330
A02
100
AcDbEntity
  8
Shape
100
AcDbLine
 10
47.32
 20
9.52159
 30
0
 11
47.84
 21
9.59668
 31
0
  0
LINE
  5
A64
330
A02
100
AcDbEntity
  8
Shape
100
AcDbLine
 10
47.84
 20
9.59668
 30
0
 11
48.36
 21
9.6715
 31
0
  0
LINE
  5
A65
330
A02
100
AcDbEntity
  8
Shape
100
AcDbLine
 10
48.36
 20
9.6715
 30
0
 11
48.88
 21
9.74606
 31
0
  0
LINE
  5
A66
330
A02
100
AcDbEntity
  8
Shape
100
AcDbLine
 10
48.88
 20
9.74606
 30
0
 11
49.4
 21
9.82035
 31
0
  0
LINE
  5
A67
330
A02
100
AcDbEntity
  8
Shape
100
AcDbLine
 10
49.4
 20
9.82035
 30
0
 11
49.92
 21
9.89438
 31
0
  0
LINE
  5
A68
330
A02
100
AcDbEntity
  8
Shape
100
AcDbLine
 10
49.92
 20
9.89438
 30
0
 11
50.44
 21
9.96815
 31
0
  0
LINE
  5
A69
330
A02
100
AcDbEntity
  8
Shape
100
AcDbLine
 10
50.44
 20
9.96815
 30
0
 11
50.96
 21
10.0417
 31
0
  0
LINE
  5
A6A
330
A02
100
AcDbEntity
  8
Shape
100
AcDbLine
 10
50.96
 20
10.0417
 30
0
 11
51.48
 21
10.1149
 31
0
  0
LINE
  5
A6B
330
A02
100
AcDbEntity
  8
Shape
100
AcDbLine
 10
51.48
 20
10.1149
 30
0
 11
52
 21
10.1879
 31
0
  0
LINE
  5
A6C
330
A02
100
AcDbEntity
  8
Shape
100
AcDbLine
 10
52
 20
10.1879
 30
0
 11
52.52
 21
10.2607
 31
0
  0
LINE
  5
A6D
330
A02
100
AcDbEntity
  8
Shape
100
AcDbLine
 10
52.52
 20
10.2607
 30
0
 11
53.04
 21
10.3332
 31
0
  0
LINE
  5
A6E
330
A02
100
AcDbEntity
  8
Shape
100
AcDbLine
 10
53.04
 20
10.3332
 30
0
 11
53.56
 21
10.4055
 31
0
  0
LINE
  5
A6F
330
A02
100
AcDbEntity
  8
Shape
100
AcDbLine
 10
53.56
 20
10.4055
 30
0
 11
54.08
 21
10.4775
 31
0
  0
LINE
  5
A70
330
A02
100
AcDbEntity
  8
Shape
100
AcDbLine
 10
54.08
 20
10.4775
 30
0
 11
54.6
 21
10.5493
 31
0
  0
LINE
  5
A71
330
A02
100
AcDbEntity
  8
Shape
100
AcDbLine
 10
54.6
 20
10.5493
 30
0
 11
55.12
 21
10.6209
 31
0
  0
LINE
  5
A72
330
A02
100
AcDbEntity
  8
Shape
100
AcDbLine
 10
55.12
 20
10.6209
 30
0
 11
55.64
 21
10.6922
 31
0
  0
LINE
  5
A73
330
A02
100
AcDbEntity
  8
Shape
100
AcDbLine
 10
55.64
 20
10.6922
 30
0
 11
56.16
 21
10.7633
 31
0
  0
LINE
  5
A74
330
A02
100
AcDbEntity
  8
Shape
100
AcDbLine
 10
56.16
 20
10.7633
 30
0
 11
56.68
 21
10.8341
 31
0
  0
LINE
  5
A75
330
A02
100
AcDbEntity
  8
Shape
100
AcDbLine
 10
56.68
 20
10.8341
 30
0
 11
57.2
 21
10.9048
 31
0
  0
LINE
  5
A76
330
A02
100
AcDbEntity
  8
Shape
100
AcDbLine
 10
57.2
 20
10.9048
 30
0
 11
57.72
 21
10.9752
 31
0
  0
LINE
  5
A77
330
A02
100
AcDbEntity
  8
Shape
100
AcDbLine
 10
57.72
 20
10.9752
 30
0
 11
58.24
 21
11.0454
 31
0
  0
LINE
  5
A78
330
A02
100
AcDbEntity
  8
Shape
100
AcDbLine
 10
58.24
 20
11.0454
 30
0
 11
58.76
 21
11.1153
 31
0
  0
LINE
  5
A79
330
A02
100
AcDbEntity
  8
Shape
100
AcDbLine
 10
58.76
 20
11.1153
 30
0
 11
59.28
 21
11.1851
 31
0
  0
LINE
  5
A7A
330
A02
100
AcDbEntity
  8
Shape
100
AcDbLine
 10
59.28
 20
11.1851
 30
0
 11
59.8
 21
11.2546
 31
0
  0
LINE
  5
A7B
330
A02
100
AcDbEntity
  8
Shape
100
AcDbLine
 10
59.8
 20
11.2546
 30
0
 11
60.32
 21
11.3239
 31
0
  0
LINE
  5
A7C
330
A02
100
AcDbEntity
  8
Shape
100
AcDbLine
 10
60.32
 20
11.3239
 30
0
 11
60.84
 21
11.393
 31
0
  0
LINE
  5
A7D
330
A02
100
AcDbEntity
  8
Shape
100
AcDbLine
 10
60.84
 20
11.393
 30
0
 11
61.36
 21
11.4619
 31
0
  0
LINE
  5
A7E
330
A02
100
AcDbEntity
  8
Shape
100
AcDbLine
 10
61.36
 20
11.4619
 30
0
 11
61.88
 21
11.5305
 31
0
  0
LINE
  5
A7F
330
A02
100
AcDbEntity
  8
Shape
100
AcDbLine
 10
61.88
 20
11.5305
 30
0
 11
62.4
 21
11.599
 31
0
  0
LINE
  5
A80
330
A02
100
AcDbEntity
  8
Shape
100
AcDbLine
 10
62.4
 20
11.599
 30
0
 11
62.92
 21
11.6672
 31
0
  0
LINE
  5
A81
330
A02
100
AcDbEntity
  8
Shape
100
AcDbLine
 10
62.92
 20
11.6672
 30
0
 11
63.44
 21
11.7353
 31
0
  0
LINE
  5
A82
330
A02
100
AcDbEntity
  8
Shape
100
AcDbLine
 10
63.44
 20
11.7353
 30
0
 11
63.96
 21
11.8031
 31
0
  0
LINE
  5
A83
330
A02
100
AcDbEntity
  8
Shape
100
AcDbLine
 10
63.96
 20
11.8031
 30
0
 11
64.48
 21
11.8708
 31
0
  0
LINE
  5
A84
330
A02
100
AcDbEntity
  8
Shape
100
AcDbLine
 10
64.48
 20
11.8708
 30
0
 11
65
 21
11.9382
 31
0
  0
LINE
  5
A85
330
A02
100
AcDbEntity
  8
Shape
100
AcDbLine
 10
65
 20
11.9382
 30
0
 11
65.52
 21
12.0054
 31
0
  0
LINE
  5
A86
330
A02
100
AcDbEntity
  8
Shape
100
AcDbLine
 10
65.52
 20
12.0054
 30
0
 11
66.04
 21
12.0725
 31
0
  0
LINE
  5
A87
330
A02
100
AcDbEntity
  8
Shape
100
AcDbLine
 10
66.04
 20
12.0725
 30
0
 11
66.56
 21
12.1393
 31
0
  0
LINE
  5
A88
330
A02
100
AcDbEntity
  8
Shape
100
AcDbLine
 10
66.56
 20
12.1393
 30
0
 11
67.08
 21
12.2059
 31
0
  0
LINE
  5
A89
330
A02
100
AcDbEntity
  8
Shape
100
AcDbLine
 10
67.08
 20
12.2059
 30
0
 11
67.6
 21
12.2724
 31
0
  0
LINE
  5
A8A
330
A02
100
AcDbEntity
  8
Shape
100
AcDbLine
 10
67.6
 20
12.2724
 30
0
 11
68.12
 21
12.3386
 31
0
  0
LINE
  5
A8B
330
A02
100
AcDbEntity
  8
Shape
100
AcDbLine
 10
68.12
 20
12.3386
 30
0
 11
68.64
 21
12.4047
 31
0
  0
LINE
  5
A8C
330
A02
100
AcDbEntity
  8
Shape
100
AcDbLine
 10
68.64
 20
12.4047
 30
0
 11
69.16
 21
12.4706
 31
0
  0
LINE
  5
A8D
330
A02
100
AcDbEntity
  8
Shape
100
AcDbLine
 10
69.16
 20
12.4706
 30
0
 11
69.68
 21
12.5362
 31
0
  0
LINE
  5
A8E
330
A02
100
AcDbEntity
  8
Shape
100
AcDbLine
 10
69.68
 20
12.5362
 30
0
 11
70.2
 21
12.6017
 31
0
  0
LINE
  5
A8F
330
A02
100
AcDbEntity
  8
Shape
100
AcDbLine
 10
70.2
 20
12.6017
 30
0
 11
70.72
 21
12.6671
 31
0
  0
LINE
  5
A90
330
A02
100
AcDbEntity
  8
Shape
100
AcDbLine
 10
70.72
 20
12.6671
 30
0
 11
71.24
 21
12.7322
 31
0
  0
LINE
  5
A91
330
A02
100
AcDbEntity
  8
Shape
100
AcDbLine
 10
71.24
 20
12.7322
 30
0
 11
71.76
 21
12.7971
 31
0
  0
LINE
  5
A92
330
A02
100
AcDbEntity
  8
Shape
100
AcDbLine
 10
71.76
 20
12.7971
 30
0
 11
72.28
 21
12.8619
 31
0
  0
LINE
  5
A93
330
A02
100
AcDbEntity
  8
Shape
100
AcDbLine
 10
72.28
 20
12.8619
 30
0
 11
72.8
 21
12.9264
 31
0
  0
LINE
  5
A94
330
A02
100
AcDbEntity
  8
Shape
100
AcDbLine
 10
72.8
 20
12.9264
 30
0
 11
73.32
 21
12.9908
 31
0
  0
LINE
  5
A95
330
A02
100
AcDbEntity
  8
Shape
100
AcDbLine
 10
73.32
 20
12.9908
 30
0
 11
73.84
 21
13.055
 31
0
  0
LINE
  5
A96
330
A02
100
AcDbEntity
  8
Shape
100
AcDbLine
 10
73.84
 20
13.055
 30
0
 11
74.36
 21
13.1191
 31
0
  0
LINE
  5
A97
330
A02
100
AcDbEntity
  8
Shape
100
AcDbLine
 10
74.36
 20
13.1191
 30
0
 11
74.88
 21
13.1829
 31
0
  0
LINE
  5
A98
330
A02
100
AcDbEntity
  8
Shape
100
AcDbLine
 10
74.88
 20
13.1829
 30
0
 11
75.4
 21
13.2466
 31
0
  0
LINE
  5
A99
330
A02
100
AcDbEntity
  8
Shape
100
AcDbLine
 10
75.4
 20
13.2466
 30
0
 11
75.92
 21
13.3101
 31
0
  0
LINE
  5
A9A
330
A02
100
AcDbEntity
  8
Shape
100
AcDbLine
 10
75.92
 20
13.3101
 30
0
 11
76.44
 21
13.3734
 31
0
  0
LINE
  5
A9B
330
A02
100
AcDbEntity
  8
Shape
100
AcDbLine
 10
76.44
 20
13.3734
 30
0
 11
76.96
 21
13.4366
 31
0
  0
LINE
  5
A9C
330
A02
100
AcDbEntity
  8
Shape
100
AcDbLine
 10
76.96
 20
13.4366
 30
0
 11
77.48
 21
13.4996
 31
0
  0
LINE
  5
A9D
330
A02
100
AcDbEntity
  8
Shape
100
AcDbLine
 10
77.48
 20
13.4996
 30
0
 11
78
 21
13.5624
 31
0
  0
LINE
  5
A9E
330
A02
100
AcDbEntity
  8
Shape
100
AcDbLine
 10
78
 20
13.5624
 30
0
 11
78.52
 21
13.625
 31
0
  0
LINE
  5
A9F
330
A02
100
AcDbEntity
  8
Shape
100
AcDbLine
 10
78.52
 20
13.625
 30
0
 11
79.04
 21
13.6875
 31
0
  0
LINE
  5
AA0
330
A02
100
AcDbEntity
  8
Shape
100
AcDbLine
 10
79.04
 20
13.6875
 30
0
 11
79.56
 21
13.7498
 31
0
  0
LINE
  5
AA1
330
A02
100
AcDbEntity
  8
Shape
100
AcDbLine
 10
79.56
 20
13.7498
 30
0
 11
80.08
 21
13.8119
 31
0
  0
LINE
  5
AA2
330
A02
100
AcDbEntity
  8
Shape
100
AcDbLine
 10
80.08
 20
13.8119
 30
0
 11
80.6
 21
13.8739
 31
0
  0
LINE
  5
AA3
330
A02
100
AcDbEntity
  8
Shape
100
AcDbLine
 10
80.6
 20
13.8739
 30
0
 11
81.12
 21
13.9357
 31
0
  0
LINE
  5
AA4
330
A02
100
AcDbEntity
  8
Shape
100
AcDbLine
 10
81.12
 20
13.9357
 30
0
 11
81.64
 21
13.9973
 31
0
  0
LINE
  5
AA5
330
A02
100
AcDbEntity
  8
Shape
100
AcDbLine
 10
81.64
 20
13.9973
 30
0
 11
82.16
 21
14.0588
 31
0
  0
LINE
  5
AA6
330
A02
100
AcDbEntity
  8
Shape
100
AcDbLine
 10
82.16
 20
14.0588
 30
0
 11
82.68
 21
14.1201
 31
0
  0
LINE
  5
AA7
330
A02
100
AcDbEntity
  8
Shape
100
AcDbLine
 10
82.68
 20
14.1201
 30
0
 11
83.2
 21
14.1813
 31
0
  0
LINE
  5
AA8
330
A02
100
AcDbEntity
  8
Shape
100
AcDbLine
 10
83.2
 20
14.1813
 30
0
 11
83.72
 21
14.2422
 31
0
  0
LINE
  5
AA9
330
A02
100
AcDbEntity
  8
Shape
100
AcDbLine
 10
83.72
 20
14.2422
 30
0
 11
84.24
 21
14.3031
 31
0
  0
LINE
  5
AAA
330
A02
100
AcDbEntity
  8
Shape
100
AcDbLine
 10
84.24
 20
14.3031
 30
0
 11
84.76
 21
14.3637
 31
0
  0
LINE
  5
AAB
330
A02
100
AcDbEntity
  8
Shape
100
AcDbLine
 10
84.76
 20
14.3637
 30
0
 11
85.28
 21
14.4242
 31
0
  0
LINE
  5
AAC
330
A02
100
AcDbEntity
  8
Shape
100
AcDbLine
 10
85.28
 20
14.4242
 30
0
 11
85.8
 21
14.4846
 31
0
  0
LINE
  5
AAD
330
A02
100
AcDbEntity
  8
Shape
100
AcDbLine
 10
85.8
 20
14.4846
 30
0
 11
86.32
 21
14.5447
 31
0
  0
LINE
  5
AAE
330
A02
100
AcDbEntity
  8
Shape
100
AcDbLine
 10
86.32
 20
14.5447
 30
0
 11
86.84
 21
14.6048
 31
0
  0
LINE
  5
AAF
330
A02
100
AcDbEntity
  8
Shape
100
AcDbLine
 10
86.84
 20
14.6048
 30
0
 11
87.36
 21
14.6646
 31
0
  0
LINE
  5
AB0
330
A02
100
AcDbEntity
  8
Shape
100
AcDbLine
 10
87.36
 20
14.6646
 30
0
 11
87.88
 21
14.7244
 31
0
  0
LINE
  5
AB1
330
A02
100
AcDbEntity
  8
Shape
100
AcDbLine
 10
87.88
 20
14.7244
 30
0
 11
88.4
 21
14.7839
 31
0
  0
LINE
  5
AB2
330
A02
100
AcDbEntity
  8
Shape
100
AcDbLine
 10
88.4
 20
14.7839
 30
0
 11
88.92
 21
14.8433
 31
0
  0
LINE
  5
AB3
330
A02
100
AcDbEntity
  8
Shape
100
AcDbLine
 10
88.92
 20
14.8433
 30
0
 11
89.44
 21
14.9026
 31
0
  0
LINE
  5
AB4
330
A02
100
AcDbEntity
  8
Shape
100
AcDbLine
 10
89.44
 20
14.9026
 30
0
 11
89.96
 21
14.9617
 31
0
  0
LINE
  5
AB5
330
A02
100
AcDbEntity
  8
Shape
100
AcDbLine
 10
89.96
 20
14.9617
 30
0
 11
90.48
 21
15.0206
 31
0
  0
LINE
  5
AB6
330
A02
100
AcDbEntity
  8
Shape
100
AcDbLine
 10
90.48
 20
15.0206
 30
0
 11
91
 21
15.0794
 31
0
  0
LINE
  5
AB7
330
A02
100
AcDbEntity
  8
Shape
100
AcDbLine
 10
91
 20
15.0794
 30
0
 11
91.52
 21
15.1381
 31
0
  0
LINE
  5
AB8
330
A02
100
AcDbEntity
  8
Shape
100
AcDbLine
 10
91.52
 20
15.1381
 30
0
 11
92.04
 21
15.1966
 31
0
  0
LINE
  5
AB9
330
A02
100
AcDbEntity
  8
Shape
100
AcDbLine
 10
92.04
 20
15.1966
 30
0
 11
92.56
 21
15.2549
 31
0
  0
LINE
  5
ABA
330
A02
100
AcDbEntity
  8
Shape
100
AcDbLine
 10
92.56
 20
15.2549
 30
0
 11
93.08
 21
15.3131
 31
0
  0
LINE
  5
ABB
330
A02
100
AcDbEntity
  8
Shape
100
AcDbLine
 10
93.08
 20
15.3131
 30
0
 11
93.6
 21
15.3711
 31
0
  0
LINE
  5
ABC
330
A02
100
AcDbEntity
  8
Shape
100
AcDbLine
 10
93.6
 20
15.3711
 30
0
 11
94.12
 21
15.429
 31
0
  0
LINE
  5
ABD
330
A02
100
AcDbEntity
  8
Shape
100
AcDbLine
 10
94.12
 20
15.429
 30
0
 11
94.64
 21
15.4868
 31
0
  0
LINE
  5
ABE
330
A02
100
AcDbEntity
  8
Shape
100
AcDbLine
 10
94.64
 20
15.4868
 30
0
 11
95.16
 21
15.5444
 31
0
  0
LINE
  5
ABF
330
A02
100
AcDbEntity
  8
Shape
100
AcDbLine
 10
95.16
 20
15.5444
 30
0
 11
95.68
 21
15.6018
 31
0
  0
LINE
  5
AC0
330
A02
100
AcDbEntity
  8
Shape
100
AcDbLine
 10
95.68
 20
15.6018
 30
0
 11
96.2
 21
15.6591
 31
0
  0
LINE
  5
AC1
330
A02
100
AcDbEntity
  8
Shape
100
AcDbLine
 10
96.2
 20
15.6591
 30
0
 11
96.72
 21
15.7163
 31
0
  0
LINE
  5
AC2
330
A02
100
AcDbEntity
  8
Shape
100
AcDbLine
 10
96.72
 20
15.7163
 30
0
 11
97.24
 21
15.7733
 31
0
  0
LINE
  5
AC3
330
A02
100
AcDbEntity
  8
Shape
100
AcDbLine
 10
97.24
 20
15.7733
 30
0
 11
97.76
 21
15.8302
 31
0
  0
LINE
  5
AC4
330
A02
100
AcDbEntity
  8
Shape
100
AcDbLine
 10
97.76
 20
15.8302
 30
0
 11
98.28
 21
15.8869
 31
0
  0
LINE
  5
AC5
330
A02
100
AcDbEntity
  8
Shape
100
AcDbLine
 10
98.28
 20
15.8869
 30
0
 11
98.8
 21
15.9435
 31
0
  0
LINE
  5
AC6
330
A02
100
AcDbEntity
  8
Shape
100
AcDbLine
 10
98.8
 20
15.9435
 30
0
 11
99.32
 21
16
 31
0
  0
LINE
  5
AC7
330
A02
100
AcDbEntity
  8
Shape
100
AcDbLine
 10
99.32
 20
16
 30
0
 11
99.84
 21
16.0563
 31
0
  0
LINE
  5
AC8
330
A02
100
AcDbEntity
  8
Shape
100
AcDbLine
 10
99.84
 20
16.0563
 30
0
 11
100.36
 21
16.1124
 31
0
  0
LINE
  5
AC9
330
A02
100
AcDbEntity
  8
Shape
100
AcDbLine
 10
100.36
 20
16.1124
 30
0
 11
100.88
 21
16.1684
 31
0
  0
LINE
  5
ACA
330
A02
100
AcDbEntity
  8
Shape
100
AcDbLine
 10
100.88
 20
16.1684
 30
0
 11
101.4
 21
16.2243
 31
0
  0
LINE
  5
ACB
330
A02
100
AcDbEntity
  8
Shape
100
AcDbLine
 10
101.4
 20
16.2243
 30
0
 11
101.92
 21
16.2801
 31
0
  0
LINE
  5
ACC
330
A02
100
AcDbEntity
  8
Shape
100
AcDbLine
 10
101.92
 20
16.2801
 30
0
 11
102.44
 21
16.3357
 31
0
  0
LINE
  5
ACD
330
A02
100
AcDbEntity
  8
Shape
100
AcDbLine
 10
102.44
 20
16.3357
 30
0
 11
102.96
 21
16.3911
 31
0
  0
LINE
  5
ACE
330
A02
100
AcDbEntity
  8
Shape
100
AcDbLine
 10
102.96
 20
16.3911
 30
0
 11
103.48
 21
16.4464
 31
0
  0
LINE
  5
ACF
330
A02
100
AcDbEntity
  8
Shape
100
AcDbLine
 10
103.48
 20
16.4464
 30
0
 11
104
 21
16.5016
 31
0
  0
LINE
  5
AD0
330
A02
100
AcDbEntity
  8
Shape
100
AcDbLine
 10
104
 20
16.5016
 30
0
 11
104.52
 21
16.5567
 31
0
  0
LINE
  5
AD1
330
A02
100
AcDbEntity
  8
Shape
100
AcDbLine
 10
104.52
 20
16.5567
 30
0
 11
105.04
 21
16.6116
 31
0
  0
LINE
  5
AD2
330
A02
100
AcDbEntity
  8
Shape
100
AcDbLine
 10
105.04
 20
16.6116
 30
0
 11
105.56
 21
16.6663
 31
0
  0
LINE
  5
AD3
330
A02
100
AcDbEntity
  8
Shape
100
AcDbLine
 10
105.56
 20
16.6663
 30
0
 11
106.08
 21
16.721
 31
0
  0
LINE
  5
AD4
330
A02
100
AcDbEntity
  8
Shape
100
AcDbLine
 10
106.08
 20
16.721
 30
0
 11
106.6
 21
16.7755
 31
0
  0
LINE
  5
AD5
330
A02
100
AcDbEntity
  8
Shape
100
AcDbLine
 10
106.6
 20
16.7755
 30
0
 11
107.12
 21
16.8298
 31
0
  0
LINE
  5
AD6
330
A02
100
AcDbEntity
  8
Shape
100
AcDbLine
 10
107.12
 20
16.8298
 30
0
 11
107.64
 21
16.884
 31
0
  0
LINE
  5
AD7
330
A02
100
AcDbEntity
  8
Shape
100
AcDbLine
 10
107.64
 20
16.884
 30
0
 11
108.16
 21
16.9381
 31
0
  0
LINE
  5
AD8
330
A02
100
AcDbEntity
  8
Shape
100
AcDbLine
 10
108.16
 20
16.9381
 30
0
 11
108.68
 21
16.9921
 31
0
  0
LINE
  5
AD9
330
A02
100
AcDbEntity
  8
Shape
100
AcDbLine
 10
108.68
 20
16.9921
 30
0
 11
109.2
 21
17.0459
 31
0
  0
LINE
  5
ADA
330
A02
100
AcDbEntity
  8
Shape
100
AcDbLine
 10
109.2
 20
17.0459
 30
0
 11
109.72
 21
17.0996
 31
0
  0
LINE
  5
ADB
330
A02
100
AcDbEntity
  8
Shape
100
AcDbLine
 10
109.72
 20
17.0996
 30
0
 11
110.24
 21
17.1531
 31
0
  0
LINE
  5
ADC
330
A02
100
AcDbEntity
  8
Shape
100
AcDbLine
 10
110.24
 20
17.1531
 30
0
 11
110.76
 21
17.2066
 31
0
  0
LINE
  5
ADD
330
A02
100
AcDbEntity
  8
Shape
100
AcDbLine
 10
110.76
 20
17.2066
 30
0
 11
111.28
 21
17.2598
 31
0
  0
LINE
  5
ADE
330
A02
100
AcDbEntity
  8
Shape
100
AcDbLine
 10
111.28
 20
17.2598
 30
0
 11
111.8
 21
17.313
 31
0
  0
LINE
  5
ADF
330
A02
100
AcDbEntity
  8
Shape
100
AcDbLine
 10
111.8
 20
17.313
 30
0
 11
112.32
 21
17.366
 31
0
  0
LINE
  5
AE0
330
A02
100
AcDbEntity
  8
Shape
100
AcDbLine
 10
112.32
 20
17.366
 30
0
 11
112.84
 21
17.4189
 31
0
  0
LINE
  5
AE1
330
A02
100
AcDbEntity
  8
Shape
100
AcDbLine
 10
112.84
 20
17.4189
 30
0
 11
113.36
 21
17.4716
 31
0
  0
LINE
  5
AE2
330
A02
100
AcDbEntity
  8
Shape
100
AcDbLine
 10
113.36
 20
17.4716
 30
0
 11
113.88
 21
17.5243
 31
0
  0
LINE
  5
AE3
330
A02
100
AcDbEntity
  8
Shape
100
AcDbLine
 10
113.88
 20
17.5243
 30
0
 11
114.4
 21
17.5768
 31
0
  0
LINE
  5
AE4
330
A02
100
AcDbEntity
  8
Shape
100
AcDbLine
 10
114.4
 20
17.5768
 30
0
 11
114.92
 21
17.6291
 31
0
  0
LINE
  5
AE5
330
A02
100
AcDbEntity
  8
Shape
100
AcDbLine
 10
114.92
 20
17.6291
 30
0
 11
115.44
 21
17.6814
 31
0
  0
LINE
  5
AE6
330
A02
100
AcDbEntity
  8
Shape
100
AcDbLine
 10
115.44
 20
17.6814
 30
0
 11
115.96
 21
17.7335
 31
0
  0
LINE
  5
AE7
330
A02
100
AcDbEntity
  8
Shape
100
AcDbLine
 10
115.96
 20
17.7335
 30
0
 11
116.48
 21
17.7854
 31
0
  0
LINE
  5
AE8
330
A02
100
AcDbEntity
  8
Shape
100
AcDbLine
 10
116.48
 20
17.7854
 30
0
 11
117
 21
17.8373
 31
0
  0
LINE
  5
AE9
330
A02
100
AcDbEntity
  8
Shape
100
AcDbLine
 10
117
 20
17.8373
 30
0
 11
117.52
 21
17.889
 31
0
  0
LINE
  5
AEA
330
A02
100
AcDbEntity
  8
Shape
100
AcDbLine
 10
117.52
 20
17.889
 30
0
 11
118.04
 21
17.9406
 31
0
  0
LINE
  5
AEB
330
A02
100
AcDbEntity
  8
Shape
100
AcDbLine
 10
118.04
 20
17.9406
 30
0
 11
118.56
 21
17.992
 31
0
  0
LINE
  5
AEC
330
A02
100
AcDbEntity
  8
Shape
100
AcDbLine
 10
118.56
 20
17.992
 30
0
 11
119.08
 21
18.0433
 31
0
  0
LINE
  5
AED
330
A02
100
AcDbEntity
  8
Shape
100
AcDbLine
 10
119.08
 20
18.0433
 30
0
 11
119.6
 21
18.0945
 31
0
  0
LINE
  5
AEE
330
A02
100
AcDbEntity
  8
Shape
100
AcDbLine
 10
119.6
 20
18.0945
 30
0
 11
120.12
 21
18.1456
 31
0
  0
LINE
  5
AEF
330
A02
100
AcDbEntity
  8
Shape
100
AcDbLine
 10
120.12
 20
18.1456
 30
0
 11
120.64
 21
18.1965
 31
0
  0
LINE
  5
AF0
330
A02
100
AcDbEntity
  8
Shape
100
AcDbLine
 10
120.64
 20
18.1965
 30
0
 11
121.16
 21
18.2474
 31
0
  0
LINE
  5
AF1
330
A02
100
AcDbEntity
  8
Shape
100
AcDbLine
 10
121.16
 20
18.2474
 30
0
 11
121.68
 21
18.298
 31
0
  0
LINE
  5
AF2
330
A02
100
AcDbEntity
  8
Shape
100
AcDbLine
 10
121.68
 20
18.298
 30
0
 11
122.2
 21
18.3486
 31
0
  0
LINE
  5
AF3
330
A02
100
AcDbEntity
  8
Shape
100
AcDbLine
 10
122.2
 20
18.3486
 30
0
 11
122.72
 21
18.399
 31
0
  0
LINE
  5
AF4
330
A02
100
AcDbEntity
  8
Shape
100
AcDbLine
 10
122.72
 20
18.399
 30
0
 11
123.24
 21
18.4493
 31
0
  0
LINE
  5
AF5
330
A02
100
AcDbEntity
  8
Shape
100
AcDbLine
 10
123.24
 20
18.4493
 30
0
 11
123.76
 21
18.4995
 31
0
  0
LINE
  5
AF6
330
A02
100
AcDbEntity
  8
Shape
100
AcDbLine
 10
123.76
 20
18.4995
 30
0
 11
124.28
 21
18.5496
 31
0
  0
LINE
  5
AF7
330
A02
100
AcDbEntity
  8
Shape
100
AcDbLine
 10
124.28
 20
18.5496
 30
0
 11
124.8
 21
18.5995
 31
0
  0
LINE
  5
AF8
330
A02
100
AcDbEntity
  8
Shape
100
AcDbLine
 10
124.8
 20
18.5995
 30
0
 11
125.32
 21
18.6493
 31
0
  0
LINE
  5
AF9
330
A02
100
AcDbEntity
  8
Shape
100
AcDbLine
 10
125.32
 20
18.6493
 30
0
 11
125.84
 21
18.699
 31
0
  0
LINE
  5
AFA
330
A02
100
AcDbEntity
  8
Shape
100
AcDbLine
 10
125.84
 20
18.699
 30
0
 11
126.36
 21
18.7485
 31
0
  0
LINE
  5
AFB
330
A02
100
AcDbEntity
  8
Shape
100
AcDbLine
 10
126.36
 20
18.7485
 30
0
 11
126.88
 21
18.7979
 31
0
  0
LINE
  5
AFC
330
A02
100
AcDbEntity
  8
Shape
100
AcDbLine
 10
126.88
 20
18.7979
 30
0
 11
127.4
 21
18.8472
 31
0
  0
LINE
  5
AFD
330
A02
100
AcDbEntity
  8
Shape
100
AcDbLine
 10
127.4
 20
18.8472
 30
0
 11
127.92
 21
18.8964
 31
0
  0
LINE
  5
AFE
330
A02
100
AcDbEntity
  8
Shape
100
AcDbLine
 10
127.92
 20
18.8964
 30
0
 11
128.44
 21
18.9455
 31
0
  0
LINE
  5
AFF
330
A02
100
AcDbEntity
  8
Shape
100
AcDbLine
 10
128.44
 20
18.9455
 30
0
 11
128.96
 21
18.9944
 31
0
  0
LINE
  5
B00
330
A02
100
AcDbEntity
  8
Shape
100
AcDbLine
 10
128.96
 20
18.9944
 30
0
 11
129.48
 21
19.0432
 31
0
  0
LINE
  5
B01
330
A02
100
AcDbEntity
  8
Shape
100
AcDbLine
 10
129.48
 20
19.0432
 30
0
 11
130
 21
19.0919
 31
0
  0
LINE
  5
B02
330
A02
100
AcDbEntity
  8
Shape
100
AcDbLine
 10
130
 20
19.0919
 30
0
 11
130.52
 21
19.1404
 31
0
  0
LINE
  5
B03
330
A02
100
AcDbEntity
  8
Shape
100
AcDbLine
 10
130.52
 20
19.1404
 30
0
 11
131.04
 21
19.1889
 31
0
  0
LINE
  5
B04
330
A02
100
AcDbEntity
  8
Shape
100
AcDbLine
 10
131.04
 20
19.1889
 30
0
 11
131.56
 21
19.2372
 31
0
  0
LINE
  5
B05
330
A02
100
AcDbEntity
  8
Shape
100
AcDbLine
 10
131.56
 20
19.2372
 30
0
 11
132.08
 21
19.2854
 31
0
  0
LINE
  5
B06
330
A02
100
AcDbEntity
  8
Shape
100
AcDbLine
 10
132.08
 20
19.2854
 30
0
 11
132.6
 21
19.3334
 31
0
  0
LINE
  5
B07
330
A02
100
AcDbEntity
  8
Shape
100
AcDbLine
 10
132.6
 20
19.3334
 30
0
 11
133.12
 21
19.3814
 31
0
  0
LINE
  5
B08
330
A02
100
AcDbEntity
  8
Shape
100
AcDbLine
 10
133.12
 20
19.3814
 30
0
 11
133.64
 21
19.4292
 31
0
  0
LINE
  5
B09
330
A02
100
AcDbEntity
  8
Shape
100
AcDbLine
 10
133.64
 20
19.4292
 30
0
 11
134.16
 21
19.4769
 31
0
  0
LINE
  5
B0A
330
A02
100
AcDbEntity
  8
Shape
100
AcDbLine
 10
134.16
 20
19.4769
 30
0
 11
134.68
 21
19.5244
 31
0
  0
LINE
  5
B0B
330
A02
100
AcDbEntity
  8
Shape
100
AcDbLine
 10
134.68
 20
19.5244
 30
0
 11
135.2
 21
19.5719
 31
0
  0
LINE
  5
B0C
330
A02
100
AcDbEntity
  8
Shape
100
AcDbLine
 10
135.2
 20
19.5719
 30
0
 11
135.72
 21
19.6192
 31
0
  0
LINE
  5
B0D
330
A02
100
AcDbEntity
  8
Shape
100
AcDbLine
 10
135.72
 20
19.6192
 30
0
 11
136.24
 21
19.6664
 31
0
  0
LINE
  5
B0E
330
A02
100
AcDbEntity
  8
Shape
100
AcDbLine
 10
136.24
 20
19.6664
 30
0
 11
136.76
 21
19.7135
 31
0
  0
LINE
  5
B0F
330
A02
100
AcDbEntity
  8
Shape
100
AcDbLine
 10
136.76
 20
19.7135
 30
0
 11
137.28
 21
19.7605
 31
0
  0
LINE
  5
B10
330
A02
100
AcDbEntity
  8
Shape
100
AcDbLine
 10
137.28
 20
19.7605
 30
0
 11
137.8
 21
19.8073
 31
0
  0
LINE
  5
B11
330
A02
100
AcDbEntity
  8
Shape
100
AcDbLine
 10
137.8
 20
19.8073
 30
0
 11
138.32
 21
19.854
 31
0
  0
LINE
  5
B12
330
A02
100
AcDbEntity
  8
Shape
100
AcDbLine
 10
138.32
 20
19.854
 30
0
 11
138.84
 21
19.9006
 31
0
  0
LINE
  5
B13
330
A02
100
AcDbEntity
  8
Shape
100
AcDbLine
 10
138.84
 20
19.9006
 30
0
 11
139.36
 21
19.9471
 31
0
  0
LINE
  5
B14
330
A02
100
AcDbEntity
  8
Shape
100
AcDbLine
 10
139.36
 20
19.9471
 30
0
 11
139.88
 21
19.9934
 31
0
  0
LINE
  5
B15
330
A02
100
AcDbEntity
  8
Shape
100
AcDbLine
 10
139.88
 20
19.9934
 30
0
 11
140.4
 21
20.0397
 31
0
  0
LINE
  5
B16
330
A02
100
AcDbEntity
  8
Shape
100
AcDbLine
 10
140.4
 20
20.0397
 30
0
 11
140.92
 21
20.0858
 31
0
  0
LINE
  5
B17
330
A02
100
AcDbEntity
  8
Shape
100
AcDbLine
 10
140.92
 20
20.0858
 30
0
 11
141.44
 21
20.1318
 31
0
  0
LINE
  5
B18
330
A02
100
AcDbEntity
  8
Shape
100
AcDbLine
 10
141.44
 20
20.1318
 30
0
 11
141.96
 21
20.1776
 31
0
  0
LINE
  5
B19
330
A02
100
AcDbEntity
  8
Shape
100
AcDbLine
 10
141.96
 20
20.1776
 30
0
 11
142.48
 21
20.2234
 31
0
  0
LINE
  5
B1A
330
A02
100
AcDbEntity
  8
Shape
100
AcDbLine
 10
142.48
 20
20.2234
 30
0
 11
143
 21
20.269
 31
0
  0
LINE
  5
B1B
330
A02
100
AcDbEntity
  8
Shape
100
AcDbLine
 10
143
 20
20.269
 30
0
 11
143.52
 21
20.3145
 31
0
  0
LINE
  5
B1C
330
A02
100
AcDbEntity
  8
Shape
100
AcDbLine
 10
143.52
 20
20.3145
 30
0
 11
144.04
 21
20.3599
 31
0
  0
LINE
  5
B1D
330
A02
100
AcDbEntity
  8
Shape
100
AcDbLine
 10
144.04
 20
20.3599
 30
0
 11
144.56
 21
20.4051
 31
0
  0
LINE
  5
B1E
330
A02
100
AcDbEntity
  8
Shape
100
AcDbLine
 10
144.56
 20
20.4051
 30
0
 11
145.08
 21
20.4503
 31
0
  0
LINE
  5
B1F
330
A02
100
AcDbEntity
  8
Shape
100
AcDbLine
 10
145.08
 20
20.4503
 30
0
 11
145.6
 21
20.4953
 31
0
  0
LINE
  5
B20
330
A02
100
AcDbEntity
  8
Shape
100
AcDbLine
 10
145.6
 20
20.4953
 30
0
 11
146.12
 21
20.5402
 31
0
  0
LINE
  5
B21
330
A02
100
AcDbEntity
  8
Shape
100
AcDbLine
 10
146.12
 20
20.5402
 30
0
 11
146.64
 21
20.585
 31
0
  0
LINE
  5
B22
330
A02
100
AcDbEntity
  8
Shape
100
AcDbLine
 10
146.64
 20
20.585
 30
0
 11
147.16
 21
20.6296
 31
0
  0
LINE
  5
B23
330
A02
100
AcDbEntity
  8
Shape
100
AcDbLine
 10
147.16
 20
20.6296
 30
0
 11
147.68
 21
20.6742
 31
0
  0
LINE
  5
B24
330
A02
100
AcDbEntity
  8
Shape
100
AcDbLine
 10
147.68
 20
20.6742
 30
0
 11
148.2
 21
20.7186
 31
0
  0
LINE
  5
B25
330
A02
100
AcDbEntity
  8
Shape
100
AcDbLine
 10
148.2
 20
20.7186
 30
0
 11
148.72
 21
20.7629
 31
0
  0
LINE
  5
B26
330
A02
100
AcDbEntity
  8
Shape
100
AcDbLine
 10
148.72
 20
20.7629
 30
0
 11
149.24
 21
20.8071
 31
0
  0
LINE
  5
B27
330
A02
100
AcDbEntity
  8
Shape
100
AcDbLine
 10
149.24
 20
20.8071
 30
0
 11
149.76
 21
20.8511
 31
0
  0
LINE
  5
B28
330
A02
100
AcDbEntity
  8
Shape
100
AcDbLine
 10
149.76
 20
20.8511
 30
0
 11
150.28
 21
20.8951
 31
0
  0
LINE
  5
B29
330
A02
100
AcDbEntity
  8
Shape
100
AcDbLine
 10
150.28
 20
20.8951
 30
0
 11
150.8
 21
20.9389
 31
0
  0
LINE
  5
B2A
330
A02
100
AcDbEntity
  8
Shape
100
AcDbLine
 10
150.8
 20
20.9389
 30
0
 11
151.32
 21
20.9826
 31
0
  0
LINE
  5
B2B
330
A02
100
AcDbEntity
  8
Shape
100
AcDbLine
 10
151.32
 20
20.9826
 30
0
 11
151.84
 21
21.0262
 31
0
  0
LINE
  5
B2C
330
A02
100
AcDbEntity
  8
Shape
100
AcDbLine
 10
151.84
 20
21.0262
 30
0
 11
152.36
 21
21.0696
 31
0
  0
LINE
  5
B2D
330
A02
100
AcDbEntity
  8
Shape
100
AcDbLine
 10
152.36
 20
21.0696
 30
0
 11
152.88
 21
21.113
 31
0
  0
LINE
  5
B2E
330
A02
100
AcDbEntity
  8
Shape
100
AcDbLine
 10
152.88
 20
21.113
 30
0
 11
153.4
 21
21.1562
 31
0
  0
LINE
  5
B2F
330
A02
100
AcDbEntity
  8
Shape
100
AcDbLine
 10
153.4
 20
21.1562
 30
0
 11
153.92
 21
21.1993
 31
0
  0
LINE
  5
B30
330
A02
100
AcDbEntity
  8
Shape
100
AcDbLine
 10
153.92
 20
21.1993
 30
0
 11
154.44
 21
21.2423
 31
0
  0
LINE
  5
B31
330
A02
100
AcDbEntity
  8
Shape
100
AcDbLine
 10
154.44
 20
21.2423
 30
0
 11
154.96
 21
21.2851
 31
0
  0
LINE
  5
B32
330
A02
100
AcDbEntity
  8
Shape
100
AcDbLine
 10
154.96
 20
21.2851
 30
0
 11
155.48
 21
21.3278
 31
0
  0
LINE
  5
B33
330
A02
100
AcDbEntity
  8
Shape
100
AcDbLine
 10
155.48
 20
21.3278
 30
0
 11
156
 21
21.3705
 31
0
  0
LINE
  5
B34
330
A02
100
AcDbEntity
  8
Shape
100
AcDbLine
 10
156
 20
21.3705
 30
0
 11
156.52
 21
21.413
 31
0
  0
LINE
  5
B35
330
A02
100
AcDbEntity
  8
Shape
100
AcDbLine
 10
156.52
 20
21.413
 30
0
 11
157.04
 21
21.4553
 31
0
  0
LINE
  5
B36
330
A02
100
AcDbEntity
  8
Shape
100
AcDbLine
 10
157.04
 20
21.4553
 30
0
 11
157.56
 21
21.4976
 31
0
  0
LINE
  5
B37
330
A02
100
AcDbEntity
  8
Shape
100
AcDbLine
 10
157.56
 20
21.4976
 30
0
 11
158.08
 21
21.5397
 31
0
  0
LINE
  5
B38
330
A02
100
AcDbEntity
  8
Shape
100
AcDbLine
 10
158.08
 20
21.5397
 30
0
 11
158.6
 21
21.5817
 31
0
  0
LINE
  5
B39
330
A02
100
AcDbEntity
  8
Shape
100
AcDbLine
 10
158.6
 20
21.5817
 30
0
 11
159.12
 21
21.6236
 31
0
  0
LINE
  5
B3A
330
A02
100
AcDbEntity
  8
Shape
100
AcDbLine
 10
159.12
 20
21.6236
 30
0
 11
159.64
 21
21.6654
 31
0
  0
LINE
  5
B3B
330
A02
100
AcDbEntity
  8
Shape
100
AcDbLine
 10
159.64
 20
21.6654
 30
0
 11
160.16
 21
21.7071
 31
0
  0
LINE
  5
B3C
330
A02
100
AcDbEntity
  8
Shape
100
AcDbLine
 10
160.16
 20
21.7071
 30
0
 11
160.68
 21
21.7486
 31
0
  0
LINE
  5
B3D
330
A02
100
AcDbEntity
  8
Shape
100
AcDbLine
 10
160.68
 20
21.7486
 30
0
 11
161.2
 21
21.79
 31
0
  0
LINE
  5
B3E
330
A02
100
AcDbEntity
  8
Shape
100
AcDbLine
 10
161.2
 20
21.79
 30
0
 11
161.72
 21
21.8313
 31
0
  0
LINE
  5
B3F
330
A02
100
AcDbEntity
  8
Shape
100
AcDbLine
 10
161.72
 20
21.8313
 30
0
 11
162.24
 21
21.8725
 31
0
  0
LINE
  5
B40
330
A02
100
AcDbEntity
  8
Shape
100
AcDbLine
 10
162.24
 20
21.8725
 30
0
 11
162.76
 21
21.9135
 31
0
  0
LINE
  5
B41
330
A02
100
AcDbEntity
  8
Shape
100
AcDbLine
 10
162.76
 20
21.9135
 30
0
 11
163.28
 21
21.9544
 31
0
  0
LINE
  5
B42
330
A02
100
AcDbEntity
  8
Shape
100
AcDbLine
 10
163.28
 20
21.9544
 30
0
 11
163.8
 21
21.9953
 31
0
  0
LINE
  5
B43
330
A02
100
AcDbEntity
  8
Shape
100
AcDbLine
 10
163.8
 20
21.9953
 30
0
 11
164.32
 21
22.0359
 31
0
  0
LINE
  5
B44
330
A02
100
AcDbEntity
  8
Shape
100
AcDbLine
 10
164.32
 20
22.0359
 30
0
 11
164.84
 21
22.0765
 31
0
  0
LINE
  5
B45
330
A02
100
AcDbEntity
  8
Shape
100
AcDbLine
 10
164.84
 20
22.0765
 30
0
 11
165.36
 21
22.117
 31
0
  0
LINE
  5
B46
330
A02
100
AcDbEntity
  8
Shape
100
AcDbLine
 10
165.36
 20
22.117
 30
0
 11
165.88
 21
22.1573
 31
0
  0
LINE
  5
B47
330
A02
100
AcDbEntity
  8
Shape
100
AcDbLine
 10
165.88
 20
22.1573
 30
0
 11
166.4
 21
22.1975
 31
0
  0
LINE
  5
B48
330
A02
100
AcDbEntity
  8
Shape
100
AcDbLine
 10
166.4
 20
22.1975
 30
0
 11
166.92
 21
22.2376
 31
0
  0
LINE
  5
B49
330
A02
100
AcDbEntity
  8
Shape
100
AcDbLine
 10
166.92
 20
22.2376
 30
0
 11
167.44
 21
22.2775
 31
0
  0
LINE
  5
B4A
330
A02
100
AcDbEntity
  8
Shape
100
AcDbLine
 10
167.44
 20
22.2775
 30
0
 11
167.96
 21
22.3174
 31
0
  0
LINE
  5
B4B
330
A02
100
AcDbEntity
  8
Shape
100
AcDbLine
 10
167.96
 20
22.3174
 30
0
 11
168.48
 21
22.3571
 31
0
  0
LINE
  5
B4C
330
A02
100
AcDbEntity
  8
Shape
100
AcDbLine
 10
168.48
 20
22.3571
 30
0
 11
169
 21
22.3967
 31
0
  0
LINE
  5
B4D
330
A02
100
AcDbEntity
  8
Shape
100
AcDbLine
 10
169
 20
22.3967
 30
0
 11
169.52
 21
22.4362
 31
0
  0
LINE
  5
B4E
330
A02
100
AcDbEntity
  8
Shape
100
AcDbLine
 10
169.52
 20
22.4362
 30
0
 11
170.04
 21
22.4755
 31
0
  0
LINE
  5
B4F
330
A02
100
AcDbEntity
  8
Shape
100
AcDbLine
 10
170.04
 20
22.4755
 30
0
 11
170.56
 21
22.5147
 31
0
  0
LINE
  5
B50
330
A02
100
AcDbEntity
  8
Shape
100
AcDbLine
 10
170.56
 20
22.5147
 30
0
 11
171.08
 21
22.5538
 31
0
  0
LINE
  5
B51
330
A02
100
AcDbEntity
  8
Shape
100
AcDbLine
 10
171.08
 20
22.5538
 30
0
 11
171.6
 21
22.5928
 31
0
  0
LINE
  5
B52
330
A02
100
AcDbEntity
  8
Shape
100
AcDbLine
 10
171.6
 20
22.5928
 30
0
 11
172.12
 21
22.6317
 31
0
  0
LINE
  5
B53
330
A02
100
AcDbEntity
  8
Shape
100
AcDbLine
 10
172.12
 20
22.6317
 30
0
 11
172.64
 21
22.6704
 31
0
  0
LINE
  5
B54
330
A02
100
AcDbEntity
  8
Shape
100
AcDbLine
 10
172.64
 20
22.6704
 30
0
 11
173.16
 21
22.709
 31
0
  0
LINE
  5
B55
330
A02
100
AcDbEntity
  8
Shape
100
AcDbLine
 10
173.16
 20
22.709
 30
0
 11
173.68
 21
22.7475
 31
0
  0
LINE
  5
B56
330
A02
100
AcDbEntity
  8
Shape
100
AcDbLine
 10
173.68
 20
22.7475
 30
0
 11
174.2
 21
22.7859
 31
0
  0
LINE
  5
B57
330
A02
100
AcDbEntity
  8
Shape
100
AcDbLine
 10
174.2
 20
22.7859
 30
0
 11
174.72
 21
22.8242
 31
0
  0
LINE
  5
B58
330
A02
100
AcDbEntity
  8
Shape
100
AcDbLine
 10
174.72
 20
22.8242
 30
0
 11
175.24
 21
22.8623
 31
0
  0
LINE
  5
B59
330
A02
100
AcDbEntity
  8
Shape
100
AcDbLine
 10
175.24
 20
22.8623
 30
0
 11
175.76
 21
22.9003
 31
0
  0
LINE
  5
B5A
330
A02
100
AcDbEntity
  8
Shape
100
AcDbLine
 10
175.76
 20
22.9003
 30
0
 11
176.28
 21
22.9381
 31
0
  0
LINE
  5
B5B
330
A02
100
AcDbEntity
  8
Shape
100
AcDbLine
 10
176.28
 20
22.9381
 30
0
 11
176.8
 21
22.9759
 31
0
  0
LINE
  5
B5C
330
A02
100
AcDbEntity
  8
Shape
100
AcDbLine
 10
176.8
 20
22.9759
 30
0
 11
177.32
 21
23.0135
 31
0
  0
LINE
  5
B5D
330
A02
100
AcDbEntity
  8
Shape
100
AcDbLine
 10
177.32
 20
23.0135
 30
0
 11
177.84
 21
23.051
 31
0
  0
LINE
  5
B5E
330
A02
100
AcDbEntity
  8
Shape
100
AcDbLine
 10
177.84
 20
23.051
 30
0
 11
178.36
 21
23.0884
 31
0
  0
LINE
  5
B5F
330
A02
100
AcDbEntity
  8
Shape
100
AcDbLine
 10
178.36
 20
23.0884
 30
0
 11
178.88
 21
23.1257
 31
0
  0
LINE
  5
B60
330
A02
100
AcDbEntity
  8
Shape
100
AcDbLine
 10
178.88
 20
23.1257
 30
0
 11
179.4
 21
23.1628
 31
0
  0
LINE
  5
B61
330
A02
100
AcDbEntity
  8
Shape
100
AcDbLine
 10
179.4
 20
23.1628
 30
0
 11
179.92
 21
23.1998
 31
0
  0
LINE
  5
B62
330
A02
100
AcDbEntity
  8
Shape
100
AcDbLine
 10
179.92
 20
23.1998
 30
0
 11
180.44
 21
23.2367
 31
0
  0
LINE
  5
B63
330
A02
100
AcDbEntity
  8
Shape
100
AcDbLine
 10
180.44
 20
23.2367
 30
0
 11
180.96
 21
23.2734
 31
0
  0
LINE
  5
B64
330
A02
100
AcDbEntity
  8
Shape
100
AcDbLine
 10
180.96
 20
23.2734
 30
0
 11
181.48
 21
23.3101
 31
0
  0
LINE
  5
B65
330
A02
100
AcDbEntity
  8
Shape
100
AcDbLine
 10
181.48
 20
23.3101
 30
0
 11
182
 21
23.3466
 31
0
  0
LINE
  5
B66
330
A02
100
AcDbEntity
  8
Shape
100
AcDbLine
 10
182
 20
23.3466
 30
0
 11
182.52
 21
23.3829
 31
0
  0
LINE
  5
B67
330
A02
100
AcDbEntity
  8
Shape
100
AcDbLine
 10
182.52
 20
23.3829
 30
0
 11
183.04
 21
23.4192
 31
0
  0
LINE
  5
B68
330
A02
100
AcDbEntity
  8
Shape
100
AcDbLine
 10
183.04
 20
23.4192
 30
0
 11
183.56
 21
23.4553
 31
0
  0
LINE
  5
B69
330
A02
100
AcDbEntity
  8
Shape
100
AcDbLine
 10
183.56
 20
23.4553
 30
0
 11
184.08
 21
23.4913
 31
0
  0
LINE
  5
B6A
330
A02
100
AcDbEntity
  8
Shape
100
AcDbLine
 10
184.08
 20
23.4913
 30
0
 11
184.6
 21
23.5272
 31
0
  0
LINE
  5
B6B
330
A02
100
AcDbEntity
  8
Shape
100
AcDbLine
 10
184.6
 20
23.5272
 30
0
 11
185.12
 21
23.5629
 31
0
  0
LINE
  5
B6C
330
A02
100
AcDbEntity
  8
Shape
100
AcDbLine
 10
185.12
 20
23.5629
 30
0
 11
185.64
 21
23.5985
 31
0
  0
LINE
  5
B6D
330
A02
100
AcDbEntity
  8
Shape
100
AcDbLine
 10
185.64
 20
23.5985
 30
0
 11
186.16
 21
23.634
 31
0
  0
LINE
  5
B6E
330
A02
100
AcDbEntity
  8
Shape
100
AcDbLine
 10
186.16
 20
23.634
 30
0
 11
186.68
 21
23.6694
 31
0
  0
LINE
  5
B6F
330
A02
100
AcDbEntity
  8
Shape
100
AcDbLine
 10
186.68
 20
23.6694
 30
0
 11
187.2
 21
23.7046
 31
0
  0
LINE
  5
B70
330
A02
100
AcDbEntity
  8
Shape
100
AcDbLine
 10
187.2
 20
23.7046
 30
0
 11
187.72
 21
23.7397
 31
0
  0
LINE
  5
B71
330
A02
100
AcDbEntity
  8
Shape
100
AcDbLine
 10
187.72
 20
23.7397
 30
0
 11
188.24
 21
23.7747
 31
0
  0
LINE
  5
B72
330
A02
100
AcDbEntity
  8
Shape
100
AcDbLine
 10
188.24
 20
23.7747
 30
0
 11
188.76
 21
23.8095
 31
0
  0
LINE
  5
B73
330
A02
100
AcDbEntity
  8
Shape
100
AcDbLine
 10
188.76
 20
23.8095
 30
0
 11
189.28
 21
23.8442
 31
0
  0
LINE
  5
B74
330
A02
100
AcDbEntity
  8
Shape
100
AcDbLine
 10
189.28
 20
23.8442
 30
0
 11
189.8
 21
23.8788
 31
0
  0
LINE
  5
B75
330
A02
100
AcDbEntity
  8
Shape
100
AcDbLine
 10
189.8
 20
23.8788
 30
0
 11
190.32
 21
23.9132
 31
0
  0
LINE
  5
B76
330
A02
100
AcDbEntity
  8
Shape
100
AcDbLine
 10
190.32
 20
23.9132
 30
0
 11
190.84
 21
23.9475
 31
0
  0
LINE
  5
B77
330
A02
100
AcDbEntity
  8
Shape
100
AcDbLine
 10
190.84
 20
23.9475
 30
0
 11
191.36
 21
23.9817
 31
0
  0
LINE
  5
B78
330
A02
100
AcDbEntity
  8
Shape
100
AcDbLine
 10
191.36
 20
23.9817
 30
0
 11
191.88
 21
24.0158
 31
0
  0
LINE
  5
B79
330
A02
100
AcDbEntity
  8
Shape
100
AcDbLine
 10
191.88
 20
24.0158
 30
0
 11
192.4
 21
24.0497
 31
0
  0
LINE
  5
B7A
330
A02
100
AcDbEntity
  8
Shape
100
AcDbLine
 10
192.4
 20
24.0497
 30
0
 11
192.92
 21
24.0835
 31
0
  0
LINE
  5
B7B
330
A02
100
AcDbEntity
  8
Shape
100
AcDbLine
 10
192.92
 20
24.0835
 30
0
 11
193.44
 21
24.1172
 31
0
  0
LINE
  5
B7C
330
A02
100
AcDbEntity
  8
Shape
100
AcDbLine
 10
193.44
 20
24.1172
 30
0
 11
193.96
 21
24.1507
 31
0
  0
LINE
  5
B7D
330
A02
100
AcDbEntity
  8
Shape
100
AcDbLine
 10
193.96
 20
24.1507
 30
0
 11
194.48
 21
24.1841
 31
0
  0
LINE
  5
B7E
330
A02
100
AcDbEntity
  8
Shape
100
AcDbLine
 10
194.48
 20
24.1841
 30
0
 11
195
 21
24.2173
 31
0
  0
LINE
  5
B7F
330
A02
100
AcDbEntity
  8
Shape
100
AcDbLine
 10
195
 20
24.2173
 30
0
 11
195.52
 21
24.2505
 31
0
  0
LINE
  5
B80
330
A02
100
AcDbEntity
  8
Shape
100
AcDbLine
 10
195.52
 20
24.2505
 30
0
 11
196.04
 21
24.2835
 31
0
  0
LINE
  5
B81
330
A02
100
AcDbEntity
  8
Shape
100
AcDbLine
 10
196.04
 20
24.2835
 30
0
 11
196.56
 21
24.3163
 31
0
  0
LINE
  5
B82
330
A02
100
AcDbEntity
  8
Shape
100
AcDbLine
 10
196.56
 20
24.3163
 30
0
 11
197.08
 21
24.349
 31
0
  0
LINE
  5
B83
330
A02
100
AcDbEntity
  8
Shape
100
AcDbLine
 10
197.08
 20
24.349
 30
0
 11
197.6
 21
24.3816
 31
0
  0
LINE
  5
B84
330
A02
100
AcDbEntity
  8
Shape
100
AcDbLine
 10
197.6
 20
24.3816
 30
0
 11
198.12
 21
24.4141
 31
0
  0
LINE
  5
B85
330
A02
100
AcDbEntity
  8
Shape
100
AcDbLine
 10
198.12
 20
24.4141
 30
0
 11
198.64
 21
24.4464
 31
0
  0
LINE
  5
B86
330
A02
100
AcDbEntity
  8
Shape
100
AcDbLine
 10
198.64
 20
24.4464
 30
0
 11
199.16
 21
24.4786
 31
0
  0
LINE
  5
B87
330
A02
100
AcDbEntity
  8
Shape
100
AcDbLine
 10
199.16
 20
24.4786
 30
0
 11
199.68
 21
24.5106
 31
0
  0
LINE
  5
B88
330
A02
100
AcDbEntity
  8
Shape
100
AcDbLine
 10
199.68
 20
24.5106
 30
0
 11
200.2
 21
24.5425
 31
0
  0
LINE
  5
B89
330
A02
100
AcDbEntity
  8
Shape
100
AcDbLine
 10
200.2
 20
24.5425
 30
0
 11
200.72
 21
24.5743
 31
0
  0
LINE
  5
B8A
330
A02
100
AcDbEntity
  8
Shape
100
AcDbLine
 10
200.72
 20
24.5743
 30
0
 11
201.24
 21
24.6059
 31
0
  0
LINE
  5
B8B
330
A02
100
AcDbEntity
  8
Shape
100
AcDbLine
 10
201.24
 20
24.6059
 30
0
 11
201.76
 21
24.6374
 31
0
  0
LINE
  5
B8C
330
A02
100
AcDbEntity
  8
Shape
100
AcDbLine
 10
201.76
 20
24.6374
 30
0
 11
202.28
 21
24.6687
 31
0
  0
LINE
  5
B8D
330
A02
100
AcDbEntity
  8
Shape
100
AcDbLine
 10
202.28
 20
24.6687
 30
0
 11
202.8
 21
24.6999
 31
0
  0
LINE
  5
B8E
330
A02
100
AcDbEntity
  8
Shape
100
AcDbLine
 10
202.8
 20
24.6999
 30
0
 11
203.32
 21
24.731
 31
0
  0
LINE
  5
B8F
330
A02
100
AcDbEntity
  8
Shape
100
AcDbLine
 10
203.32
 20
24.731
 30
0
 11
203.84
 21
24.7619
 31
0
  0
LINE
  5
B90
330
A02
100
AcDbEntity
  8
Shape
100
AcDbLine
 10
203.84
 20
24.7619
 30
0
 11
204.36
 21
24.7927
 31
0
  0
LINE
  5
B91
330
A02
100
AcDbEntity
  8
Shape
100
AcDbLine
 10
204.36
 20
24.7927
 30
0
 11
204.88
 21
24.8233
 31
0
  0
LINE
  5
B92
330
A02
100
AcDbEntity
  8
Shape
100
AcDbLine
 10
204.88
 20
24.8233
 30
0
 11
205.4
 21
24.8538
 31
0
  0
LINE
  5
B93
330
A02
100
AcDbEntity
  8
Shape
100
AcDbLine
 10
205.4
 20
24.8538
 30
0
 11
205.92
 21
24.8842
 31
0
  0
LINE
  5
B94
330
A02
100
AcDbEntity
  8
Shape
100
AcDbLine
 10
205.92
 20
24.8842
 30
0
 11
206.44
 21
24.9144
 31
0
  0
LINE
  5
B95
330
A02
100
AcDbEntity
  8
Shape
100
AcDbLine
 10
206.44
 20
24.9144
 30
0
 11
206.96
 21
24.9444
 31
0
  0
LINE
  5
B96
330
A02
100
AcDbEntity
  8
Shape
100
AcDbLine
 10
206.96
 20
24.9444
 30
0
 11
207.48
 21
24.9744
 31
0
  0
LINE
  5
B97
330
A02
100
AcDbEntity
  8
Shape
100
AcDbLine
 10
207.48
 20
24.9744
 30
0
 11
208
 21
25.0041
 31
0
  0
LINE
  5
B98
330
A02
100
AcDbEntity
  8
Shape
100
AcDbLine
 10
208
 20
25.0041
 30
0
 11
208.52
 21
25.0337
 31
0
  0
LINE
  5
B99
330
A02
100
AcDbEntity
  8
Shape
100
AcDbLine
 10
208.52
 20
25.0337
 30
0
 11
209.04
 21
25.0632
 31
0
  0
LINE
  5
B9A
330
A02
100
AcDbEntity
  8
Shape
100
AcDbLine
 10
209.04
 20
25.0632
 30
0
 11
209.56
 21
25.0926
 31
0
  0
LINE
  5
B9B
330
A02
100
AcDbEntity
  8
Shape
100
AcDbLine
 10
209.56
 20
25.0926
 30
0
 11
210.08
 21
25.1217
 31
0
  0
LINE
  5
B9C
330
A02
100
AcDbEntity
  8
Shape
100
AcDbLine
 10
210.08
 20
25.1217
 30
0
 11
210.6
 21
25.1508
 31
0
  0
LINE
  5
B9D
330
A02
100
AcDbEntity
  8
Shape
100
AcDbLine
 10
210.6
 20
25.1508
 30
0
 11
211.12
 21
25.1796
 31
0
  0
LINE
  5
B9E
330
A02
100
AcDbEntity
  8
Shape
100
AcDbLine
 10
211.12
 20
25.1796
 30
0
 11
211.64
 21
25.2084
 31
0
  0
LINE
  5
B9F
330
A02
100
AcDbEntity
  8
Shape
100
AcDbLine
 10
211.64
 20
25.2084
 30
0
 11
212.16
 21
25.237
 31
0
  0
LINE
  5
BA0
330
A02
100
AcDbEntity
  8
Shape
100
AcDbLine
 10
212.16
 20
25.237
 30
0
 11
212.68
 21
25.2654
 31
0
  0
LINE
  5
BA1
330
A02
100
AcDbEntity
  8
Shape
100
AcDbLine
 10
212.68
 20
25.2654
 30
0
 11
213.2
 21
25.2937
 31
0
  0
LINE
  5
BA2
330
A02
100
AcDbEntity
  8
Shape
100
AcDbLine
 10
213.2
 20
25.2937
 30
0
 11
213.72
 21
25.3218
 31
0
  0
LINE
  5
BA3
330
A02
100
AcDbEntity
  8
Shape
100
AcDbLine
 10
213.72
 20
25.3218
 30
0
 11
214.24
 21
25.3497
 31
0
  0
LINE
  5
BA4
330
A02
100
AcDbEntity
  8
Shape
100
AcDbLine
 10
214.24
 20
25.3497
 30
0
 11
214.76
 21
25.3775
 31
0
  0
LINE
  5
BA5
330
A02
100
AcDbEntity
  8
Shape
100
AcDbLine
 10
214.76
 20
25.3775
 30
0
 11
215.28
 21
25.4052
 31
0
  0
LINE
  5
BA6
330
A02
100
AcDbEntity
  8
Shape
100
AcDbLine
 10
215.28
 20
25.4052
 30
0
 11
215.8
 21
25.4327
 31
0
  0
LINE
  5
BA7
330
A02
100
AcDbEntity
  8
Shape
100
AcDbLine
 10
215.8
 20
25.4327
 30
0
 11
216.32
 21
25.46
 31
0
  0
LINE
  5
BA8
330
A02
100
AcDbEntity
  8
Shape
100
AcDbLine
 10
216.32
 20
25.46
 30
0
 11
216.84
 21
25.4872
 31
0
  0
LINE
  5
BA9
330
A02
100
AcDbEntity
  8
Shape
100
AcDbLine
 10
216.84
 20
25.4872
 30
0
 11
217.36
 21
25.5142
 31
0
  0
LINE
  5
BAA
330
A02
100
AcDbEntity
  8
Shape
100
AcDbLine
 10
217.36
 20
25.5142
 30
0
 11
217.88
 21
25.5411
 31
0
  0
LINE
  5
BAB
330
A02
100
AcDbEntity
  8
Shape
100
AcDbLine
 10
217.88
 20
25.5411
 30
0
 11
218.4
 21
25.5678
 31
0
  0
LINE
  5
BAC
330
A02
100
AcDbEntity
  8
Shape
100
AcDbLine
 10
218.4
 20
25.5678
 30
0
 11
218.92
 21
25.5943
 31
0
  0
LINE
  5
BAD
330
A02
100
AcDbEntity
  8
Shape
100
AcDbLine
 10
218.92
 20
25.5943
 30
0
 11
219.44
 21
25.6207
 31
0
  0
LINE
  5
BAE
330
A02
100
AcDbEntity
  8
Shape
100
AcDbLine
 10
219.44
 20
25.6207
 30
0
 11
219.96
 21
25.6469
 31
0
  0
LINE
  5
BAF
330
A02
100
AcDbEntity
  8
Shape
100
AcDbLine
 10
219.96
 20
25.6469
 30
0
 11
220.48
 21
25.673
 31
0
  0
LINE
  5
BB0
330
A02
100
AcDbEntity
  8
Shape
100
AcDbLine
 10
220.48
 20
25.673
 30
0
 11
221
 21
25.6988
 31
0
  0
LINE
  5
BB1
330
A02
100
AcDbEntity
  8
Shape
100
AcDbLine
 10
221
 20
25.6988
 30
0
 11
221.52
 21
25.7245
 31
0
  0
LINE
  5
BB2
330
A02
100
AcDbEntity
  8
Shape
100
AcDbLine
 10
221.52
 20
25.7245
 30
0
 11
222.04
 21
25.7501
 31
0
  0
LINE
  5
BB3
330
A02
100
AcDbEntity
  8
Shape
100
AcDbLine
 10
222.04
 20
25.7501
 30
0
 11
222.56
 21
25.7755
 31
0
  0
LINE
  5
BB4
330
A02
100
AcDbEntity
  8
Shape
100
AcDbLine
 10
222.56
 20
25.7755
 30
0
 11
223.08
 21
25.8007
 31
0
  0
LINE
  5
BB5
330
A02
100
AcDbEntity
  8
Shape
100
AcDbLine
 10
223.08
 20
25.8007
 30
0
 11
223.6
 21
25.8257
 31
0
  0
LINE
  5
BB6
330
A02
100
AcDbEntity
  8
Shape
100
AcDbLine
 10
223.6
 20
25.8257
 30
0
 11
224.12
 21
25.8505
 31
0
  0
LINE
  5
BB7
330
A02
100
AcDbEntity
  8
Shape
100
AcDbLine
 10
224.12
 20
25.8505
 30
0
 11
224.64
 21
25.8752
 31
0
  0
LINE
  5
BB8
330
A02
100
AcDbEntity
  8
Shape
100
AcDbLine
 10
224.64
 20
25.8752
 30
0
 11
225.16
 21
25.8997
 31
0
  0
LINE
  5
BB9
330
A02
100
AcDbEntity
  8
Shape
100
AcDbLine
 10
225.16
 20
25.8997
 30
0
 11
225.68
 21
25.9241
 31
0
  0
LINE
  5
BBA
330
A02
100
AcDbEntity
  8
Shape
100
AcDbLine
 10
225.68
 20
25.9241
 30
0
 11
226.2
 21
25.9482
 31
0
  0
LINE
  5
BBB
330
A02
100
AcDbEntity
  8
Shape
100
AcDbLine
 10
226.2
 20
25.9482
 30
0
 11
226.72
 21
25.9722
 31
0
  0
LINE
  5
BBC
330
A02
100
AcDbEntity
  8
Shape
100
AcDbLine
 10
226.72
 20
25.9722
 30
0
 11
227.24
 21
25.996
 31
0
  0
LINE
  5
BBD
330
A02
100
AcDbEntity
  8
Shape
100
AcDbLine
 10
227.24
 20
25.996
 30
0
 11
227.76
 21
26.0196
 31
0
  0
LINE
  5
BBE
330
A02
100
AcDbEntity
  8
Shape
100
AcDbLine
 10
227.76
 20
26.0196
 30
0
 11
228.28
 21
26.043
 31
0
  0
LINE
  5
BBF
330
A02
100
AcDbEntity
  8
Shape
100
AcDbLine
 10
228.28
 20
26.043
 30
0
 11
228.8
 21
26.0662
 31
0
  0
LINE
  5
BC0
330
A02
100
AcDbEntity
  8
Shape
100
AcDbLine
 10
228.8
 20
26.0662
 30
0
 11
229.32
 21
26.0893
 31
0
  0
LINE
  5
BC1
330
A02
100
AcDbEntity
  8
Shape
100
AcDbLine
 10
229.32
 20
26.0893
 30
0
 11
229.84
 21
26.1121
 31
0
  0
LINE
  5
BC2
330
A02
100
AcDbEntity
  8
Shape
100
AcDbLine
 10
229.84
 20
26.1121
 30
0
 11
230.36
 21
26.1348
 31
0
  0
LINE
  5
BC3
330
A02
100
AcDbEntity
  8
Shape
100
AcDbLine
 10
230.36
 20
26.1348
 30
0
 11
230.88
 21
26.1573
 31
0
  0
LINE
  5
BC4
330
A02
100
AcDbEntity
  8
Shape
100
AcDbLine
 10
230.88
 20
26.1573
 30
0
 11
231.4
 21
26.1796
 31
0
  0
LINE
  5
BC5
330
A02
100
AcDbEntity
  8
Shape
100
AcDbLine
 10
231.4
 20
26.1796
 30
0
 11
231.92
 21
26.2017
 31
0
  0
LINE
  5
BC6
330
A02
100
AcDbEntity
  8
Shape
100
AcDbLine
 10
231.92
 20
26.2017
 30
0
 11
232.44
 21
26.2235
 31
0
  0
LINE
  5
BC7
330
A02
100
AcDbEntity
  8
Shape
100
AcDbLine
 10
232.44
 20
26.2235
 30
0
 11
232.96
 21
26.2452
 31
0
  0
LINE
  5
BC8
330
A02
100
AcDbEntity
  8
Shape
100
AcDbLine
 10
232.96
 20
26.2452
 30
0
 11
233.48
 21
26.2667
 31
0
  0
LINE
  5
BC9
330
A02
100
AcDbEntity
  8
Shape
100
AcDbLine
 10
233.48
 20
26.2667
 30
0
 11
234
 21
26.288
 31
0
  0
LINE
  5
BCA
330
A02
100
AcDbEntity
  8
Shape
100
AcDbLine
 10
234
 20
26.288
 30
0
 11
234.52
 21
26.3091
 31
0
  0
LINE
  5
BCB
330
A02
100
AcDbEntity
  8
Shape
100
AcDbLine
 10
234.52
 20
26.3091
 30
0
 11
235.04
 21
26.33
 31
0
  0
LINE
  5
BCC
330
A02
100
AcDbEntity
  8
Shape
100
AcDbLine
 10
235.04
 20
26.33
 30
0
 11
235.56
 21
26.3506
 31
0
  0
LINE
  5
BCD
330
A02
100
AcDbEntity
  8
Shape
100
AcDbLine
 10
235.56
 20
26.3506
 30
0
 11
236.08
 21
26.3711
 31
0
  0
LINE
  5
BCE
330
A02
100
AcDbEntity
  8
Shape
100
AcDbLine
 10
236.08
 20
26.3711
 30
0
 11
236.6
 21
26.3913
 31
0
  0
LINE
  5
BCF
330
A02
100
AcDbEntity
  8
Shape
100
AcDbLine
 10
236.6
 20
26.3913
 30
0
 11
237.12
 21
26.4114
 31
0
  0
LINE
  5
BD0
330
A02
100
AcDbEntity
  8
Shape
100
AcDbLine
 10
237.12
 20
26.4114
 30
0
 11
237.64
 21
26.4312
 31
0
  0
LINE
  5
BD1
330
A02
100
AcDbEntity
  8
Shape
100
AcDbLine
 10
237.64
 20
26.4312
 30
0
 11
238.16
 21
26.4507
 31
0
  0
LINE
  5
BD2
330
A02
100
AcDbEntity
  8
Shape
100
AcDbLine
 10
238.16
 20
26.4507
 30
0
 11
238.68
 21
26.4701
 31
0
  0
LINE
  5
BD3
330
A02
100
AcDbEntity
  8
Shape
100
AcDbLine
 10
238.68
 20
26.4701
 30
0
 11
239.2
 21
26.4892
 31
0
  0
LINE
  5
BD4
330
A02
100
AcDbEntity
  8
Shape
100
AcDbLine
 10
239.2
 20
26.4892
 30
0
 11
239.72
 21
26.5081
 31
0
  0
LINE
  5
BD5
330
A02
100
AcDbEntity
  8
Shape
100
AcDbLine
 10
239.72
 20
26.5081
 30
0
 11
240.24
 21
26.5268
 31
0
  0
LINE
  5
BD6
330
A02
100
AcDbEntity
  8
Shape
100
AcDbLine
 10
240.24
 20
26.5268
 30
0
 11
240.76
 21
26.5452
 31
0
  0
LINE
  5
BD7
330
A02
100
AcDbEntity
  8
Shape
100
AcDbLine
 10
240.76
 20
26.5452
 30
0
 11
241.28
 21
26.5634
 31
0
  0
LINE
  5
BD8
330
A02
100
AcDbEntity
  8
Shape
100
AcDbLine
 10
241.28
 20
26.5634
 30
0
 11
241.8
 21
26.5813
 31
0
  0
LINE
  5
BD9
330
A02
100
AcDbEntity
  8
Shape
100
AcDbLine
 10
241.8
 20
26.5813
 30
0
 11
242.32
 21
26.599
 31
0
  0
LINE
  5
BDA
330
A02
100
AcDbEntity
  8
Shape
100
AcDbLine
 10
242.32
 20
26.599
 30
0
 11
242.84
 21
26.6165
 31
0
  0
LINE
  5
BDB
330
A02
100
AcDbEntity
  8
Shape
100
AcDbLine
 10
242.84
 20
26.6165
 30
0
 11
243.36
 21
26.6337
 31
0
  0
LINE
  5
BDC
330
A02
100
AcDbEntity
  8
Shape
100
AcDbLine
 10
243.36
 20
26.6337
 30
0
 11
243.88
 21
26.6506
 31
0
  0
LINE
  5
BDD
330
A02
100
AcDbEntity
  8
Shape
100
AcDbLine
 10
243.88
 20
26.6506
 30
0
 11
244.4
 21
26.6673
 31
0
  0
LINE
  5
BDE
330
A02
100
AcDbEntity
  8
Shape
100
AcDbLine
 10
244.4
 20
26.6673
 30
0
 11
244.92
 21
26.6836
 31
0
  0
LINE
  5
BDF
330
A02
100
AcDbEntity
  8
Shape
100
AcDbLine
 10
244.92
 20
26.6836
 30
0
 11
245.44
 21
26.6998
 31
0
  0
LINE
  5
BE0
330
A02
100
AcDbEntity
  8
Shape
100
AcDbLine
 10
245.44
 20
26.6998
 30
0
 11
245.96
 21
26.7156
 31
0
  0
LINE
  5
BE1
330
A02
100
AcDbEntity
  8
Shape
100
AcDbLine
 10
245.96
 20
26.7156
 30
0
 11
246.48
 21
26.7312
 31
0
  0
LINE
  5
BE2
330
A02
100
AcDbEntity
  8
Shape
100
AcDbLine
 10
246.48
 20
26.7312
 30
0
 11
247
 21
26.7465
 31
0
  0
LINE
  5
BE3
330
A02
100
AcDbEntity
  8
Shape
100
AcDbLine
 10
247
 20
26.7465
 30
0
 11
247.52
 21
26.7614
 31
0
  0
LINE
  5
BE4
330
A02
100
AcDbEntity
  8
Shape
100
AcDbLine
 10
247.52
 20
26.7614
 30
0
 11
248.04
 21
26.7761
 31
0
  0
LINE
  5
BE5
330
A02
100
AcDbEntity
  8
Shape
100
AcDbLine
 10
248.04
 20
26.7761
 30
0
 11
248.56
 21
26.7905
 31
0
  0
LINE
  5
BE6
330
A02
100
AcDbEntity
  8
Shape
100
AcDbLine
 10
248.56
 20
26.7905
 30
0
 11
249.08
 21
26.8045
 31
0
  0
LINE
  5
BE7
330
A02
100
AcDbEntity
  8
Shape
100
AcDbLine
 10
249.08
 20
26.8045
 30
0
 11
249.6
 21
26.8183
 31
0
  0
LINE
  5
BE8
330
A02
100
AcDbEntity
  8
Shape
100
AcDbLine
 10
249.6
 20
26.8183
 30
0
 11
250.12
 21
26.8317
 31
0
  0
LINE
  5
BE9
330
A02
100
AcDbEntity
  8
Shape
100
AcDbLine
 10
250.12
 20
26.8317
 30
0
 11
250.64
 21
26.8447
 31
0
  0
LINE
  5
BEA
330
A02
100
AcDbEntity
  8
Shape
100
AcDbLine
 10
250.64
 20
26.8447
 30
0
 11
251.16
 21
26.8574
 31
0
  0
LINE
  5
BEB
330
A02
100
AcDbEntity
  8
Shape
100
AcDbLine
 10
251.16
 20
26.8574
 30
0
 11
251.68
 21
26.8698
 31
0
  0
LINE
  5
BEC
330
A02
100
AcDbEntity
  8
Shape
100
AcDbLine
 10
251.68
 20
26.8698
 30
0
 11
252.2
 21
26.8817
 31
0
  0
LINE
  5
BED
330
A02
100
AcDbEntity
  8
Shape
100
AcDbLine
 10
252.2
 20
26.8817
 30
0
 11
252.72
 21
26.8933
 31
0
  0
LINE
  5
BEE
330
A02
100
AcDbEntity
  8
Shape
100
AcDbLine
 10
252.72
 20
26.8933
 30
0
 11
253.24
 21
26.9045
 31
0
  0
LINE
  5
BEF
330
A02
100
AcDbEntity
  8
Shape
100
AcDbLine
 10
253.24
 20
26.9045
 30
0
 11
253.76
 21
26.9153
 31
0
  0
LINE
  5
BF0
330
A02
100
AcDbEntity
  8
Shape
100
AcDbLine
 10
253.76
 20
26.9153
 30
0
 11
254.28
 21
26.9256
 31
0
  0
LINE
  5
BF1
330
A02
100
AcDbEntity
  8
Shape
100
AcDbLine
 10
254.28
 20
26.9256
 30
0
 11
254.8
 21
26.9355
 31
0
  0
LINE
  5
BF2
330
A02
100
AcDbEntity
  8
Shape
100
AcDbLine
 10
254.8
 20
26.9355
 30
0
 11
255.32
 21
26.9449
 31
0
  0
LINE
  5
BF3
330
A02
100
AcDbEntity
  8
Shape
100
AcDbLine
 10
255.32
 20
26.9449
 30
0
 11
255.84
 21
26.9538
 31
0
  0
LINE
  5
BF4
330
A02
100
AcDbEntity
  8
Shape
100
AcDbLine
 10
255.84
 20
26.9538
 30
0
 11
256.36
 21
26.9622
 31
0
  0
LINE
  5
BF5
330
A02
100
AcDbEntity
  8
Shape
100
AcDbLine
 10
256.36
 20
26.9622
 30
0
 11
256.88
 21
26.97
 31
0
  0
LINE
  5
BF6
330
A02
100
AcDbEntity
  8
Shape
100
AcDbLine
 10
256.88
 20
26.97
 30
0
 11
257.4
 21
26.9771
 31
0
  0
LINE
  5
BF7
330
A02
100
AcDbEntity
  8
Shape
100
AcDbLine
 10
257.4
 20
26.9771
 30
0
 11
257.92
 21
26.9836
 31
0
  0
LINE
  5
BF8
330
A02
100
AcDbEntity
  8
Shape
100
AcDbLine
 10
257.92
 20
26.9836
 30
0
 11
258.44
 21
26.9894
 31
0
  0
LINE
  5
BF9
330
A02
100
AcDbEntity
  8
Shape
100
AcDbLine
 10
258.44
 20
26.9894
 30
0
 11
258.96
 21
26.9942
 31
0
  0
LINE
  5
BFA
330
A02
100
AcDbEntity
  8
Shape
100
AcDbLine
 10
258.96
 20
26.9942
 30
0
 11
259.48
 21
26.998
 31
0
  0
LINE
  5
BFB
330
A02
100
AcDbEntity
  8
Shape
100
AcDbLine
 10
259.48
 20
26.998
 30
0
 11
260
 21
27
 31
0
  0
LINE
  5
BFC
330
A02
100
AcDbEntity
  8
Shape
100
AcDbLine
 10
260
 20
27
 30
0
 11
260
 21
25.4
 31
0
  0
LINE
  5
BFD
330
A02
100
AcDbEntity
  8
Shape
100
AcDbLine
 10
260
 20
25.4
 30
0
 11
320
 21
25.4
 31
0
  0
LINE
  5
BFE
330
A02
100
AcDbEntity
  8
Shape
100
AcDbLine
 10
320
 20
25.4
 30
0
 11
320
 21
23.4
 31
0
  0
LINE
  5
BFF
330
A02
100
AcDbEntity
  8
Shape
100
AcDbLine
 10
320
 20
23.4
 30
0
 11
260
 21
23.4
 31
0
  0
LINE
  5
C00
330
A02
100
AcDbEntity
  8
Shape
100
AcDbLine
 10
260
 20
23.4
 30
0
 11
259.496
 21
23.4
 31
0
  0
LINE
  5
C01
330
A02
100
AcDbEntity
  8
Shape
100
AcDbLine
 10
259.496
 20
23.4
 30
0
 11
258.992
 21
23.4
 31
0
  0
LINE
  5
C02
330
A02
100
AcDbEntity
  8
Shape
100
AcDbLine
 10
258.992
 20
23.4
 30
0
 11
258.488
 21
23.4
 31
0
  0
LINE
  5
C03
330
A02
100
AcDbEntity
  8
Shape
100
AcDbLine
 10
258.488
 20
23.4
 30
0
 11
257.984
 21
23.4
 31
0
  0
LINE
  5
C04
330
A02
100
AcDbEntity
  8
Shape
100
AcDbLine
 10
257.984
 20
23.4
 30
0
 11
257.48
 21
23.4
 31
0
  0
LINE
  5
C05
330
A02
100
AcDbEntity
  8
Shape
100
AcDbLine
 10
257.48
 20
23.4
 30
0
 11
256.976
 21
23.4
 31
0
  0
LINE
  5
C06
330
A02
100
AcDbEntity
  8
Shape
100
AcDbLine
 10
256.976
 20
23.4
 30
0
 11
256.472
 21
23.4
 31
0
  0
LINE
  5
C07
330
A02
100
AcDbEntity
  8
Shape
100
AcDbLine
 10
256.472
 20
23.4
 30
0
 11
255.968
 21
23.4
 31
0
  0
LINE
  5
C08
330
A02
100
AcDbEntity
  8
Shape
100
AcDbLine
 10
255.968
 20
23.4
 30
0
 11
255.464
 21
23.4
 31
0
  0
LINE
  5
C09
330
A02
100
AcDbEntity
  8
Shape
100
AcDbLine
 10
255.464
 20
23.4
 30
0
 11
254.96
 21
23.4
 31
0
  0
LINE
  5
C0A
330
A02
100
AcDbEntity
  8
Shape
100
AcDbLine
 10
254.96
 20
23.4
 30
0
 11
254.456
 21
23.4
 31
0
  0
LINE
  5
C0B
330
A02
100
AcDbEntity
  8
Shape
100
AcDbLine
 10
254.456
 20
23.4
 30
0
 11
253.952
 21
23.4
 31
0
  0
LINE
  5
C0C
330
A02
100
AcDbEntity
  8
Shape
100
AcDbLine
 10
253.952
 20
23.4
 30
0
 11
253.448
 21
23.4
 31
0
  0
LINE
  5
C0D
330
A02
100
AcDbEntity
  8
Shape
100
AcDbLine
 10
253.448
 20
23.4
 30
0
 11
252.944
 21
23.4
 31
0
  0
LINE
  5
C0E
330
A02
100
AcDbEntity
  8
Shape
100
AcDbLine
 10
252.944
 20
23.4
 30
0
 11
252.44
 21
23.4
 31
0
  0
LINE
  5
C0F
330
A02
100
AcDbEntity
  8
Shape
100
AcDbLine
 10
252.44
 20
23.4
 30
0
 11
251.936
 21
23.4
 31
0
  0
LINE
  5
C10
330
A02
100
AcDbEntity
  8
Shape
100
AcDbLine
 10
251.936
 20
23.4
 30
0
 11
251.432
 21
23.4
 31
0
  0
LINE
  5
C11
330
A02
100
AcDbEntity
  8
Shape
100
AcDbLine
 10
251.432
 20
23.4
 30
0
 11
250.928
 21
23.4
 31
0
  0
LINE
  5
C12
330
A02
100
AcDbEntity
  8
Shape
100
AcDbLine
 10
250.928
 20
23.4
 30
0
 11
250.424
 21
23.4
 31
0
  0
LINE
  5
C13
330
A02
100
AcDbEntity
  8
Shape
100
AcDbLine
 10
250.424
 20
23.4
 30
0
 11
249.92
 21
23.4
 31
0
  0
LINE
  5
C14
330
A02
100
AcDbEntity
  8
Shape
100
AcDbLine
 10
249.92
 20
23.4
 30
0
 11
249.416
 21
23.4
 31
0
  0
LINE
  5
C15
330
A02
100
AcDbEntity
  8
Shape
100
AcDbLine
 10
249.416
 20
23.4
 30
0
 11
248.912
 21
23.4
 31
0
  0
LINE
  5
C16
330
A02
100
AcDbEntity
  8
Shape
100
AcDbLine
 10
248.912
 20
23.4
 30
0
 11
248.408
 21
23.4
 31
0
  0
LINE
  5
C17
330
A02
100
AcDbEntity
  8
Shape
100
AcDbLine
 10
248.408
 20
23.4
 30
0
 11
247.904
 21
23.4
 31
0
  0
LINE
  5
C18
330
A02
100
AcDbEntity
  8
Shape
100
AcDbLine
 10
247.904
 20
23.4
 30
0
 11
247.4
 21
23.4
 31
0
  0
LINE
  5
C19
330
A02
100
AcDbEntity
  8
Shape
100
AcDbLine
 10
247.4
 20
23.4
 30
0
 11
246.896
 21
23.4
 31
0
  0
LINE
  5
C1A
330
A02
100
AcDbEntity
  8
Shape
100
AcDbLine
 10
246.896
 20
23.4
 30
0
 11
246.392
 21
23.4
 31
0
  0
LINE
  5
C1B
330
A02
100
AcDbEntity
  8
Shape
100
AcDbLine
 10
246.392
 20
23.4
 30
0
 11
245.888
 21
23.4
 31
0
  0
LINE
  5
C1C
330
A02
100
AcDbEntity
  8
Shape
100
AcDbLine
 10
245.888
 20
23.4
 30
0
 11
245.384
 21
23.4
 31
0
  0
LINE
  5
C1D
330
A02
100
AcDbEntity
  8
Shape
100
AcDbLine
 10
245.384
 20
23.4
 30
0
 11
244.88
 21
23.4
 31
0
  0
LINE
  5
C1E
330
A02
100
AcDbEntity
  8
Shape
100
AcDbLine
 10
244.88
 20
23.4
 30
0
 11
244.376
 21
23.4
 31
0
  0
LINE
  5
C1F
330
A02
100
AcDbEntity
  8
Shape
100
AcDbLine
 10
244.376
 20
23.4
 30
0
 11
243.872
 21
23.4
 31
0
  0
LINE
  5
C20
330
A02
100
AcDbEntity
  8
Shape
100
AcDbLine
 10
243.872
 20
23.4
 30
0
 11
243.368
 21
23.4
 31
0
  0
LINE
  5
C21
330
A02
100
AcDbEntity
  8
Shape
100
AcDbLine
 10
243.368
 20
23.4
 30
0
 11
242.864
 21
23.4
 31
0
  0
LINE
  5
C22
330
A02
100
AcDbEntity
  8
Shape
100
AcDbLine
 10
242.864
 20
23.4
 30
0
 11
242.36
 21
23.4
 31
0
  0
LINE
  5
C23
330
A02
100
AcDbEntity
  8
Shape
100
AcDbLine
 10
242.36
 20
23.4
 30
0
 11
241.856
 21
23.4
 31
0
  0
LINE
  5
C24
330
A02
100
AcDbEntity
  8
Shape
100
AcDbLine
 10
241.856
 20
23.4
 30
0
 11
241.352
 21
23.4
 31
0
  0
LINE
  5
C25
330
A02
100
AcDbEntity
  8
Shape
100
AcDbLine
 10
241.352
 20
23.4
 30
0
 11
240.848
 21
23.4
 31
0
  0
LINE
  5
C26
330
A02
100
AcDbEntity
  8
Shape
100
AcDbLine
 10
240.848
 20
23.4
 30
0
 11
240.344
 21
23.4
 31
0
  0
LINE
  5
C27
330
A02
100
AcDbEntity
  8
Shape
100
AcDbLine
 10
240.344
 20
23.4
 30
0
 11
239.84
 21
23.4
 31
0
  0
LINE
  5
C28
330
A02
100
AcDbEntity
  8
Shape
100
AcDbLine
 10
239.84
 20
23.4
 30
0
 11
239.336
 21
23.4
 31
0
  0
LINE
  5
C29
330
A02
100
AcDbEntity
  8
Shape
100
AcDbLine
 10
239.336
 20
23.4
 30
0
 11
238.832
 21
23.4
 31
0
  0
LINE
  5
C2A
330
A02
100
AcDbEntity
  8
Shape
100
AcDbLine
 10
238.832
 20
23.4
 30
0
 11
238.328
 21
23.4
 31
0
  0
LINE
  5
C2B
330
A02
100
AcDbEntity
  8
Shape
100
AcDbLine
 10
238.328
 20
23.4
 30
0
 11
237.824
 21
23.4
 31
0
  0
LINE
  5
C2C
330
A02
100
AcDbEntity
  8
Shape
100
AcDbLine
 10
237.824
 20
23.4
 30
0
 11
237.32
 21
23.4
 31
0
  0
LINE
  5
C2D
330
A02
100
AcDbEntity
  8
Shape
100
AcDbLine
 10
237.32
 20
23.4
 30
0
 11
236.816
 21
23.4
 31
0
  0
LINE
  5
C2E
330
A02
100
AcDbEntity
  8
Shape
100
AcDbLine
 10
236.816
 20
23.4
 30
0
 11
236.312
 21
23.4
 31
0
  0
LINE
  5
C2F
330
A02
100
AcDbEntity
  8
Shape
100
AcDbLine
 10
236.312
 20
23.4
 30
0
 11
235.808
 21
23.4
 31
0
  0
LINE
  5
C30
330
A02
100
AcDbEntity
  8
Shape
100
AcDbLine
 10
235.808
 20
23.4
 30
0
 11
235.304
 21
23.4
 31
0
  0
LINE
  5
C31
330
A02
100
AcDbEntity
  8
Shape
100
AcDbLine
 10
235.304
 20
23.4
 30
0
 11
234.8
 21
23.4
 31
0
  0
LINE
  5
C32
330
A02
100
AcDbEntity
  8
Shape
100
AcDbLine
 10
234.8
 20
23.4
 30
0
 11
234.296
 21
23.4
 31
0
  0
LINE
  5
C33
330
A02
100
AcDbEntity
  8
Shape
100
AcDbLine
 10
234.296
 20
23.4
 30
0
 11
233.792
 21
23.4
 31
0
  0
LINE
  5
C34
330
A02
100
AcDbEntity
  8
Shape
100
AcDbLine
 10
233.792
 20
23.4
 30
0
 11
233.288
 21
23.4
 31
0
  0
LINE
  5
C35
330
A02
100
AcDbEntity
  8
Shape
100
AcDbLine
 10
233.288
 20
23.4
 30
0
 11
232.784
 21
23.4
 31
0
  0
LINE
  5
C36
330
A02
100
AcDbEntity
  8
Shape
100
AcDbLine
 10
232.784
 20
23.4
 30
0
 11
232.28
 21
23.4
 31
0
  0
LINE
  5
C37
330
A02
100
AcDbEntity
  8
Shape
100
AcDbLine
 10
232.28
 20
23.4
 30
0
 11
231.776
 21
23.4
 31
0
  0
LINE
  5
C38
330
A02
100
AcDbEntity
  8
Shape
100
AcDbLine
 10
231.776
 20
23.4
 30
0
 11
231.272
 21
23.4
 31
0
  0
LINE
  5
C39
330
A02
100
AcDbEntity
  8
Shape
100
AcDbLine
 10
231.272
 20
23.4
 30
0
 11
230.768
 21
23.4
 31
0
  0
LINE
  5
C3A
330
A02
100
AcDbEntity
  8
Shape
100
AcDbLine
 10
230.768
 20
23.4
 30
0
 11
230.264
 21
23.4
 31
0
  0
LINE
  5
C3B
330
A02
100
AcDbEntity
  8
Shape
100
AcDbLine
 10
230.264
 20
23.4
 30
0
 11
229.76
 21
23.4
 31
0
  0
LINE
  5
C3C
330
A02
100
AcDbEntity
  8
Shape
100
AcDbLine
 10
229.76
 20
23.4
 30
0
 11
229.256
 21
23.4
 31
0
  0
LINE
  5
C3D
330
A02
100
AcDbEntity
  8
Shape
100
AcDbLine
 10
229.256
 20
23.4
 30
0
 11
228.752
 21
23.4
 31
0
  0
LINE
  5
C3E
330
A02
100
AcDbEntity
  8
Shape
100
AcDbLine
 10
228.752
 20
23.4
 30
0
 11
228.248
 21
23.4
 31
0
  0
LINE
  5
C3F
330
A02
100
AcDbEntity
  8
Shape
100
AcDbLine
 10
228.248
 20
23.4
 30
0
 11
227.744
 21
23.4
 31
0
  0
LINE
  5
C40
330
A02
100
AcDbEntity
  8
Shape
100
AcDbLine
 10
227.744
 20
23.4
 30
0
 11
227.24
 21
23.4
 31
0
  0
LINE
  5
C41
330
A02
100
AcDbEntity
  8
Shape
100
AcDbLine
 10
227.24
 20
23.4
 30
0
 11
226.736
 21
23.4
 31
0
  0
LINE
  5
C42
330
A02
100
AcDbEntity
  8
Shape
100
AcDbLine
 10
226.736
 20
23.4
 30
0
 11
226.232
 21
23.4
 31
0
  0
LINE
  5
C43
330
A02
100
AcDbEntity
  8
Shape
100
AcDbLine
 10
226.232
 20
23.4
 30
0
 11
225.728
 21
23.4
 31
0
  0
LINE
  5
C44
330
A02
100
AcDbEntity
  8
Shape
100
AcDbLine
 10
225.728
 20
23.4
 30
0
 11
225.224
 21
23.4
 31
0
  0
LINE
  5
C45
330
A02
100
AcDbEntity
  8
Shape
100
AcDbLine
 10
225.224
 20
23.4
 30
0
 11
224.72
 21
23.4
 31
0
  0
LINE
  5
C46
330
A02
100
AcDbEntity
  8
Shape
100
AcDbLine
 10
224.72
 20
23.4
 30
0
 11
224.216
 21
23.4
 31
0
  0
LINE
  5
C47
330
A02
100
AcDbEntity
  8
Shape
100
AcDbLine
 10
224.216
 20
23.4
 30
0
 11
223.712
 21
23.4
 31
0
  0
LINE
  5
C48
330
A02
100
AcDbEntity
  8
Shape
100
AcDbLine
 10
223.712
 20
23.4
 30
0
 11
223.208
 21
23.4
 31
0
  0
LINE
  5
C49
330
A02
100
AcDbEntity
  8
Shape
100
AcDbLine
 10
223.208
 20
23.4
 30
0
 11
222.704
 21
23.4
 31
0
  0
LINE
  5
C4A
330
A02
100
AcDbEntity
  8
Shape
100
AcDbLine
 10
222.704
 20
23.4
 30
0
 11
222.2
 21
23.4
 31
0
  0
LINE
  5
C4B
330
A02
100
AcDbEntity
  8
Shape
100
AcDbLine
 10
222.2
 20
23.4
 30
0
 11
221.696
 21
23.4
 31
0
  0
LINE
  5
C4C
330
A02
100
AcDbEntity
  8
Shape
100
AcDbLine
 10
221.696
 20
23.4
 30
0
 11
221.192
 21
23.4
 31
0
  0
LINE
  5
C4D
330
A02
100
AcDbEntity
  8
Shape
100
AcDbLine
 10
221.192
 20
23.4
 30
0
 11
220.688
 21
23.4
 31
0
  0
LINE
  5
C4E
330
A02
100
AcDbEntity
  8
Shape
100
AcDbLine
 10
220.688
 20
23.4
 30
0
 11
220.184
 21
23.4
 31
0
  0
LINE
  5
C4F
330
A02
100
AcDbEntity
  8
Shape
100
AcDbLine
 10
220.184
 20
23.4
 30
0
 11
219.68
 21
23.4
 31
0
  0
LINE
  5
C50
330
A02
100
AcDbEntity
  8
Shape
100
AcDbLine
 10
219.68
 20
23.4
 30
0
 11
219.176
 21
23.4
 31
0
  0
LINE
  5
C51
330
A02
100
AcDbEntity
  8
Shape
100
AcDbLine
 10
219.176
 20
23.4
 30
0
 11
218.672
 21
23.4
 31
0
  0
LINE
  5
C52
330
A02
100
AcDbEntity
  8
Shape
100
AcDbLine
 10
218.672
 20
23.4
 30
0
 11
218.168
 21
23.4
 31
0
  0
LINE
  5
C53
330
A02
100
AcDbEntity
  8
Shape
100
AcDbLine
 10
218.168
 20
23.4
 30
0
 11
217.664
 21
23.4
 31
0
  0
LINE
  5
C54
330
A02
100
AcDbEntity
  8
Shape
100
AcDbLine
 10
217.664
 20
23.4
 30
0
 11
217.16
 21
23.4
 31
0
  0
LINE
  5
C55
330
A02
100
AcDbEntity
  8
Shape
100
AcDbLine
 10
217.16
 20
23.4
 30
0
 11
216.656
 21
23.4
 31
0
  0
LINE
  5
C56
330
A02
100
AcDbEntity
  8
Shape
100
AcDbLine
 10
216.656
 20
23.4
 30
0
 11
216.152
 21
23.4
 31
0
  0
LINE
  5
C57
330
A02
100
AcDbEntity
  8
Shape
100
AcDbLine
 10
216.152
 20
23.4
 30
0
 11
215.648
 21
23.4
 31
0
  0
LINE
  5
C58
330
A02
100
AcDbEntity
  8
Shape
100
AcDbLine
 10
215.648
 20
23.4
 30
0
 11
215.144
 21
23.4
 31
0
  0
LINE
  5
C59
330
A02
100
AcDbEntity
  8
Shape
100
AcDbLine
 10
215.144
 20
23.4
 30
0
 11
214.64
 21
23.4
 31
0
  0
LINE
  5
C5A
330
A02
100
AcDbEntity
  8
Shape
100
AcDbLine
 10
214.64
 20
23.4
 30
0
 11
214.136
 21
23.3939
 31
0
  0
LINE
  5
C5B
330
A02
100
AcDbEntity
  8
Shape
100
AcDbLine
 10
214.136
 20
23.3939
 30
0
 11
213.632
 21
23.3675
 31
0
  0
LINE
  5
C5C
330
A02
100
AcDbEntity
  8
Shape
100
AcDbLine
 10
213.632
 20
23.3675
 30
0
 11
213.128
 21
23.3411
 31
0
  0
LINE
  5
C5D
330
A02
100
AcDbEntity
  8
Shape
100
AcDbLine
 10
213.128
 20
23.3411
 30
0
 11
212.624
 21
23.3145
 31
0
  0
LINE
  5
C5E
330
A02
100
AcDbEntity
  8
Shape
100
AcDbLine
 10
212.624
 20
23.3145
 30
0
 11
212.12
 21
23.2877
 31
0
  0
LINE
  5
C5F
330
A02
100
AcDbEntity
  8
Shape
100
AcDbLine
 10
212.12
 20
23.2877
 30
0
 11
211.616
 21
23.2609
 31
0
  0
LINE
  5
C60
330
A02
100
AcDbEntity
  8
Shape
100
AcDbLine
 10
211.616
 20
23.2609
 30
0
 11
211.112
 21
23.2338
 31
0
  0
LINE
  5
C61
330
A02
100
AcDbEntity
  8
Shape
100
AcDbLine
 10
211.112
 20
23.2338
 30
0
 11
210.608
 21
23.2067
 31
0
  0
LINE
  5
C62
330
A02
100
AcDbEntity
  8
Shape
100
AcDbLine
 10
210.608
 20
23.2067
 30
0
 11
210.104
 21
23.1794
 31
0
  0
LINE
  5
C63
330
A02
100
AcDbEntity
  8
Shape
100
AcDbLine
 10
210.104
 20
23.1794
 30
0
 11
209.6
 21
23.152
 31
0
  0
LINE
  5
C64
330
A02
100
AcDbEntity
  8
Shape
100
AcDbLine
 10
209.6
 20
23.152
 30
0
 11
209.096
 21
23.1244
 31
0
  0
LINE
  5
C65
330
A02
100
AcDbEntity
  8
Shape
100
AcDbLine
 10
209.096
 20
23.1244
 30
0
 11
208.592
 21
23.0967
 31
0
  0
LINE
  5
C66
330
A02
100
AcDbEntity
  8
Shape
100
AcDbLine
 10
208.592
 20
23.0967
 30
0
 11
208.088
 21
23.0689
 31
0
  0
LINE
  5
C67
330
A02
100
AcDbEntity
  8
Shape
100
AcDbLine
 10
208.088
 20
23.0689
 30
0
 11
207.584
 21
23.0409
 31
0
  0
LINE
  5
C68
330
A02
100
AcDbEntity
  8
Shape
100
AcDbLine
 10
207.584
 20
23.0409
 30
0
 11
207.08
 21
23.0128
 31
0
  0
LINE
  5
C69
330
A02
100
AcDbEntity
  8
Shape
100
AcDbLine
 10
207.08
 20
23.0128
 30
0
 11
206.576
 21
22.9846
 31
0
  0
LINE
  5
C6A
330
A02
100
AcDbEntity
  8
Shape
100
AcDbLine
 10
206.576
 20
22.9846
 30
0
 11
206.072
 21
22.9562
 31
0
  0
LINE
  5
C6B
330
A02
100
AcDbEntity
  8
Shape
100
AcDbLine
 10
206.072
 20
22.9562
 30
0
 11
205.568
 21
22.9277
 31
0
  0
LINE
  5
C6C
330
A02
100
AcDbEntity
  8
Shape
100
AcDbLine
 10
205.568
 20
22.9277
 30
0
 11
205.064
 21
22.8991
 31
0
  0
LINE
  5
C6D
330
A02
100
AcDbEntity
  8
Shape
100
AcDbLine
 10
205.064
 20
22.8991
 30
0
 11
204.56
 21
22.8703
 31
0
  0
LINE
  5
C6E
330
A02
100
AcDbEntity
  8
Shape
100
AcDbLine
 10
204.56
 20
22.8703
 30
0
 11
204.056
 21
22.8414
 31
0
  0
LINE
  5
C6F
330
A02
100
AcDbEntity
  8
Shape
100
AcDbLine
 10
204.056
 20
22.8414
 30
0
 11
203.552
 21
22.8124
 31
0
  0
LINE
  5
C70
330
A02
100
AcDbEntity
  8
Shape
100
AcDbLine
 10
203.552
 20
22.8124
 30
0
 11
203.048
 21
22.7832
 31
0
  0
LINE
  5
C71
330
A02
100
AcDbEntity
  8
Shape
100
AcDbLine
 10
203.048
 20
22.7832
 30
0
 11
202.544
 21
22.7539
 31
0
  0
LINE
  5
C72
330
A02
100
AcDbEntity
  8
Shape
100
AcDbLine
 10
202.544
 20
22.7539
 30
0
 11
202.04
 21
22.7245
 31
0
  0
LINE
  5
C73
330
A02
100
AcDbEntity
  8
Shape
100
AcDbLine
 10
202.04
 20
22.7245
 30
0
 11
201.536
 21
22.695
 31
0
  0
LINE
  5
C74
330
A02
100
AcDbEntity
  8
Shape
100
AcDbLine
 10
201.536
 20
22.695
 30
0
 11
201.032
 21
22.6653
 31
0
  0
LINE
  5
C75
330
A02
100
AcDbEntity
  8
Shape
100
AcDbLine
 10
201.032
 20
22.6653
 30
0
 11
200.528
 21
22.6355
 31
0
  0
LINE
  5
C76
330
A02
100
AcDbEntity
  8
Shape
100
AcDbLine
 10
200.528
 20
22.6355
 30
0
 11
200.024
 21
22.6056
 31
0
  0
LINE
  5
C77
330
A02
100
AcDbEntity
  8
Shape
100
AcDbLine
 10
200.024
 20
22.6056
 30
0
 11
199.52
 21
22.5756
 31
0
  0
LINE
  5
C78
330
A02
100
AcDbEntity
  8
Shape
100
AcDbLine
 10
199.52
 20
22.5756
 30
0
 11
199.016
 21
22.5454
 31
0
  0
LINE
  5
C79
330
A02
100
AcDbEntity
  8
Shape
100
AcDbLine
 10
199.016
 20
22.5454
 30
0
 11
198.512
 21
22.5151
 31
0
  0
LINE
  5
C7A
330
A02
100
AcDbEntity
  8
Shape
100
AcDbLine
 10
198.512
 20
22.5151
 30
0
 11
198.008
 21
22.4847
 31
0
  0
LINE
  5
C7B
330
A02
100
AcDbEntity
  8
Shape
100
AcDbLine
 10
198.008
 20
22.4847
 30
0
 11
197.504
 21
22.4541
 31
0
  0
LINE
  5
C7C
330
A02
100
AcDbEntity
  8
Shape
100
AcDbLine
 10
197.504
 20
22.4541
 30
0
 11
197
 21
22.4235
 31
0
  0
LINE
  5
C7D
330
A02
100
AcDbEntity
  8
Shape
100
AcDbLine
 10
197
 20
22.4235
 30
0
 11
196.496
 21
22.3927
 31
0
  0
LINE
  5
C7E
330
A02
100
AcDbEntity
  8
Shape
100
AcDbLine
 10
196.496
 20
22.3927
 30
0
 11
195.992
 21
22.3618
 31
0
  0
LINE
  5
C7F
330
A02
100
AcDbEntity
  8
Shape
100
AcDbLine
 10
195.992
 20
22.3618
 30
0
 11
195.488
 21
22.3307
 31
0
  0
LINE
  5
C80
330
A02
100
AcDbEntity
  8
Shape
100
AcDbLine
 10
195.488
 20
22.3307
 30
0
 11
194.984
 21
22.2995
 31
0
  0
LINE
  5
C81
330
A02
100
AcDbEntity
  8
Shape
100
AcDbLine
 10
194.984
 20
22.2995
 30
0
 11
194.48
 21
22.2683
 31
0
  0
LINE
  5
C82
330
A02
100
AcDbEntity
  8
Shape
100
AcDbLine
 10
194.48
 20
22.2683
 30
0
 11
193.976
 21
22.2368
 31
0
  0
LINE
  5
C83
330
A02
100
AcDbEntity
  8
Shape
100
AcDbLine
 10
193.976
 20
22.2368
 30
0
 11
193.472
 21
22.2053
 31
0
  0
LINE
  5
C84
330
A02
100
AcDbEntity
  8
Shape
100
AcDbLine
 10
193.472
 20
22.2053
 30
0
 11
192.968
 21
22.1737
 31
0
  0
LINE
  5
C85
330
A02
100
AcDbEntity
  8
Shape
100
AcDbLine
 10
192.968
 20
22.1737
 30
0
 11
192.464
 21
22.1419
 31
0
  0
LINE
  5
C86
330
A02
100
AcDbEntity
  8
Shape
100
AcDbLine
 10
192.464
 20
22.1419
 30
0
 11
191.96
 21
22.11
 31
0
  0
LINE
  5
C87
330
A02
100
AcDbEntity
  8
Shape
100
AcDbLine
 10
191.96
 20
22.11
 30
0
 11
191.456
 21
22.078
 31
0
  0
LINE
  5
C88
330
A02
100
AcDbEntity
  8
Shape
100
AcDbLine
 10
191.456
 20
22.078
 30
0
 11
190.952
 21
22.0458
 31
0
  0
LINE
  5
C89
330
A02
100
AcDbEntity
  8
Shape
100
AcDbLine
 10
190.952
 20
22.0458
 30
0
 11
190.448
 21
22.0136
 31
0
  0
LINE
  5
C8A
330
A02
100
AcDbEntity
  8
Shape
100
AcDbLine
 10
190.448
 20
22.0136
 30
0
 11
189.944
 21
21.9812
 31
0
  0
LINE
  5
C8B
330
A02
100
AcDbEntity
  8
Shape
100
AcDbLine
 10
189.944
 20
21.9812
 30
0
 11
189.44
 21
21.9487
 31
0
  0
LINE
  5
C8C
330
A02
100
AcDbEntity
  8
Shape
100
AcDbLine
 10
189.44
 20
21.9487
 30
0
 11
188.936
 21
21.9161
 31
0
  0
LINE
  5
C8D
330
A02
100
AcDbEntity
  8
Shape
100
AcDbLine
 10
188.936
 20
21.9161
 30
0
 11
188.432
 21
21.8833
 31
0
  0
LINE
  5
C8E
330
A02
100
AcDbEntity
  8
Shape
100
AcDbLine
 10
188.432
 20
21.8833
 30
0
 11
187.928
 21
21.8505
 31
0
  0
LINE
  5
C8F
330
A02
100
AcDbEntity
  8
Shape
100
AcDbLine
 10
187.928
 20
21.8505
 30
0
 11
187.424
 21
21.8175
 31
0
  0
LINE
  5
C90
330
A02
100
AcDbEntity
  8
Shape
100
AcDbLine
 10
187.424
 20
21.8175
 30
0
 11
186.92
 21
21.7844
 31
0
  0
LINE
  5
C91
330
A02
100
AcDbEntity
  8
Shape
100
AcDbLine
 10
186.92
 20
21.7844
 30
0
 11
186.416
 21
21.7512
 31
0
  0
LINE
  5
C92
330
A02
100
AcDbEntity
  8
Shape
100
AcDbLine
 10
186.416
 20
21.7512
 30
0
 11
185.912
 21
21.7179
 31
0
  0
LINE
  5
C93
330
A02
100
AcDbEntity
  8
Shape
100
AcDbLine
 10
185.912
 20
21.7179
 30
0
 11
185.408
 21
21.6844
 31
0
  0
LINE
  5
C94
330
A02
100
AcDbEntity
  8
Shape
100
AcDbLine
 10
185.408
 20
21.6844
 30
0
 11
184.904
 21
21.6509
 31
0
  0
LINE
  5
C95
330
A02
100
AcDbEntity
  8
Shape
100
AcDbLine
 10
184.904
 20
21.6509
 30
0
 11
184.4
 21
21.6172
 31
0
  0
LINE
  5
C96
330
A02
100
AcDbEntity
  8
Shape
100
AcDbLine
 10
184.4
 20
21.6172
 30
0
 11
183.896
 21
21.5834
 31
0
  0
LINE
  5
C97
330
A02
100
AcDbEntity
  8
Shape
100
AcDbLine
 10
183.896
 20
21.5834
 30
0
 11
183.392
 21
21.5495
 31
0
  0
LINE
  5
C98
330
A02
100
AcDbEntity
  8
Shape
100
AcDbLine
 10
183.392
 20
21.5495
 30
0
 11
182.888
 21
21.5154
 31
0
  0
LINE
  5
C99
330
A02
100
AcDbEntity
  8
Shape
100
AcDbLine
 10
182.888
 20
21.5154
 30
0
 11
182.384
 21
21.4813
 31
0
  0
LINE
  5
C9A
330
A02
100
AcDbEntity
  8
Shape
100
AcDbLine
 10
182.384
 20
21.4813
 30
0
 11
181.88
 21
21.447
 31
0
  0
LINE
  5
C9B
330
A02
100
AcDbEntity
  8
Shape
100
AcDbLine
 10
181.88
 20
21.447
 30
0
 11
181.376
 21
21.4127
 31
0
  0
LINE
  5
C9C
330
A02
100
AcDbEntity
  8
Shape
100
AcDbLine
 10
181.376
 20
21.4127
 30
0
 11
180.872
 21
21.3782
 31
0
  0
LINE
  5
C9D
330
A02
100
AcDbEntity
  8
Shape
100
AcDbLine
 10
180.872
 20
21.3782
 30
0
 11
180.368
 21
21.3435
 31
0
  0
LINE
  5
C9E
330
A02
100
AcDbEntity
  8
Shape
100
AcDbLine
 10
180.368
 20
21.3435
 30
0
 11
179.864
 21
21.3088
 31
0
  0
LINE
  5
C9F
330
A02
100
AcDbEntity
  8
Shape
100
AcDbLine
 10
179.864
 20
21.3088
 30
0
 11
179.36
 21
21.274
 31
0
  0
LINE
  5
CA0
330
A02
100
AcDbEntity
  8
Shape
100
AcDbLine
 10
179.36
 20
21.274
 30
0
 11
178.856
 21
21.239
 31
0
  0
LINE
  5
CA1
330
A02
100
AcDbEntity
  8
Shape
100
AcDbLine
 10
178.856
 20
21.239
 30
0
 11
178.352
 21
21.204
 31
0
  0
LINE
  5
CA2
330
A02
100
AcDbEntity
  8
Shape
100
AcDbLine
 10
178.352
 20
21.204
 30
0
 11
177.848
 21
21.1688
 31
0
  0
LINE
  5
CA3
330
A02
100
AcDbEntity
  8
Shape
100
AcDbLine
 10
177.848
 20
21.1688
 30
0
 11
177.344
 21
21.1335
 31
0
  0
LINE
  5
CA4
330
A02
100
AcDbEntity
  8
Shape
100
AcDbLine
 10
177.344
 20
21.1335
 30
0
 11
176.84
 21
21.0981
 31
0
  0
LINE
  5
CA5
330
A02
100
AcDbEntity
  8
Shape
100
AcDbLine
 10
176.84
 20
21.0981
 30
0
 11
176.336
 21
21.0625
 31
0
  0
LINE
  5
CA6
330
A02
100
AcDbEntity
  8
Shape
100
AcDbLine
 10
176.336
 20
21.0625
 30
0
 11
175.832
 21
21.0269
 31
0
  0
LINE
  5
CA7
330
A02
100
AcDbEntity
  8
Shape
100
AcDbLine
 10
175.832
 20
21.0269
 30
0
 11
175.328
 21
20.9911
 31
0
  0
LINE
  5
CA8
330
A02
100
AcDbEntity
  8
Shape
100
AcDbLine
 10
175.328
 20
20.9911
 30
0
 11
174.824
 21
20.9553
 31
0
  0
LINE
  5
CA9
330
A02
100
AcDbEntity
  8
Shape
100
AcDbLine
 10
174.824
 20
20.9553
 30
0
 11
174.32
 21
20.9193
 31
0
  0
LINE
  5
CAA
330
A02
100
AcDbEntity
  8
Shape
100
AcDbLine
 10
174.32
 20
20.9193
 30
0
 11
173.816
 21
20.8832
 31
0
  0
LINE
  5
CAB
330
A02
100
AcDbEntity
  8
Shape
100
AcDbLine
 10
173.816
 20
20.8832
 30
0
 11
173.312
 21
20.847
 31
0
  0
LINE
  5
CAC
330
A02
100
AcDbEntity
  8
Shape
100
AcDbLine
 10
173.312
 20
20.847
 30
0
 11
172.808
 21
20.8107
 31
0
  0
LINE
  5
CAD
330
A02
100
AcDbEntity
  8
Shape
100
AcDbLine
 10
172.808
 20
20.8107
 30
0
 11
172.304
 21
20.7742
 31
0
  0
LINE
  5
CAE
330
A02
100
AcDbEntity
  8
Shape
100
AcDbLine
 10
172.304
 20
20.7742
 30
0
 11
171.8
 21
20.7377
 31
0
  0
LINE
  5
CAF
330
A02
100
AcDbEntity
  8
Shape
100
AcDbLine
 10
171.8
 20
20.7377
 30
0
 11
171.296
 21
20.701
 31
0
  0
LINE
  5
CB0
330
A02
100
AcDbEntity
  8
Shape
100
AcDbLine
 10
171.296
 20
20.701
 30
0
 11
170.792
 21
20.6642
 31
0
  0
LINE
  5
CB1
330
A02
100
AcDbEntity
  8
Shape
100
AcDbLine
 10
170.792
 20
20.6642
 30
0
 11
170.288
 21
20.6273
 31
0
  0
LINE
  5
CB2
330
A02
100
AcDbEntity
  8
Shape
100
AcDbLine
 10
170.288
 20
20.6273
 30
0
 11
169.784
 21
20.5903
 31
0
  0
LINE
  5
CB3
330
A02
100
AcDbEntity
  8
Shape
100
AcDbLine
 10
169.784
 20
20.5903
 30
0
 11
169.28
 21
20.5532
 31
0
  0
LINE
  5
CB4
330
A02
100
AcDbEntity
  8
Shape
100
AcDbLine
 10
169.28
 20
20.5532
 30
0
 11
168.776
 21
20.516
 31
0
  0
LINE
  5
CB5
330
A02
100
AcDbEntity
  8
Shape
100
AcDbLine
 10
168.776
 20
20.516
 30
0
 11
168.272
 21
20.4787
 31
0
  0
LINE
  5
CB6
330
A02
100
AcDbEntity
  8
Shape
100
AcDbLine
 10
168.272
 20
20.4787
 30
0
 11
167.768
 21
20.4412
 31
0
  0
LINE
  5
CB7
330
A02
100
AcDbEntity
  8
Shape
100
AcDbLine
 10
167.768
 20
20.4412
 30
0
 11
167.264
 21
20.4037
 31
0
  0
LINE
  5
CB8
330
A02
100
AcDbEntity
  8
Shape
100
AcDbLine
 10
167.264
 20
20.4037
 30
0
 11
166.76
 21
20.366
 31
0
  0
LINE
  5
CB9
330
A02
100
AcDbEntity
  8
Shape
100
AcDbLine
 10
166.76
 20
20.366
 30
0
 11
166.256
 21
20.3282
 31
0
  0
LINE
  5
CBA
330
A02
100
AcDbEntity
  8
Shape
100
AcDbLine
 10
166.256
 20
20.3282
 30
0
 11
165.752
 21
20.2903
 31
0
  0
LINE
  5
CBB
330
A02
100
AcDbEntity
  8
Shape
100
AcDbLine
 10
165.752
 20
20.2903
 30
0
 11
165.248
 21
20.2523
 31
0
  0
LINE
  5
CBC
330
A02
100
AcDbEntity
  8
Shape
100
AcDbLine
 10
165.248
 20
20.2523
 30
0
 11
164.744
 21
20.2142
 31
0
  0
LINE
  5
CBD
330
A02
100
AcDbEntity
  8
Shape
100
AcDbLine
 10
164.744
 20
20.2142
 30
0
 11
164.24
 21
20.1759
 31
0
  0
LINE
  5
CBE
330
A02
100
AcDbEntity
  8
Shape
100
AcDbLine
 10
164.24
 20
20.1759
 30
0
 11
163.736
 21
20.1376
 31
0
  0
LINE
  5
CBF
330
A02
100
AcDbEntity
  8
Shape
100
AcDbLine
 10
163.736
 20
20.1376
 30
0
 11
163.232
 21
20.0991
 31
0
  0
LINE
  5
CC0
330
A02
100
AcDbEntity
  8
Shape
100
AcDbLine
 10
163.232
 20
20.0991
 30
0
 11
162.728
 21
20.0606
 31
0
  0
LINE
  5
CC1
330
A02
100
AcDbEntity
  8
Shape
100
AcDbLine
 10
162.728
 20
20.0606
 30
0
 11
162.224
 21
20.0219
 31
0
  0
LINE
  5
CC2
330
A02
100
AcDbEntity
  8
Shape
100
AcDbLine
 10
162.224
 20
20.0219
 30
0
 11
161.72
 21
19.9831
 31
0
  0
LINE
  5
CC3
330
A02
100
AcDbEntity
  8
Shape
100
AcDbLine
 10
161.72
 20
19.9831
 30
0
 11
161.216
 21
19.9442
 31
0
  0
LINE
  5
CC4
330
A02
100
AcDbEntity
  8
Shape
100
AcDbLine
 10
161.216
 20
19.9442
 30
0
 11
160.712
 21
19.9052
 31
0
  0
LINE
  5
CC5
330
A02
100
AcDbEntity
  8
Shape
100
AcDbLine
 10
160.712
 20
19.9052
 30
0
 11
160.208
 21
19.866
 31
0
  0
LINE
  5
CC6
330
A02
100
AcDbEntity
  8
Shape
100
AcDbLine
 10
160.208
 20
19.866
 30
0
 11
159.704
 21
19.8268
 31
0
  0
LINE
  5
CC7
330
A02
100
AcDbEntity
  8
Shape
100
AcDbLine
 10
159.704
 20
19.8268
 30
0
 11
159.2
 21
19.7875
 31
0
  0
LINE
  5
CC8
330
A02
100
AcDbEntity
  8
Shape
100
AcDbLine
 10
159.2
 20
19.7875
 30
0
 11
158.696
 21
19.748
 31
0
  0
LINE
  5
CC9
330
A02
100
AcDbEntity
  8
Shape
100
AcDbLine
 10
158.696
 20
19.748
 30
0
 11
158.192
 21
19.7084
 31
0
  0
LINE
  5
CCA
330
A02
100
AcDbEntity
  8
Shape
100
AcDbLine
 10
158.192
 20
19.7084
 30
0
 11
157.688
 21
19.6688
 31
0
  0
LINE
  5
CCB
330
A02
100
AcDbEntity
  8
Shape
100
AcDbLine
 10
157.688
 20
19.6688
 30
0
 11
157.184
 21
19.629
 31
0
  0
LINE
  5
CCC
330
A02
100
AcDbEntity
  8
Shape
100
AcDbLine
 10
157.184
 20
19.629
 30
0
 11
156.68
 21
19.5891
 31
0
  0
LINE
  5
CCD
330
A02
100
AcDbEntity
  8
Shape
100
AcDbLine
 10
156.68
 20
19.5891
 30
0
 11
156.176
 21
19.549
 31
0
  0
LINE
  5
CCE
330
A02
100
AcDbEntity
  8
Shape
100
AcDbLine
 10
156.176
 20
19.549
 30
0
 11
155.672
 21
19.5089
 31
0
  0
LINE
  5
CCF
330
A02
100
AcDbEntity
  8
Shape
100
AcDbLine
 10
155.672
 20
19.5089
 30
0
 11
155.168
 21
19.4687
 31
0
  0
LINE
  5
CD0
330
A02
100
AcDbEntity
  8
Shape
100
AcDbLine
 10
155.168
 20
19.4687
 30
0
 11
154.664
 21
19.4283
 31
0
  0
LINE
  5
CD1
330
A02
100
AcDbEntity
  8
Shape
100
AcDbLine
 10
154.664
 20
19.4283
 30
0
 11
154.16
 21
19.3879
 31
0
  0
LINE
  5
CD2
330
A02
100
AcDbEntity
  8
Shape
100
AcDbLine
 10
154.16
 20
19.3879
 30
0
 11
153.656
 21
19.3473
 31
0
  0
LINE
  5
CD3
330
A02
100
AcDbEntity
  8
Shape
100
AcDbLine
 10
153.656
 20
19.3473
 30
0
 11
153.152
 21
19.3066
 31
0
  0
LINE
  5
CD4
330
A02
100
AcDbEntity
  8
Shape
100
AcDbLine
 10
153.152
 20
19.3066
 30
0
 11
152.648
 21
19.2658
 31
0
  0
LINE
  5
CD5
330
A02
100
AcDbEntity
  8
Shape
100
AcDbLine
 10
152.648
 20
19.2658
 30
0
 11
152.144
 21
19.2249
 31
0
  0
LINE
  5
CD6
330
A02
100
AcDbEntity
  8
Shape
100
AcDbLine
 10
152.144
 20
19.2249
 30
0
 11
151.64
 21
19.1839
 31
0
  0
LINE
  5
CD7
330
A02
100
AcDbEntity
  8
Shape
100
AcDbLine
 10
151.64
 20
19.1839
 30
0
 11
151.136
 21
19.1428
 31
0
  0
LINE
  5
CD8
330
A02
100
AcDbEntity
  8
Shape
100
AcDbLine
 10
151.136
 20
19.1428
 30
0
 11
150.632
 21
19.1015
 31
0
  0
LINE
  5
CD9
330
A02
100
AcDbEntity
  8
Shape
100
AcDbLine
 10
150.632
 20
19.1015
 30
0
 11
150.128
 21
19.0602
 31
0
  0
LINE
  5
CDA
330
A02
100
AcDbEntity
  8
Shape
100
AcDbLine
 10
150.128
 20
19.0602
 30
0
 11
149.624
 21
19.0187
 31
0
  0
LINE
  5
CDB
330
A02
100
AcDbEntity
  8
Shape
100
AcDbLine
 10
149.624
 20
19.0187
 30
0
 11
149.12
 21
18.9771
 31
0
  0
LINE
  5
CDC
330
A02
100
AcDbEntity
  8
Shape
100
AcDbLine
 10
149.12
 20
18.9771
 30
0
 11
148.616
 21
18.9354
 31
0
  0
LINE
  5
CDD
330
A02
100
AcDbEntity
  8
Shape
100
AcDbLine
 10
148.616
 20
18.9354
 30
0
 11
148.112
 21
18.8937
 31
0
  0
LINE
  5
CDE
330
A02
100
AcDbEntity
  8
Shape
100
AcDbLine
 10
148.112
 20
18.8937
 30
0
 11
147.608
 21
18.8517
 31
0
  0
LINE
  5
CDF
330
A02
100
AcDbEntity
  8
Shape
100
AcDbLine
 10
147.608
 20
18.8517
 30
0
 11
147.104
 21
18.8097
 31
0
  0
LINE
  5
CE0
330
A02
100
AcDbEntity
  8
Shape
100
AcDbLine
 10
147.104
 20
18.8097
 30
0
 11
146.6
 21
18.7676
 31
0
  0
LINE
  5
CE1
330
A02
100
AcDbEntity
  8
Shape
100
AcDbLine
 10
146.6
 20
18.7676
 30
0
 11
146.096
 21
18.7253
 31
0
  0
LINE
  5
CE2
330
A02
100
AcDbEntity
  8
Shape
100
AcDbLine
 10
146.096
 20
18.7253
 30
0
 11
145.592
 21
18.683
 31
0
  0
LINE
  5
CE3
330
A02
100
AcDbEntity
  8
Shape
100
AcDbLine
 10
145.592
 20
18.683
 30
0
 11
145.088
 21
18.6405
 31
0
  0
LINE
  5
CE4
330
A02
100
AcDbEntity
  8
Shape
100
AcDbLine
 10
145.088
 20
18.6405
 30
0
 11
144.584
 21
18.5979
 31
0
  0
LINE
  5
CE5
330
A02
100
AcDbEntity
  8
Shape
100
AcDbLine
 10
144.584
 20
18.5979
 30
0
 11
144.08
 21
18.5552
 31
0
  0
LINE
  5
CE6
330
A02
100
AcDbEntity
  8
Shape
100
AcDbLine
 10
144.08
 20
18.5552
 30
0
 11
143.576
 21
18.5124
 31
0
  0
LINE
  5
CE7
330
A02
100
AcDbEntity
  8
Shape
100
AcDbLine
 10
143.576
 20
18.5124
 30
0
 11
143.072
 21
18.4695
 31
0
  0
LINE
  5
CE8
330
A02
100
AcDbEntity
  8
Shape
100
AcDbLine
 10
143.072
 20
18.4695
 30
0
 11
142.568
 21
18.4265
 31
0
  0
LINE
  5
CE9
330
A02
100
AcDbEntity
  8
Shape
100
AcDbLine
 10
142.568
 20
18.4265
 30
0
 11
142.064
 21
18.3833
 31
0
  0
LINE
  5
CEA
330
A02
100
AcDbEntity
  8
Shape
100
AcDbLine
 10
142.064
 20
18.3833
 30
0
 11
141.56
 21
18.3401
 31
0
  0
LINE
  5
CEB
330
A02
100
AcDbEntity
  8
Shape
100
AcDbLine
 10
141.56
 20
18.3401
 30
0
 11
141.056
 21
18.2967
 31
0
  0
LINE
  5
CEC
330
A02
100
AcDbEntity
  8
Shape
100
AcDbLine
 10
141.056
 20
18.2967
 30
0
 11
140.552
 21
18.2532
 31
0
  0
LINE
  5
CED
330
A02
100
AcDbEntity
  8
Shape
100
AcDbLine
 10
140.552
 20
18.2532
 30
0
 11
140.048
 21
18.2096
 31
0
  0
LINE
  5
CEE
330
A02
100
AcDbEntity
  8
Shape
100
AcDbLine
 10
140.048
 20
18.2096
 30
0
 11
139.544
 21
18.1659
 31
0
  0
LINE
  5
CEF
330
A02
100
AcDbEntity
  8
Shape
100
AcDbLine
 10
139.544
 20
18.1659
 30
0
 11
139.04
 21
18.1221
 31
0
  0
LINE
  5
CF0
330
A02
100
AcDbEntity
  8
Shape
100
AcDbLine
 10
139.04
 20
18.1221
 30
0
 11
138.536
 21
18.0782
 31
0
  0
LINE
  5
CF1
330
A02
100
AcDbEntity
  8
Shape
100
AcDbLine
 10
138.536
 20
18.0782
 30
0
 11
138.032
 21
18.0341
 31
0
  0
LINE
  5
CF2
330
A02
100
AcDbEntity
  8
Shape
100
AcDbLine
 10
138.032
 20
18.0341
 30
0
 11
137.528
 21
17.99
 31
0
  0
LINE
  5
CF3
330
A02
100
AcDbEntity
  8
Shape
100
AcDbLine
 10
137.528
 20
17.99
 30
0
 11
137.024
 21
17.9457
 31
0
  0
LINE
  5
CF4
330
A02
100
AcDbEntity
  8
Shape
100
AcDbLine
 10
137.024
 20
17.9457
 30
0
 11
136.52
 21
17.9013
 31
0
  0
LINE
  5
CF5
330
A02
100
AcDbEntity
  8
Shape
100
AcDbLine
 10
136.52
 20
17.9013
 30
0
 11
136.016
 21
17.8568
 31
0
  0
LINE
  5
CF6
330
A02
100
AcDbEntity
  8
Shape
100
AcDbLine
 10
136.016
 20
17.8568
 30
0
 11
135.512
 21
17.8122
 31
0
  0
LINE
  5
CF7
330
A02
100
AcDbEntity
  8
Shape
100
AcDbLine
 10
135.512
 20
17.8122
 30
0
 11
135.008
 21
17.7675
 31
0
  0
LINE
  5
CF8
330
A02
100
AcDbEntity
  8
Shape
100
AcDbLine
 10
135.008
 20
17.7675
 30
0
 11
134.504
 21
17.7226
 31
0
  0
LINE
  5
CF9
330
A02
100
AcDbEntity
  8
Shape
100
AcDbLine
 10
134.504
 20
17.7226
 30
0
 11
134
 21
17.6777
 31
0
  0
LINE
  5
CFA
330
A02
100
AcDbEntity
  8
Shape
100
AcDbLine
 10
134
 20
17.6777
 30
0
 11
133.496
 21
17.6326
 31
0
  0
LINE
  5
CFB
330
A02
100
AcDbEntity
  8
Shape
100
AcDbLine
 10
133.496
 20
17.6326
 30
0
 11
132.992
 21
17.5874
 31
0
  0
LINE
  5
CFC
330
A02
100
AcDbEntity
  8
Shape
100
AcDbLine
 10
132.992
 20
17.5874
 30
0
 11
132.488
 21
17.5421
 31
0
  0
LINE
  5
CFD
330
A02
100
AcDbEntity
  8
Shape
100
AcDbLine
 10
132.488
 20
17.5421
 30
0
 11
131.984
 21
17.4967
 31
0
  0
LINE
  5
CFE
330
A02
100
AcDbEntity
  8
Shape
100
AcDbLine
 10
131.984
 20
17.4967
 30
0
 11
131.48
 21
17.4512
 31
0
  0
LINE
  5
CFF
330
A02
100
AcDbEntity
  8
Shape
100
AcDbLine
 10
131.48
 20
17.4512
 30
0
 11
130.976
 21
17.4055
 31
0
  0
LINE
  5
D00
330
A02
100
AcDbEntity
  8
Shape
100
AcDbLine
 10
130.976
 20
17.4055
 30
0
 11
130.472
 21
17.3597
 31
0
  0
LINE
  5
D01
330
A02
100
AcDbEntity
  8
Shape
100
AcDbLine
 10
130.472
 20
17.3597
 30
0
 11
129.968
 21
17.3139
 31
0
  0
LINE
  5
D02
330
A02
100
AcDbEntity
  8
Shape
100
AcDbLine
 10
129.968
 20
17.3139
 30
0
 11
129.464
 21
17.2679
 31
0
  0
LINE
  5
D03
330
A02
100
AcDbEntity
  8
Shape
100
AcDbLine
 10
129.464
 20
17.2679
 30
0
 11
128.96
 21
17.2218
 31
0
  0
LINE
  5
D04
330
A02
100
AcDbEntity
  8
Shape
100
AcDbLine
 10
128.96
 20
17.2218
 30
0
 11
128.456
 21
17.1755
 31
0
  0
LINE
  5
D05
330
A02
100
AcDbEntity
  8
Shape
100
AcDbLine
 10
128.456
 20
17.1755
 30
0
 11
127.952
 21
17.1292
 31
0
  0
LINE
  5
D06
330
A02
100
AcDbEntity
  8
Shape
100
AcDbLine
 10
127.952
 20
17.1292
 30
0
 11
127.448
 21
17.0827
 31
0
  0
LINE
  5
D07
330
A02
100
AcDbEntity
  8
Shape
100
AcDbLine
 10
127.448
 20
17.0827
 30
0
 11
126.944
 21
17.0361
 31
0
  0
LINE
  5
D08
330
A02
100
AcDbEntity
  8
Shape
100
AcDbLine
 10
126.944
 20
17.0361
 30
0
 11
126.44
 21
16.9894
 31
0
  0
LINE
  5
D09
330
A02
100
AcDbEntity
  8
Shape
100
AcDbLine
 10
126.44
 20
16.9894
 30
0
 11
125.936
 21
16.9426
 31
0
  0
LINE
  5
D0A
330
A02
100
AcDbEntity
  8
Shape
100
AcDbLine
 10
125.936
 20
16.9426
 30
0
 11
125.432
 21
16.8957
 31
0
  0
LINE
  5
D0B
330
A02
100
AcDbEntity
  8
Shape
100
AcDbLine
 10
125.432
 20
16.8957
 30
0
 11
124.928
 21
16.8486
 31
0
  0
LINE
  5
D0C
330
A02
100
AcDbEntity
  8
Shape
100
AcDbLine
 10
124.928
 20
16.8486
 30
0
 11
124.424
 21
16.8015
 31
0
  0
LINE
  5
D0D
330
A02
100
AcDbEntity
  8
Shape
100
AcDbLine
 10
124.424
 20
16.8015
 30
0
 11
123.92
 21
16.7542
 31
0
  0
LINE
  5
D0E
330
A02
100
AcDbEntity
  8
Shape
100
AcDbLine
 10
123.92
 20
16.7542
 30
0
 11
123.416
 21
16.7068
 31
0
  0
LINE
  5
D0F
330
A02
100
AcDbEntity
  8
Shape
100
AcDbLine
 10
123.416
 20
16.7068
 30
0
 11
122.912
 21
16.6593
 31
0
  0
LINE
  5
D10
330
A02
100
AcDbEntity
  8
Shape
100
AcDbLine
 10
122.912
 20
16.6593
 30
0
 11
122.408
 21
16.6116
 31
0
  0
LINE
  5
D11
330
A02
100
AcDbEntity
  8
Shape
100
AcDbLine
 10
122.408
 20
16.6116
 30
0
 11
121.904
 21
16.5639
 31
0
  0
LINE
  5
D12
330
A02
100
AcDbEntity
  8
Shape
100
AcDbLine
 10
121.904
 20
16.5639
 30
0
 11
121.4
 21
16.516
 31
0
  0
LINE
  5
D13
330
A02
100
AcDbEntity
  8
Shape
100
AcDbLine
 10
121.4
 20
16.516
 30
0
 11
120.896
 21
16.468
 31
0
  0
LINE
  5
D14
330
A02
100
AcDbEntity
  8
Shape
100
AcDbLine
 10
120.896
 20
16.468
 30
0
 11
120.392
 21
16.4199
 31
0
  0
LINE
  5
D15
330
A02
100
AcDbEntity
  8
Shape
100
AcDbLine
 10
120.392
 20
16.4199
 30
0
 11
119.888
 21
16.3716
 31
0
  0
LINE
  5
D16
330
A02
100
AcDbEntity
  8
Shape
100
AcDbLine
 10
119.888
 20
16.3716
 30
0
 11
119.384
 21
16.3233
 31
0
  0
LINE
  5
D17
330
A02
100
AcDbEntity
  8
Shape
100
AcDbLine
 10
119.384
 20
16.3233
 30
0
 11
118.88
 21
16.2748
 31
0
  0
LINE
  5
D18
330
A02
100
AcDbEntity
  8
Shape
100
AcDbLine
 10
118.88
 20
16.2748
 30
0
 11
118.376
 21
16.2262
 31
0
  0
LINE
  5
D19
330
A02
100
AcDbEntity
  8
Shape
100
AcDbLine
 10
118.376
 20
16.2262
 30
0
 11
117.872
 21
16.1774
 31
0
  0
LINE
  5
D1A
330
A02
100
AcDbEntity
  8
Shape
100
AcDbLine
 10
117.872
 20
16.1774
 30
0
 11
117.368
 21
16.1286
 31
0
  0
LINE
  5
D1B
330
A02
100
AcDbEntity
  8
Shape
100
AcDbLine
 10
117.368
 20
16.1286
 30
0
 11
116.864
 21
16.0796
 31
0
  0
LINE
  5
D1C
330
A02
100
AcDbEntity
  8
Shape
100
AcDbLine
 10
116.864
 20
16.0796
 30
0
 11
116.36
 21
16.0305
 31
0
  0
LINE
  5
D1D
330
A02
100
AcDbEntity
  8
Shape
100
AcDbLine
 10
116.36
 20
16.0305
 30
0
 11
115.856
 21
15.9813
 31
0
  0
LINE
  5
D1E
330
A02
100
AcDbEntity
  8
Shape
100
AcDbLine
 10
115.856
 20
15.9813
 30
0
 11
115.352
 21
15.932
 31
0
  0
LINE
  5
D1F
330
A02
100
AcDbEntity
  8
Shape
100
AcDbLine
 10
115.352
 20
15.932
 30
0
 11
114.848
 21
15.8825
 31
0
  0
LINE
  5
D20
330
A02
100
AcDbEntity
  8
Shape
100
AcDbLine
 10
114.848
 20
15.8825
 30
0
 11
114.344
 21
15.8329
 31
0
  0
LINE
  5
D21
330
A02
100
AcDbEntity
  8
Shape
100
AcDbLine
 10
114.344
 20
15.8329
 30
0
 11
113.84
 21
15.7832
 31
0
  0
LINE
  5
D22
330
A02
100
AcDbEntity
  8
Shape
100
AcDbLine
 10
113.84
 20
15.7832
 30
0
 11
113.336
 21
15.7334
 31
0
  0
LINE
  5
D23
330
A02
100
AcDbEntity
  8
Shape
100
AcDbLine
 10
113.336
 20
15.7334
 30
0
 11
112.832
 21
15.6835
 31
0
  0
LINE
  5
D24
330
A02
100
AcDbEntity
  8
Shape
100
AcDbLine
 10
112.832
 20
15.6835
 30
0
 11
112.328
 21
15.6334
 31
0
  0
LINE
  5
D25
330
A02
100
AcDbEntity
  8
Shape
100
AcDbLine
 10
112.328
 20
15.6334
 30
0
 11
111.824
 21
15.5832
 31
0
  0
LINE
  5
D26
330
A02
100
AcDbEntity
  8
Shape
100
AcDbLine
 10
111.824
 20
15.5832
 30
0
 11
111.32
 21
15.5328
 31
0
  0
LINE
  5
D27
330
A02
100
AcDbEntity
  8
Shape
100
AcDbLine
 10
111.32
 20
15.5328
 30
0
 11
110.816
 21
15.4824
 31
0
  0
LINE
  5
D28
330
A02
100
AcDbEntity
  8
Shape
100
AcDbLine
 10
110.816
 20
15.4824
 30
0
 11
110.312
 21
15.4318
 31
0
  0
LINE
  5
D29
330
A02
100
AcDbEntity
  8
Shape
100
AcDbLine
 10
110.312
 20
15.4318
 30
0
 11
109.808
 21
15.3811
 31
0
  0
LINE
  5
D2A
330
A02
100
AcDbEntity
  8
Shape
100
AcDbLine
 10
109.808
 20
15.3811
 30
0
 11
109.304
 21
15.3302
 31
0
  0
LINE
  5
D2B
330
A02
100
AcDbEntity
  8
Shape
100
AcDbLine
 10
109.304
 20
15.3302
 30
0
 11
108.8
 21
15.2793
 31
0
  0
LINE
  5
D2C
330
A02
100
AcDbEntity
  8
Shape
100
AcDbLine
 10
108.8
 20
15.2793
 30
0
 11
108.296
 21
15.2282
 31
0
  0
LINE
  5
D2D
330
A02
100
AcDbEntity
  8
Shape
100
AcDbLine
 10
108.296
 20
15.2282
 30
0
 11
107.792
 21
15.177
 31
0
  0
LINE
  5
D2E
330
A02
100
AcDbEntity
  8
Shape
100
AcDbLine
 10
107.792
 20
15.177
 30
0
 11
107.288
 21
15.1256
 31
0
  0
LINE
  5
D2F
330
A02
100
AcDbEntity
  8
Shape
100
AcDbLine
 10
107.288
 20
15.1256
 30
0
 11
106.784
 21
15.0741
 31
0
  0
LINE
  5
D30
330
A02
100
AcDbEntity
  8
Shape
100
AcDbLine
 10
106.784
 20
15.0741
 30
0
 11
106.28
 21
15.0225
 31
0
  0
LINE
  5
D31
330
A02
100
AcDbEntity
  8
Shape
100
AcDbLine
 10
106.28
 20
15.0225
 30
0
 11
105.776
 21
14.9708
 31
0
  0
LINE
  5
D32
330
A02
100
AcDbEntity
  8
Shape
100
AcDbLine
 10
105.776
 20
14.9708
 30
0
 11
105.272
 21
14.9189
 31
0
  0
LINE
  5
D33
330
A02
100
AcDbEntity
  8
Shape
100
AcDbLine
 10
105.272
 20
14.9189
 30
0
 11
104.768
 21
14.8669
 31
0
  0
LINE
  5
D34
330
A02
100
AcDbEntity
  8
Shape
100
AcDbLine
 10
104.768
 20
14.8669
 30
0
 11
104.264
 21
14.8148
 31
0
  0
LINE
  5
D35
330
A02
100
AcDbEntity
  8
Shape
100
AcDbLine
 10
104.264
 20
14.8148
 30
0
 11
103.76
 21
14.7625
 31
0
  0
LINE
  5
D36
330
A02
100
AcDbEntity
  8
Shape
100
AcDbLine
 10
103.76
 20
14.7625
 30
0
 11
103.256
 21
14.7101
 31
0
  0
LINE
  5
D37
330
A02
100
AcDbEntity
  8
Shape
100
AcDbLine
 10
103.256
 20
14.7101
 30
0
 11
102.752
 21
14.6576
 31
0
  0
LINE
  5
D38
330
A02
100
AcDbEntity
  8
Shape
100
AcDbLine
 10
102.752
 20
14.6576
 30
0
 11
102.248
 21
14.6049
 31
0
  0
LINE
  5
D39
330
A02
100
AcDbEntity
  8
Shape
100
AcDbLine
 10
102.248
 20
14.6049
 30
0
 11
101.744
 21
14.5521
 31
0
  0
LINE
  5
D3A
330
A02
100
AcDbEntity
  8
Shape
100
AcDbLine
 10
101.744
 20
14.5521
 30
0
 11
101.24
 21
14.4992
 31
0
  0
LINE
  5
D3B
330
A02
100
AcDbEntity
  8
Shape
100
AcDbLine
 10
101.24
 20
14.4992
 30
0
 11
100.736
 21
14.4461
 31
0
  0
LINE
  5
D3C
330
A02
100
AcDbEntity
  8
Shape
100
AcDbLine
 10
100.736
 20
14.4461
 30
0
 11
100.232
 21
14.3929
 31
0
  0
LINE
  5
D3D
330
A02
100
AcDbEntity
  8
Shape
100
AcDbLine
 10
100.232
 20
14.3929
 30
0
 11
99.728
 21
14.3396
 31
0
  0
LINE
  5
D3E
330
A02
100
AcDbEntity
  8
Shape
100
AcDbLine
 10
99.728
 20
14.3396
 30
0
 11
99.224
 21
14.2861
 31
0
  0
LINE
  5
D3F
330
A02
100
AcDbEntity
  8
Shape
100
AcDbLine
 10
99.224
 20
14.2861
 30
0
 11
98.72
 21
14.2325
 31
0
  0
LINE
  5
D40
330
A02
100
AcDbEntity
  8
Shape
100
AcDbLine
 10
98.72
 20
14.2325
 30
0
 11
98.216
 21
14.1788
 31
0
  0
LINE
  5
D41
330
A02
100
AcDbEntity
  8
Shape
100
AcDbLine
 10
98.216
 20
14.1788
 30
0
 11
97.712
 21
14.1249
 31
0
  0
LINE
  5
D42
330
A02
100
AcDbEntity
  8
Shape
100
AcDbLine
 10
97.712
 20
14.1249
 30
0
 11
97.208
 21
14.0709
 31
0
  0
LINE
  5
D43
330
A02
100
AcDbEntity
  8
Shape
100
AcDbLine
 10
97.208
 20
14.0709
 30
0
 11
96.704
 21
14.0167
 31
0
  0
LINE
  5
D44
330
A02
100
AcDbEntity
  8
Shape
100
AcDbLine
 10
96.704
 20
14.0167
 30
0
 11
96.2
 21
13.9624
 31
0
  0
LINE
  5
D45
330
A02
100
AcDbEntity
  8
Shape
100
AcDbLine
 10
96.2
 20
13.9624
 30
0
 11
95.696
 21
13.908
 31
0
  0
LINE
  5
D46
330
A02
100
AcDbEntity
  8
Shape
100
AcDbLine
 10
95.696
 20
13.908
 30
0
 11
95.192
 21
13.8534
 31
0
  0
LINE
  5
D47
330
A02
100
AcDbEntity
  8
Shape
100
AcDbLine
 10
95.192
 20
13.8534
 30
0
 11
94.688
 21
13.7987
 31
0
  0
LINE
  5
D48
330
A02
100
AcDbEntity
  8
Shape
100
AcDbLine
 10
94.688
 20
13.7987
 30
0
 11
94.184
 21
13.7438
 31
0
  0
LINE
  5
D49
330
A02
100
AcDbEntity
  8
Shape
100
AcDbLine
 10
94.184
 20
13.7438
 30
0
 11
93.68
 21
13.6888
 31
0
  0
LINE
  5
D4A
330
A02
100
AcDbEntity
  8
Shape
100
AcDbLine
 10
93.68
 20
13.6888
 30
0
 11
93.176
 21
13.6337
 31
0
  0
LINE
  5
D4B
330
A02
100
AcDbEntity
  8
Shape
100
AcDbLine
 10
93.176
 20
13.6337
 30
0
 11
92.672
 21
13.5784
 31
0
  0
LINE
  5
D4C
330
A02
100
AcDbEntity
  8
Shape
100
AcDbLine
 10
92.672
 20
13.5784
 30
0
 11
92.168
 21
13.5229
 31
0
  0
LINE
  5
D4D
330
A02
100
AcDbEntity
  8
Shape
100
AcDbLine
 10
92.168
 20
13.5229
 30
0
 11
91.664
 21
13.4674
 31
0
  0
LINE
  5
D4E
330
A02
100
AcDbEntity
  8
Shape
100
AcDbLine
 10
91.664
 20
13.4674
 30
0
 11
91.16
 21
13.4116
 31
0
  0
LINE
  5
D4F
330
A02
100
AcDbEntity
  8
Shape
100
AcDbLine
 10
91.16
 20
13.4116
 30
0
 11
90.656
 21
13.3558
 31
0
  0
LINE
  5
D50
330
A02
100
AcDbEntity
  8
Shape
100
AcDbLine
 10
90.656
 20
13.3558
 30
0
 11
90.152
 21
13.2997
 31
0
  0
LINE
  5
D51
330
A02
100
AcDbEntity
  8
Shape
100
AcDbLine
 10
90.152
 20
13.2997
 30
0
 11
89.648
 21
13.2436
 31
0
  0
LINE
  5
D52
330
A02
100
AcDbEntity
  8
Shape
100
AcDbLine
 10
89.648
 20
13.2436
 30
0
 11
89.144
 21
13.1873
 31
0
  0
LINE
  5
D53
330
A02
100
AcDbEntity
  8
Shape
100
AcDbLine
 10
89.144
 20
13.1873
 30
0
 11
88.64
 21
13.1308
 31
0
  0
LINE
  5
D54
330
A02
100
AcDbEntity
  8
Shape
100
AcDbLine
 10
88.64
 20
13.1308
 30
0
 11
88.136
 21
13.0742
 31
0
  0
LINE
  5
D55
330
A02
100
AcDbEntity
  8
Shape
100
AcDbLine
 10
88.136
 20
13.0742
 30
0
 11
87.632
 21
13.0174
 31
0
  0
LINE
  5
D56
330
A02
100
AcDbEntity
  8
Shape
100
AcDbLine
 10
87.632
 20
13.0174
 30
0
 11
87.128
 21
12.9605
 31
0
  0
LINE
  5
D57
330
A02
100
AcDbEntity
  8
Shape
100
AcDbLine
 10
87.128
 20
12.9605
 30
0
 11
86.624
 21
12.9034
 31
0
  0
LINE
  5
D58
330
A02
100
AcDbEntity
  8
Shape
100
AcDbLine
 10
86.624
 20
12.9034
 30
0
 11
86.12
 21
12.8462
 31
0
  0
LINE
  5
D59
330
A02
100
AcDbEntity
  8
Shape
100
AcDbLine
 10
86.12
 20
12.8462
 30
0
 11
85.616
 21
12.7888
 31
0
  0
LINE
  5
D5A
330
A02
100
AcDbEntity
  8
Shape
100
AcDbLine
 10
85.616
 20
12.7888
 30
0
 11
85.112
 21
12.7313
 31
0
  0
LINE
  5
D5B
330
A02
100
AcDbEntity
  8
Shape
100
AcDbLine
 10
85.112
 20
12.7313
 30
0
 11
84.608
 21
12.6736
 31
0
  0
LINE
  5
D5C
330
A02
100
AcDbEntity
  8
Shape
100
AcDbLine
 10
84.608
 20
12.6736
 30
0
 11
84.104
 21
12.6158
 31
0
  0
LINE
  5
D5D
330
A02
100
AcDbEntity
  8
Shape
100
AcDbLine
 10
84.104
 20
12.6158
 30
0
 11
83.6
 21
12.5578
 31
0
  0
LINE
  5
D5E
330
A02
100
AcDbEntity
  8
Shape
100
AcDbLine
 10
83.6
 20
12.5578
 30
0
 11
83.096
 21
12.4996
 31
0
  0
LINE
  5
D5F
330
A02
100
AcDbEntity
  8
Shape
100
AcDbLine
 10
83.096
 20
12.4996
 30
0
 11
82.592
 21
12.4413
 31
0
  0
LINE
  5
D60
330
A02
100
AcDbEntity
  8
Shape
100
AcDbLine
 10
82.592
 20
12.4413
 30
0
 11
82.088
 21
12.3828
 31
0
  0
LINE
  5
D61
330
A02
100
AcDbEntity
  8
Shape
100
AcDbLine
 10
82.088
 20
12.3828
 30
0
 11
81.584
 21
12.3242
 31
0
  0
LINE
  5
D62
330
A02
100
AcDbEntity
  8
Shape
100
AcDbLine
 10
81.584
 20
12.3242
 30
0
 11
81.08
 21
12.2654
 31
0
  0
LINE
  5
D63
330
A02
100
AcDbEntity
  8
Shape
100
AcDbLine
 10
81.08
 20
12.2654
 30
0
 11
80.576
 21
12.2064
 31
0
  0
LINE
  5
D64
330
A02
100
AcDbEntity
  8
Shape
100
AcDbLine
 10
80.576
 20
12.2064
 30
0
 11
80.072
 21
12.1473
 31
0
  0
LINE
  5
D65
330
A02
100
AcDbEntity
  8
Shape
100
AcDbLine
 10
80.072
 20
12.1473
 30
0
 11
79.568
 21
12.088
 31
0
  0
LINE
  5
D66
330
A02
100
AcDbEntity
  8
Shape
100
AcDbLine
 10
79.568
 20
12.088
 30
0
 11
79.064
 21
12.0285
 31
0
  0
LINE
  5
D67
330
A02
100
AcDbEntity
  8
Shape
100
AcDbLine
 10
79.064
 20
12.0285
 30
0
 11
78.56
 21
11.9689
 31
0
  0
LINE
  5
D68
330
A02
100
AcDbEntity
  8
Shape
100
AcDbLine
 10
78.56
 20
11.9689
 30
0
 11
78.056
 21
11.9091
 31
0
  0
LINE
  5
D69
330
A02
100
AcDbEntity
  8
Shape
100
AcDbLine
 10
78.056
 20
11.9091
 30
0
 11
77.552
 21
11.8492
 31
0
  0
LINE
  5
D6A
330
A02
100
AcDbEntity
  8
Shape
100
AcDbLine
 10
77.552
 20
11.8492
 30
0
 11
77.048
 21
11.789
 31
0
  0
LINE
  5
D6B
330
A02
100
AcDbEntity
  8
Shape
100
AcDbLine
 10
77.048
 20
11.789
 30
0
 11
76.544
 21
11.7288
 31
0
  0
LINE
  5
D6C
330
A02
100
AcDbEntity
  8
Shape
100
AcDbLine
 10
76.544
 20
11.7288
 30
0
 11
76.04
 21
11.6683
 31
0
  0
LINE
  5
D6D
330
A02
100
AcDbEntity
  8
Shape
100
AcDbLine
 10
76.04
 20
11.6683
 30
0
 11
75.536
 21
11.6076
 31
0
  0
LINE
  5
D6E
330
A02
100
AcDbEntity
  8
Shape
100
AcDbLine
 10
75.536
 20
11.6076
 30
0
 11
75.032
 21
11.5468
 31
0
  0
LINE
  5
D6F
330
A02
100
AcDbEntity
  8
Shape
100
AcDbLine
 10
75.032
 20
11.5468
 30
0
 11
74.528
 21
11.4858
 31
0
  0
LINE
  5
D70
330
A02
100
AcDbEntity
  8
Shape
100
AcDbLine
 10
74.528
 20
11.4858
 30
0
 11
74.024
 21
11.4247
 31
0
  0
LINE
  5
D71
330
A02
100
AcDbEntity
  8
Shape
100
AcDbLine
 10
74.024
 20
11.4247
 30
0
 11
73.52
 21
11.3633
 31
0
  0
LINE
  5
D72
330
A02
100
AcDbEntity
  8
Shape
100
AcDbLine
 10
73.52
 20
11.3633
 30
0
 11
73.016
 21
11.3018
 31
0
  0
LINE
  5
D73
330
A02
100
AcDbEntity
  8
Shape
100
AcDbLine
 10
73.016
 20
11.3018
 30
0
 11
72.512
 21
11.2401
 31
0
  0
LINE
  5
D74
330
A02
100
AcDbEntity
  8
Shape
100
AcDbLine
 10
72.512
 20
11.2401
 30
0
 11
72.008
 21
11.1782
 31
0
  0
LINE
  5
D75
330
A02
100
AcDbEntity
  8
Shape
100
AcDbLine
 10
72.008
 20
11.1782
 30
0
 11
71.504
 21
11.1161
 31
0
  0
LINE
  5
D76
330
A02
100
AcDbEntity
  8
Shape
100
AcDbLine
 10
71.504
 20
11.1161
 30
0
 11
71
 21
11.0539
 31
0
  0
LINE
  5
D77
330
A02
100
AcDbEntity
  8
Shape
100
AcDbLine
 10
71
 20
11.0539
 30
0
 11
70.496
 21
10.9914
 31
0
  0
LINE
  5
D78
330
A02
100
AcDbEntity
  8
Shape
100
AcDbLine
 10
70.496
 20
10.9914
 30
0
 11
69.992
 21
10.9288
 31
0
  0
LINE
  5
D79
330
A02
100
AcDbEntity
  8
Shape
100
AcDbLine
 10
69.992
 20
10.9288
 30
0
 11
69.488
 21
10.866
 31
0
  0
LINE
  5
D7A
330
A02
100
AcDbEntity
  8
Shape
100
AcDbLine
 10
69.488
 20
10.866
 30
0
 11
68.984
 21
10.803
 31
0
  0
LINE
  5
D7B
330
A02
100
AcDbEntity
  8
Shape
100
AcDbLine
 10
68.984
 20
10.803
 30
0
 11
68.48
 21
10.7398
 31
0
  0
LINE
  5
D7C
330
A02
100
AcDbEntity
  8
Shape
100
AcDbLine
 10
68.48
 20
10.7398
 30
0
 11
67.976
 21
10.6764
 31
0
  0
LINE
  5
D7D
330
A02
100
AcDbEntity
  8
Shape
100
AcDbLine
 10
67.976
 20
10.6764
 30
0
 11
67.472
 21
10.6128
 31
0
  0
LINE
  5
D7E
330
A02
100
AcDbEntity
  8
Shape
100
AcDbLine
 10
67.472
 20
10.6128
 30
0
 11
66.968
 21
10.5491
 31
0
  0
LINE
  5
D7F
330
A02
100
AcDbEntity
  8
Shape
100
AcDbLine
 10
66.968
 20
10.5491
 30
0
 11
66.464
 21
10.4851
 31
0
  0
LINE
  5
D80
330
A02
100
AcDbEntity
  8
Shape
100
AcDbLine
 10
66.464
 20
10.4851
 30
0
 11
65.96
 21
10.4209
 31
0
  0
LINE
  5
D81
330
A02
100
AcDbEntity
  8
Shape
100
AcDbLine
 10
65.96
 20
10.4209
 30
0
 11
65.456
 21
10.3565
 31
0
  0
LINE
  5
D82
330
A02
100
AcDbEntity
  8
Shape
100
AcDbLine
 10
65.456
 20
10.3565
 30
0
 11
64.952
 21
10.292
 31
0
  0
LINE
  5
D83
330
A02
100
AcDbEntity
  8
Shape
100
AcDbLine
 10
64.952
 20
10.292
 30
0
 11
64.448
 21
10.2272
 31
0
  0
LINE
  5
D84
330
A02
100
AcDbEntity
  8
Shape
100
AcDbLine
 10
64.448
 20
10.2272
 30
0
 11
63.944
 21
10.1622
 31
0
  0
LINE
  5
D85
330
A02
100
AcDbEntity
  8
Shape
100
AcDbLine
 10
63.944
 20
10.1622
 30
0
 11
63.44
 21
10.097
 31
0
  0
LINE
  5
D86
330
A02
100
AcDbEntity
  8
Shape
100
AcDbLine
 10
63.44
 20
10.097
 30
0
 11
62.936
 21
10.0316
 31
0
  0
LINE
  5
D87
330
A02
100
AcDbEntity
  8
Shape
100
AcDbLine
 10
62.936
 20
10.0316
 30
0
 11
62.432
 21
9.966
 31
0
  0
LINE
  5
D88
330
A02
100
AcDbEntity
  8
Shape
100
AcDbLine
 10
62.432
 20
9.966
 30
0
 11
61.928
 21
9.90017
 31
0
  0
LINE
  5
D89
330
A02
100
AcDbEntity
  8
Shape
100
AcDbLine
 10
61.928
 20
9.90017
 30
0
 11
61.424
 21
9.83413
 31
0
  0
LINE
  5
D8A
330
A02
100
AcDbEntity
  8
Shape
100
AcDbLine
 10
61.424
 20
9.83413
 30
0
 11
60.92
 21
9.76788
 31
0
  0
LINE
  5
D8B
330
A02
100
AcDbEntity
  8
Shape
100
AcDbLine
 10
60.92
 20
9.76788
 30
0
 11
60.416
 21
9.7014
 31
0
  0
LINE
  5
D8C
330
A02
100
AcDbEntity
  8
Shape
100
AcDbLine
 10
60.416
 20
9.7014
 30
0
 11
59.912
 21
9.6347
 31
0
  0
LINE
  5
D8D
330
A02
100
AcDbEntity
  8
Shape
100
AcDbLine
 10
59.912
 20
9.6347
 30
0
 11
59.408
 21
9.56779
 31
0
  0
LINE
  5
D8E
330
A02
100
AcDbEntity
  8
Shape
100
AcDbLine
 10
59.408
 20
9.56779
 30
0
 11
58.904
 21
9.50064
 31
0
  0
LINE
  5
D8F
330
A02
100
AcDbEntity
  8
Shape
100
AcDbLine
 10
58.904
 20
9.50064
 30
0
 11
58.4
 21
9.43327
 31
0
  0
LINE
  5
D90
330
A02
100
AcDbEntity
  8
Shape
100
AcDbLine
 10
58.4
 20
9.43327
 30
0
 11
57.896
 21
9.36567
 31
0
  0
LINE
  5
D91
330
A02
100
AcDbEntity
  8
Shape
100
AcDbLine
 10
57.896
 20
9.36567
 30
0
 11
57.392
 21
9.29783
 31
0
  0
LINE
  5
D92
330
A02
100
AcDbEntity
  8
Shape
100
AcDbLine
 10
57.392
 20
9.29783
 30
0
 11
56.888
 21
9.22976
 31
0
  0
LINE
  5
D93
330
A02
100
AcDbEntity
  8
Shape
100
AcDbLine
 10
56.888
 20
9.22976
 30
0
 11
56.384
 21
9.16146
 31
0
  0
LINE
  5
D94
330
A02
100
AcDbEntity
  8
Shape
100
AcDbLine
 10
56.384
 20
9.16146
 30
0
 11
55.88
 21
9.09291
 31
0
  0
LINE
  5
D95
330
A02
100
AcDbEntity
  8
Shape
100
AcDbLine
 10
55.88
 20
9.09291
 30
0
 11
55.376
 21
9.02413
 31
0
  0
LINE
  5
D96
330
A02
100
AcDbEntity
  8
Shape
100
AcDbLine
 10
55.376
 20
9.02413
 30
0
 11
54.872
 21
8.9551
 31
0
  0
LINE
  5
D97
330
A02
100
AcDbEntity
  8
Shape
100
AcDbLine
 10
54.872
 20
8.9551
 30
0
 11
54.368
 21
8.88582
 31
0
  0
LINE
  5
D98
330
A02
100
AcDbEntity
  8
Shape
100
AcDbLine
 10
54.368
 20
8.88582
 30
0
 11
53.864
 21
8.81629
 31
0
  0
LINE
  5
D99
330
A02
100
AcDbEntity
  8
Shape
100
AcDbLine
 10
53.864
 20
8.81629
 30
0
 11
53.36
 21
8.74651
 31
0
  0
LINE
  5
D9A
330
A02
100
AcDbEntity
  8
Shape
100
AcDbLine
 10
53.36
 20
8.74651
 30
0
 11
52.856
 21
8.67647
 31
0
  0
LINE
  5
D9B
330
A02
100
AcDbEntity
  8
Shape
100
AcDbLine
 10
52.856
 20
8.67647
 30
0
 11
52.352
 21
8.60618
 31
0
  0
LINE
  5
D9C
330
A02
100
AcDbEntity
  8
Shape
100
AcDbLine
 10
52.352
 20
8.60618
 30
0
 11
51.848
 21
8.53562
 31
0
  0
LINE
  5
D9D
330
A02
100
AcDbEntity
  8
Shape
100
AcDbLine
 10
51.848
 20
8.53562
 30
0
 11
51.344
 21
8.4648
 31
0
  0
LINE
  5
D9E
330
A02
100
AcDbEntity
  8
Shape
100
AcDbLine
 10
51.344
 20
8.4648
 30
0
 11
50.84
 21
8.39371
 31
0
  0
LINE
  5
D9F
330
A02
100
AcDbEntity
  8
Shape
100
AcDbLine
 10
50.84
 20
8.39371
 30
0
 11
50.336
 21
8.32235
 31
0
  0
LINE
  5
DA0
330
A02
100
AcDbEntity
  8
Shape
100
AcDbLine
 10
50.336
 20
8.32235
 30
0
 11
49.832
 21
8.25071
 31
0
  0
LINE
  5
DA1
330
A02
100
AcDbEntity
  8
Shape
100
AcDbLine
 10
49.832
 20
8.25071
 30
0
 11
49.328
 21
8.1788
 31
0
  0
LINE
  5
DA2
330
A02
100
AcDbEntity
  8
Shape
100
AcDbLine
 10
49.328
 20
8.1788
 30
0
 11
48.824
 21
8.10661
 31
0
  0
LINE
  5
DA3
330
A02
100
AcDbEntity
  8
Shape
100
AcDbLine
 10
48.824
 20
8.10661
 30
0
 11
48.32
 21
8.03413
 31
0
  0
LINE
  5
DA4
330
A02
100
AcDbEntity
  8
Shape
100
AcDbLine
 10
48.32
 20
8.03413
 30
0
 11
47.816
 21
7.96136
 31
0
  0
LINE
  5
DA5
330
A02
100
AcDbEntity
  8
Shape
100
AcDbLine
 10
47.816
 20
7.96136
 30
0
 11
47.312
 21
7.88829
 31
0
  0
LINE
  5
DA6
330
A02
100
AcDbEntity
  8
Shape
100
AcDbLine
 10
47.312
 20
7.88829
 30
0
 11
46.808
 21
7.81493
 31
0
  0
LINE
  5
DA7
330
A02
100
AcDbEntity
  8
Shape
100
AcDbLine
 10
46.808
 20
7.81493
 30
0
 11
46.304
 21
7.74127
 31
0
  0
LINE
  5
DA8
330
A02
100
AcDbEntity
  8
Shape
100
AcDbLine
 10
46.304
 20
7.74127
 30
0
 11
45.8
 21
7.66731
 31
0
  0
LINE
  5
DA9
330
A02
100
AcDbEntity
  8
Shape
100
AcDbLine
 10
45.8
 20
7.66731
 30
0
 11
45.296
 21
7.59303
 31
0
  0
LINE
  5
DAA
330
A02
100
AcDbEntity
  8
Shape
100
AcDbLine
 10
45.296
 20
7.59303
 30
0
 11
44.792
 21
7.51844
 31
0
  0
LINE
  5
DAB
330
A02
100
AcDbEntity
  8
Shape
100
AcDbLine
 10
44.792
 20
7.51844
 30
0
 11
44.288
 21
7.44354
 31
0
  0
LINE
  5
DAC
330
A02
100
AcDbEntity
  8
Shape
100
AcDbLine
 10
44.288
 20
7.44354
 30
0
 11
43.784
 21
7.36831
 31
0
  0
LINE
  5
DAD
330
A02
100
AcDbEntity
  8
Shape
100
AcDbLine
 10
43.784
 20
7.36831
 30
0
 11
43.28
 21
7.29275
 31
0
  0
LINE
  5
DAE
330
A02
100
AcDbEntity
  8
Shape
100
AcDbLine
 10
43.28
 20
7.29275
 30
0
 11
42.776
 21
7.21685
 31
0
  0
LINE
  5
DAF
330
A02
100
AcDbEntity
  8
Shape
100
AcDbLine
 10
42.776
 20
7.21685
 30
0
 11
42.272
 21
7.14062
 31
0
  0
LINE
  5
DB0
330
A02
100
AcDbEntity
  8
Shape
100
AcDbLine
 10
42.272
 20
7.14062
 30
0
 11
41.768
 21
7.06405
 31
0
  0
LINE
  5
DB1
330
A02
100
AcDbEntity
  8
Shape
100
AcDbLine
 10
41.768
 20
7.06405
 30
0
 11
41.264
 21
6.98712
 31
0
  0
LINE
  5
DB2
330
A02
100
AcDbEntity
  8
Shape
100
AcDbLine
 10
41.264
 20
6.98712
 30
0
 11
40.76
 21
6.90984
 31
0
  0
LINE
  5
DB3
330
A02
100
AcDbEntity
  8
Shape
100
AcDbLine
 10
40.76
 20
6.90984
 30
0
 11
40.256
 21
6.8322
 31
0
  0
LINE
  5
DB4
330
A02
100
AcDbEntity
  8
Shape
100
AcDbLine
 10
40.256
 20
6.8322
 30
0
 11
39.752
 21
6.75418
 31
0
  0
LINE
  5
DB5
330
A02
100
AcDbEntity
  8
Shape
100
AcDbLine
 10
39.752
 20
6.75418
 30
0
 11
39.248
 21
6.6758
 31
0
  0
LINE
  5
DB6
330
A02
100
AcDbEntity
  8
Shape
100
AcDbLine
 10
39.248
 20
6.6758
 30
0
 11
38.744
 21
6.59703
 31
0
  0
LINE
  5
DB7
330
A02
100
AcDbEntity
  8
Shape
100
AcDbLine
 10
38.744
 20
6.59703
 30
0
 11
38.24
 21
6.51788
 31
0
  0
LINE
  5
DB8
330
A02
100
AcDbEntity
  8
Shape
100
AcDbLine
 10
38.24
 20
6.51788
 30
0
 11
37.736
 21
6.43833
 31
0
  0
LINE
  5
DB9
330
A02
100
AcDbEntity
  8
Shape
100
AcDbLine
 10
37.736
 20
6.43833
 30
0
 11
37.232
 21
6.35838
 31
0
  0
LINE
  5
DBA
330
A02
100
AcDbEntity
  8
Shape
100
AcDbLine
 10
37.232
 20
6.35838
 30
0
 11
36.728
 21
6.27802
 31
0
  0
LINE
  5
DBB
330
A02
100
AcDbEntity
  8
Shape
100
AcDbLine
 10
36.728
 20
6.27802
 30
0
 11
36.224
 21
6.19724
 31
0
  0
LINE
  5
DBC
330
A02
100
AcDbEntity
  8
Shape
100
AcDbLine
 10
36.224
 20
6.19724
 30
0
 11
35.72
 21
6.11604
 31
0
  0
LINE
  5
DBD
330
A02
100
AcDbEntity
  8
Shape
100
AcDbLine
 10
35.72
 20
6.11604
 30
0
 11
35.216
 21
6.03439
 31
0
  0
LINE
  5
DBE
330
A02
100
AcDbEntity
  8
Shape
100
AcDbLine
 10
35.216
 20
6.03439
 30
0
 11
34.712
 21
5.95231
 31
0
  0
LINE
  5
DBF
330
A02
100
AcDbEntity
  8
Shape
100
AcDbLine
 10
34.712
 20
5.95231
 30
0
 11
34.208
 21
5.86977
 31
0
  0
LINE
  5
DC0
330
A02
100
AcDbEntity
  8
Shape
100
AcDbLine
 10
34.208
 20
5.86977
 30
0
 11
33.704
 21
5.78677
 31
0
  0
LINE
  5
DC1
330
A02
100
AcDbEntity
  8
Shape
100
AcDbLine
 10
33.704
 20
5.78677
 30
0
 11
33.2
 21
5.70329
 31
0
  0
LINE
  5
DC2
330
A02
100
AcDbEntity
  8
Shape
100
AcDbLine
 10
33.2
 20
5.70329
 30
0
 11
32.696
 21
5.61933
 31
0
  0
LINE
  5
DC3
330
A02
100
AcDbEntity
  8
Shape
100
AcDbLine
 10
32.696
 20
5.61933
 30
0
 11
32.192
 21
5.53487
 31
0
  0
LINE
  5
DC4
330
A02
100
AcDbEntity
  8
Shape
100
AcDbLine
 10
32.192
 20
5.53487
 30
0
 11
31.688
 21
5.4499
 31
0
  0
LINE
  5
DC5
330
A02
100
AcDbEntity
  8
Shape
100
AcDbLine
 10
31.688
 20
5.4499
 30
0
 11
31.184
 21
5.36442
 31
0
  0
LINE
  5
DC6
330
A02
100
AcDbEntity
  8
Shape
100
AcDbLine
 10
31.184
 20
5.36442
 30
0
 11
30.68
 21
5.2784
 31
0
  0
LINE
  5
DC7
330
A02
100
AcDbEntity
  8
Shape
100
AcDbLine
 10
30.68
 20
5.2784
 30
0
 11
30.176
 21
5.19183
 31
0
  0
LINE
  5
DC8
330
A02
100
AcDbEntity
  8
Shape
100
AcDbLine
 10
30.176
 20
5.19183
 30
0
 11
29.672
 21
5.10471
 31
0
  0
LINE
  5
DC9
330
A02
100
AcDbEntity
  8
Shape
100
AcDbLine
 10
29.672
 20
5.10471
 30
0
 11
29.168
 21
5.01701
 31
0
  0
LINE
  5
DCA
330
A02
100
AcDbEntity
  8
Shape
100
AcDbLine
 10
29.168
 20
5.01701
 30
0
 11
28.664
 21
4.92871
 31
0
  0
LINE
  5
DCB
330
A02
100
AcDbEntity
  8
Shape
100
AcDbLine
 10
28.664
 20
4.92871
 30
0
 11
28.16
 21
4.83981
 31
0
  0
LINE
  5
DCC
330
A02
100
AcDbEntity
  8
Shape
100
AcDbLine
 10
28.16
 20
4.83981
 30
0
 11
27.656
 21
4.75028
 31
0
  0
LINE
  5
DCD
330
A02
100
AcDbEntity
  8
Shape
100
AcDbLine
 10
27.656
 20
4.75028
 30
0
 11
27.152
 21
4.6601
 31
0
  0
LINE
  5
DCE
330
A02
100
AcDbEntity
  8
Shape
100
AcDbLine
 10
27.152
 20
4.6601
 30
0
 11
26.648
 21
4.56926
 31
0
  0
LINE
  5
DCF
330
A02
100
AcDbEntity
  8
Shape
100
AcDbLine
 10
26.648
 20
4.56926
 30
0
 11
26.144
 21
4.47774
 31
0
  0
LINE
  5
DD0
330
A02
100
AcDbEntity
  8
Shape
100
AcDbLine
 10
26.144
 20
4.47774
 30
0
 11
25.64
 21
4.3855
 31
0
  0
LINE
  5
DD1
330
A02
100
AcDbEntity
  8
Shape
100
AcDbLine
 10
25.64
 20
4.3855
 30
0
 11
25.136
 21
4.29254
 31
0
  0
LINE
  5
DD2
330
A02
100
AcDbEntity
  8
Shape
100
AcDbLine
 10
25.136
 20
4.29254
 30
0
 11
24.632
 21
4.19881
 31
0
  0
LINE
  5
DD3
330
A02
100
AcDbEntity
  8
Shape
100
AcDbLine
 10
24.632
 20
4.19881
 30
0
 11
24.128
 21
4.10431
 31
0
  0
LINE
  5
DD4
330
A02
100
AcDbEntity
  8
Shape
100
AcDbLine
 10
24.128
 20
4.10431
 30
0
 11
23.624
 21
4.00899
 31
0
  0
LINE
  5
DD5
330
A02
100
AcDbEntity
  8
Shape
100
AcDbLine
 10
23.624
 20
4.00899
 30
0
 11
23.12
 21
3.91282
 31
0
  0
LINE
  5
DD6
330
A02
100
AcDbEntity
  8
Shape
100
AcDbLine
 10
23.12
 20
3.91282
 30
0
 11
22.616
 21
3.81578
 31
0
  0
LINE
  5
DD7
330
A02
100
AcDbEntity
  8
Shape
100
AcDbLine
 10
22.616
 20
3.81578
 30
0
 11
22.112
 21
3.71782
 31
0
  0
LINE
  5
DD8
330
A02
100
AcDbEntity
  8
Shape
100
AcDbLine
 10
22.112
 20
3.71782
 30
0
 11
21.608
 21
3.61891
 31
0
  0
LINE
  5
DD9
330
A02
100
AcDbEntity
  8
Shape
100
AcDbLine
 10
21.608
 20
3.61891
 30
0
 11
21.104
 21
3.51901
 31
0
  0
LINE
  5
DDA
330
A02
100
AcDbEntity
  8
Shape
100
AcDbLine
 10
21.104
 20
3.51901
 30
0
 11
20.6
 21
3.41806
 31
0
  0
LINE
  5
DDB
330
A02
100
AcDbEntity
  8
Shape
100
AcDbLine
 10
20.6
 20
3.41806
 30
0
 11
20.096
 21
3.31603
 31
0
  0
LINE
  5
DDC
330
A02
100
AcDbEntity
  8
Shape
100
AcDbLine
 10
20.096
 20
3.31603
 30
0
 11
19.592
 21
3.21285
 31
0
  0
LINE
  5
DDD
330
A02
100
AcDbEntity
  8
Shape
100
AcDbLine
 10
19.592
 20
3.21285
 30
0
 11
19.088
 21
3.10846
 31
0
  0
LINE
  5
DDE
330
A02
100
AcDbEntity
  8
Shape
100
AcDbLine
 10
19.088
 20
3.10846
 30
0
 11
18.584
 21
3.0028
 31
0
  0
LINE
  5
DDF
330
A02
100
AcDbEntity
  8
Shape
100
AcDbLine
 10
18.584
 20
3.0028
 30
0
 11
18.08
 21
2.8958
 31
0
  0
LINE
  5
DE0
330
A02
100
AcDbEntity
  8
Shape
100
AcDbLine
 10
18.08
 20
2.8958
 30
0
 11
17.576
 21
2.78737
 31
0
  0
LINE
  5
DE1
330
A02
100
AcDbEntity
  8
Shape
100
AcDbLine
 10
17.576
 20
2.78737
 30
0
 11
17.072
 21
2.67743
 31
0
  0
LINE
  5
DE2
330
A02
100
AcDbEntity
  8
Shape
100
AcDbLine
 10
17.072
 20
2.67743
 30
0
 11
16.568
 21
2.56586
 31
0
  0
LINE
  5
DE3
330
A02
100
AcDbEntity
  8
Shape
100
AcDbLine
 10
16.568
 20
2.56586
 30
0
 11
16.064
 21
2.45256
 31
0
  0
LINE
  5
DE4
330
A02
100
AcDbEntity
  8
Shape
100
AcDbLine
 10
16.064
 20
2.45256
 30
0
 11
15.56
 21
2.33739
 31
0
  0
LINE
  5
DE5
330
A02
100
AcDbEntity
  8
Shape
100
AcDbLine
 10
15.56
 20
2.33739
 30
0
 11
15.056
 21
2.2202
 31
0
  0
LINE
  5
DE6
330
A02
100
AcDbEntity
  8
Shape
100
AcDbLine
 10
15.056
 20
2.2202
 30
0
 11
14.552
 21
2.10081
 31
0
  0
LINE
  5
DE7
330
A02
100
AcDbEntity
  8
Shape
100
AcDbLine
 10
14.552
 20
2.10081
 30
0
 11
14.048
 21
1.97901
 31
0
  0
LINE
  5
DE8
330
A02
100
AcDbEntity
  8
Shape
100
AcDbLine
 10
14.048
 20
1.97901
 30
0
 11
13.544
 21
1.85455
 31
0
  0
LINE
  5
DE9
330
A02
100
AcDbEntity
  8
Shape
100
AcDbLine
 10
13.544
 20
1.85455
 30
0
 11
13.04
 21
1.72713
 31
0
  0
LINE
  5
DEA
330
A02
100
AcDbEntity
  8
Shape
100
AcDbLine
 10
13.04
 20
1.72713
 30
0
 11
12.536
 21
1.59639
 31
0
  0
LINE
  5
DEB
330
A02
100
AcDbEntity
  8
Shape
100
AcDbLine
 10
12.536
 20
1.59639
 30
0
 11
12.032
 21
1.46186
 31
0
  0
LINE
  5
DEC
330
A02
100
AcDbEntity
  8
Shape
100
AcDbLine
 10
12.032
 20
1.46186
 30
0
 11
11.528
 21
1.32295
 31
0
  0
LINE
  5
DED
330
A02
100
AcDbEntity
  8
Shape
100
AcDbLine
 10
11.528
 20
1.32295
 30
0
 11
11.024
 21
1.17887
 31
0
  0
LINE
  5
DEE
330
A02
100
AcDbEntity
  8
Shape
100
AcDbLine
 10
11.024
 20
1.17887
 30
0
 11
10.52
 21
1.02852
 31
0
  0
LINE
  5
DEF
330
A02
100
AcDbEntity
  8
Shape
100
AcDbLine
 10
10.52
 20
1.02852
 30
0
 11
10.016
 21
0.870281
 31
0
  0
LINE
  5
DF0
330
A02
100
AcDbEntity
  8
Shape
100
AcDbLine
 10
10.016
 20
0.870281
 30
0
 11
9.512
 21
0.701595
 31
0
  0
LINE
  5
DF1
330
A02
100
AcDbEntity
  8
Shape
100
AcDbLine
 10
9.512
 20
0.701595
 30
0
 11
9.008
 21
0.517784
 31
0
  0
LINE
  5
DF2
330
A02
100
AcDbEntity
  8
Shape
100
AcDbLine
 10
9.008
 20
0.517784
 30
0
 11
8.504
 21
0.307969
 31
0
  0
LINE
  5
DF3
330
A02
100
AcDbEntity
  8
Shape
100
AcDbLine
 10
8.504
 20
0.307969
 30
0
 11
8
 21
0
 31
0
  0
LINE
  5
DF4
330
A02
100
AcDbEntity
  8
Shape
100
AcDbLine
 10
8
 20
0
 30
0
 11
0
 21
0
 31
0
  0
ENDSEC
  0
SECTION
  2
OBJECTS
  0
DICTIONARY
  5
F000
330
0
100
AcDbDictionary
  3
ACAD_GROUP
350
F001
  0
DICTIONARY
  5
F001
330
F000
100
AcDbDictionary
  0
ENDSEC
  0
EOF