999
FreeCAD v0.19 24291 (Git)
  0
SECTION
  2
HEADER
  9
$ACADVER
  1
AC1014
  9
$ACADMAINTVER
 70
     9
  9
$DWGCODEPAGE
  3
ANSI_1252
  9
$TEXTSTYLE
  7
STANDARD
  9
$DIMSTYLE
  2
STANDARD
  9
$DIMTXSTY
  7
STANDARD
  9
$CMLSTYLE
  2
STANDARD
  9
$PEXTMAX
 10
50
 20
50
 30
50
  9
$PEXTMIN
 10
0
 20
0
 30
0
  9
$HANDSEED
  5
FFFF
  0
ENDSEC
  0
SECTION
  2
CLASSES
  0
CLASS
  1
ACDBDICTIONARYWDFLT
  2
AcDbDictionaryWithDefault
  3
ObjectDBX Classes
 90
        0
280
     0
281
     0
  0
CLASS
  1
XRECORD
  2
AcDbXrecord
  3
ObjectDBX Classes
 90
        0
280
     0
281
     0
  0
CLASS
  1
LWPOLYLINE
  2
AcDbPolyline
  3
ObjectDBX Classes
 90
        0
280
     0
281
     1
  0
ENDSEC
  0
SECTION
  2
TABLES
  0
TABLE
  2
VPORT
  5
20
330
0
100
AcDbSymbolTable
 70
     1
  0
VPORT
  5
21
330
20
100
AcDbSymbolTableRecord
100
AcDbViewportTableRecord
  2
*ACTIVE
 70
     0
  0
ENDTAB
  0
TABLE
  2
LTYPE
  5
22
330
0
100
AcDbSymbolTable
 70
     1
  0
LTYPE
  5
23
330
21
100
AcDbSymbolTableRecord
100
AcDbLinetypeTableRecord
  2
BYBLOCK
 70
     0
  3

 72
    65
 73
     0
 40
0.0
  0
LTYPE
  5
24
330
21
100
AcDbSymbolTableRecord
100
AcDbLinetypeTableRecord
  2
BYLAYER
 70
     0
  3

 72
    65
 73
     0
 40
0.0
  0
LTYPE
  5
25
330
21
100
AcDbSymbolTableRecord
100
AcDbLinetypeTableRecord
  2
CONTINUOUS
 70
     0
  3
Solid line
 72
    65
 73
     0
 40
0.0
  0
ENDTAB
  0
TABLE
  2
LAYER
  5
DF5
330
0
100
AcDbSymbolTable
 70
3
  0
LAYER
  5
DF6
330
DF5
100
AcDbSymbolTableRecord
100
AcDbLayerTableRecord
  2
0
 70
   0
 62
   7
  6
CONTINUOUS
  0
LAYER
  5
DF7
330
DF5
100
AcDbSymbolTableRecord
100
AcDbLayerTableRecord
  2
none
 70
    0
 62
    7
  6
CONTINUOUS
  0
LAYER
  5
DF8
330
DF5
100
AcDbSymbolTableRecord
100
AcDbLayerTableRecord
  2
Shape
 70
    0
 62
    7
  6
CONTINUOUS
  0
ENDTAB
  0
TABLE
  2
STYLE
  5
70
330
0
100
AcDbSymbolTable
 70
     2
  0
STYLE
  5
71
330
70
100
AcDbSymbolTableRecord
100
AcDbTextStyleTableRecord
  2
STANDARD
 70
     0
 40
0.0
 41
1.0
 50
0.0
 71
     0
 42
2.5
  3
arial.ttf
  4

  0
STYLE
  5
72
330
70
100
AcDbSymbolTableRecord
100
AcDbTextStyleTableRecord
  2
ANNOTATIVE
 70
     0
 40
0.0
 41
1.0
 50
0.0
 71
     0
 42
2.5
  3
arial.ttf
  4

  0
ENDTAB
  0
TABLE
  2
VIEW
  5
73
330
0
100
AcDbSymbolTable
 70
     0
  0
ENDTAB
  0
TABLE
  2
UCS
  5
74
330
0
100
AcDbSymbolTable
 70
     0
  0
ENDTAB
  0
TABLE
  2
APPID
  5
75
330
0
100
AcDbSymbolTable
 70
     2
  0
APPID
  5
76
330
75
100
AcDbSymbolTableRecord
100
AcDbRegAppTableRecord
  2
ACAD
 70
     0
  0
APPID
  5
77
330
75
100
AcDbSymbolTableRecord
100
AcDbRegAppTableRecord
  2
ACADANNOTATIVE
 70
     0
  0
ENDTAB
  0
TABLE
  2
DIMSTYLE
  5
78
330
0
100
AcDbSymbolTable
 70
     2
  0
DIMSTYLE
105
79
330
78
100
AcDbSymbolTableRecord
100
AcDbDimStyleTableRecord
  2
STANDARD
 70
     0
  3

  4

  5

  6

  7

 40
0.0
 41
2.5
 42
0.625
 43
3.75
 44
1.25
 45
0.0
 46
0.0
 47
0.0
 48
0.0
140
2.5
141
2.5
142
0.0
143
0.03937007874016
144
1.0
145
0.0
146
1.0
147
0.625
 71
     0
 72
     0
 73
     0
 74
     0
 75
     0
 76
     0
 77
     1
 78
     8
170
     0
171
     3
172
     1
173
     0
174
     0
175
     0
176
     0
177
     0
178
     0
270
     2
271
     2
272
     2
273
     2
274
     3
340
71
275
     0
280
     0
281
     0
282
     0
283
     0
284
     8
285
     0
286
     0
287
     3
288
     0
  0
ENDTAB
  0
TABLE
  2
BLOCK_RECORD
  5
A01
330
0
100
AcDbSymbolTable
  70
5
  0
BLOCK_RECORD
  5
A02
330
A01
100
AcDbSymbolTableRecord
100
AcDbBlockTableRecord
  2
*MODEL_SPACE
  0
BLOCK_RECORD
  5
A03
330
A01
100
AcDbSymbolTableRecord
100
AcDbBlockTableRecord
  2
*PAPER_SPACE
  0
ENDTAB
  0
ENDSEC
  0
SECTION
  2
BLOCKS
  0
BLOCK
  5
A04
330
A02
100
AcDbEntity
  8
0
100
AcDbBlockBegin
  2
*MODEL_SPACE
 70
   0
 10
0
 20
0
 30
0
  3
*MODEL_SPACE
  1
 
  0
ENDBLK
  5
A05
330
A02
100
AcDbEntity
  8
0
100
AcDbBlockEnd
  0
BLOCK
  5
A06
330
A03
100
AcDbEntity
 67
1
  8
0
100
AcDbBlockBegin
  2
*PAPER_SPACE
 70
   0
 10
0
 20
0
 30
0
  3
*PAPER_SPACE
  1
 
  0
ENDBLK
  5
A07
330
A03
100
AcDbEntity
 67
    1
  8
0
100
AcDbBlockEnd
  0
ENDSEC
  0
SECTION
  2
ENTITIES
  0
LINE
  5
A08
330
A02
100
AcDbEntity
  8
Shape
100
AcDbLine
 10
0
 20
0
 30
0
 11
0.5
 21
0.332606
 31
0
  0
LINE
  5
A09
330
A02
100
AcDbEntity
  8
Shape
100
AcDbLine
 10
0.5
 20
0.332606
 30
0
 11
1
 21
0.559207
 31
0
  0
LINE
  5
A0A
330
A02
100
AcDbEntity
  8
Shape
100
AcDbLine
 10
1
 20
0.559207
 30
0
 11
1.5
 21
0.757722
 31
0
  0
LINE
  5
A0B
330
A02
100
AcDbEntity
  8
Shape
100
AcDbLine
 10
1.5
 20
0.757722
 30
0
 11
2
 21
0.939903
 31
0
  0
LINE
  5
A0C
330
A02
100
AcDbEntity
  8
Shape
100
AcDbLine
 10
2
 20
0.939903
 30
0
 11
2.5
 21
1.1108
 31
0
  0
LINE
  5
A0D
330
A02
100
AcDbEntity
  8
Shape
100
AcDbLine
 10
2.5
 20
1.1108
 30
0
 11
3
 21
1.27318
 31
0
  0
LINE
  5
A0E
330
A02
100
AcDbEntity
  8
Shape
100
AcDbLine
 10
3
 20
1.27318
 30
0
 11
3.5
 21
1.42879
 31
0
  0
LINE
  5
A0F
330
A02
100
AcDbEntity
  8
Shape
100
AcDbLine
 10
3.5
 20
1.42879
 30
0
 11
4
 21
1.57881
 31
0
  0
LINE
  5
A10
330
A02
100
AcDbEntity
  8
Shape
100
AcDbLine
 10
4
 20
1.57881
 30
0
 11
4.5
 21
1.7241
 31
0
  0
LINE
  5
A11
330
A02
100
AcDbEntity
  8
Shape
100
AcDbLine
 10
4.5
 20
1.7241
 30
0
 11
5
 21
1.8653
 31
0
  0
LINE
  5
A12
330
A02
100
AcDbEntity
  8
Shape
100
AcDbLine
 10
5
 20
1.8653
 30
0
 11
5.5
 21
2.00291
 31
0
  0
LINE
  5
A13
330
A02
100
AcDbEntity
  8
Shape
100
AcDbLine
 10
5.5
 20
2.00291
 30
0
 11
6
 21
2.13733
 31
0
  0
LINE
  5
A14
330
A02
100
AcDbEntity
  8
Shape
100
AcDbLine
 10
6
 20
2.13733
 30
0
 11
6.5
 21
2.26887
 31
0
  0
LINE
  5
A15
330
A02
100
AcDbEntity
  8
Shape
100
AcDbLine
 10
6.5
 20
2.26887
 30
0
 11
7
 21
2.39782
 31
0
  0
LINE
  5
A16
330
A02
100
AcDbEntity
  8
Shape
100
AcDbLine
 10
7
 20
2.39782
 30
0
 11
7.5
 21
2.52438
 31
0
  0
LINE
  5
A17
330
A02
100
AcDbEntity
  8
Shape
100
AcDbLine
 10
7.5
 20
2.52438
 30
0
 11
8
 21
2.64877
 31
0
  0
LINE
  5
A18
330
A02
100
AcDbEntity
  8
Shape
100
AcDbLine
 10
8
 20
2.64877
 30
0
 11
8.5
 21
2.77113
 31
0
  0
LINE
  5
A19
330
A02
100
AcDbEntity
  8
Shape
100
AcDbLine
 10
8.5
 20
2.77113
 30
0
 11
9
 21
2.89162
 31
0
  0
LINE
  5
A1A
330
A02
100
AcDbEntity
  8
Shape
100
AcDbLine
 10
9
 20
2.89162
 30
0
 11
9.5
 21
3.01036
 31
0
  0
LINE
  5
A1B
330
A02
100
AcDbEntity
  8
Shape
100
AcDbLine
 10
9.5
 20
3.01036
 30
0
 11
10
 21
3.12747
 31
0
  0
LINE
  5
A1C
330
A02
100
AcDbEntity
  8
Shape
100
AcDbLine
 10
10
 20
3.12747
 30
0
 11
10.5
 21
3.24303
 31
0
  0
LINE
  5
A1D
330
A02
100
AcDbEntity
  8
Shape
100
AcDbLine
 10
10.5
 20
3.24303
 30
0
 11
11
 21
3.35714
 31
0
  0
LINE
  5
A1E
330
A02
100
AcDbEntity
  8
Shape
100
AcDbLine
 10
11
 20
3.35714
 30
0
 11
11.5
 21
3.46987
 31
0
  0
LINE
  5
A1F
330
A02
100
AcDbEntity
  8
Shape
100
AcDbLine
 10
11.5
 20
3.46987
 30
0
 11
12
 21
3.58131
 31
0
  0
LINE
  5
A20
330
A02
100
AcDbEntity
  8
Shape
100
AcDbLine
 10
12
 20
3.58131
 30
0
 11
12.5
 21
3.69151
 31
0
  0
LINE
  5
A21
330
A02
100
AcDbEntity
  8
Shape
100
AcDbLine
 10
12.5
 20
3.69151
 30
0
 11
13
 21
3.80053
 31
0
  0
LINE
  5
A22
330
A02
100
AcDbEntity
  8
Shape
100
AcDbLine
 10
13
 20
3.80053
 30
0
 11
13.5
 21
3.90842
 31
0
  0
LINE
  5
A23
330
A02
100
AcDbEntity
  8
Shape
100
AcDbLine
 10
13.5
 20
3.90842
 30
0
 11
14
 21
4.01525
 31
0
  0
LINE
  5
A24
330
A02
100
AcDbEntity
  8
Shape
100
AcDbLine
 10
14
 20
4.01525
 30
0
 11
14.5
 21
4.12104
 31
0
  0
LINE
  5
A25
330
A02
100
AcDbEntity
  8
Shape
100
AcDbLine
 10
14.5
 20
4.12104
 30
0
 11
15
 21
4.22585
 31
0
  0
LINE
  5
A26
330
A02
100
AcDbEntity
  8
Shape
100
AcDbLine
 10
15
 20
4.22585
 30
0
 11
15.5
 21
4.3297
 31
0
  0
LINE
  5
A27
330
A02
100
AcDbEntity
  8
Shape
100
AcDbLine
 10
15.5
 20
4.3297
 30
0
 11
16
 21
4.43265
 31
0
  0
LINE
  5
A28
330
A02
100
AcDbEntity
  8
Shape
100
AcDbLine
 10
16
 20
4.43265
 30
0
 11
16.5
 21
4.53472
 31
0
  0
LINE
  5
A29
330
A02
100
AcDbEntity
  8
Shape
100
AcDbLine
 10
16.5
 20
4.53472
 30
0
 11
17
 21
4.63594
 31
0
  0
LINE
  5
A2A
330
A02
100
AcDbEntity
  8
Shape
100
AcDbLine
 10
17
 20
4.63594
 30
0
 11
17.5
 21
4.73634
 31
0
  0
LINE
  5
A2B
330
A02
100
AcDbEntity
  8
Shape
100
AcDbLine
 10
17.5
 20
4.73634
 30
0
 11
18
 21
4.83596
 31
0
  0
LINE
  5
A2C
330
A02
100
AcDbEntity
  8
Shape
100
AcDbLine
 10
18
 20
4.83596
 30
0
 11
18.5
 21
4.9348
 31
0
  0
LINE
  5
A2D
330
A02
100
AcDbEntity
  8
Shape
100
AcDbLine
 10
18.5
 20
4.9348
 30
0
 11
19
 21
5.03291
 31
0
  0
LINE
  5
A2E
330
A02
100
AcDbEntity
  8
Shape
100
AcDbLine
 10
19
 20
5.03291
 30
0
 11
19.5
 21
5.1303
 31
0
  0
LINE
  5
A2F
330
A02
100
AcDbEntity
  8
Shape
100
AcDbLine
 10
19.5
 20
5.1303
 30
0
 11
20
 21
5.22699
 31
0
  0
LINE
  5
A30
330
A02
100
AcDbEntity
  8
Shape
100
AcDbLine
 10
20
 20
5.22699
 30
0
 11
20.5
 21
5.32301
 31
0
  0
LINE
  5
A31
330
A02
100
AcDbEntity
  8
Shape
100
AcDbLine
 10
20.5
 20
5.32301
 30
0
 11
21
 21
5.41837
 31
0
  0
LINE
  5
A32
330
A02
100
AcDbEntity
  8
Shape
100
AcDbLine
 10
21
 20
5.41837
 30
0
 11
21.5
 21
5.51308
 31
0
  0
LINE
  5
A33
330
A02
100
AcDbEntity
  8
Shape
100
AcDbLine
 10
21.5
 20
5.51308
 30
0
 11
22
 21
5.60718
 31
0
  0
LINE
  5
A34
330
A02
100
AcDbEntity
  8
Shape
100
AcDbLine
 10
22
 20
5.60718
 30
0
 11
22.5
 21
5.70067
 31
0
  0
LINE
  5
A35
330
A02
100
AcDbEntity
  8
Shape
100
AcDbLine
 10
22.5
 20
5.70067
 30
0
 11
23
 21
5.79357
 31
0
  0
LINE
  5
A36
330
A02
100
AcDbEntity
  8
Shape
100
AcDbLine
 10
23
 20
5.79357
 30
0
 11
23.5
 21
5.8859
 31
0
  0
LINE
  5
A37
330
A02
100
AcDbEntity
  8
Shape
100
AcDbLine
 10
23.5
 20
5.8859
 30
0
 11
24
 21
5.97766
 31
0
  0
LINE
  5
A38
330
A02
100
AcDbEntity
  8
Shape
100
AcDbLine
 10
24
 20
5.97766
 30
0
 11
24.5
 21
6.06887
 31
0
  0
LINE
  5
A39
330
A02
100
AcDbEntity
  8
Shape
100
AcDbLine
 10
24.5
 20
6.06887
 30
0
 11
25
 21
6.15955
 31
0
  0
LINE
  5
A3A
330
A02
100
AcDbEntity
  8
Shape
100
AcDbLine
 10
25
 20
6.15955
 30
0
 11
25.5
 21
6.24971
 31
0
  0
LINE
  5
A3B
330
A02
100
AcDbEntity
  8
Shape
100
AcDbLine
 10
25.5
 20
6.24971
 30
0
 11
26
 21
6.33935
 31
0
  0
LINE
  5
A3C
330
A02
100
AcDbEntity
  8
Shape
100
AcDbLine
 10
26
 20
6.33935
 30
0
 11
26.5
 21
6.42849
 31
0
  0
LINE
  5
A3D
330
A02
100
AcDbEntity
  8
Shape
100
AcDbLine
 10
26.5
 20
6.42849
 30
0
 11
27
 21
6.51715
 31
0
  0
LINE
  5
A3E
330
A02
100
AcDbEntity
  8
Shape
100
AcDbLine
 10
27
 20
6.51715
 30
0
 11
27.5
 21
6.60532
 31
0
  0
LINE
  5
A3F
330
A02
100
AcDbEntity
  8
Shape
100
AcDbLine
 10
27.5
 20
6.60532
 30
0
 11
28
 21
6.69302
 31
0
  0
LINE
  5
A40
330
A02
100
AcDbEntity
  8
Shape
100
AcDbLine
 10
28
 20
6.69302
 30
0
 11
28.5
 21
6.78026
 31
0
  0
LINE
  5
A41
330
A02
100
AcDbEntity
  8
Shape
100
AcDbLine
 10
28.5
 20
6.78026
 30
0
 11
29
 21
6.86705
 31
0
  0
LINE
  5
A42
330
A02
100
AcDbEntity
  8
Shape
100
AcDbLine
 10
29
 20
6.86705
 30
0
 11
29.5
 21
6.9534
 31
0
  0
LINE
  5
A43
330
A02
100
AcDbEntity
  8
Shape
100
AcDbLine
 10
29.5
 20
6.9534
 30
0
 11
30
 21
7.03931
 31
0
  0
LINE
  5
A44
330
A02
100
AcDbEntity
  8
Shape
100
AcDbLine
 10
30
 20
7.03931
 30
0
 11
30.5
 21
7.1248
 31
0
  0
LINE
  5
A45
330
A02
100
AcDbEntity
  8
Shape
100
AcDbLine
 10
30.5
 20
7.1248
 30
0
 11
31
 21
7.20986
 31
0
  0
LINE
  5
A46
330
A02
100
AcDbEntity
  8
Shape
100
AcDbLine
 10
31
 20
7.20986
 30
0
 11
31.5
 21
7.29452
 31
0
  0
LINE
  5
A47
330
A02
100
AcDbEntity
  8
Shape
100
AcDbLine
 10
31.5
 20
7.29452
 30
0
 11
32
 21
7.37877
 31
0
  0
LINE
  5
A48
330
A02
100
AcDbEntity
  8
Shape
100
AcDbLine
 10
32
 20
7.37877
 30
0
 11
32.5
 21
7.46263
 31
0
  0
LINE
  5
A49
330
A02
100
AcDbEntity
  8
Shape
100
AcDbLine
 10
32.5
 20
7.46263
 30
0
 11
33
 21
7.54609
 31
0
  0
LINE
  5
A4A
330
A02
100
AcDbEntity
  8
Shape
100
AcDbLine
 10
33
 20
7.54609
 30
0
 11
33.5
 21
7.62917
 31
0
  0
LINE
  5
A4B
330
A02
100
AcDbEntity
  8
Shape
100
AcDbLine
 10
33.5
 20
7.62917
 30
0
 11
34
 21
7.71187
 31
0
  0
LINE
  5
A4C
330
A02
100
AcDbEntity
  8
Shape
100
AcDbLine
 10
34
 20
7.71187
 30
0
 11
34.5
 21
7.7942
 31
0
  0
LINE
  5
A4D
330
A02
100
AcDbEntity
  8
Shape
100
AcDbLine
 10
34.5
 20
7.7942
 30
0
 11
35
 21
7.87617
 31
0
  0
LINE
  5
A4E
330
A02
100
AcDbEntity
  8
Shape
100
AcDbLine
 10
35
 20
7.87617
 30
0
 11
35.5
 21
7.95777
 31
0
  0
LINE
  5
A4F
330
A02
100
AcDbEntity
  8
Shape
100
AcDbLine
 10
35.5
 20
7.95777
 30
0
 11
36
 21
8.03902
 31
0
  0
LINE
  5
A50
330
A02
100
AcDbEntity
  8
Shape
100
AcDbLine
 10
36
 20
8.03902
 30
0
 11
36.5
 21
8.11992
 31
0
  0
LINE
  5
A51
330
A02
100
AcDbEntity
  8
Shape
100
AcDbLine
 10
36.5
 20
8.11992
 30
0
 11
37
 21
8.20048
 31
0
  0
LINE
  5
A52
330
A02
100
AcDbEntity
  8
Shape
100
AcDbLine
 10
37
 20
8.20048
 30
0
 11
37.5
 21
8.28069
 31
0
  0
LINE
  5
A53
330
A02
100
AcDbEntity
  8
Shape
100
AcDbLine
 10
37.5
 20
8.28069
 30
0
 11
38
 21
8.36058
 31
0
  0
LINE
  5
A54
330
A02
100
AcDbEntity
  8
Shape
100
AcDbLine
 10
38
 20
8.36058
 30
0
 11
38.5
 21
8.44013
 31
0
  0
LINE
  5
A55
330
A02
100
AcDbEntity
  8
Shape
100
AcDbLine
 10
38.5
 20
8.44013
 30
0
 11
39
 21
8.51936
 31
0
  0
LINE
  5
A56
330
A02
100
AcDbEntity
  8
Shape
100
AcDbLine
 10
39
 20
8.51936
 30
0
 11
39.5
 21
8.59826
 31
0
  0
LINE
  5
A57
330
A02
100
AcDbEntity
  8
Shape
100
AcDbLine
 10
39.5
 20
8.59826
 30
0
 11
40
 21
8.67686
 31
0
  0
LINE
  5
A58
330
A02
100
AcDbEntity
  8
Shape
100
AcDbLine
 10
40
 20
8.67686
 30
0
 11
40.5
 21
8.75513
 31
0
  0
LINE
  5
A59
330
A02
100
AcDbEntity
  8
Shape
100
AcDbLine
 10
40.5
 20
8.75513
 30
0
 11
41
 21
8.8331
 31
0
  0
LINE
  5
A5A
330
A02
100
AcDbEntity
  8
Shape
100
AcDbLine
 10
41
 20
8.8331
 30
0
 11
41.5
 21
8.91077
 31
0
  0
LINE
  5
A5B
330
A02
100
AcDbEntity
  8
Shape
100
AcDbLine
 10
41.5
 20
8.91077
 30
0
 11
42
 21
8.98814
 31
0
  0
LINE
  5
A5C
330
A02
100
AcDbEntity
  8
Shape
100
AcDbLine
 10
42
 20
8.98814
 30
0
 11
42.5
 21
9.06521
 31
0
  0
LINE
  5
A5D
330
A02
100
AcDbEntity
  8
Shape
100
AcDbLine
 10
42.5
 20
9.06521
 30
0
 11
43
 21
9.14198
 31
0
  0
LINE
  5
A5E
330
A02
100
AcDbEntity
  8
Shape
100
AcDbLine
 10
43
 20
9.14198
 30
0
 11
43.5
 21
9.21847
 31
0
  0
LINE
  5
A5F
330
A02
100
AcDbEntity
  8
Shape
100
AcDbLine
 10
43.5
 20
9.21847
 30
0
 11
44
 21
9.29467
 31
0
  0
LINE
  5
A60
330
A02
100
AcDbEntity
  8
Shape
100
AcDbLine
 10
44
 20
9.29467
 30
0
 11
44.5
 21
9.37059
 31
0
  0
LINE
  5
A61
330
A02
100
AcDbEntity
  8
Shape
100
AcDbLine
 10
44.5
 20
9.37059
 30
0
 11
45
 21
9.44623
 31
0
  0
LINE
  5
A62
330
A02
100
AcDbEntity
  8
Shape
100
AcDbLine
 10
45
 20
9.44623
 30
0
 11
45.5
 21
9.52159
 31
0
  0
LINE
  5
A63
330
A02
100
AcDbEntity
  8
Shape
100
AcDbLine
 10
45.5
 20
9.52159
 30
0
 11
46
 21
9.59668
 31
0
  0
LINE
  5
A64
330
A02
100
AcDbEntity
  8
Shape
100
AcDbLine
 10
46
 20
9.59668
 30
0
 11
46.5
 21
9.6715
 31
0
  0
LINE
  5
A65
330
A02
100
AcDbEntity
  8
Shape
100
AcDbLine
 10
46.5
 20
9.6715
 30
0
 11
47
 21
9.74606
 31
0
  0
LINE
  5
A66
330
A02
100
AcDbEntity
  8
Shape
100
AcDbLine
 10
47
 20
9.74606
 30
0
 11
47.5
 21
9.82035
 31
0
  0
LINE
  5
A67
330
A02
100
AcDbEntity
  8
Shape
100
AcDbLine
 10
47.5
 20
9.82035
 30
0
 11
48
 21
9.89438
 31
0
  0
LINE
  5
A68
330
A02
100
AcDbEntity
  8
Shape
100
AcDbLine
 10
48
 20
9.89438
 30
0
 11
48.5
 21
9.96815
 31
0
  0
LINE
  5
A69
330
A02
100
AcDbEntity
  8
Shape
100
AcDbLine
 10
48.5
 20
9.96815
 30
0
 11
49
 21
10.0417
 31
0
  0
LINE
  5
A6A
330
A02
100
AcDbEntity
  8
Shape
100
AcDbLine
 10
49
 20
10.0417
 30
0
 11
49.5
 21
10.1149
 31
0
  0
LINE
  5
A6B
330
A02
100
AcDbEntity
  8
Shape
100
AcDbLine
 10
49.5
 20
10.1149
 30
0
 11
50
 21
10.1879
 31
0
  0
LINE
  5
A6C
330
A02
100
AcDbEntity
  8
Shape
100
AcDbLine
 10
50
 20
10.1879
 30
0
 11
50.5
 21
10.2607
 31
0
  0
LINE
  5
A6D
330
A02
100
AcDbEntity
  8
Shape
100
AcDbLine
 10
50.5
 20
10.2607
 30
0
 11
51
 21
10.3332
 31
0
  0
LINE
  5
A6E
330
A02
100
AcDbEntity
  8
Shape
100
AcDbLine
 10
51
 20
10.3332
 30
0
 11
51.5
 21
10.4055
 31
0
  0
LINE
  5
A6F
330
A02
100
AcDbEntity
  8
Shape
100
AcDbLine
 10
51.5
 20
10.4055
 30
0
 11
52
 21
10.4775
 31
0
  0
LINE
  5
A70
330
A02
100
AcDbEntity
  8
Shape
100
AcDbLine
 10
52
 20
10.4775
 30
0
 11
52.5
 21
10.5493
 31
0
  0
LINE
  5
A71
330
A02
100
AcDbEntity
  8
Shape
100
AcDbLine
 10
52.5
 20
10.5493
 30
0
 11
53
 21
10.6209
 31
0
  0
LINE
  5
A72
330
A02
100
AcDbEntity
  8
Shape
100
AcDbLine
 10
53
 20
10.6209
 30
0
 11
53.5
 21
10.6922
 31
0
  0
LINE
  5
A73
330
A02
100
AcDbEntity
  8
Shape
100
AcDbLine
 10
53.5
 20
10.6922
 30
0
 11
54
 21
10.7633
 31
0
  0
LINE
  5
A74
330
A02
100
AcDbEntity
  8
Shape
100
AcDbLine
 10
54
 20
10.7633
 30
0
 11
54.5
 21
10.8341
 31
0
  0
LINE
  5
A75
330
A02
100
AcDbEntity
  8
Shape
100
AcDbLine
 10
54.5
 20
10.8341
 30
0
 11
55
 21
10.9048
 31
0
  0
LINE
  5
A76
330
A02
100
AcDbEntity
  8
Shape
100
AcDbLine
 10
55
 20
10.9048
 30
0
 11
55.5
 21
10.9752
 31
0
  0
LINE
  5
A77
330
A02
100
AcDbEntity
  8
Shape
100
AcDbLine
 10
55.5
 20
10.9752
 30
0
 11
56
 21
11.0454
 31
0
  0
LINE
  5
A78
330
A02
100
AcDbEntity
  8
Shape
100
AcDbLine
 10
56
 20
11.0454
 30
0
 11
56.5
 21
11.1153
 31
0
  0
LINE
  5
A79
330
A02
100
AcDbEntity
  8
Shape
100
AcDbLine
 10
56.5
 20
11.1153
 30
0
 11
57
 21
11.1851
 31
0
  0
LINE
  5
A7A
330
A02
100
AcDbEntity
  8
Shape
100
AcDbLine
 10
57
 20
11.1851
 30
0
 11
57.5
 21
11.2546
 31
0
  0
LINE
  5
A7B
330
A02
100
AcDbEntity
  8
Shape
100
AcDbLine
 10
57.5
 20
11.2546
 30
0
 11
58
 21
11.3239
 31
0
  0
LINE
  5
A7C
330
A02
100
AcDbEntity
  8
Shape
100
AcDbLine
 10
58
 20
11.3239
 30
0
 11
58.5
 21
11.393
 31
0
  0
LINE
  5
A7D
330
A02
100
AcDbEntity
  8
Shape
100
AcDbLine
 10
58.5
 20
11.393
 30
0
 11
59
 21
11.4619
 31
0
  0
LINE
  5
A7E
330
A02
100
AcDbEntity
  8
Shape
100
AcDbLine
 10
59
 20
11.4619
 30
0
 11
59.5
 21
11.5305
 31
0
  0
LINE
  5
A7F
330
A02
100
AcDbEntity
  8
Shape
100
AcDbLine
 10
59.5
 20
11.5305
 30
0
 11
60
 21
11.599
 31
0
  0
LINE
  5
A80
330
A02
100
AcDbEntity
  8
Shape
100
AcDbLine
 10
60
 20
11.599
 30
0
 11
60.5
 21
11.6672
 31
0
  0
LINE
  5
A81
330
A02
100
AcDbEntity
  8
Shape
100
AcDbLine
 10
60.5
 20
11.6672
 30
0
 11
61
 21
11.7353
 31
0
  0
LINE
  5
A82
330
A02
100
AcDbEntity
  8
Shape
100
AcDbLine
 10
61
 20
11.7353
 30
0
 11
61.5
 21
11.8031
 31
0
  0
LINE
  5
A83
330
A02
100
AcDbEntity
  8
Shape
100
AcDbLine
 10
61.5
 20
11.8031
 30
0
 11
62
 21
11.8708
 31
0
  0
LINE
  5
A84
330
A02
100
AcDbEntity
  8
Shape
100
AcDbLine
 10
62
 20
11.8708
 30
0
 11
62.5
 21
11.9382
 31
0
  0
LINE
  5
A85
330
A02
100
AcDbEntity
  8
Shape
100
AcDbLine
 10
62.5
 20
11.9382
 30
0
 11
63
 21
12.0054
 31
0
  0
LINE
  5
A86
330
A02
100
AcDbEntity
  8
Shape
100
AcDbLine
 10
63
 20
12.0054
 30
0
 11
63.5
 21
12.0725
 31
0
  0
LINE
  5
A87
330
A02
100
AcDbEntity
  8
Shape
100
AcDbLine
 10
63.5
 20
12.0725
 30
0
 11
64
 21
12.1393
 31
0
  0
LINE
  5
A88
330
A02
100
AcDbEntity
  8
Shape
100
AcDbLine
 10
64
 20
12.1393
 30
0
 11
64.5
 21
12.2059
 31
0
  0
LINE
  5
A89
330
A02
100
AcDbEntity
  8
Shape
100
AcDbLine
 10
64.5
 20
12.2059
 30
0
 11
65
 21
12.2724
 31
0
  0
LINE
  5
A8A
330
A02
100
AcDbEntity
  8
Shape
100
AcDbLine
 10
65
 20
12.2724
 30
0
 11
65.5
 21
12.3386
 31
0
  0
LINE
  5
A8B
330
A02
100
AcDbEntity
  8
Shape
100
AcDbLine
 10
65.5
 20
12.3386
 30
0
 11
66
 21
12.4047
 31
0
  0
LINE
  5
A8C
330
A02
100
AcDbEntity
  8
Shape
100
AcDbLine
 10
66
 20
12.4047
 30
0
 11
66.5
 21
12.4706
 31
0
  0
LINE
  5
A8D
330
A02
100
AcDbEntity
  8
Shape
100
AcDbLine
 10
66.5
 20
12.4706
 30
0
 11
67
 21
12.5362
 31
0
  0
LINE
  5
A8E
330
A02
100
AcDbEntity
  8
Shape
100
AcDbLine
 10
67
 20
12.5362
 30
0
 11
67.5
 21
12.6017
 31
0
  0
LINE
  5
A8F
330
A02
100
AcDbEntity
  8
Shape
100
AcDbLine
 10
67.5
 20
12.6017
 30
0
 11
68
 21
12.6671
 31
0
  0
LINE
  5
A90
330
A02
100
AcDbEntity
  8
Shape
100
AcDbLine
 10
68
 20
12.6671
 30
0
 11
68.5
 21
12.7322
 31
0
  0
LINE
  5
A91
330
A02
100
AcDbEntity
  8
Shape
100
AcDbLine
 10
68.5
 20
12.7322
 30
0
 11
69
 21
12.7971
 31
0
  0
LINE
  5
A92
330
A02
100
AcDbEntity
  8
Shape
100
AcDbLine
 10
69
 20
12.7971
 30
0
 11
69.5
 21
12.8619
 31
0
  0
LINE
  5
A93
330
A02
100
AcDbEntity
  8
Shape
100
AcDbLine
 10
69.5
 20
12.8619
 30
0
 11
70
 21
12.9264
 31
0
  0
LINE
  5
A94
330
A02
100
AcDbEntity
  8
Shape
100
AcDbLine
 10
70
 20
12.9264
 30
0
 11
70.5
 21
12.9908
 31
0
  0
LINE
  5
A95
330
A02
100
AcDbEntity
  8
Shape
100
AcDbLine
 10
70.5
 20
12.9908
 30
0
 11
71
 21
13.055
 31
0
  0
LINE
  5
A96
330
A02
100
AcDbEntity
  8
Shape
100
AcDbLine
 10
71
 20
13.055
 30
0
 11
71.5
 21
13.1191
 31
0
  0
LINE
  5
A97
330
A02
100
AcDbEntity
  8
Shape
100
AcDbLine
 10
71.5
 20
13.1191
 30
0
 11
72
 21
13.1829
 31
0
  0
LINE
  5
A98
330
A02
100
AcDbEntity
  8
Shape
100
AcDbLine
 10
72
 20
13.1829
 30
0
 11
72.5
 21
13.2466
 31
0
  0
LINE
  5
A99
330
A02
100
AcDbEntity
  8
Shape
100
AcDbLine
 10
72.5
 20
13.2466
 30
0
 11
73
 21
13.3101
 31
0
  0
LINE
  5
A9A
330
A02
100
AcDbEntity
  8
Shape
100
AcDbLine
 10
73
 20
13.3101
 30
0
 11
73.5
 21
13.3734
 31
0
  0
LINE
  5
A9B
330
A02
100
AcDbEntity
  8
Shape
100
AcDbLine
 10
73.5
 20
13.3734
 30
0
 11
74
 21
13.4366
 31
0
  0
LINE
  5
A9C
330
A02
100
AcDbEntity
  8
Shape
100
AcDbLine
 10
74
 20
13.4366
 30
0
 11
74.5
 21
13.4996
 31
0
  0
LINE
  5
A9D
330
A02
100
AcDbEntity
  8
Shape
100
AcDbLine
 10
74.5
 20
13.4996
 30
0
 11
75
 21
13.5624
 31
0
  0
LINE
  5
A9E
330
A02
100
AcDbEntity
  8
Shape
100
AcDbLine
 10
75
 20
13.5624
 30
0
 11
75.5
 21
13.625
 31
0
  0
LINE
  5
A9F
330
A02
100
AcDbEntity
  8
Shape
100
AcDbLine
 10
75.5
 20
13.625
 30
0
 11
76
 21
13.6875
 31
0
  0
LINE
  5
AA0
330
A02
100
AcDbEntity
  8
Shape
100
AcDbLine
 10
76
 20
13.6875
 30
0
 11
76.5
 21
13.7498
 31
0
  0
LINE
  5
AA1
330
A02
100
AcDbEntity
  8
Shape
100
AcDbLine
 10
76.5
 20
13.7498
 30
0
 11
77
 21
13.8119
 31
0
  0
LINE
  5
AA2
330
A02
100
AcDbEntity
  8
Shape
100
AcDbLine
 10
77
 20
13.8119
 30
0
 11
77.5
 21
13.8739
 31
0
  0
LINE
  5
AA3
330
A02
100
AcDbEntity
  8
Shape
100
AcDbLine
 10
77.5
 20
13.8739
 30
0
 11
78
 21
13.9357
 31
0
  0
LINE
  5
AA4
330
A02
100
AcDbEntity
  8
Shape
100
AcDbLine
 10
78
 20
13.9357
 30
0
 11
78.5
 21
13.9973
 31
0
  0
LINE
  5
AA5
330
A02
100
AcDbEntity
  8
Shape
100
AcDbLine
 10
78.5
 20
13.9973
 30
0
 11
79
 21
14.0588
 31
0
  0
LINE
  5
AA6
330
A02
100
AcDbEntity
  8
Shape
100
AcDbLine
 10
79
 20
14.0588
 30
0
 11
79.5
 21
14.1201
 31
0
  0
LINE
  5
AA7
330
A02
100
AcDbEntity
  8
Shape
100
AcDbLine
 10
79.5
 20
14.1201
 30
0
 11
80
 21
14.1813
 31
0
  0
LINE
  5
AA8
330
A02
100
AcDbEntity
  8
Shape
100
AcDbLine
 10
80
 20
14.1813
 30
0
 11
80.5
 21
14.2422
 31
0
  0
LINE
  5
AA9
330
A02
100
AcDbEntity
  8
Shape
100
AcDbLine
 10
80.5
 20
14.2422
 30
0
 11
81
 21
14.3031
 31
0
  0
LINE
  5
AAA
330
A02
100
AcDbEntity
  8
Shape
100
AcDbLine
 10
81
 20
14.3031
 30
0
 11
81.5
 21
14.3637
 31
0
  0
LINE
  5
AAB
330
A02
100
AcDbEntity
  8
Shape
100
AcDbLine
 10
81.5
 20
14.3637
 30
0
 11
82
 21
14.4242
 31
0
  0
LINE
  5
AAC
330
A02
100
AcDbEntity
  8
Shape
100
AcDbLine
 10
82
 20
14.4242
 30
0
 11
82.5
 21
14.4846
 31
0
  0
LINE
  5
AAD
330
A02
100
AcDbEntity
  8
Shape
100
AcDbLine
 10
82.5
 20
14.4846
 30
0
 11
83
 21
14.5447
 31
0
  0
LINE
  5
AAE
330
A02
100
AcDbEntity
  8
Shape
100
AcDbLine
 10
83
 20
14.5447
 30
0
 11
83.5
 21
14.6048
 31
0
  0
LINE
  5
AAF
330
A02
100
AcDbEntity
  8
Shape
100
AcDbLine
 10
83.5
 20
14.6048
 30
0
 11
84
 21
14.6646
 31
0
  0
LINE
  5
AB0
330
A02
100
AcDbEntity
  8
Shape
100
AcDbLine
 10
84
 20
14.6646
 30
0
 11
84.5
 21
14.7244
 31
0
  0
LINE
  5
AB1
330
A02
100
AcDbEntity
  8
Shape
100
AcDbLine
 10
84.5
 20
14.7244
 30
0
 11
85
 21
14.7839
 31
0
  0
LINE
  5
AB2
330
A02
100
AcDbEntity
  8
Shape
100
AcDbLine
 10
85
 20
14.7839
 30
0
 11
85.5
 21
14.8433
 31
0
  0
LINE
  5
AB3
330
A02
100
AcDbEntity
  8
Shape
100
AcDbLine
 10
85.5
 20
14.8433
 30
0
 11
86
 21
14.9026
 31
0
  0
LINE
  5
AB4
330
A02
100
AcDbEntity
  8
Shape
100
AcDbLine
 10
86
 20
14.9026
 30
0
 11
86.5
 21
14.9617
 31
0
  0
LINE
  5
AB5
330
A02
100
AcDbEntity
  8
Shape
100
AcDbLine
 10
86.5
 20
14.9617
 30
0
 11
87
 21
15.0206
 31
0
  0
LINE
  5
AB6
330
A02
100
AcDbEntity
  8
Shape
100
AcDbLine
 10
87
 20
15.0206
 30
0
 11
87.5
 21
15.0794
 31
0
  0
LINE
  5
AB7
330
A02
100
AcDbEntity
  8
Shape
100
AcDbLine
 10
87.5
 20
15.0794
 30
0
 11
88
 21
15.1381
 31
0
  0
LINE
  5
AB8
330
A02
100
AcDbEntity
  8
Shape
100
AcDbLine
 10
88
 20
15.1381
 30
0
 11
88.5
 21
15.1966
 31
0
  0
LINE
  5
AB9
330
A02
100
AcDbEntity
  8
Shape
100
AcDbLine
 10
88.5
 20
15.1966
 30
0
 11
89
 21
15.2549
 31
0
  0
LINE
  5
ABA
330
A02
100
AcDbEntity
  8
Shape
100
AcDbLine
 10
89
 20
15.2549
 30
0
 11
89.5
 21
15.3131
 31
0
  0
LINE
  5
ABB
330
A02
100
AcDbEntity
  8
Shape
100
AcDbLine
 10
89.5
 20
15.3131
 30
0
 11
90
 21
15.3711
 31
0
  0
LINE
  5
ABC
330
A02
100
AcDbEntity
  8
Shape
100
AcDbLine
 10
90
 20
15.3711
 30
0
 11
90.5
 21
15.429
 31
0
  0
LINE
  5
ABD
330
A02
100
AcDbEntity
  8
Shape
100
AcDbLine
 10
90.5
 20
15.429
 30
0
 11
91
 21
15.4868
 31
0
  0
LINE
  5
ABE
330
A02
100
AcDbEntity
  8
Shape
100
AcDbLine
 10
91
 20
15.4868
 30
0
 11
91.5
 21
15.5444
 31
0
  0
LINE
  5
ABF
330
A02
100
AcDbEntity
  8
Shape
100
AcDbLine
 10
91.5
 20
15.5444
 30
0
 11
92
 21
15.6018
 31
0
  0
LINE
  5
AC0
330
A02
100
AcDbEntity
  8
Shape
100
AcDbLine
 10
92
 20
15.6018
 30
0
 11
92.5
 21
15.6591
 31
0
  0
LINE
  5
AC1
330
A02
100
AcDbEntity
  8
Shape
100
AcDbLine
 10
92.5
 20
15.6591
 30
0
 11
93
 21
15.7163
 31
0
  0
LINE
  5
AC2
330
A02
100
AcDbEntity
  8
Shape
100
AcDbLine
 10
93
 20
15.7163
 30
0
 11
93.5
 21
15.7733
 31
0
  0
LINE
  5
AC3
330
A02
100
AcDbEntity
  8
Shape
100
AcDbLine
 10
93.5
 20
15.7733
 30
0
 11
94
 21
15.8302
 31
0
  0
LINE
  5
AC4
330
A02
100
AcDbEntity
  8
Shape
100
AcDbLine
 10
94
 20
15.8302
 30
0
 11
94.5
 21
15.8869
 31
0
  0
LINE
  5
AC5
330
A02
100
AcDbEntity
  8
Shape
100
AcDbLine
 10
94.5
 20
15.8869
 30
0
 11
95
 21
15.9435
 31
0
  0
LINE
  5
AC6
330
A02
100
AcDbEntity
  8
Shape
100
AcDbLine
 10
95
 20
15.9435
 30
0
 11
95.5
 21
16
 31
0
  0
LINE
  5
AC7
330
A02
100
AcDbEntity
  8
Shape
100
AcDbLine
 10
95.5
 20
16
 30
0
 11
96
 21
16.0563
 31
0
  0
LINE
  5
AC8
330
A02
100
AcDbEntity
  8
Shape
100
AcDbLine
 10
96
 20
16.0563
 30
0
 11
96.5
 21
16.1124
 31
0
  0
LINE
  5
AC9
330
A02
100
AcDbEntity
  8
Shape
100
AcDbLine
 10
96.5
 20
16.1124
 30
0
 11
97
 21
16.1684
 31
0
  0
LINE
  5
ACA
330
A02
100
AcDbEntity
  8
Shape
100
AcDbLine
 10
97
 20
16.1684
 30
0
 11
97.5
 21
16.2243
 31
0
  0
LINE
  5
ACB
330
A02
100
AcDbEntity
  8
Shape
100
AcDbLine
 10
97.5
 20
16.2243
 30
0
 11
98
 21
16.2801
 31
0
  0
LINE
  5
ACC
330
A02
100
AcDbEntity
  8
Shape
100
AcDbLine
 10
98
 20
16.2801
 30
0
 11
98.5
 21
16.3357
 31
0
  0
LINE
  5
ACD
330
A02
100
AcDbEntity
  8
Shape
100
AcDbLine
 10
98.5
 20
16.3357
 30
0
 11
99
 21
16.3911
 31
0
  0
LINE
  5
ACE
330
A02
100
AcDbEntity
  8
Shape
100
AcDbLine
 10
99
 20
16.3911
 30
0
 11
99.5
 21
16.4464
 31
0
  0
LINE
  5
ACF
330
A02
100
AcDbEntity
  8
Shape
100
AcDbLine
 10
99.5
 20
16.4464
 30
0
 11
100
 21
16.5016
 31
0
  0
LINE
  5
AD0
330
A02
100
AcDbEntity
  8
Shape
100
AcDbLine
 10
100
 20
16.5016
 30
0
 11
100.5
 21
16.5567
 31
0
  0
LINE
  5
AD1
330
A02
100
AcDbEntity
  8
Shape
100
AcDbLine
 10
100.5
 20
16.5567
 30
0
 11
101
 21
16.6116
 31
0
  0
LINE
  5
AD2
330
A02
100
AcDbEntity
  8
Shape
100
AcDbLine
 10
101
 20
16.6116
 30
0
 11
101.5
 21
16.6663
 31
0
  0
LINE
  5
AD3
330
A02
100
AcDbEntity
  8
Shape
100
AcDbLine
 10
101.5
 20
16.6663
 30
0
 11
102
 21
16.721
 31
0
  0
LINE
  5
AD4
330
A02
100
AcDbEntity
  8
Shape
100
AcDbLine
 10
102
 20
16.721
 30
0
 11
102.5
 21
16.7755
 31
0
  0
LINE
  5
AD5
330
A02
100
AcDbEntity
  8
Shape
100
AcDbLine
 10
102.5
 20
16.7755
 30
0
 11
103
 21
16.8298
 31
0
  0
LINE
  5
AD6
330
A02
100
AcDbEntity
  8
Shape
100
AcDbLine
 10
103
 20
16.8298
 30
0
 11
103.5
 21
16.884
 31
0
  0
LINE
  5
AD7
330
A02
100
AcDbEntity
  8
Shape
100
AcDbLine
 10
103.5
 20
16.884
 30
0
 11
104
 21
16.9381
 31
0
  0
LINE
  5
AD8
330
A02
100
AcDbEntity
  8
Shape
100
AcDbLine
 10
104
 20
16.9381
 30
0
 11
104.5
 21
16.9921
 31
0
  0
LINE
  5
AD9
330
A02
100
AcDbEntity
  8
Shape
100
AcDbLine
 10
104.5
 20
16.9921
 30
0
 11
105
 21
17.0459
 31
0
  0
LINE
  5
ADA
330
A02
100
AcDbEntity
  8
Shape
100
AcDbLine
 10
105
 20
17.0459
 30
0
 11
105.5
 21
17.0996
 31
0
  0
LINE
  5
ADB
330
A02
100
AcDbEntity
  8
Shape
100
AcDbLine
 10
105.5
 20
17.0996
 30
0
 11
106
 21
17.1531
 31
0
  0
LINE
  5
ADC
330
A02
100
AcDbEntity
  8
Shape
100
AcDbLine
 10
106
 20
17.1531
 30
0
 11
106.5
 21
17.2066
 31
0
  0
LINE
  5
ADD
330
A02
100
AcDbEntity
  8
Shape
100
AcDbLine
 10
106.5
 20
17.2066
 30
0
 11
107
 21
17.2598
 31
0
  0
LINE
  5
ADE
330
A02
100
AcDbEntity
  8
Shape
100
AcDbLine
 10
107
 20
17.2598
 30
0
 11
107.5
 21
17.313
 31
0
  0
LINE
  5
ADF
330
A02
100
AcDbEntity
  8
Shape
100
AcDbLine
 10
107.5
 20
17.313
 30
0
 11
108
 21
17.366
 31
0
  0
LINE
  5
AE0
330
A02
100
AcDbEntity
  8
Shape
100
AcDbLine
 10
108
 20
17.366
 30
0
 11
108.5
 21
17.4189
 31
0
  0
LINE
  5
AE1
330
A02
100
AcDbEntity
  8
Shape
100
AcDbLine
 10
108.5
 20
17.4189
 30
0
 11
109
 21
17.4716
 31
0
  0
LINE
  5
AE2
330
A02
100
AcDbEntity
  8
Shape
100
AcDbLine
 10
109
 20
17.4716
 30
0
 11
109.5
 21
17.5243
 31
0
  0
LINE
  5
AE3
330
A02
100
AcDbEntity
  8
Shape
100
AcDbLine
 10
109.5
 20
17.5243
 30
0
 11
110
 21
17.5768
 31
0
  0
LINE
  5
AE4
330
A02
100
AcDbEntity
  8
Shape
100
AcDbLine
 10
110
 20
17.5768
 30
0
 11
110.5
 21
17.6291
 31
0
  0
LINE
  5
AE5
330
A02
100
AcDbEntity
  8
Shape
100
AcDbLine
 10
110.5
 20
17.6291
 30
0
 11
111
 21
17.6814
 31
0
  0
LINE
  5
AE6
330
A02
100
AcDbEntity
  8
Shape
100
AcDbLine
 10
111
 20
17.6814
 30
0
 11
111.5
 21
17.7335
 31
0
  0
LINE
  5
AE7
330
A02
100
AcDbEntity
  8
Shape
100
AcDbLine
 10
111.5
 20
17.7335
 30
0
 11
112
 21
17.7854
 31
0
  0
LINE
  5
AE8
330
A02
100
AcDbEntity
  8
Shape
100
AcDbLine
 10
112
 20
17.7854
 30
0
 11
112.5
 21
17.8373
 31
0
  0
LINE
  5
AE9
330
A02
100
AcDbEntity
  8
Shape
100
AcDbLine
 10
112.5
 20
17.8373
 30
0
 11
113
 21
17.889
 31
0
  0
LINE
  5
AEA
330
A02
100
AcDbEntity
  8
Shape
100
AcDbLine
 10
113
 20
17.889
 30
0
 11
113.5
 21
17.9406
 31
0
  0
LINE
  5
AEB
330
A02
100
AcDbEntity
  8
Shape
100
AcDbLine
 10
113.5
 20
17.9406
 30
0
 11
114
 21
17.992
 31
0
  0
LINE
  5
AEC
330
A02
100
AcDbEntity
  8
Shape
100
AcDbLine
 10
114
 20
17.992
 30
0
 11
114.5
 21
18.0433
 31
0
  0
LINE
  5
AED
330
A02
100
AcDbEntity
  8
Shape
100
AcDbLine
 10
114.5
 20
18.0433
 30
0
 11
115
 21
18.0945
 31
0
  0
LINE
  5
AEE
330
A02
100
AcDbEntity
  8
Shape
100
AcDbLine
 10
115
 20
18.0945
 30
0
 11
115.5
 21
18.1456
 31
0
  0
LINE
  5
AEF
330
A02
100
AcDbEntity
  8
Shape
100
AcDbLine
 10
115.5
 20
18.1456
 30
0
 11
116
 21
18.1965
 31
0
  0
LINE
  5
AF0
330
A02
100
AcDbEntity
  8
Shape
100
AcDbLine
 10
116
 20
18.1965
 30
0
 11
116.5
 21
18.2474
 31
0
  0
LINE
  5
AF1
330
A02
100
AcDbEntity
  8
Shape
100
AcDbLine
 10
116.5
 20
18.2474
 30
0
 11
117
 21
18.298
 31
0
  0
LINE
  5
AF2
330
A02
100
AcDbEntity
  8
Shape
100
AcDbLine
 10
117
 20
18.298
 30
0
 11
117.5
 21
18.3486
 31
0
  0
LINE
  5
AF3
330
A02
100
AcDbEntity
  8
Shape
100
AcDbLine
 10
117.5
 20
18.3486
 30
0
 11
118
 21
18.399
 31
0
  0
LINE
  5
AF4
330
A02
100
AcDbEntity
  8
Shape
100
AcDbLine
 10
118
 20
18.399
 30
0
 11
118.5
 21
18.4493
 31
0
  0
LINE
  5
AF5
330
A02
100
AcDbEntity
  8
Shape
100
AcDbLine
 10
118.5
 20
18.4493
 30
0
 11
119
 21
18.4995
 31
0
  0
LINE
  5
AF6
330
A02
100
AcDbEntity
  8
Shape
100
AcDbLine
 10
119
 20
18.4995
 30
0
 11
119.5
 21
18.5496
 31
0
  0
LINE
  5
AF7
330
A02
100
AcDbEntity
  8
Shape
100
AcDbLine
 10
119.5
 20
18.5496
 30
0
 11
120
 21
18.5995
 31
0
  0
LINE
  5
AF8
330
A02
100
AcDbEntity
  8
Shape
100
AcDbLine
 10
120
 20
18.5995
 30
0
 11
120.5
 21
18.6493
 31
0
  0
LINE
  5
AF9
330
A02
100
AcDbEntity
  8
Shape
100
AcDbLine
 10
120.5
 20
18.6493
 30
0
 11
121
 21
18.699
 31
0
  0
LINE
  5
AFA
330
A02
100
AcDbEntity
  8
Shape
100
AcDbLine
 10
121
 20
18.699
 30
0
 11
121.5
 21
18.7485
 31
0
  0
LINE
  5
AFB
330
A02
100
AcDbEntity
  8
Shape
100
AcDbLine
 10
121.5
 20
18.7485
 30
0
 11
122
 21
18.7979
 31
0
  0
LINE
  5
AFC
330
A02
100
AcDbEntity
  8
Shape
100
AcDbLine
 10
122
 20
18.7979
 30
0
 11
122.5
 21
18.8472
 31
0
  0
LINE
  5
AFD
330
A02
100
AcDbEntity
  8
Shape
100
AcDbLine
 10
122.5
 20
18.8472
 30
0
 11
123
 21
18.8964
 31
0
  0
LINE
  5
AFE
330
A02
100
AcDbEntity
  8
Shape
100
AcDbLine
 10
123
 20
18.8964
 30
0
 11
123.5
 21
18.9455
 31
0
  0
LINE
  5
AFF
330
A02
100
AcDbEntity
  8
Shape
100
AcDbLine
 10
123.5
 20
18.9455
 30
0
 11
124
 21
18.9944
 31
0
  0
LINE
  5
B00
330
A02
100
AcDbEntity
  8
Shape
100
AcDbLine
 10
124
 20
18.9944
 30
0
 11
124.5
 21
19.0432
 31
0
  0
LINE
  5
B01
330
A02
100
AcDbEntity
  8
Shape
100
AcDbLine
 10
124.5
 20
19.0432
 30
0
 11
125
 21
19.0919
 31
0
  0
LINE
  5
B02
330
A02
100
AcDbEntity
  8
Shape
100
AcDbLine
 10
125
 20
19.0919
 30
0
 11
125.5
 21
19.1404
 31
0
  0
LINE
  5
B03
330
A02
100
AcDbEntity
  8
Shape
100
AcDbLine
 10
125.5
 20
19.1404
 30
0
 11
126
 21
19.1889
 31
0
  0
LINE
  5
B04
330
A02
100
AcDbEntity
  8
Shape
100
AcDbLine
 10
126
 20
19.1889
 30
0
 11
126.5
 21
19.2372
 31
0
  0
LINE
  5
B05
330
A02
100
AcDbEntity
  8
Shape
100
AcDbLine
 10
126.5
 20
19.2372
 30
0
 11
127
 21
19.2854
 31
0
  0
LINE
  5
B06
330
A02
100
AcDbEntity
  8
Shape
100
AcDbLine
 10
127
 20
19.2854
 30
0
 11
127.5
 21
19.3334
 31
0
  0
LINE
  5
B07
330
A02
100
AcDbEntity
  8
Shape
100
AcDbLine
 10
127.5
 20
19.3334
 30
0
 11
128
 21
19.3814
 31
0
  0
LINE
  5
B08
330
A02
100
AcDbEntity
  8
Shape
100
AcDbLine
 10
128
 20
19.3814
 30
0
 11
128.5
 21
19.4292
 31
0
  0
LINE
  5
B09
330
A02
100
AcDbEntity
  8
Shape
100
AcDbLine
 10
128.5
 20
19.4292
 30
0
 11
129
 21
19.4769
 31
0
  0
LINE
  5
B0A
330
A02
100
AcDbEntity
  8
Shape
100
AcDbLine
 10
129
 20
19.4769
 30
0
 11
129.5
 21
19.5244
 31
0
  0
LINE
  5
B0B
330
A02
100
AcDbEntity
  8
Shape
100
AcDbLine
 10
129.5
 20
19.5244
 30
0
 11
130
 21
19.5719
 31
0
  0
LINE
  5
B0C
330
A02
100
AcDbEntity
  8
Shape
100
AcDbLine
 10
130
 20
19.5719
 30
0
 11
130.5
 21
19.6192
 31
0
  0
LINE
  5
B0D
330
A02
100
AcDbEntity
  8
Shape
100
AcDbLine
 10
130.5
 20
19.6192
 30
0
 11
131
 21
19.6664
 31
0
  0
LINE
  5
B0E
330
A02
100
AcDbEntity
  8
Shape
100
AcDbLine
 10
131
 20
19.6664
 30
0
 11
131.5
 21
19.7135
 31
0
  0
LINE
  5
B0F
330
A02
100
AcDbEntity
  8
Shape
100
AcDbLine
 10
131.5
 20
19.7135
 30
0
 11
132
 21
19.7605
 31
0
  0
LINE
  5
B10
330
A02
100
AcDbEntity
  8
Shape
100
AcDbLine
 10
132
 20
19.7605
 30
0
 11
132.5
 21
19.8073
 31
0
  0
LINE
  5
B11
330
A02
100
AcDbEntity
  8
Shape
100
AcDbLine
 10
132.5
 20
19.8073
 30
0
 11
133
 21
19.854
 31
0
  0
LINE
  5
B12
330
A02
100
AcDbEntity
  8
Shape
100
AcDbLine
 10
133
 20
19.854
 30
0
 11
133.5
 21
19.9006
 31
0
  0
LINE
  5
B13
330
A02
100
AcDbEntity
  8
Shape
100
AcDbLine
 10
133.5
 20
19.9006
 30
0
 11
134
 21
19.9471
 31
0
  0
LINE
  5
B14
330
A02
100
AcDbEntity
  8
Shape
100
AcDbLine
 10
134
 20
19.9471
 30
0
 11
134.5
 21
19.9934
 31
0
  0
LINE
  5
B15
330
A02
100
AcDbEntity
  8
Shape
100
AcDbLine
 10
134.5
 20
19.9934
 30
0
 11
135
 21
20.0397
 31
0
  0
LINE
  5
B16
330
A02
100
AcDbEntity
  8
Shape
100
AcDbLine
 10
135
 20
20.0397
 30
0
 11
135.5
 21
20.0858
 31
0
  0
LINE
  5
B17
330
A02
100
AcDbEntity
  8
Shape
100
AcDbLine
 10
135.5
 20
20.0858
 30
0
 11
136
 21
20.1318
 31
0
  0
LINE
  5
B18
330
A02
100
AcDbEntity
  8
Shape
100
AcDbLine
 10
136
 20
20.1318
 30
0
 11
136.5
 21
20.1776
 31
0
  0
LINE
  5
B19
330
A02
100
AcDbEntity
  8
Shape
100
AcDbLine
 10
136.5
 20
20.1776
 30
0
 11
137
 21
20.2234
 31
0
  0
LINE
  5
B1A
330
A02
100
AcDbEntity
  8
Shape
100
AcDbLine
 10
137
 20
20.2234
 30
0
 11
137.5
 21
20.269
 31
0
  0
LINE
  5
B1B
330
A02
100
AcDbEntity
  8
Shape
100
AcDbLine
 10
137.5
 20
20.269
 30
0
 11
138
 21
20.3145
 31
0
  0
LINE
  5
B1C
330
A02
100
AcDbEntity
  8
Shape
100
AcDbLine
 10
138
 20
20.3145
 30
0
 11
138.5
 21
20.3599
 31
0
  0
LINE
  5
B1D
330
A02
100
AcDbEntity
  8
Shape
100
AcDbLine
 10
138.5
 20
20.3599
 30
0
 11
139
 21
20.4051
 31
0
  0
LINE
  5
B1E
330
A02
100
AcDbEntity
  8
Shape
100
AcDbLine
 10
139
 20
20.4051
 30
0
 11
139.5
 21
20.4503
 31
0
  0
LINE
  5
B1F
330
A02
100
AcDbEntity
  8
Shape
100
AcDbLine
 10
139.5
 20
20.4503
 30
0
 11
140
 21
20.4953
 31
0
  0
LINE
  5
B20
330
A02
100
AcDbEntity
  8
Shape
100
AcDbLine
 10
140
 20
20.4953
 30
0
 11
140.5
 21
20.5402
 31
0
  0
LINE
  5
B21
330
A02
100
AcDbEntity
  8
Shape
100
AcDbLine
 10
140.5
 20
20.5402
 30
0
 11
141
 21
20.585
 31
0
  0
LINE
  5
B22
330
A02
100
AcDbEntity
  8
Shape
100
AcDbLine
 10
141
 20
20.585
 30
0
 11
141.5
 21
20.6296
 31
0
  0
LINE
  5
B23
330
A02
100
AcDbEntity
  8
Shape
100
AcDbLine
 10
141.5
 20
20.6296
 30
0
 11
142
 21
20.6742
 31
0
  0
LINE
  5
B24
330
A02
100
AcDbEntity
  8
Shape
100
AcDbLine
 10
142
 20
20.6742
 30
0
 11
142.5
 21
20.7186
 31
0
  0
LINE
  5
B25
330
A02
100
AcDbEntity
  8
Shape
100
AcDbLine
 10
142.5
 20
20.7186
 30
0
 11
143
 21
20.7629
 31
0
  0
LINE
  5
B26
330
A02
100
AcDbEntity
  8
Shape
100
AcDbLine
 10
143
 20
20.7629
 30
0
 11
143.5
 21
20.8071
 31
0
  0
LINE
  5
B27
330
A02
100
AcDbEntity
  8
Shape
100
AcDbLine
 10
143.5
 20
20.8071
 30
0
 11
144
 21
20.8511
 31
0
  0
LINE
  5
B28
330
A02
100
AcDbEntity
  8
Shape
100
AcDbLine
 10
144
 20
20.8511
 30
0
 11
144.5
 21
20.8951
 31
0
  0
LINE
  5
B29
330
A02
100
AcDbEntity
  8
Shape
100
AcDbLine
 10
144.5
 20
20.8951
 30
0
 11
145
 21
20.9389
 31
0
  0
LINE
  5
B2A
330
A02
100
AcDbEntity
  8
Shape
100
AcDbLine
 10
145
 20
20.9389
 30
0
 11
145.5
 21
20.9826
 31
0
  0
LINE
  5
B2B
330
A02
100
AcDbEntity
  8
Shape
100
AcDbLine
 10
145.5
 20
20.9826
 30
0
 11
146
 21
21.0262
 31
0
  0
LINE
  5
B2C
330
A02
100
AcDbEntity
  8
Shape
100
AcDbLine
 10
146
 20
21.0262
 30
0
 11
146.5
 21
21.0696
 31
0
  0
LINE
  5
B2D
330
A02
100
AcDbEntity
  8
Shape
100
AcDbLine
 10
146.5
 20
21.0696
 30
0
 11
147
 21
21.113
 31
0
  0
LINE
  5
B2E
330
A02
100
AcDbEntity
  8
Shape
100
AcDbLine
 10
147
 20
21.113
 30
0
 11
147.5
 21
21.1562
 31
0
  0
LINE
  5
B2F
330
A02
100
AcDbEntity
  8
Shape
100
AcDbLine
 10
147.5
 20
21.1562
 30
0
 11
148
 21
21.1993
 31
0
  0
LINE
  5
B30
330
A02
100
AcDbEntity
  8
Shape
100
AcDbLine
 10
148
 20
21.1993
 30
0
 11
148.5
 21
21.2423
 31
0
  0
LINE
  5
B31
330
A02
100
AcDbEntity
  8
Shape
100
AcDbLine
 10
148.5
 20
21.2423
 30
0
 11
149
 21
21.2851
 31
0
  0
LINE
  5
B32
330
A02
100
AcDbEntity
  8
Shape
100
AcDbLine
 10
149
 20
21.2851
 30
0
 11
149.5
 21
21.3278
 31
0
  0
LINE
  5
B33
330
A02
100
AcDbEntity
  8
Shape
100
AcDbLine
 10
149.5
 20
21.3278
 30
0
 11
150
 21
21.3705
 31
0
  0
LINE
  5
B34
330
A02
100
AcDbEntity
  8
Shape
100
AcDbLine
 10
150
 20
21.3705
 30
0
 11
150.5
 21
21.413
 31
0
  0
LINE
  5
B35
330
A02
100
AcDbEntity
  8
Shape
100
AcDbLine
 10
150.5
 20
21.413
 30
0
 11
151
 21
21.4553
 31
0
  0
LINE
  5
B36
330
A02
100
AcDbEntity
  8
Shape
100
AcDbLine
 10
151
 20
21.4553
 30
0
 11
151.5
 21
21.4976
 31
0
  0
LINE
  5
B37
330
A02
100
AcDbEntity
  8
Shape
100
AcDbLine
 10
151.5
 20
21.4976
 30
0
 11
152
 21
21.5397
 31
0
  0
LINE
  5
B38
330
A02
100
AcDbEntity
  8
Shape
100
AcDbLine
 10
152
 20
21.5397
 30
0
 11
152.5
 21
21.5817
 31
0
  0
LINE
  5
B39
330
A02
100
AcDbEntity
  8
Shape
100
AcDbLine
 10
152.5
 20
21.5817
 30
0
 11
153
 21
21.6236
 31
0
  0
LINE
  5
B3A
330
A02
100
AcDbEntity
  8
Shape
100
AcDbLine
 10
153
 20
21.6236
 30
0
 11
153.5
 21
21.6654
 31
0
  0
LINE
  5
B3B
330
A02
100
AcDbEntity
  8
Shape
100
AcDbLine
 10
153.5
 20
21.6654
 30
0
 11
154
 21
21.7071
 31
0
  0
LINE
  5
B3C
330
A02
100
AcDbEntity
  8
Shape
100
AcDbLine
 10
154
 20
21.7071
 30
0
 11
154.5
 21
21.7486
 31
0
  0
LINE
  5
B3D
330
A02
100
AcDbEntity
  8
Shape
100
AcDbLine
 10
154.5
 20
21.7486
 30
0
 11
155
 21
21.79
 31
0
  0
LINE
  5
B3E
330
A02
100
AcDbEntity
  8
Shape
100
AcDbLine
 10
155
 20
21.79
 30
0
 11
155.5
 21
21.8313
 31
0
  0
LINE
  5
B3F
330
A02
100
AcDbEntity
  8
Shape
100
AcDbLine
 10
155.5
 20
21.8313
 30
0
 11
156
 21
21.8725
 31
0
  0
LINE
  5
B40
330
A02
100
AcDbEntity
  8
Shape
100
AcDbLine
 10
156
 20
21.8725
 30
0
 11
156.5
 21
21.9135
 31
0
  0
LINE
  5
B41
330
A02
100
AcDbEntity
  8
Shape
100
AcDbLine
 10
156.5
 20
21.9135
 30
0
 11
157
 21
21.9544
 31
0
  0
LINE
  5
B42
330
A02
100
AcDbEntity
  8
Shape
100
AcDbLine
 10
157
 20
21.9544
 30
0
 11
157.5
 21
21.9953
 31
0
  0
LINE
  5
B43
330
A02
100
AcDbEntity
  8
Shape
100
AcDbLine
 10
157.5
 20
21.9953
 30
0
 11
158
 21
22.0359
 31
0
  0
LINE
  5
B44
330
A02
100
AcDbEntity
  8
Shape
100
AcDbLine
 10
158
 20
22.0359
 30
0
 11
158.5
 21
22.0765
 31
0
  0
LINE
  5
B45
330
A02
100
AcDbEntity
  8
Shape
100
AcDbLine
 10
158.5
 20
22.0765
 30
0
 11
159
 21
22.117
 31
0
  0
LINE
  5
B46
330
A02
100
AcDbEntity
  8
Shape
100
AcDbLine
 10
159
 20
22.117
 30
0
 11
159.5
 21
22.1573
 31
0
  0
LINE
  5
B47
330
A02
100
AcDbEntity
  8
Shape
100
AcDbLine
 10
159.5
 20
22.1573
 30
0
 11
160
 21
22.1975
 31
0
  0
LINE
  5
B48
330
A02
100
AcDbEntity
  8
Shape
100
AcDbLine
 10
160
 20
22.1975
 30
0
 11
160.5
 21
22.2376
 31
0
  0
LINE
  5
B49
330
A02
100
AcDbEntity
  8
Shape
100
AcDbLine
 10
160.5
 20
22.2376
 30
0
 11
161
 21
22.2775
 31
0
  0
LINE
  5
B4A
330
A02
100
AcDbEntity
  8
Shape
100
AcDbLine
 10
161
 20
22.2775
 30
0
 11
161.5
 21
22.3174
 31
0
  0
LINE
  5
B4B
330
A02
100
AcDbEntity
  8
Shape
100
AcDbLine
 10
161.5
 20
22.3174
 30
0
 11
162
 21
22.3571
 31
0
  0
LINE
  5
B4C
330
A02
100
AcDbEntity
  8
Shape
100
AcDbLine
 10
162
 20
22.3571
 30
0
 11
162.5
 21
22.3967
 31
0
  0
LINE
  5
B4D
330
A02
100
AcDbEntity
  8
Shape
100
AcDbLine
 10
162.5
 20
22.3967
 30
0
 11
163
 21
22.4362
 31
0
  0
LINE
  5
B4E
330
A02
100
AcDbEntity
  8
Shape
100
AcDbLine
 10
163
 20
22.4362
 30
0
 11
163.5
 21
22.4755
 31
0
  0
LINE
  5
B4F
330
A02
100
AcDbEntity
  8
Shape
100
AcDbLine
 10
163.5
 20
22.4755
 30
0
 11
164
 21
22.5147
 31
0
  0
LINE
  5
B50
330
A02
100
AcDbEntity
  8
Shape
100
AcDbLine
 10
164
 20
22.5147
 30
0
 11
164.5
 21
22.5538
 31
0
  0
LINE
  5
B51
330
A02
100
AcDbEntity
  8
Shape
100
AcDbLine
 10
164.5
 20
22.5538
 30
0
 11
165
 21
22.5928
 31
0
  0
LINE
  5
B52
330
A02
100
AcDbEntity
  8
Shape
100
AcDbLine
 10
165
 20
22.5928
 30
0
 11
165.5
 21
22.6317
 31
0
  0
LINE
  5
B53
330
A02
100
AcDbEntity
  8
Shape
100
AcDbLine
 10
165.5
 20
22.6317
 30
0
 11
166
 21
22.6704
 31
0
  0
LINE
  5
B54
330
A02
100
AcDbEntity
  8
Shape
100
AcDbLine
 10
166
 20
22.6704
 30
0
 11
166.5
 21
22.709
 31
0
  0
LINE
  5
B55
330
A02
100
AcDbEntity
  8
Shape
100
AcDbLine
 10
166.5
 20
22.709
 30
0
 11
167
 21
22.7475
 31
0
  0
LINE
  5
B56
330
A02
100
AcDbEntity
  8
Shape
100
AcDbLine
 10
167
 20
22.7475
 30
0
 11
167.5
 21
22.7859
 31
0
  0
LINE
  5
B57
330
A02
100
AcDbEntity
  8
Shape
100
AcDbLine
 10
167.5
 20
22.7859
 30
0
 11
168
 21
22.8242
 31
0
  0
LINE
  5
B58
330
A02
100
AcDbEntity
  8
Shape
100
AcDbLine
 10
168
 20
22.8242
 30
0
 11
168.5
 21
22.8623
 31
0
  0
LINE
  5
B59
330
A02
100
AcDbEntity
  8
Shape
100
AcDbLine
 10
168.5
 20
22.8623
 30
0
 11
169
 21
22.9003
 31
0
  0
LINE
  5
B5A
330
A02
100
AcDbEntity
  8
Shape
100
AcDbLine
 10
169
 20
22.9003
 30
0
 11
169.5
 21
22.9381
 31
0
  0
LINE
  5
B5B
330
A02
100
AcDbEntity
  8
Shape
100
AcDbLine
 10
169.5
 20
22.9381
 30
0
 11
170
 21
22.9759
 31
0
  0
LINE
  5
B5C
330
A02
100
AcDbEntity
  8
Shape
100
AcDbLine
 10
170
 20
22.9759
 30
0
 11
170.5
 21
23.0135
 31
0
  0
LINE
  5
B5D
330
A02
100
AcDbEntity
  8
Shape
100
AcDbLine
 10
170.5
 20
23.0135
 30
0
 11
171
 21
23.051
 31
0
  0
LINE
  5
B5E
330
A02
100
AcDbEntity
  8
Shape
100
AcDbLine
 10
171
 20
23.051
 30
0
 11
171.5
 21
23.0884
 31
0
  0
LINE
  5
B5F
330
A02
100
AcDbEntity
  8
Shape
100
AcDbLine
 10
171.5
 20
23.0884
 30
0
 11
172
 21
23.1257
 31
0
  0
LINE
  5
B60
330
A02
100
AcDbEntity
  8
Shape
100
AcDbLine
 10
172
 20
23.1257
 30
0
 11
172.5
 21
23.1628
 31
0
  0
LINE
  5
B61
330
A02
100
AcDbEntity
  8
Shape
100
AcDbLine
 10
172.5
 20
23.1628
 30
0
 11
173
 21
23.1998
 31
0
  0
LINE
  5
B62
330
A02
100
AcDbEntity
  8
Shape
100
AcDbLine
 10
173
 20
23.1998
 30
0
 11
173.5
 21
23.2367
 31
0
  0
LINE
  5
B63
330
A02
100
AcDbEntity
  8
Shape
100
AcDbLine
 10
173.5
 20
23.2367
 30
0
 11
174
 21
23.2734
 31
0
  0
LINE
  5
B64
330
A02
100
AcDbEntity
  8
Shape
100
AcDbLine
 10
174
 20
23.2734
 30
0
 11
174.5
 21
23.3101
 31
0
  0
LINE
  5
B65
330
A02
100
AcDbEntity
  8
Shape
100
AcDbLine
 10
174.5
 20
23.3101
 30
0
 11
175
 21
23.3466
 31
0
  0
LINE
  5
B66
330
A02
100
AcDbEntity
  8
Shape
100
AcDbLine
 10
175
 20
23.3466
 30
0
 11
175.5
 21
23.3829
 31
0
  0
LINE
  5
B67
330
A02
100
AcDbEntity
  8
Shape
100
AcDbLine
 10
175.5
 20
23.3829
 30
0
 11
176
 21
23.4192
 31
0
  0
LINE
  5
B68
330
A02
100
AcDbEntity
  8
Shape
100
AcDbLine
 10
176
 20
23.4192
 30
0
 11
176.5
 21
23.4553
 31
0
  0
LINE
  5
B69
330
A02
100
AcDbEntity
  8
Shape
100
AcDbLine
 10
176.5
 20
23.4553
 30
0
 11
177
 21
23.4913
 31
0
  0
LINE
  5
B6A
330
A02
100
AcDbEntity
  8
Shape
100
AcDbLine
 10
177
 20
23.4913
 30
0
 11
177.5
 21
23.5272
 31
0
  0
LINE
  5
B6B
330
A02
100
AcDbEntity
  8
Shape
100
AcDbLine
 10
177.5
 20
23.5272
 30
0
 11
178
 21
23.5629
 31
0
  0
LINE
  5
B6C
330
A02
100
AcDbEntity
  8
Shape
100
AcDbLine
 10
178
 20
23.5629
 30
0
 11
178.5
 21
23.5985
 31
0
  0
LINE
  5
B6D
330
A02
100
AcDbEntity
  8
Shape
100
AcDbLine
 10
178.5
 20
23.5985
 30
0
 11
179
 21
23.634
 31
0
  0
LINE
  5
B6E
330
A02
100
AcDbEntity
  8
Shape
100
AcDbLine
 10
179
 20
23.634
 30
0
 11
179.5
 21
23.6694
 31
0
  0
LINE
  5
B6F
330
A02
100
AcDbEntity
  8
Shape
100
AcDbLine
 10
179.5
 20
23.6694
 30
0
 11
180
 21
23.7046
 31
0
  0
LINE
  5
B70
330
A02
100
AcDbEntity
  8
Shape
100
AcDbLine
 10
180
 20
23.7046
 30
0
 11
180.5
 21
23.7397
 31
0
  0
LINE
  5
B71
330
A02
100
AcDbEntity
  8
Shape
100
AcDbLine
 10
180.5
 20
23.7397
 30
0
 11
181
 21
23.7747
 31
0
  0
LINE
  5
B72
330
A02
100
AcDbEntity
  8
Shape
100
AcDbLine
 10
181
 20
23.7747
 30
0
 11
181.5
 21
23.8095
 31
0
  0
LINE
  5
B73
330
A02
100
AcDbEntity
  8
Shape
100
AcDbLine
 10
181.5
 20
23.8095
 30
0
 11
182
 21
23.8442
 31
0
  0
LINE
  5
B74
330
A02
100
AcDbEntity
  8
Shape
100
AcDbLine
 10
182
 20
23.8442
 30
0
 11
182.5
 21
23.8788
 31
0
  0
LINE
  5
B75
330
A02
100
AcDbEntity
  8
Shape
100
AcDbLine
 10
182.5
 20
23.8788
 30
0
 11
183
 21
23.9132
 31
0
  0
LINE
  5
B76
330
A02
100
AcDbEntity
  8
Shape
100
AcDbLine
 10
183
 20
23.9132
 30
0
 11
183.5
 21
23.9475
 31
0
  0
LINE
  5
B77
330
A02
100
AcDbEntity
  8
Shape
100
AcDbLine
 10
183.5
 20
23.9475
 30
0
 11
184
 21
23.9817
 31
0
  0
LINE
  5
B78
330
A02
100
AcDbEntity
  8
Shape
100
AcDbLine
 10
184
 20
23.9817
 30
0
 11
184.5
 21
24.0158
 31
0
  0
LINE
  5
B79
330
A02
100
AcDbEntity
  8
Shape
100
AcDbLine
 10
184.5
 20
24.0158
 30
0
 11
185
 21
24.0497
 31
0
  0
LINE
  5
B7A
330
A02
100
AcDbEntity
  8
Shape
100
AcDbLine
 10
185
 20
24.0497
 30
0
 11
185.5
 21
24.0835
 31
0
  0
LINE
  5
B7B
330
A02
100
AcDbEntity
  8
Shape
100
AcDbLine
 10
185.5
 20
24.0835
 30
0
 11
186
 21
24.1172
 31
0
  0
LINE
  5
B7C
330
A02
100
AcDbEntity
  8
Shape
100
AcDbLine
 10
186
 20
24.1172
 30
0
 11
186.5
 21
24.1507
 31
0
  0
LINE
  5
B7D
330
A02
100
AcDbEntity
  8
Shape
100
AcDbLine
 10
186.5
 20
24.1507
 30
0
 11
187
 21
24.1841
 31
0
  0
LINE
  5
B7E
330
A02
100
AcDbEntity
  8
Shape
100
AcDbLine
 10
187
 20
24.1841
 30
0
 11
187.5
 21
24.2173
 31
0
  0
LINE
  5
B7F
330
A02
100
AcDbEntity
  8
Shape
100
AcDbLine
 10
187.5
 20
24.2173
 30
0
 11
188
 21
24.2505
 31
0
  0
LINE
  5
B80
330
A02
100
AcDbEntity
  8
Shape
100
AcDbLine
 10
188
 20
24.2505
 30
0
 11
188.5
 21
24.2835
 31
0
  0
LINE
  5
B81
330
A02
100
AcDbEntity
  8
Shape
100
AcDbLine
 10
188.5
 20
24.2835
 30
0
 11
189
 21
24.3163
 31
0
  0
LINE
  5
B82
330
A02
100
AcDbEntity
  8
Shape
100
AcDbLine
 10
189
 20
24.3163
 30
0
 11
189.5
 21
24.349
 31
0
  0
LINE
  5
B83
330
A02
100
AcDbEntity
  8
Shape
100
AcDbLine
 10
189.5
 20
24.349
 30
0
 11
190
 21
24.3816
 31
0
  0
LINE
  5
B84
330
A02
100
AcDbEntity
  8
Shape
100
AcDbLine
 10
190
 20
24.3816
 30
0
 11
190.5
 21
24.4141
 31
0
  0
LINE
  5
B85
330
A02
100
AcDbEntity
  8
Shape
100
AcDbLine
 10
190.5
 20
24.4141
 30
0
 11
191
 21
24.4464
 31
0
  0
LINE
  5
B86
330
A02
100
AcDbEntity
  8
Shape
100
AcDbLine
 10
191
 20
24.4464
 30
0
 11
191.5
 21
24.4786
 31
0
  0
LINE
  5
B87
330
A02
100
AcDbEntity
  8
Shape
100
AcDbLine
 10
191.5
 20
24.4786
 30
0
 11
192
 21
24.5106
 31
0
  0
LINE
  5
B88
330
A02
100
AcDbEntity
  8
Shape
100
AcDbLine
 10
192
 20
24.5106
 30
0
 11
192.5
 21
24.5425
 31
0
  0
LINE
  5
B89
330
A02
100
AcDbEntity
  8
Shape
100
AcDbLine
 10
192.5
 20
24.5425
 30
0
 11
193
 21
24.5743
 31
0
  0
LINE
  5
B8A
330
A02
100
AcDbEntity
  8
Shape
100
AcDbLine
 10
193
 20
24.5743
 30
0
 11
193.5
 21
24.6059
 31
0
  0
LINE
  5
B8B
330
A02
100
AcDbEntity
  8
Shape
100
AcDbLine
 10
193.5
 20
24.6059
 30
0
 11
194
 21
24.6374
 31
0
  0
LINE
  5
B8C
330
A02
100
AcDbEntity
  8
Shape
100
AcDbLine
 10
194
 20
24.6374
 30
0
 11
194.5
 21
24.6687
 31
0
  0
LINE
  5
B8D
330
A02
100
AcDbEntity
  8
Shape
100
AcDbLine
 10
194.5
 20
24.6687
 30
0
 11
195
 21
24.6999
 31
0
  0
LINE
  5
B8E
330
A02
100
AcDbEntity
  8
Shape
100
AcDbLine
 10
195
 20
24.6999
 30
0
 11
195.5
 21
24.731
 31
0
  0
LINE
  5
B8F
330
A02
100
AcDbEntity
  8
Shape
100
AcDbLine
 10
195.5
 20
24.731
 30
0
 11
196
 21
24.7619
 31
0
  0
LINE
  5
B90
330
A02
100
AcDbEntity
  8
Shape
100
AcDbLine
 10
196
 20
24.7619
 30
0
 11
196.5
 21
24.7927
 31
0
  0
LINE
  5
B91
330
A02
100
AcDbEntity
  8
Shape
100
AcDbLine
 10
196.5
 20
24.7927
 30
0
 11
197
 21
24.8233
 31
0
  0
LINE
  5
B92
330
A02
100
AcDbEntity
  8
Shape
100
AcDbLine
 10
197
 20
24.8233
 30
0
 11
197.5
 21
24.8538
 31
0
  0
LINE
  5
B93
330
A02
100
AcDbEntity
  8
Shape
100
AcDbLine
 10
197.5
 20
24.8538
 30
0
 11
198
 21
24.8842
 31
0
  0
LINE
  5
B94
330
A02
100
AcDbEntity
  8
Shape
100
AcDbLine
 10
198
 20
24.8842
 30
0
 11
198.5
 21
24.9144
 31
0
  0
LINE
  5
B95
330
A02
100
AcDbEntity
  8
Shape
100
AcDbLine
 10
198.5
 20
24.9144
 30
0
 11
199
 21
24.9444
 31
0
  0
LINE
  5
B96
330
A02
100
AcDbEntity
  8
Shape
100
AcDbLine
 10
199
 20
24.9444
 30
0
 11
199.5
 21
24.9744
 31
0
  0
LINE
  5
B97
330
A02
100
AcDbEntity
  8
Shape
100
AcDbLine
 10
199.5
 20
24.9744
 30
0
 11
200
 21
25.0041
 31
0
  0
LINE
  5
B98
330
A02
100
AcDbEntity
  8
Shape
100
AcDbLine
 10
200
 20
25.0041
 30
0
 11
200.5
 21
25.0337
 31
0
  0
LINE
  5
B99
330
A02
100
AcDbEntity
  8
Shape
100
AcDbLine
 10
200.5
 20
25.0337
 30
0
 11
201
 21
25.0632
 31
0
  0
LINE
  5
B9A
330
A02
100
AcDbEntity
  8
Shape
100
AcDbLine
 10
201
 20
25.0632
 30
0
 11
201.5
 21
25.0926
 31
0
  0
LINE
  5
B9B
330
A02
100
AcDbEntity
  8
Shape
100
AcDbLine
 10
201.5
 20
25.0926
 30
0
 11
202
 21
25.1217
 31
0
  0
LINE
  5
B9C
330
A02
100
AcDbEntity
  8
Shape
100
AcDbLine
 10
202
 20
25.1217
 30
0
 11
202.5
 21
25.1508
 31
0
  0
LINE
  5
B9D
330
A02
100
AcDbEntity
  8
Shape
100
AcDbLine
 10
202.5
 20
25.1508
 30
0
 11
203
 21
25.1796
 31
0
  0
LINE
  5
B9E
330
A02
100
AcDbEntity
  8
Shape
100
AcDbLine
 10
203
 20
25.1796
 30
0
 11
203.5
 21
25.2084
 31
0
  0
LINE
  5
B9F
330
A02
100
AcDbEntity
  8
Shape
100
AcDbLine
 10
203.5
 20
25.2084
 30
0
 11
204
 21
25.237
 31
0
  0
LINE
  5
BA0
330
A02
100
AcDbEntity
  8
Shape
100
AcDbLine
 10
204
 20
25.237
 30
0
 11
204.5
 21
25.2654
 31
0
  0
LINE
  5
BA1
330
A02
100
AcDbEntity
  8
Shape
100
AcDbLine
 10
204.5
 20
25.2654
 30
0
 11
205
 21
25.2937
 31
0
  0
LINE
  5
BA2
330
A02
100
AcDbEntity
  8
Shape
100
AcDbLine
 10
205
 20
25.2937
 30
0
 11
205.5
 21
25.3218
 31
0
  0
LINE
  5
BA3
330
A02
100
AcDbEntity
  8
Shape
100
AcDbLine
 10
205.5
 20
25.3218
 30
0
 11
206
 21
25.3497
 31
0
  0
LINE
  5
BA4
330
A02
100
AcDbEntity
  8
Shape
100
AcDbLine
 10
206
 20
25.3497
 30
0
 11
206.5
 21
25.3775
 31
0
  0
LINE
  5
BA5
330
A02
100
AcDbEntity
  8
Shape
100
AcDbLine
 10
206.5
 20
25.3775
 30
0
 11
207
 21
25.4052
 31
0
  0
LINE
  5
BA6
330
A02
100
AcDbEntity
  8
Shape
100
AcDbLine
 10
207
 20
25.4052
 30
0
 11
207.5
 21
25.4327
 31
0
  0
LINE
  5
BA7
330
A02
100
AcDbEntity
  8
Shape
100
AcDbLine
 10
207.5
 20
25.4327
 30
0
 11
208
 21
25.46
 31
0
  0
LINE
  5
BA8
330
A02
100
AcDbEntity
  8
Shape
100
AcDbLine
 10
208
 20
25.46
 30
0
 11
208.5
 21
25.4872
 31
0
  0
LINE
  5
BA9
330
A02
100
AcDbEntity
  8
Shape
100
AcDbLine
 10
208.5
 20
25.4872
 30
0
 11
209
 21
25.5142
 31
0
  0
LINE
  5
BAA
330
A02
100
AcDbEntity
  8
Shape
100
AcDbLine
 10
209
 20
25.5142
 30
0
 11
209.5
 21
25.5411
 31
0
  0
LINE
  5
BAB
330
A02
100
AcDbEntity
  8
Shape
100
AcDbLine
 10
209.5
 20
25.5411
 30
0
 11
210
 21
25.5678
 31
0
  0
LINE
  5
BAC
330
A02
100
AcDbEntity
  8
Shape
100
AcDbLine
 10
210
 20
25.5678
 30
0
 11
210.5
 21
25.5943
 31
0
  0
LINE
  5
BAD
330
A02
100
AcDbEntity
  8
Shape
100
AcDbLine
 10
210.5
 20
25.5943
 30
0
 11
211
 21
25.6207
 31
0
  0
LINE
  5
BAE
330
A02
100
AcDbEntity
  8
Shape
100
AcDbLine
 10
211
 20
25.6207
 30
0
 11
211.5
 21
25.6469
 31
0
  0
LINE
  5
BAF
330
A02
100
AcDbEntity
  8
Shape
100
AcDbLine
 10
211.5
 20
25.6469
 30
0
 11
212
 21
25.673
 31
0
  0
LINE
  5
BB0
330
A02
100
AcDbEntity
  8
Shape
100
AcDbLine
 10
212
 20
25.673
 30
0
 11
212.5
 21
25.6988
 31
0
  0
LINE
  5
BB1
330
A02
100
AcDbEntity
  8
Shape
100
AcDbLine
 10
212.5
 20
25.6988
 30
0
 11
213
 21
25.7245
 31
0
  0
LINE
  5
BB2
330
A02
100
AcDbEntity
  8
Shape
100
AcDbLine
 10
213
 20
25.7245
 30
0
 11
213.5
 21
25.7501
 31
0
  0
LINE
  5
BB3
330
A02
100
AcDbEntity
  8
Shape
100
AcDbLine
 10
213.5
 20
25.7501
 30
0
 11
214
 21
25.7755
 31
0
  0
LINE
  5
BB4
330
A02
100
AcDbEntity
  8
Shape
100
AcDbLine
 10
214
 20
25.7755
 30
0
 11
214.5
 21
25.8007
 31
0
  0
LINE
  5
BB5
330
A02
100
AcDbEntity
  8
Shape
100
AcDbLine
 10
214.5
 20
25.8007
 30
0
 11
215
 21
25.8257
 31
0
  0
LINE
  5
BB6
330
A02
100
AcDbEntity
  8
Shape
100
AcDbLine
 10
215
 20
25.8257
 30
0
 11
215.5
 21
25.8505
 31
0
  0
LINE
  5
BB7
330
A02
100
AcDbEntity
  8
Shape
100
AcDbLine
 10
215.5
 20
25.8505
 30
0
 11
216
 21
25.8752
 31
0
  0
LINE
  5
BB8
330
A02
100
AcDbEntity
  8
Shape
100
AcDbLine
 10
216
 20
25.8752
 30
0
 11
216.5
 21
25.8997
 31
0
  0
LINE
  5
BB9
330
A02
100
AcDbEntity
  8
Shape
100
AcDbLine
 10
216.5
 20
25.8997
 30
0
 11
217
 21
25.9241
 31
0
  0
LINE
  5
BBA
330
A02
100
AcDbEntity
  8
Shape
100
AcDbLine
 10
217
 20
25.9241
 30
0
 11
217.5
 21
25.9482
 31
0
  0
LINE
  5
BBB
330
A02
100
AcDbEntity
  8
Shape
100
AcDbLine
 10
217.5
 20
25.9482
 30
0
 11
218
 21
25.9722
 31
0
  0
LINE
  5
BBC
330
A02
100
AcDbEntity
  8
Shape
100
AcDbLine
 10
218
 20
25.9722
 30
0
 11
218.5
 21
25.996
 31
0
  0
LINE
  5
BBD
330
A02
100
AcDbEntity
  8
Shape
100
AcDbLine
 10
218.5
 20
25.996
 30
0
 11
219
 21
26.0196
 31
0
  0
LINE
  5
BBE
330
A02
100
AcDbEntity
  8
Shape
100
AcDbLine
 10
219
 20
26.0196
 30
0
 11
219.5
 21
26.043
 31
0
  0
LINE
  5
BBF
330
A02
100
AcDbEntity
  8
Shape
100
AcDbLine
 10
219.5
 20
26.043
 30
0
 11
220
 21
26.0662
 31
0
  0
LINE
  5
BC0
330
A02
100
AcDbEntity
  8
Shape
100
AcDbLine
 10
220
 20
26.0662
 30
0
 11
220.5
 21
26.0893
 31
0
  0
LINE
  5
BC1
330
A02
100
AcDbEntity
  8
Shape
100
AcDbLine
 10
220.5
 20
26.0893
 30
0
 11
221
 21
26.1121
 31
0
  0
LINE
  5
BC2
330
A02
100
AcDbEntity
  8
Shape
100
AcDbLine
 10
221
 20
26.1121
 30
0
 11
221.5
 21
26.1348
 31
0
  0
LINE
  5
BC3
330
A02
100
AcDbEntity
  8
Shape
100
AcDbLine
 10
221.5
 20
26.1348
 30
0
 11
222
 21
26.1573
 31
0
  0
LINE
  5
BC4
330
A02
100
AcDbEntity
  8
Shape
100
AcDbLine
 10
222
 20
26.1573
 30
0
 11
222.5
 21
26.1796
 31
0
  0
LINE
  5
BC5
330
A02
100
AcDbEntity
  8
Shape
100
AcDbLine
 10
222.5
 20
26.1796
 30
0
 11
223
 21
26.2017
 31
0
  0
LINE
  5
BC6
330
A02
100
AcDbEntity
  8
Shape
100
AcDbLine
 10
223
 20
26.2017
 30
0
 11
223.5
 21
26.2235
 31
0
  0
LINE
  5
BC7
330
A02
100
AcDbEntity
  8
Shape
100
AcDbLine
 10
223.5
 20
26.2235
 30
0
 11
224
 21
26.2452
 31
0
  0
LINE
  5
BC8
330
A02
100
AcDbEntity
  8
Shape
100
AcDbLine
 10
224
 20
26.2452
 30
0
 11
224.5
 21
26.2667
 31
0
  0
LINE
  5
BC9
330
A02
100
AcDbEntity
  8
Shape
100
AcDbLine
 10
224.5
 20
26.2667
 30
0
 11
225
 21
26.288
 31
0
  0
LINE
  5
BCA
330
A02
100
AcDbEntity
  8
Shape
100
AcDbLine
 10
225
 20
26.288
 30
0
 11
225.5
 21
26.3091
 31
0
  0
LINE
  5
BCB
330
A02
100
AcDbEntity
  8
Shape
100
AcDbLine
 10
225.5
 20
26.3091
 30
0
 11
226
 21
26.33
 31
0
  0
LINE
  5
BCC
330
A02
100
AcDbEntity
  8
Shape
100
AcDbLine
 10
226
 20
26.33
 30
0
 11
226.5
 21
26.3506
 31
0
  0
LINE
  5
BCD
330
A02
100
AcDbEntity
  8
Shape
100
AcDbLine
 10
226.5
 20
26.3506
 30
0
 11
227
 21
26.3711
 31
0
  0
LINE
  5
BCE
330
A02
100
AcDbEntity
  8
Shape
100
AcDbLine
 10
227
 20
26.3711
 30
0
 11
227.5
 21
26.3913
 31
0
  0
LINE
  5
BCF
330
A02
100
AcDbEntity
  8
Shape
100
AcDbLine
 10
227.5
 20
26.3913
 30
0
 11
228
 21
26.4114
 31
0
  0
LINE
  5
BD0
330
A02
100
AcDbEntity
  8
Shape
100
AcDbLine
 10
228
 20
26.4114
 30
0
 11
228.5
 21
26.4312
 31
0
  0
LINE
  5
BD1
330
A02
100
AcDbEntity
  8
Shape
100
AcDbLine
 10
228.5
 20
26.4312
 30
0
 11
229
 21
26.4507
 31
0
  0
LINE
  5
BD2
330
A02
100
AcDbEntity
  8
Shape
100
AcDbLine
 10
229
 20
26.4507
 30
0
 11
229.5
 21
26.4701
 31
0
  0
LINE
  5
BD3
330
A02
100
AcDbEntity
  8
Shape
100
AcDbLine
 10
229.5
 20
26.4701
 30
0
 11
230
 21
26.4892
 31
0
  0
LINE
  5
BD4
330
A02
100
AcDbEntity
  8
Shape
100
AcDbLine
 10
230
 20
26.4892
 30
0
 11
230.5
 21
26.5081
 31
0
  0
LINE
  5
BD5
330
A02
100
AcDbEntity
  8
Shape
100
AcDbLine
 10
230.5
 20
26.5081
 30
0
 11
231
 21
26.5268
 31
0
  0
LINE
  5
BD6
330
A02
100
AcDbEntity
  8
Shape
100
AcDbLine
 10
231
 20
26.5268
 30
0
 11
231.5
 21
26.5452
 31
0
  0
LINE
  5
BD7
330
A02
100
AcDbEntity
  8
Shape
100
AcDbLine
 10
231.5
 20
26.5452
 30
0
 11
232
 21
26.5634
 31
0
  0
LINE
  5
BD8
330
A02
100
AcDbEntity
  8
Shape
100
AcDbLine
 10
232
 20
26.5634
 30
0
 11
232.5
 21
26.5813
 31
0
  0
LINE
  5
BD9
330
A02
100
AcDbEntity
  8
Shape
100
AcDbLine
 10
232.5
 20
26.5813
 30
0
 11
233
 21
26.599
 31
0
  0
LINE
  5
BDA
330
A02
100
AcDbEntity
  8
Shape
100
AcDbLine
 10
233
 20
26.599
 30
0
 11
233.5
 21
26.6165
 31
0
  0
LINE
  5
BDB
330
A02
100
AcDbEntity
  8
Shape
100
AcDbLine
 10
233.5
 20
26.6165
 30
0
 11
234
 21
26.6337
 31
0
  0
LINE
  5
BDC
330
A02
100
AcDbEntity
  8
Shape
100
AcDbLine
 10
234
 20
26.6337
 30
0
 11
234.5
 21
26.6506
 31
0
  0
LINE
  5
BDD
330
A02
100
AcDbEntity
  8
Shape
100
AcDbLine
 10
234.5
 20
26.6506
 30
0
 11
235
 21
26.6673
 31
0
  0
LINE
  5
BDE
330
A02
100
AcDbEntity
  8
Shape
100
AcDbLine
 10
235
 20
26.6673
 30
0
 11
235.5
 21
26.6836
 31
0
  0
LINE
  5
BDF
330
A02
100
AcDbEntity
  8
Shape
100
AcDbLine
 10
235.5
 20
26.6836
 30
0
 11
236
 21
26.6998
 31
0
  0
LINE
  5
BE0
330
A02
100
AcDbEntity
  8
Shape
100
AcDbLine
 10
236
 20
26.6998
 30
0
 11
236.5
 21
26.7156
 31
0
  0
LINE
  5
BE1
330
A02
100
AcDbEntity
  8
Shape
100
AcDbLine
 10
236.5
 20
26.7156
 30
0
 11
237
 21
26.7312
 31
0
  0
LINE
  5
BE2
330
A02
100
AcDbEntity
  8
Shape
100
AcDbLine
 10
237
 20
26.7312
 30
0
 11
237.5
 21
26.7465
 31
0
  0
LINE
  5
BE3
330
A02
100
AcDbEntity
  8
Shape
100
AcDbLine
 10
237.5
 20
26.7465
 30
0
 11
238
 21
26.7614
 31
0
  0
LINE
  5
BE4
330
A02
100
AcDbEntity
  8
Shape
100
AcDbLine
 10
238
 20
26.7614
 30
0
 11
238.5
 21
26.7761
 31
0
  0
LINE
  5
BE5
330
A02
100
AcDbEntity
  8
Shape
100
AcDbLine
 10
238.5
 20
26.7761
 30
0
 11
239
 21
26.7905
 31
0
  0
LINE
  5
BE6
330
A02
100
AcDbEntity
  8
Shape
100
AcDbLine
 10
239
 20
26.7905
 30
0
 11
239.5
 21
26.8045
 31
0
  0
LINE
  5
BE7
330
A02
100
AcDbEntity
  8
Shape
100
AcDbLine
 10
239.5
 20
26.8045
 30
0
 11
240
 21
26.8183
 31
0
  0
LINE
  5
BE8
330
A02
100
AcDbEntity
  8
Shape
100
AcDbLine
 10
240
 20
26.8183
 30
0
 11
240.5
 21
26.8317
 31
0
  0
LINE
  5
BE9
330
A02
100
AcDbEntity
  8
Shape
100
AcDbLine
 10
240.5
 20
26.8317
 30
0
 11
241
 21
26.8447
 31
0
  0
LINE
  5
BEA
330
A02
100
AcDbEntity
  8
Shape
100
AcDbLine
 10
241
 20
26.8447
 30
0
 11
241.5
 21
26.8574
 31
0
  0
LINE
  5
BEB
330
A02
100
AcDbEntity
  8
Shape
100
AcDbLine
 10
241.5
 20
26.8574
 30
0
 11
242
 21
26.8698
 31
0
  0
LINE
  5
BEC
330
A02
100
AcDbEntity
  8
Shape
100
AcDbLine
 10
242
 20
26.8698
 30
0
 11
242.5
 21
26.8817
 31
0
  0
LINE
  5
BED
330
A02
100
AcDbEntity
  8
Shape
100
AcDbLine
 10
242.5
 20
26.8817
 30
0
 11
243
 21
26.8933
 31
0
  0
LINE
  5
BEE
330
A02
100
AcDbEntity
  8
Shape
100
AcDbLine
 10
243
 20
26.8933
 30
0
 11
243.5
 21
26.9045
 31
0
  0
LINE
  5
BEF
330
A02
100
AcDbEntity
  8
Shape
100
AcDbLine
 10
243.5
 20
26.9045
 30
0
 11
244
 21
26.9153
 31
0
  0
LINE
  5
BF0
330
A02
100
AcDbEntity
  8
Shape
100
AcDbLine
 10
244
 20
26.9153
 30
0
 11
244.5
 21
26.9256
 31
0
  0
LINE
  5
BF1
330
A02
100
AcDbEntity
  8
Shape
100
AcDbLine
 10
244.5
 20
26.9256
 30
0
 11
245
 21
26.9355
 31
0
  0
LINE
  5
BF2
330
A02
100
AcDbEntity
  8
Shape
100
AcDbLine
 10
245
 20
26.9355
 30
0
 11
245.5
 21
26.9449
 31
0
  0
LINE
  5
BF3
330
A02
100
AcDbEntity
  8
Shape
100
AcDbLine
 10
245.5
 20
26.9449
 30
0
 11
246
 21
26.9538
 31
0
  0
LINE
  5
BF4
330
A02
100
AcDbEntity
  8
Shape
100
AcDbLine
 10
246
 20
26.9538
 30
0
 11
246.5
 21
26.9622
 31
0
  0
LINE
  5
BF5
330
A02
100
AcDbEntity
  8
Shape
100
AcDbLine
 10
246.5
 20
26.9622
 30
0
 11
247
 21
26.97
 31
0
  0
LINE
  5
BF6
330
A02
100
AcDbEntity
  8
Shape
100
AcDbLine
 10
247
 20
26.97
 30
0
 11
247.5
 21
26.9771
 31
0
  0
LINE
  5
BF7
330
A02
100
AcDbEntity
  8
Shape
100
AcDbLine
 10
247.5
 20
26.9771
 30
0
 11
248
 21
26.9836
 31
0
  0
LINE
  5
BF8
330
A02
100
AcDbEntity
  8
Shape
100
AcDbLine
 10
248
 20
26.9836
 30
0
 11
248.5
 21
26.9894
 31
0
  0
LINE
  5
BF9
330
A02
100
AcDbEntity
  8
Shape
100
AcDbLine
 10
248.5
 20
26.9894
 30
0
 11
249
 21
26.9942
 31
0
  0
LINE
  5
BFA
330
A02
100
AcDbEntity
  8
Shape
100
AcDbLine
 10
249
 20
26.9942
 30
0
 11
249.5
 21
26.998
 31
0
  0
LINE
  5
BFB
330
A02
100
AcDbEntity
  8
Shape
100
AcDbLine
 10
249.5
 20
26.998
 30
0
 11
250
 21
27
 31
0
  0
LINE
  5
BFC
330
A02
100
AcDbEntity
  8
Shape
100
AcDbLine
 10
250
 20
27
 30
0
 11
250
 21
25.4
 31
0
  0
LINE
  5
BFD
330
A02
100
AcDbEntity
  8
Shape
100
AcDbLine
 10
250
 20
25.4
 30
0
 11
300
 21
25.4
 31
0
  0
LINE
  5
BFE
330
A02
100
AcDbEntity
  8
Shape
100
AcDbLine
 10
300
 20
25.4
 30
0
 11
300
 21
22.9
 31
0
  0
LINE
  5
BFF
330
A02
100
AcDbEntity
  8
Shape
100
AcDbLine
 10
300
 20
22.9
 30
0
 11
250
 21
22.9
 31
0
  0
LINE
  5
C00
330
A02
100
AcDbEntity
  8
Shape
100
AcDbLine
 10
250
 20
22.9
 30
0
 11
249.52
 21
22.9
 31
0
  0
LINE
  5
C01
330
A02
100
AcDbEntity
  8
Shape
100
AcDbLine
 10
249.52
 20
22.9
 30
0
 11
249.04
 21
22.9
 31
0
  0
LINE
  5
C02
330
A02
100
AcDbEntity
  8
Shape
100
AcDbLine
 10
249.04
 20
22.9
 30
0
 11
248.56
 21
22.9
 31
0
  0
LINE
  5
C03
330
A02
100
AcDbEntity
  8
Shape
100
AcDbLine
 10
248.56
 20
22.9
 30
0
 11
248.08
 21
22.9
 31
0
  0
LINE
  5
C04
330
A02
100
AcDbEntity
  8
Shape
100
AcDbLine
 10
248.08
 20
22.9
 30
0
 11
247.6
 21
22.9
 31
0
  0
LINE
  5
C05
330
A02
100
AcDbEntity
  8
Shape
100
AcDbLine
 10
247.6
 20
22.9
 30
0
 11
247.12
 21
22.9
 31
0
  0
LINE
  5
C06
330
A02
100
AcDbEntity
  8
Shape
100
AcDbLine
 10
247.12
 20
22.9
 30
0
 11
246.64
 21
22.9
 31
0
  0
LINE
  5
C07
330
A02
100
AcDbEntity
  8
Shape
100
AcDbLine
 10
246.64
 20
22.9
 30
0
 11
246.16
 21
22.9
 31
0
  0
LINE
  5
C08
330
A02
100
AcDbEntity
  8
Shape
100
AcDbLine
 10
246.16
 20
22.9
 30
0
 11
245.68
 21
22.9
 31
0
  0
LINE
  5
C09
330
A02
100
AcDbEntity
  8
Shape
100
AcDbLine
 10
245.68
 20
22.9
 30
0
 11
245.2
 21
22.9
 31
0
  0
LINE
  5
C0A
330
A02
100
AcDbEntity
  8
Shape
100
AcDbLine
 10
245.2
 20
22.9
 30
0
 11
244.72
 21
22.9
 31
0
  0
LINE
  5
C0B
330
A02
100
AcDbEntity
  8
Shape
100
AcDbLine
 10
244.72
 20
22.9
 30
0
 11
244.24
 21
22.9
 31
0
  0
LINE
  5
C0C
330
A02
100
AcDbEntity
  8
Shape
100
AcDbLine
 10
244.24
 20
22.9
 30
0
 11
243.76
 21
22.9
 31
0
  0
LINE
  5
C0D
330
A02
100
AcDbEntity
  8
Shape
100
AcDbLine
 10
243.76
 20
22.9
 30
0
 11
243.28
 21
22.9
 31
0
  0
LINE
  5
C0E
330
A02
100
AcDbEntity
  8
Shape
100
AcDbLine
 10
243.28
 20
22.9
 30
0
 11
242.8
 21
22.9
 31
0
  0
LINE
  5
C0F
330
A02
100
AcDbEntity
  8
Shape
100
AcDbLine
 10
242.8
 20
22.9
 30
0
 11
242.32
 21
22.9
 31
0
  0
LINE
  5
C10
330
A02
100
AcDbEntity
  8
Shape
100
AcDbLine
 10
242.32
 20
22.9
 30
0
 11
241.84
 21
22.9
 31
0
  0
LINE
  5
C11
330
A02
100
AcDbEntity
  8
Shape
100
AcDbLine
 10
241.84
 20
22.9
 30
0
 11
241.36
 21
22.9
 31
0
  0
LINE
  5
C12
330
A02
100
AcDbEntity
  8
Shape
100
AcDbLine
 10
241.36
 20
22.9
 30
0
 11
240.88
 21
22.9
 31
0
  0
LINE
  5
C13
330
A02
100
AcDbEntity
  8
Shape
100
AcDbLine
 10
240.88
 20
22.9
 30
0
 11
240.4
 21
22.9
 31
0
  0
LINE
  5
C14
330
A02
100
AcDbEntity
  8
Shape
100
AcDbLine
 10
240.4
 20
22.9
 30
0
 11
239.92
 21
22.9
 31
0
  0
LINE
  5
C15
330
A02
100
AcDbEntity
  8
Shape
100
AcDbLine
 10
239.92
 20
22.9
 30
0
 11
239.44
 21
22.9
 31
0
  0
LINE
  5
C16
330
A02
100
AcDbEntity
  8
Shape
100
AcDbLine
 10
239.44
 20
22.9
 30
0
 11
238.96
 21
22.9
 31
0
  0
LINE
  5
C17
330
A02
100
AcDbEntity
  8
Shape
100
AcDbLine
 10
238.96
 20
22.9
 30
0
 11
238.48
 21
22.9
 31
0
  0
LINE
  5
C18
330
A02
100
AcDbEntity
  8
Shape
100
AcDbLine
 10
238.48
 20
22.9
 30
0
 11
238
 21
22.9
 31
0
  0
LINE
  5
C19
330
A02
100
AcDbEntity
  8
Shape
100
AcDbLine
 10
238
 20
22.9
 30
0
 11
237.52
 21
22.9
 31
0
  0
LINE
  5
C1A
330
A02
100
AcDbEntity
  8
Shape
100
AcDbLine
 10
237.52
 20
22.9
 30
0
 11
237.04
 21
22.9
 31
0
  0
LINE
  5
C1B
330
A02
100
AcDbEntity
  8
Shape
100
AcDbLine
 10
237.04
 20
22.9
 30
0
 11
236.56
 21
22.9
 31
0
  0
LINE
  5
C1C
330
A02
100
AcDbEntity
  8
Shape
100
AcDbLine
 10
236.56
 20
22.9
 30
0
 11
236.08
 21
22.9
 31
0
  0
LINE
  5
C1D
330
A02
100
AcDbEntity
  8
Shape
100
AcDbLine
 10
236.08
 20
22.9
 30
0
 11
235.6
 21
22.9
 31
0
  0
LINE
  5
C1E
330
A02
100
AcDbEntity
  8
Shape
100
AcDbLine
 10
235.6
 20
22.9
 30
0
 11
235.12
 21
22.9
 31
0
  0
LINE
  5
C1F
330
A02
100
AcDbEntity
  8
Shape
100
AcDbLine
 10
235.12
 20
22.9
 30
0
 11
234.64
 21
22.9
 31
0
  0
LINE
  5
C20
330
A02
100
AcDbEntity
  8
Shape
100
AcDbLine
 10
234.64
 20
22.9
 30
0
 11
234.16
 21
22.9
 31
0
  0
LINE
  5
C21
330
A02
100
AcDbEntity
  8
Shape
100
AcDbLine
 10
234.16
 20
22.9
 30
0
 11
233.68
 21
22.9
 31
0
  0
LINE
  5
C22
330
A02
100
AcDbEntity
  8
Shape
100
AcDbLine
 10
233.68
 20
22.9
 30
0
 11
233.2
 21
22.9
 31
0
  0
LINE
  5
C23
330
A02
100
AcDbEntity
  8
Shape
100
AcDbLine
 10
233.2
 20
22.9
 30
0
 11
232.72
 21
22.9
 31
0
  0
LINE
  5
C24
330
A02
100
AcDbEntity
  8
Shape
100
AcDbLine
 10
232.72
 20
22.9
 30
0
 11
232.24
 21
22.9
 31
0
  0
LINE
  5
C25
330
A02
100
AcDbEntity
  8
Shape
100
AcDbLine
 10
232.24
 20
22.9
 30
0
 11
231.76
 21
22.9
 31
0
  0
LINE
  5
C26
330
A02
100
AcDbEntity
  8
Shape
100
AcDbLine
 10
231.76
 20
22.9
 30
0
 11
231.28
 21
22.9
 31
0
  0
LINE
  5
C27
330
A02
100
AcDbEntity
  8
Shape
100
AcDbLine
 10
231.28
 20
22.9
 30
0
 11
230.8
 21
22.9
 31
0
  0
LINE
  5
C28
330
A02
100
AcDbEntity
  8
Shape
100
AcDbLine
 10
230.8
 20
22.9
 30
0
 11
230.32
 21
22.9
 31
0
  0
LINE
  5
C29
330
A02
100
AcDbEntity
  8
Shape
100
AcDbLine
 10
230.32
 20
22.9
 30
0
 11
229.84
 21
22.9
 31
0
  0
LINE
  5
C2A
330
A02
100
AcDbEntity
  8
Shape
100
AcDbLine
 10
229.84
 20
22.9
 30
0
 11
229.36
 21
22.9
 31
0
  0
LINE
  5
C2B
330
A02
100
AcDbEntity
  8
Shape
100
AcDbLine
 10
229.36
 20
22.9
 30
0
 11
228.88
 21
22.9
 31
0
  0
LINE
  5
C2C
330
A02
100
AcDbEntity
  8
Shape
100
AcDbLine
 10
228.88
 20
22.9
 30
0
 11
228.4
 21
22.9
 31
0
  0
LINE
  5
C2D
330
A02
100
AcDbEntity
  8
Shape
100
AcDbLine
 10
228.4
 20
22.9
 30
0
 11
227.92
 21
22.9
 31
0
  0
LINE
  5
C2E
330
A02
100
AcDbEntity
  8
Shape
100
AcDbLine
 10
227.92
 20
22.9
 30
0
 11
227.44
 21
22.9
 31
0
  0
LINE
  5
C2F
330
A02
100
AcDbEntity
  8
Shape
100
AcDbLine
 10
227.44
 20
22.9
 30
0
 11
226.96
 21
22.9
 31
0
  0
LINE
  5
C30
330
A02
100
AcDbEntity
  8
Shape
100
AcDbLine
 10
226.96
 20
22.9
 30
0
 11
226.48
 21
22.9
 31
0
  0
LINE
  5
C31
330
A02
100
AcDbEntity
  8
Shape
100
AcDbLine
 10
226.48
 20
22.9
 30
0
 11
226
 21
22.9
 31
0
  0
LINE
  5
C32
330
A02
100
AcDbEntity
  8
Shape
100
AcDbLine
 10
226
 20
22.9
 30
0
 11
225.52
 21
22.9
 31
0
  0
LINE
  5
C33
330
A02
100
AcDbEntity
  8
Shape
100
AcDbLine
 10
225.52
 20
22.9
 30
0
 11
225.04
 21
22.9
 31
0
  0
LINE
  5
C34
330
A02
100
AcDbEntity
  8
Shape
100
AcDbLine
 10
225.04
 20
22.9
 30
0
 11
224.56
 21
22.9
 31
0
  0
LINE
  5
C35
330
A02
100
AcDbEntity
  8
Shape
100
AcDbLine
 10
224.56
 20
22.9
 30
0
 11
224.08
 21
22.9
 31
0
  0
LINE
  5
C36
330
A02
100
AcDbEntity
  8
Shape
100
AcDbLine
 10
224.08
 20
22.9
 30
0
 11
223.6
 21
22.9
 31
0
  0
LINE
  5
C37
330
A02
100
AcDbEntity
  8
Shape
100
AcDbLine
 10
223.6
 20
22.9
 30
0
 11
223.12
 21
22.9
 31
0
  0
LINE
  5
C38
330
A02
100
AcDbEntity
  8
Shape
100
AcDbLine
 10
223.12
 20
22.9
 30
0
 11
222.64
 21
22.9
 31
0
  0
LINE
  5
C39
330
A02
100
AcDbEntity
  8
Shape
100
AcDbLine
 10
222.64
 20
22.9
 30
0
 11
222.16
 21
22.9
 31
0
  0
LINE
  5
C3A
330
A02
100
AcDbEntity
  8
Shape
100
AcDbLine
 10
222.16
 20
22.9
 30
0
 11
221.68
 21
22.9
 31
0
  0
LINE
  5
C3B
330
A02
100
AcDbEntity
  8
Shape
100
AcDbLine
 10
221.68
 20
22.9
 30
0
 11
221.2
 21
22.9
 31
0
  0
LINE
  5
C3C
330
A02
100
AcDbEntity
  8
Shape
100
AcDbLine
 10
221.2
 20
22.9
 30
0
 11
220.72
 21
22.9
 31
0
  0
LINE
  5
C3D
330
A02
100
AcDbEntity
  8
Shape
100
AcDbLine
 10
220.72
 20
22.9
 30
0
 11
220.24
 21
22.9
 31
0
  0
LINE
  5
C3E
330
A02
100
AcDbEntity
  8
Shape
100
AcDbLine
 10
220.24
 20
22.9
 30
0
 11
219.76
 21
22.9
 31
0
  0
LINE
  5
C3F
330
A02
100
AcDbEntity
  8
Shape
100
AcDbLine
 10
219.76
 20
22.9
 30
0
 11
219.28
 21
22.9
 31
0
  0
LINE
  5
C40
330
A02
100
AcDbEntity
  8
Shape
100
AcDbLine
 10
219.28
 20
22.9
 30
0
 11
218.8
 21
22.9
 31
0
  0
LINE
  5
C41
330
A02
100
AcDbEntity
  8
Shape
100
AcDbLine
 10
218.8
 20
22.9
 30
0
 11
218.32
 21
22.9
 31
0
  0
LINE
  5
C42
330
A02
100
AcDbEntity
  8
Shape
100
AcDbLine
 10
218.32
 20
22.9
 30
0
 11
217.84
 21
22.9
 31
0
  0
LINE
  5
C43
330
A02
100
AcDbEntity
  8
Shape
100
AcDbLine
 10
217.84
 20
22.9
 30
0
 11
217.36
 21
22.9
 31
0
  0
LINE
  5
C44
330
A02
100
AcDbEntity
  8
Shape
100
AcDbLine
 10
217.36
 20
22.9
 30
0
 11
216.88
 21
22.9
 31
0
  0
LINE
  5
C45
330
A02
100
AcDbEntity
  8
Shape
100
AcDbLine
 10
216.88
 20
22.9
 30
0
 11
216.4
 21
22.9
 31
0
  0
LINE
  5
C46
330
A02
100
AcDbEntity
  8
Shape
100
AcDbLine
 10
216.4
 20
22.9
 30
0
 11
215.92
 21
22.9
 31
0
  0
LINE
  5
C47
330
A02
100
AcDbEntity
  8
Shape
100
AcDbLine
 10
215.92
 20
22.9
 30
0
 11
215.44
 21
22.9
 31
0
  0
LINE
  5
C48
330
A02
100
AcDbEntity
  8
Shape
100
AcDbLine
 10
215.44
 20
22.9
 30
0
 11
214.96
 21
22.9
 31
0
  0
LINE
  5
C49
330
A02
100
AcDbEntity
  8
Shape
100
AcDbLine
 10
214.96
 20
22.9
 30
0
 11
214.48
 21
22.9
 31
0
  0
LINE
  5
C4A
330
A02
100
AcDbEntity
  8
Shape
100
AcDbLine
 10
214.48
 20
22.9
 30
0
 11
214
 21
22.9
 31
0
  0
LINE
  5
C4B
330
A02
100
AcDbEntity
  8
Shape
100
AcDbLine
 10
214
 20
22.9
 30
0
 11
213.52
 21
22.9
 31
0
  0
LINE
  5
C4C
330
A02
100
AcDbEntity
  8
Shape
100
AcDbLine
 10
213.52
 20
22.9
 30
0
 11
213.04
 21
22.9
 31
0
  0
LINE
  5
C4D
330
A02
100
AcDbEntity
  8
Shape
100
AcDbLine
 10
213.04
 20
22.9
 30
0
 11
212.56
 21
22.9
 31
0
  0
LINE
  5
C4E
330
A02
100
AcDbEntity
  8
Shape
100
AcDbLine
 10
212.56
 20
22.9
 30
0
 11
212.08
 21
22.9
 31
0
  0
LINE
  5
C4F
330
A02
100
AcDbEntity
  8
Shape
100
AcDbLine
 10
212.08
 20
22.9
 30
0
 11
211.6
 21
22.9
 31
0
  0
LINE
  5
C50
330
A02
100
AcDbEntity
  8
Shape
100
AcDbLine
 10
211.6
 20
22.9
 30
0
 11
211.12
 21
22.9
 31
0
  0
LINE
  5
C51
330
A02
100
AcDbEntity
  8
Shape
100
AcDbLine
 10
211.12
 20
22.9
 30
0
 11
210.64
 21
22.9
 31
0
  0
LINE
  5
C52
330
A02
100
AcDbEntity
  8
Shape
100
AcDbLine
 10
210.64
 20
22.9
 30
0
 11
210.16
 21
22.9
 31
0
  0
LINE
  5
C53
330
A02
100
AcDbEntity
  8
Shape
100
AcDbLine
 10
210.16
 20
22.9
 30
0
 11
209.68
 21
22.9
 31
0
  0
LINE
  5
C54
330
A02
100
AcDbEntity
  8
Shape
100
AcDbLine
 10
209.68
 20
22.9
 30
0
 11
209.2
 21
22.9
 31
0
  0
LINE
  5
C55
330
A02
100
AcDbEntity
  8
Shape
100
AcDbLine
 10
209.2
 20
22.9
 30
0
 11
208.72
 21
22.9
 31
0
  0
LINE
  5
C56
330
A02
100
AcDbEntity
  8
Shape
100
AcDbLine
 10
208.72
 20
22.9
 30
0
 11
208.24
 21
22.9
 31
0
  0
LINE
  5
C57
330
A02
100
AcDbEntity
  8
Shape
100
AcDbLine
 10
208.24
 20
22.9
 30
0
 11
207.76
 21
22.9
 31
0
  0
LINE
  5
C58
330
A02
100
AcDbEntity
  8
Shape
100
AcDbLine
 10
207.76
 20
22.9
 30
0
 11
207.28
 21
22.9
 31
0
  0
LINE
  5
C59
330
A02
100
AcDbEntity
  8
Shape
100
AcDbLine
 10
207.28
 20
22.9
 30
0
 11
206.8
 21
22.9
 31
0
  0
LINE
  5
C5A
330
A02
100
AcDbEntity
  8
Shape
100
AcDbLine
 10
206.8
 20
22.9
 30
0
 11
206.32
 21
22.9
 31
0
  0
LINE
  5
C5B
330
A02
100
AcDbEntity
  8
Shape
100
AcDbLine
 10
206.32
 20
22.9
 30
0
 11
205.84
 21
22.9
 31
0
  0
LINE
  5
C5C
330
A02
100
AcDbEntity
  8
Shape
100
AcDbLine
 10
205.84
 20
22.9
 30
0
 11
205.36
 21
22.8743
 31
0
  0
LINE
  5
C5D
330
A02
100
AcDbEntity
  8
Shape
100
AcDbLine
 10
205.36
 20
22.8743
 30
0
 11
204.88
 21
22.8482
 31
0
  0
LINE
  5
C5E
330
A02
100
AcDbEntity
  8
Shape
100
AcDbLine
 10
204.88
 20
22.8482
 30
0
 11
204.4
 21
22.822
 31
0
  0
LINE
  5
C5F
330
A02
100
AcDbEntity
  8
Shape
100
AcDbLine
 10
204.4
 20
22.822
 30
0
 11
203.92
 21
22.7956
 31
0
  0
LINE
  5
C60
330
A02
100
AcDbEntity
  8
Shape
100
AcDbLine
 10
203.92
 20
22.7956
 30
0
 11
203.44
 21
22.7692
 31
0
  0
LINE
  5
C61
330
A02
100
AcDbEntity
  8
Shape
100
AcDbLine
 10
203.44
 20
22.7692
 30
0
 11
202.96
 21
22.7426
 31
0
  0
LINE
  5
C62
330
A02
100
AcDbEntity
  8
Shape
100
AcDbLine
 10
202.96
 20
22.7426
 30
0
 11
202.48
 21
22.7158
 31
0
  0
LINE
  5
C63
330
A02
100
AcDbEntity
  8
Shape
100
AcDbLine
 10
202.48
 20
22.7158
 30
0
 11
202
 21
22.6889
 31
0
  0
LINE
  5
C64
330
A02
100
AcDbEntity
  8
Shape
100
AcDbLine
 10
202
 20
22.6889
 30
0
 11
201.52
 21
22.6619
 31
0
  0
LINE
  5
C65
330
A02
100
AcDbEntity
  8
Shape
100
AcDbLine
 10
201.52
 20
22.6619
 30
0
 11
201.04
 21
22.6348
 31
0
  0
LINE
  5
C66
330
A02
100
AcDbEntity
  8
Shape
100
AcDbLine
 10
201.04
 20
22.6348
 30
0
 11
200.56
 21
22.6075
 31
0
  0
LINE
  5
C67
330
A02
100
AcDbEntity
  8
Shape
100
AcDbLine
 10
200.56
 20
22.6075
 30
0
 11
200.08
 21
22.5801
 31
0
  0
LINE
  5
C68
330
A02
100
AcDbEntity
  8
Shape
100
AcDbLine
 10
200.08
 20
22.5801
 30
0
 11
199.6
 21
22.5525
 31
0
  0
LINE
  5
C69
330
A02
100
AcDbEntity
  8
Shape
100
AcDbLine
 10
199.6
 20
22.5525
 30
0
 11
199.12
 21
22.5249
 31
0
  0
LINE
  5
C6A
330
A02
100
AcDbEntity
  8
Shape
100
AcDbLine
 10
199.12
 20
22.5249
 30
0
 11
198.64
 21
22.4971
 31
0
  0
LINE
  5
C6B
330
A02
100
AcDbEntity
  8
Shape
100
AcDbLine
 10
198.64
 20
22.4971
 30
0
 11
198.16
 21
22.4691
 31
0
  0
LINE
  5
C6C
330
A02
100
AcDbEntity
  8
Shape
100
AcDbLine
 10
198.16
 20
22.4691
 30
0
 11
197.68
 21
22.4411
 31
0
  0
LINE
  5
C6D
330
A02
100
AcDbEntity
  8
Shape
100
AcDbLine
 10
197.68
 20
22.4411
 30
0
 11
197.2
 21
22.4129
 31
0
  0
LINE
  5
C6E
330
A02
100
AcDbEntity
  8
Shape
100
AcDbLine
 10
197.2
 20
22.4129
 30
0
 11
196.72
 21
22.3846
 31
0
  0
LINE
  5
C6F
330
A02
100
AcDbEntity
  8
Shape
100
AcDbLine
 10
196.72
 20
22.3846
 30
0
 11
196.24
 21
22.3561
 31
0
  0
LINE
  5
C70
330
A02
100
AcDbEntity
  8
Shape
100
AcDbLine
 10
196.24
 20
22.3561
 30
0
 11
195.76
 21
22.3276
 31
0
  0
LINE
  5
C71
330
A02
100
AcDbEntity
  8
Shape
100
AcDbLine
 10
195.76
 20
22.3276
 30
0
 11
195.28
 21
22.2989
 31
0
  0
LINE
  5
C72
330
A02
100
AcDbEntity
  8
Shape
100
AcDbLine
 10
195.28
 20
22.2989
 30
0
 11
194.8
 21
22.27
 31
0
  0
LINE
  5
C73
330
A02
100
AcDbEntity
  8
Shape
100
AcDbLine
 10
194.8
 20
22.27
 30
0
 11
194.32
 21
22.2411
 31
0
  0
LINE
  5
C74
330
A02
100
AcDbEntity
  8
Shape
100
AcDbLine
 10
194.32
 20
22.2411
 30
0
 11
193.84
 21
22.212
 31
0
  0
LINE
  5
C75
330
A02
100
AcDbEntity
  8
Shape
100
AcDbLine
 10
193.84
 20
22.212
 30
0
 11
193.36
 21
22.1828
 31
0
  0
LINE
  5
C76
330
A02
100
AcDbEntity
  8
Shape
100
AcDbLine
 10
193.36
 20
22.1828
 30
0
 11
192.88
 21
22.1535
 31
0
  0
LINE
  5
C77
330
A02
100
AcDbEntity
  8
Shape
100
AcDbLine
 10
192.88
 20
22.1535
 30
0
 11
192.4
 21
22.1241
 31
0
  0
LINE
  5
C78
330
A02
100
AcDbEntity
  8
Shape
100
AcDbLine
 10
192.4
 20
22.1241
 30
0
 11
191.92
 21
22.0945
 31
0
  0
LINE
  5
C79
330
A02
100
AcDbEntity
  8
Shape
100
AcDbLine
 10
191.92
 20
22.0945
 30
0
 11
191.44
 21
22.0648
 31
0
  0
LINE
  5
C7A
330
A02
100
AcDbEntity
  8
Shape
100
AcDbLine
 10
191.44
 20
22.0648
 30
0
 11
190.96
 21
22.035
 31
0
  0
LINE
  5
C7B
330
A02
100
AcDbEntity
  8
Shape
100
AcDbLine
 10
190.96
 20
22.035
 30
0
 11
190.48
 21
22.0051
 31
0
  0
LINE
  5
C7C
330
A02
100
AcDbEntity
  8
Shape
100
AcDbLine
 10
190.48
 20
22.0051
 30
0
 11
190
 21
21.975
 31
0
  0
LINE
  5
C7D
330
A02
100
AcDbEntity
  8
Shape
100
AcDbLine
 10
190
 20
21.975
 30
0
 11
189.52
 21
21.9448
 31
0
  0
LINE
  5
C7E
330
A02
100
AcDbEntity
  8
Shape
100
AcDbLine
 10
189.52
 20
21.9448
 30
0
 11
189.04
 21
21.9145
 31
0
  0
LINE
  5
C7F
330
A02
100
AcDbEntity
  8
Shape
100
AcDbLine
 10
189.04
 20
21.9145
 30
0
 11
188.56
 21
21.8841
 31
0
  0
LINE
  5
C80
330
A02
100
AcDbEntity
  8
Shape
100
AcDbLine
 10
188.56
 20
21.8841
 30
0
 11
188.08
 21
21.8536
 31
0
  0
LINE
  5
C81
330
A02
100
AcDbEntity
  8
Shape
100
AcDbLine
 10
188.08
 20
21.8536
 30
0
 11
187.6
 21
21.8229
 31
0
  0
LINE
  5
C82
330
A02
100
AcDbEntity
  8
Shape
100
AcDbLine
 10
187.6
 20
21.8229
 30
0
 11
187.12
 21
21.7921
 31
0
  0
LINE
  5
C83
330
A02
100
AcDbEntity
  8
Shape
100
AcDbLine
 10
187.12
 20
21.7921
 30
0
 11
186.64
 21
21.7612
 31
0
  0
LINE
  5
C84
330
A02
100
AcDbEntity
  8
Shape
100
AcDbLine
 10
186.64
 20
21.7612
 30
0
 11
186.16
 21
21.7302
 31
0
  0
LINE
  5
C85
330
A02
100
AcDbEntity
  8
Shape
100
AcDbLine
 10
186.16
 20
21.7302
 30
0
 11
185.68
 21
21.699
 31
0
  0
LINE
  5
C86
330
A02
100
AcDbEntity
  8
Shape
100
AcDbLine
 10
185.68
 20
21.699
 30
0
 11
185.2
 21
21.6678
 31
0
  0
LINE
  5
C87
330
A02
100
AcDbEntity
  8
Shape
100
AcDbLine
 10
185.2
 20
21.6678
 30
0
 11
184.72
 21
21.6364
 31
0
  0
LINE
  5
C88
330
A02
100
AcDbEntity
  8
Shape
100
AcDbLine
 10
184.72
 20
21.6364
 30
0
 11
184.24
 21
21.6049
 31
0
  0
LINE
  5
C89
330
A02
100
AcDbEntity
  8
Shape
100
AcDbLine
 10
184.24
 20
21.6049
 30
0
 11
183.76
 21
21.5733
 31
0
  0
LINE
  5
C8A
330
A02
100
AcDbEntity
  8
Shape
100
AcDbLine
 10
183.76
 20
21.5733
 30
0
 11
183.28
 21
21.5416
 31
0
  0
LINE
  5
C8B
330
A02
100
AcDbEntity
  8
Shape
100
AcDbLine
 10
183.28
 20
21.5416
 30
0
 11
182.8
 21
21.5097
 31
0
  0
LINE
  5
C8C
330
A02
100
AcDbEntity
  8
Shape
100
AcDbLine
 10
182.8
 20
21.5097
 30
0
 11
182.32
 21
21.4777
 31
0
  0
LINE
  5
C8D
330
A02
100
AcDbEntity
  8
Shape
100
AcDbLine
 10
182.32
 20
21.4777
 30
0
 11
181.84
 21
21.4457
 31
0
  0
LINE
  5
C8E
330
A02
100
AcDbEntity
  8
Shape
100
AcDbLine
 10
181.84
 20
21.4457
 30
0
 11
181.36
 21
21.4135
 31
0
  0
LINE
  5
C8F
330
A02
100
AcDbEntity
  8
Shape
100
AcDbLine
 10
181.36
 20
21.4135
 30
0
 11
180.88
 21
21.3812
 31
0
  0
LINE
  5
C90
330
A02
100
AcDbEntity
  8
Shape
100
AcDbLine
 10
180.88
 20
21.3812
 30
0
 11
180.4
 21
21.3487
 31
0
  0
LINE
  5
C91
330
A02
100
AcDbEntity
  8
Shape
100
AcDbLine
 10
180.4
 20
21.3487
 30
0
 11
179.92
 21
21.3162
 31
0
  0
LINE
  5
C92
330
A02
100
AcDbEntity
  8
Shape
100
AcDbLine
 10
179.92
 20
21.3162
 30
0
 11
179.44
 21
21.2835
 31
0
  0
LINE
  5
C93
330
A02
100
AcDbEntity
  8
Shape
100
AcDbLine
 10
179.44
 20
21.2835
 30
0
 11
178.96
 21
21.2507
 31
0
  0
LINE
  5
C94
330
A02
100
AcDbEntity
  8
Shape
100
AcDbLine
 10
178.96
 20
21.2507
 30
0
 11
178.48
 21
21.2178
 31
0
  0
LINE
  5
C95
330
A02
100
AcDbEntity
  8
Shape
100
AcDbLine
 10
178.48
 20
21.2178
 30
0
 11
178
 21
21.1848
 31
0
  0
LINE
  5
C96
330
A02
100
AcDbEntity
  8
Shape
100
AcDbLine
 10
178
 20
21.1848
 30
0
 11
177.52
 21
21.1517
 31
0
  0
LINE
  5
C97
330
A02
100
AcDbEntity
  8
Shape
100
AcDbLine
 10
177.52
 20
21.1517
 30
0
 11
177.04
 21
21.1185
 31
0
  0
LINE
  5
C98
330
A02
100
AcDbEntity
  8
Shape
100
AcDbLine
 10
177.04
 20
21.1185
 30
0
 11
176.56
 21
21.0851
 31
0
  0
LINE
  5
C99
330
A02
100
AcDbEntity
  8
Shape
100
AcDbLine
 10
176.56
 20
21.0851
 30
0
 11
176.08
 21
21.0517
 31
0
  0
LINE
  5
C9A
330
A02
100
AcDbEntity
  8
Shape
100
AcDbLine
 10
176.08
 20
21.0517
 30
0
 11
175.6
 21
21.0181
 31
0
  0
LINE
  5
C9B
330
A02
100
AcDbEntity
  8
Shape
100
AcDbLine
 10
175.6
 20
21.0181
 30
0
 11
175.12
 21
20.9844
 31
0
  0
LINE
  5
C9C
330
A02
100
AcDbEntity
  8
Shape
100
AcDbLine
 10
175.12
 20
20.9844
 30
0
 11
174.64
 21
20.9506
 31
0
  0
LINE
  5
C9D
330
A02
100
AcDbEntity
  8
Shape
100
AcDbLine
 10
174.64
 20
20.9506
 30
0
 11
174.16
 21
20.9167
 31
0
  0
LINE
  5
C9E
330
A02
100
AcDbEntity
  8
Shape
100
AcDbLine
 10
174.16
 20
20.9167
 30
0
 11
173.68
 21
20.8826
 31
0
  0
LINE
  5
C9F
330
A02
100
AcDbEntity
  8
Shape
100
AcDbLine
 10
173.68
 20
20.8826
 30
0
 11
173.2
 21
20.8485
 31
0
  0
LINE
  5
CA0
330
A02
100
AcDbEntity
  8
Shape
100
AcDbLine
 10
173.2
 20
20.8485
 30
0
 11
172.72
 21
20.8142
 31
0
  0
LINE
  5
CA1
330
A02
100
AcDbEntity
  8
Shape
100
AcDbLine
 10
172.72
 20
20.8142
 30
0
 11
172.24
 21
20.7799
 31
0
  0
LINE
  5
CA2
330
A02
100
AcDbEntity
  8
Shape
100
AcDbLine
 10
172.24
 20
20.7799
 30
0
 11
171.76
 21
20.7454
 31
0
  0
LINE
  5
CA3
330
A02
100
AcDbEntity
  8
Shape
100
AcDbLine
 10
171.76
 20
20.7454
 30
0
 11
171.28
 21
20.7108
 31
0
  0
LINE
  5
CA4
330
A02
100
AcDbEntity
  8
Shape
100
AcDbLine
 10
171.28
 20
20.7108
 30
0
 11
170.8
 21
20.6761
 31
0
  0
LINE
  5
CA5
330
A02
100
AcDbEntity
  8
Shape
100
AcDbLine
 10
170.8
 20
20.6761
 30
0
 11
170.32
 21
20.6413
 31
0
  0
LINE
  5
CA6
330
A02
100
AcDbEntity
  8
Shape
100
AcDbLine
 10
170.32
 20
20.6413
 30
0
 11
169.84
 21
20.6064
 31
0
  0
LINE
  5
CA7
330
A02
100
AcDbEntity
  8
Shape
100
AcDbLine
 10
169.84
 20
20.6064
 30
0
 11
169.36
 21
20.5713
 31
0
  0
LINE
  5
CA8
330
A02
100
AcDbEntity
  8
Shape
100
AcDbLine
 10
169.36
 20
20.5713
 30
0
 11
168.88
 21
20.5362
 31
0
  0
LINE
  5
CA9
330
A02
100
AcDbEntity
  8
Shape
100
AcDbLine
 10
168.88
 20
20.5362
 30
0
 11
168.4
 21
20.5009
 31
0
  0
LINE
  5
CAA
330
A02
100
AcDbEntity
  8
Shape
100
AcDbLine
 10
168.4
 20
20.5009
 30
0
 11
167.92
 21
20.4655
 31
0
  0
LINE
  5
CAB
330
A02
100
AcDbEntity
  8
Shape
100
AcDbLine
 10
167.92
 20
20.4655
 30
0
 11
167.44
 21
20.43
 31
0
  0
LINE
  5
CAC
330
A02
100
AcDbEntity
  8
Shape
100
AcDbLine
 10
167.44
 20
20.43
 30
0
 11
166.96
 21
20.3944
 31
0
  0
LINE
  5
CAD
330
A02
100
AcDbEntity
  8
Shape
100
AcDbLine
 10
166.96
 20
20.3944
 30
0
 11
166.48
 21
20.3587
 31
0
  0
LINE
  5
CAE
330
A02
100
AcDbEntity
  8
Shape
100
AcDbLine
 10
166.48
 20
20.3587
 30
0
 11
166
 21
20.3229
 31
0
  0
LINE
  5
CAF
330
A02
100
AcDbEntity
  8
Shape
100
AcDbLine
 10
166
 20
20.3229
 30
0
 11
165.52
 21
20.287
 31
0
  0
LINE
  5
CB0
330
A02
100
AcDbEntity
  8
Shape
100
AcDbLine
 10
165.52
 20
20.287
 30
0
 11
165.04
 21
20.2509
 31
0
  0
LINE
  5
CB1
330
A02
100
AcDbEntity
  8
Shape
100
AcDbLine
 10
165.04
 20
20.2509
 30
0
 11
164.56
 21
20.2148
 31
0
  0
LINE
  5
CB2
330
A02
100
AcDbEntity
  8
Shape
100
AcDbLine
 10
164.56
 20
20.2148
 30
0
 11
164.08
 21
20.1785
 31
0
  0
LINE
  5
CB3
330
A02
100
AcDbEntity
  8
Shape
100
AcDbLine
 10
164.08
 20
20.1785
 30
0
 11
163.6
 21
20.1422
 31
0
  0
LINE
  5
CB4
330
A02
100
AcDbEntity
  8
Shape
100
AcDbLine
 10
163.6
 20
20.1422
 30
0
 11
163.12
 21
20.1057
 31
0
  0
LINE
  5
CB5
330
A02
100
AcDbEntity
  8
Shape
100
AcDbLine
 10
163.12
 20
20.1057
 30
0
 11
162.64
 21
20.0691
 31
0
  0
LINE
  5
CB6
330
A02
100
AcDbEntity
  8
Shape
100
AcDbLine
 10
162.64
 20
20.0691
 30
0
 11
162.16
 21
20.0324
 31
0
  0
LINE
  5
CB7
330
A02
100
AcDbEntity
  8
Shape
100
AcDbLine
 10
162.16
 20
20.0324
 30
0
 11
161.68
 21
19.9956
 31
0
  0
LINE
  5
CB8
330
A02
100
AcDbEntity
  8
Shape
100
AcDbLine
 10
161.68
 20
19.9956
 30
0
 11
161.2
 21
19.9587
 31
0
  0
LINE
  5
CB9
330
A02
100
AcDbEntity
  8
Shape
100
AcDbLine
 10
161.2
 20
19.9587
 30
0
 11
160.72
 21
19.9216
 31
0
  0
LINE
  5
CBA
330
A02
100
AcDbEntity
  8
Shape
100
AcDbLine
 10
160.72
 20
19.9216
 30
0
 11
160.24
 21
19.8845
 31
0
  0
LINE
  5
CBB
330
A02
100
AcDbEntity
  8
Shape
100
AcDbLine
 10
160.24
 20
19.8845
 30
0
 11
159.76
 21
19.8472
 31
0
  0
LINE
  5
CBC
330
A02
100
AcDbEntity
  8
Shape
100
AcDbLine
 10
159.76
 20
19.8472
 30
0
 11
159.28
 21
19.8099
 31
0
  0
LINE
  5
CBD
330
A02
100
AcDbEntity
  8
Shape
100
AcDbLine
 10
159.28
 20
19.8099
 30
0
 11
158.8
 21
19.7724
 31
0
  0
LINE
  5
CBE
330
A02
100
AcDbEntity
  8
Shape
100
AcDbLine
 10
158.8
 20
19.7724
 30
0
 11
158.32
 21
19.7348
 31
0
  0
LINE
  5
CBF
330
A02
100
AcDbEntity
  8
Shape
100
AcDbLine
 10
158.32
 20
19.7348
 30
0
 11
157.84
 21
19.6971
 31
0
  0
LINE
  5
CC0
330
A02
100
AcDbEntity
  8
Shape
100
AcDbLine
 10
157.84
 20
19.6971
 30
0
 11
157.36
 21
19.6593
 31
0
  0
LINE
  5
CC1
330
A02
100
AcDbEntity
  8
Shape
100
AcDbLine
 10
157.36
 20
19.6593
 30
0
 11
156.88
 21
19.6214
 31
0
  0
LINE
  5
CC2
330
A02
100
AcDbEntity
  8
Shape
100
AcDbLine
 10
156.88
 20
19.6214
 30
0
 11
156.4
 21
19.5834
 31
0
  0
LINE
  5
CC3
330
A02
100
AcDbEntity
  8
Shape
100
AcDbLine
 10
156.4
 20
19.5834
 30
0
 11
155.92
 21
19.5453
 31
0
  0
LINE
  5
CC4
330
A02
100
AcDbEntity
  8
Shape
100
AcDbLine
 10
155.92
 20
19.5453
 30
0
 11
155.44
 21
19.5071
 31
0
  0
LINE
  5
CC5
330
A02
100
AcDbEntity
  8
Shape
100
AcDbLine
 10
155.44
 20
19.5071
 30
0
 11
154.96
 21
19.4687
 31
0
  0
LINE
  5
CC6
330
A02
100
AcDbEntity
  8
Shape
100
AcDbLine
 10
154.96
 20
19.4687
 30
0
 11
154.48
 21
19.4303
 31
0
  0
LINE
  5
CC7
330
A02
100
AcDbEntity
  8
Shape
100
AcDbLine
 10
154.48
 20
19.4303
 30
0
 11
154
 21
19.3917
 31
0
  0
LINE
  5
CC8
330
A02
100
AcDbEntity
  8
Shape
100
AcDbLine
 10
154
 20
19.3917
 30
0
 11
153.52
 21
19.353
 31
0
  0
LINE
  5
CC9
330
A02
100
AcDbEntity
  8
Shape
100
AcDbLine
 10
153.52
 20
19.353
 30
0
 11
153.04
 21
19.3143
 31
0
  0
LINE
  5
CCA
330
A02
100
AcDbEntity
  8
Shape
100
AcDbLine
 10
153.04
 20
19.3143
 30
0
 11
152.56
 21
19.2754
 31
0
  0
LINE
  5
CCB
330
A02
100
AcDbEntity
  8
Shape
100
AcDbLine
 10
152.56
 20
19.2754
 30
0
 11
152.08
 21
19.2364
 31
0
  0
LINE
  5
CCC
330
A02
100
AcDbEntity
  8
Shape
100
AcDbLine
 10
152.08
 20
19.2364
 30
0
 11
151.6
 21
19.1973
 31
0
  0
LINE
  5
CCD
330
A02
100
AcDbEntity
  8
Shape
100
AcDbLine
 10
151.6
 20
19.1973
 30
0
 11
151.12
 21
19.1581
 31
0
  0
LINE
  5
CCE
330
A02
100
AcDbEntity
  8
Shape
100
AcDbLine
 10
151.12
 20
19.1581
 30
0
 11
150.64
 21
19.1187
 31
0
  0
LINE
  5
CCF
330
A02
100
AcDbEntity
  8
Shape
100
AcDbLine
 10
150.64
 20
19.1187
 30
0
 11
150.16
 21
19.0793
 31
0
  0
LINE
  5
CD0
330
A02
100
AcDbEntity
  8
Shape
100
AcDbLine
 10
150.16
 20
19.0793
 30
0
 11
149.68
 21
19.0398
 31
0
  0
LINE
  5
CD1
330
A02
100
AcDbEntity
  8
Shape
100
AcDbLine
 10
149.68
 20
19.0398
 30
0
 11
149.2
 21
19.0001
 31
0
  0
LINE
  5
CD2
330
A02
100
AcDbEntity
  8
Shape
100
AcDbLine
 10
149.2
 20
19.0001
 30
0
 11
148.72
 21
18.9603
 31
0
  0
LINE
  5
CD3
330
A02
100
AcDbEntity
  8
Shape
100
AcDbLine
 10
148.72
 20
18.9603
 30
0
 11
148.24
 21
18.9205
 31
0
  0
LINE
  5
CD4
330
A02
100
AcDbEntity
  8
Shape
100
AcDbLine
 10
148.24
 20
18.9205
 30
0
 11
147.76
 21
18.8805
 31
0
  0
LINE
  5
CD5
330
A02
100
AcDbEntity
  8
Shape
100
AcDbLine
 10
147.76
 20
18.8805
 30
0
 11
147.28
 21
18.8404
 31
0
  0
LINE
  5
CD6
330
A02
100
AcDbEntity
  8
Shape
100
AcDbLine
 10
147.28
 20
18.8404
 30
0
 11
146.8
 21
18.8002
 31
0
  0
LINE
  5
CD7
330
A02
100
AcDbEntity
  8
Shape
100
AcDbLine
 10
146.8
 20
18.8002
 30
0
 11
146.32
 21
18.7599
 31
0
  0
LINE
  5
CD8
330
A02
100
AcDbEntity
  8
Shape
100
AcDbLine
 10
146.32
 20
18.7599
 30
0
 11
145.84
 21
18.7195
 31
0
  0
LINE
  5
CD9
330
A02
100
AcDbEntity
  8
Shape
100
AcDbLine
 10
145.84
 20
18.7195
 30
0
 11
145.36
 21
18.679
 31
0
  0
LINE
  5
CDA
330
A02
100
AcDbEntity
  8
Shape
100
AcDbLine
 10
145.36
 20
18.679
 30
0
 11
144.88
 21
18.6383
 31
0
  0
LINE
  5
CDB
330
A02
100
AcDbEntity
  8
Shape
100
AcDbLine
 10
144.88
 20
18.6383
 30
0
 11
144.4
 21
18.5976
 31
0
  0
LINE
  5
CDC
330
A02
100
AcDbEntity
  8
Shape
100
AcDbLine
 10
144.4
 20
18.5976
 30
0
 11
143.92
 21
18.5567
 31
0
  0
LINE
  5
CDD
330
A02
100
AcDbEntity
  8
Shape
100
AcDbLine
 10
143.92
 20
18.5567
 30
0
 11
143.44
 21
18.5158
 31
0
  0
LINE
  5
CDE
330
A02
100
AcDbEntity
  8
Shape
100
AcDbLine
 10
143.44
 20
18.5158
 30
0
 11
142.96
 21
18.4747
 31
0
  0
LINE
  5
CDF
330
A02
100
AcDbEntity
  8
Shape
100
AcDbLine
 10
142.96
 20
18.4747
 30
0
 11
142.48
 21
18.4335
 31
0
  0
LINE
  5
CE0
330
A02
100
AcDbEntity
  8
Shape
100
AcDbLine
 10
142.48
 20
18.4335
 30
0
 11
142
 21
18.3922
 31
0
  0
LINE
  5
CE1
330
A02
100
AcDbEntity
  8
Shape
100
AcDbLine
 10
142
 20
18.3922
 30
0
 11
141.52
 21
18.3508
 31
0
  0
LINE
  5
CE2
330
A02
100
AcDbEntity
  8
Shape
100
AcDbLine
 10
141.52
 20
18.3508
 30
0
 11
141.04
 21
18.3093
 31
0
  0
LINE
  5
CE3
330
A02
100
AcDbEntity
  8
Shape
100
AcDbLine
 10
141.04
 20
18.3093
 30
0
 11
140.56
 21
18.2677
 31
0
  0
LINE
  5
CE4
330
A02
100
AcDbEntity
  8
Shape
100
AcDbLine
 10
140.56
 20
18.2677
 30
0
 11
140.08
 21
18.226
 31
0
  0
LINE
  5
CE5
330
A02
100
AcDbEntity
  8
Shape
100
AcDbLine
 10
140.08
 20
18.226
 30
0
 11
139.6
 21
18.1841
 31
0
  0
LINE
  5
CE6
330
A02
100
AcDbEntity
  8
Shape
100
AcDbLine
 10
139.6
 20
18.1841
 30
0
 11
139.12
 21
18.1422
 31
0
  0
LINE
  5
CE7
330
A02
100
AcDbEntity
  8
Shape
100
AcDbLine
 10
139.12
 20
18.1422
 30
0
 11
138.64
 21
18.1001
 31
0
  0
LINE
  5
CE8
330
A02
100
AcDbEntity
  8
Shape
100
AcDbLine
 10
138.64
 20
18.1001
 30
0
 11
138.16
 21
18.058
 31
0
  0
LINE
  5
CE9
330
A02
100
AcDbEntity
  8
Shape
100
AcDbLine
 10
138.16
 20
18.058
 30
0
 11
137.68
 21
18.0157
 31
0
  0
LINE
  5
CEA
330
A02
100
AcDbEntity
  8
Shape
100
AcDbLine
 10
137.68
 20
18.0157
 30
0
 11
137.2
 21
17.9733
 31
0
  0
LINE
  5
CEB
330
A02
100
AcDbEntity
  8
Shape
100
AcDbLine
 10
137.2
 20
17.9733
 30
0
 11
136.72
 21
17.9308
 31
0
  0
LINE
  5
CEC
330
A02
100
AcDbEntity
  8
Shape
100
AcDbLine
 10
136.72
 20
17.9308
 30
0
 11
136.24
 21
17.8882
 31
0
  0
LINE
  5
CED
330
A02
100
AcDbEntity
  8
Shape
100
AcDbLine
 10
136.24
 20
17.8882
 30
0
 11
135.76
 21
17.8455
 31
0
  0
LINE
  5
CEE
330
A02
100
AcDbEntity
  8
Shape
100
AcDbLine
 10
135.76
 20
17.8455
 30
0
 11
135.28
 21
17.8026
 31
0
  0
LINE
  5
CEF
330
A02
100
AcDbEntity
  8
Shape
100
AcDbLine
 10
135.28
 20
17.8026
 30
0
 11
134.8
 21
17.7597
 31
0
  0
LINE
  5
CF0
330
A02
100
AcDbEntity
  8
Shape
100
AcDbLine
 10
134.8
 20
17.7597
 30
0
 11
134.32
 21
17.7166
 31
0
  0
LINE
  5
CF1
330
A02
100
AcDbEntity
  8
Shape
100
AcDbLine
 10
134.32
 20
17.7166
 30
0
 11
133.84
 21
17.6735
 31
0
  0
LINE
  5
CF2
330
A02
100
AcDbEntity
  8
Shape
100
AcDbLine
 10
133.84
 20
17.6735
 30
0
 11
133.36
 21
17.6302
 31
0
  0
LINE
  5
CF3
330
A02
100
AcDbEntity
  8
Shape
100
AcDbLine
 10
133.36
 20
17.6302
 30
0
 11
132.88
 21
17.5868
 31
0
  0
LINE
  5
CF4
330
A02
100
AcDbEntity
  8
Shape
100
AcDbLine
 10
132.88
 20
17.5868
 30
0
 11
132.4
 21
17.5433
 31
0
  0
LINE
  5
CF5
330
A02
100
AcDbEntity
  8
Shape
100
AcDbLine
 10
132.4
 20
17.5433
 30
0
 11
131.92
 21
17.4997
 31
0
  0
LINE
  5
CF6
330
A02
100
AcDbEntity
  8
Shape
100
AcDbLine
 10
131.92
 20
17.4997
 30
0
 11
131.44
 21
17.456
 31
0
  0
LINE
  5
CF7
330
A02
100
AcDbEntity
  8
Shape
100
AcDbLine
 10
131.44
 20
17.456
 30
0
 11
130.96
 21
17.4121
 31
0
  0
LINE
  5
CF8
330
A02
100
AcDbEntity
  8
Shape
100
AcDbLine
 10
130.96
 20
17.4121
 30
0
 11
130.48
 21
17.3682
 31
0
  0
LINE
  5
CF9
330
A02
100
AcDbEntity
  8
Shape
100
AcDbLine
 10
130.48
 20
17.3682
 30
0
 11
130
 21
17.3241
 31
0
  0
LINE
  5
CFA
330
A02
100
AcDbEntity
  8
Shape
100
AcDbLine
 10
130
 20
17.3241
 30
0
 11
129.52
 21
17.2799
 31
0
  0
LINE
  5
CFB
330
A02
100
AcDbEntity
  8
Shape
100
AcDbLine
 10
129.52
 20
17.2799
 30
0
 11
129.04
 21
17.2357
 31
0
  0
LINE
  5
CFC
330
A02
100
AcDbEntity
  8
Shape
100
AcDbLine
 10
129.04
 20
17.2357
 30
0
 11
128.56
 21
17.1913
 31
0
  0
LINE
  5
CFD
330
A02
100
AcDbEntity
  8
Shape
100
AcDbLine
 10
128.56
 20
17.1913
 30
0
 11
128.08
 21
17.1468
 31
0
  0
LINE
  5
CFE
330
A02
100
AcDbEntity
  8
Shape
100
AcDbLine
 10
128.08
 20
17.1468
 30
0
 11
127.6
 21
17.1021
 31
0
  0
LINE
  5
CFF
330
A02
100
AcDbEntity
  8
Shape
100
AcDbLine
 10
127.6
 20
17.1021
 30
0
 11
127.12
 21
17.0574
 31
0
  0
LINE
  5
D00
330
A02
100
AcDbEntity
  8
Shape
100
AcDbLine
 10
127.12
 20
17.0574
 30
0
 11
126.64
 21
17.0125
 31
0
  0
LINE
  5
D01
330
A02
100
AcDbEntity
  8
Shape
100
AcDbLine
 10
126.64
 20
17.0125
 30
0
 11
126.16
 21
16.9676
 31
0
  0
LINE
  5
D02
330
A02
100
AcDbEntity
  8
Shape
100
AcDbLine
 10
126.16
 20
16.9676
 30
0
 11
125.68
 21
16.9225
 31
0
  0
LINE
  5
D03
330
A02
100
AcDbEntity
  8
Shape
100
AcDbLine
 10
125.68
 20
16.9225
 30
0
 11
125.2
 21
16.8773
 31
0
  0
LINE
  5
D04
330
A02
100
AcDbEntity
  8
Shape
100
AcDbLine
 10
125.2
 20
16.8773
 30
0
 11
124.72
 21
16.832
 31
0
  0
LINE
  5
D05
330
A02
100
AcDbEntity
  8
Shape
100
AcDbLine
 10
124.72
 20
16.832
 30
0
 11
124.24
 21
16.7866
 31
0
  0
LINE
  5
D06
330
A02
100
AcDbEntity
  8
Shape
100
AcDbLine
 10
124.24
 20
16.7866
 30
0
 11
123.76
 21
16.7411
 31
0
  0
LINE
  5
D07
330
A02
100
AcDbEntity
  8
Shape
100
AcDbLine
 10
123.76
 20
16.7411
 30
0
 11
123.28
 21
16.6954
 31
0
  0
LINE
  5
D08
330
A02
100
AcDbEntity
  8
Shape
100
AcDbLine
 10
123.28
 20
16.6954
 30
0
 11
122.8
 21
16.6497
 31
0
  0
LINE
  5
D09
330
A02
100
AcDbEntity
  8
Shape
100
AcDbLine
 10
122.8
 20
16.6497
 30
0
 11
122.32
 21
16.6038
 31
0
  0
LINE
  5
D0A
330
A02
100
AcDbEntity
  8
Shape
100
AcDbLine
 10
122.32
 20
16.6038
 30
0
 11
121.84
 21
16.5578
 31
0
  0
LINE
  5
D0B
330
A02
100
AcDbEntity
  8
Shape
100
AcDbLine
 10
121.84
 20
16.5578
 30
0
 11
121.36
 21
16.5117
 31
0
  0
LINE
  5
D0C
330
A02
100
AcDbEntity
  8
Shape
100
AcDbLine
 10
121.36
 20
16.5117
 30
0
 11
120.88
 21
16.4654
 31
0
  0
LINE
  5
D0D
330
A02
100
AcDbEntity
  8
Shape
100
AcDbLine
 10
120.88
 20
16.4654
 30
0
 11
120.4
 21
16.4191
 31
0
  0
LINE
  5
D0E
330
A02
100
AcDbEntity
  8
Shape
100
AcDbLine
 10
120.4
 20
16.4191
 30
0
 11
119.92
 21
16.3727
 31
0
  0
LINE
  5
D0F
330
A02
100
AcDbEntity
  8
Shape
100
AcDbLine
 10
119.92
 20
16.3727
 30
0
 11
119.44
 21
16.3261
 31
0
  0
LINE
  5
D10
330
A02
100
AcDbEntity
  8
Shape
100
AcDbLine
 10
119.44
 20
16.3261
 30
0
 11
118.96
 21
16.2794
 31
0
  0
LINE
  5
D11
330
A02
100
AcDbEntity
  8
Shape
100
AcDbLine
 10
118.96
 20
16.2794
 30
0
 11
118.48
 21
16.2326
 31
0
  0
LINE
  5
D12
330
A02
100
AcDbEntity
  8
Shape
100
AcDbLine
 10
118.48
 20
16.2326
 30
0
 11
118
 21
16.1857
 31
0
  0
LINE
  5
D13
330
A02
100
AcDbEntity
  8
Shape
100
AcDbLine
 10
118
 20
16.1857
 30
0
 11
117.52
 21
16.1386
 31
0
  0
LINE
  5
D14
330
A02
100
AcDbEntity
  8
Shape
100
AcDbLine
 10
117.52
 20
16.1386
 30
0
 11
117.04
 21
16.0915
 31
0
  0
LINE
  5
D15
330
A02
100
AcDbEntity
  8
Shape
100
AcDbLine
 10
117.04
 20
16.0915
 30
0
 11
116.56
 21
16.0442
 31
0
  0
LINE
  5
D16
330
A02
100
AcDbEntity
  8
Shape
100
AcDbLine
 10
116.56
 20
16.0442
 30
0
 11
116.08
 21
15.9968
 31
0
  0
LINE
  5
D17
330
A02
100
AcDbEntity
  8
Shape
100
AcDbLine
 10
116.08
 20
15.9968
 30
0
 11
115.6
 21
15.9493
 31
0
  0
LINE
  5
D18
330
A02
100
AcDbEntity
  8
Shape
100
AcDbLine
 10
115.6
 20
15.9493
 30
0
 11
115.12
 21
15.9016
 31
0
  0
LINE
  5
D19
330
A02
100
AcDbEntity
  8
Shape
100
AcDbLine
 10
115.12
 20
15.9016
 30
0
 11
114.64
 21
15.8539
 31
0
  0
LINE
  5
D1A
330
A02
100
AcDbEntity
  8
Shape
100
AcDbLine
 10
114.64
 20
15.8539
 30
0
 11
114.16
 21
15.806
 31
0
  0
LINE
  5
D1B
330
A02
100
AcDbEntity
  8
Shape
100
AcDbLine
 10
114.16
 20
15.806
 30
0
 11
113.68
 21
15.758
 31
0
  0
LINE
  5
D1C
330
A02
100
AcDbEntity
  8
Shape
100
AcDbLine
 10
113.68
 20
15.758
 30
0
 11
113.2
 21
15.7099
 31
0
  0
LINE
  5
D1D
330
A02
100
AcDbEntity
  8
Shape
100
AcDbLine
 10
113.2
 20
15.7099
 30
0
 11
112.72
 21
15.6617
 31
0
  0
LINE
  5
D1E
330
A02
100
AcDbEntity
  8
Shape
100
AcDbLine
 10
112.72
 20
15.6617
 30
0
 11
112.24
 21
15.6134
 31
0
  0
LINE
  5
D1F
330
A02
100
AcDbEntity
  8
Shape
100
AcDbLine
 10
112.24
 20
15.6134
 30
0
 11
111.76
 21
15.5649
 31
0
  0
LINE
  5
D20
330
A02
100
AcDbEntity
  8
Shape
100
AcDbLine
 10
111.76
 20
15.5649
 30
0
 11
111.28
 21
15.5163
 31
0
  0
LINE
  5
D21
330
A02
100
AcDbEntity
  8
Shape
100
AcDbLine
 10
111.28
 20
15.5163
 30
0
 11
110.8
 21
15.4676
 31
0
  0
LINE
  5
D22
330
A02
100
AcDbEntity
  8
Shape
100
AcDbLine
 10
110.8
 20
15.4676
 30
0
 11
110.32
 21
15.4187
 31
0
  0
LINE
  5
D23
330
A02
100
AcDbEntity
  8
Shape
100
AcDbLine
 10
110.32
 20
15.4187
 30
0
 11
109.84
 21
15.3698
 31
0
  0
LINE
  5
D24
330
A02
100
AcDbEntity
  8
Shape
100
AcDbLine
 10
109.84
 20
15.3698
 30
0
 11
109.36
 21
15.3207
 31
0
  0
LINE
  5
D25
330
A02
100
AcDbEntity
  8
Shape
100
AcDbLine
 10
109.36
 20
15.3207
 30
0
 11
108.88
 21
15.2715
 31
0
  0
LINE
  5
D26
330
A02
100
AcDbEntity
  8
Shape
100
AcDbLine
 10
108.88
 20
15.2715
 30
0
 11
108.4
 21
15.2222
 31
0
  0
LINE
  5
D27
330
A02
100
AcDbEntity
  8
Shape
100
AcDbLine
 10
108.4
 20
15.2222
 30
0
 11
107.92
 21
15.1727
 31
0
  0
LINE
  5
D28
330
A02
100
AcDbEntity
  8
Shape
100
AcDbLine
 10
107.92
 20
15.1727
 30
0
 11
107.44
 21
15.1232
 31
0
  0
LINE
  5
D29
330
A02
100
AcDbEntity
  8
Shape
100
AcDbLine
 10
107.44
 20
15.1232
 30
0
 11
106.96
 21
15.0735
 31
0
  0
LINE
  5
D2A
330
A02
100
AcDbEntity
  8
Shape
100
AcDbLine
 10
106.96
 20
15.0735
 30
0
 11
106.48
 21
15.0236
 31
0
  0
LINE
  5
D2B
330
A02
100
AcDbEntity
  8
Shape
100
AcDbLine
 10
106.48
 20
15.0236
 30
0
 11
106
 21
14.9737
 31
0
  0
LINE
  5
D2C
330
A02
100
AcDbEntity
  8
Shape
100
AcDbLine
 10
106
 20
14.9737
 30
0
 11
105.52
 21
14.9236
 31
0
  0
LINE
  5
D2D
330
A02
100
AcDbEntity
  8
Shape
100
AcDbLine
 10
105.52
 20
14.9236
 30
0
 11
105.04
 21
14.8734
 31
0
  0
LINE
  5
D2E
330
A02
100
AcDbEntity
  8
Shape
100
AcDbLine
 10
105.04
 20
14.8734
 30
0
 11
104.56
 21
14.8231
 31
0
  0
LINE
  5
D2F
330
A02
100
AcDbEntity
  8
Shape
100
AcDbLine
 10
104.56
 20
14.8231
 30
0
 11
104.08
 21
14.7726
 31
0
  0
LINE
  5
D30
330
A02
100
AcDbEntity
  8
Shape
100
AcDbLine
 10
104.08
 20
14.7726
 30
0
 11
103.6
 21
14.7221
 31
0
  0
LINE
  5
D31
330
A02
100
AcDbEntity
  8
Shape
100
AcDbLine
 10
103.6
 20
14.7221
 30
0
 11
103.12
 21
14.6714
 31
0
  0
LINE
  5
D32
330
A02
100
AcDbEntity
  8
Shape
100
AcDbLine
 10
103.12
 20
14.6714
 30
0
 11
102.64
 21
14.6205
 31
0
  0
LINE
  5
D33
330
A02
100
AcDbEntity
  8
Shape
100
AcDbLine
 10
102.64
 20
14.6205
 30
0
 11
102.16
 21
14.5696
 31
0
  0
LINE
  5
D34
330
A02
100
AcDbEntity
  8
Shape
100
AcDbLine
 10
102.16
 20
14.5696
 30
0
 11
101.68
 21
14.5185
 31
0
  0
LINE
  5
D35
330
A02
100
AcDbEntity
  8
Shape
100
AcDbLine
 10
101.68
 20
14.5185
 30
0
 11
101.2
 21
14.4673
 31
0
  0
LINE
  5
D36
330
A02
100
AcDbEntity
  8
Shape
100
AcDbLine
 10
101.2
 20
14.4673
 30
0
 11
100.72
 21
14.4159
 31
0
  0
LINE
  5
D37
330
A02
100
AcDbEntity
  8
Shape
100
AcDbLine
 10
100.72
 20
14.4159
 30
0
 11
100.24
 21
14.3644
 31
0
  0
LINE
  5
D38
330
A02
100
AcDbEntity
  8
Shape
100
AcDbLine
 10
100.24
 20
14.3644
 30
0
 11
99.76
 21
14.3128
 31
0
  0
LINE
  5
D39
330
A02
100
AcDbEntity
  8
Shape
100
AcDbLine
 10
99.76
 20
14.3128
 30
0
 11
99.28
 21
14.2611
 31
0
  0
LINE
  5
D3A
330
A02
100
AcDbEntity
  8
Shape
100
AcDbLine
 10
99.28
 20
14.2611
 30
0
 11
98.8
 21
14.2092
 31
0
  0
LINE
  5
D3B
330
A02
100
AcDbEntity
  8
Shape
100
AcDbLine
 10
98.8
 20
14.2092
 30
0
 11
98.32
 21
14.1572
 31
0
  0
LINE
  5
D3C
330
A02
100
AcDbEntity
  8
Shape
100
AcDbLine
 10
98.32
 20
14.1572
 30
0
 11
97.84
 21
14.1051
 31
0
  0
LINE
  5
D3D
330
A02
100
AcDbEntity
  8
Shape
100
AcDbLine
 10
97.84
 20
14.1051
 30
0
 11
97.36
 21
14.0528
 31
0
  0
LINE
  5
D3E
330
A02
100
AcDbEntity
  8
Shape
100
AcDbLine
 10
97.36
 20
14.0528
 30
0
 11
96.88
 21
14.0004
 31
0
  0
LINE
  5
D3F
330
A02
100
AcDbEntity
  8
Shape
100
AcDbLine
 10
96.88
 20
14.0004
 30
0
 11
96.4
 21
13.9479
 31
0
  0
LINE
  5
D40
330
A02
100
AcDbEntity
  8
Shape
100
AcDbLine
 10
96.4
 20
13.9479
 30
0
 11
95.92
 21
13.8952
 31
0
  0
LINE
  5
D41
330
A02
100
AcDbEntity
  8
Shape
100
AcDbLine
 10
95.92
 20
13.8952
 30
0
 11
95.44
 21
13.8424
 31
0
  0
LINE
  5
D42
330
A02
100
AcDbEntity
  8
Shape
100
AcDbLine
 10
95.44
 20
13.8424
 30
0
 11
94.96
 21
13.7895
 31
0
  0
LINE
  5
D43
330
A02
100
AcDbEntity
  8
Shape
100
AcDbLine
 10
94.96
 20
13.7895
 30
0
 11
94.48
 21
13.7364
 31
0
  0
LINE
  5
D44
330
A02
100
AcDbEntity
  8
Shape
100
AcDbLine
 10
94.48
 20
13.7364
 30
0
 11
94
 21
13.6832
 31
0
  0
LINE
  5
D45
330
A02
100
AcDbEntity
  8
Shape
100
AcDbLine
 10
94
 20
13.6832
 30
0
 11
93.52
 21
13.6298
 31
0
  0
LINE
  5
D46
330
A02
100
AcDbEntity
  8
Shape
100
AcDbLine
 10
93.52
 20
13.6298
 30
0
 11
93.04
 21
13.5763
 31
0
  0
LINE
  5
D47
330
A02
100
AcDbEntity
  8
Shape
100
AcDbLine
 10
93.04
 20
13.5763
 30
0
 11
92.56
 21
13.5227
 31
0
  0
LINE
  5
D48
330
A02
100
AcDbEntity
  8
Shape
100
AcDbLine
 10
92.56
 20
13.5227
 30
0
 11
92.08
 21
13.4689
 31
0
  0
LINE
  5
D49
330
A02
100
AcDbEntity
  8
Shape
100
AcDbLine
 10
92.08
 20
13.4689
 30
0
 11
91.6
 21
13.415
 31
0
  0
LINE
  5
D4A
330
A02
100
AcDbEntity
  8
Shape
100
AcDbLine
 10
91.6
 20
13.415
 30
0
 11
91.12
 21
13.361
 31
0
  0
LINE
  5
D4B
330
A02
100
AcDbEntity
  8
Shape
100
AcDbLine
 10
91.12
 20
13.361
 30
0
 11
90.64
 21
13.3068
 31
0
  0
LINE
  5
D4C
330
A02
100
AcDbEntity
  8
Shape
100
AcDbLine
 10
90.64
 20
13.3068
 30
0
 11
90.16
 21
13.2525
 31
0
  0
LINE
  5
D4D
330
A02
100
AcDbEntity
  8
Shape
100
AcDbLine
 10
90.16
 20
13.2525
 30
0
 11
89.68
 21
13.198
 31
0
  0
LINE
  5
D4E
330
A02
100
AcDbEntity
  8
Shape
100
AcDbLine
 10
89.68
 20
13.198
 30
0
 11
89.2
 21
13.1434
 31
0
  0
LINE
  5
D4F
330
A02
100
AcDbEntity
  8
Shape
100
AcDbLine
 10
89.2
 20
13.1434
 30
0
 11
88.72
 21
13.0886
 31
0
  0
LINE
  5
D50
330
A02
100
AcDbEntity
  8
Shape
100
AcDbLine
 10
88.72
 20
13.0886
 30
0
 11
88.24
 21
13.0337
 31
0
  0
LINE
  5
D51
330
A02
100
AcDbEntity
  8
Shape
100
AcDbLine
 10
88.24
 20
13.0337
 30
0
 11
87.76
 21
12.9787
 31
0
  0
LINE
  5
D52
330
A02
100
AcDbEntity
  8
Shape
100
AcDbLine
 10
87.76
 20
12.9787
 30
0
 11
87.28
 21
12.9235
 31
0
  0
LINE
  5
D53
330
A02
100
AcDbEntity
  8
Shape
100
AcDbLine
 10
87.28
 20
12.9235
 30
0
 11
86.8
 21
12.8682
 31
0
  0
LINE
  5
D54
330
A02
100
AcDbEntity
  8
Shape
100
AcDbLine
 10
86.8
 20
12.8682
 30
0
 11
86.32
 21
12.8127
 31
0
  0
LINE
  5
D55
330
A02
100
AcDbEntity
  8
Shape
100
AcDbLine
 10
86.32
 20
12.8127
 30
0
 11
85.84
 21
12.7571
 31
0
  0
LINE
  5
D56
330
A02
100
AcDbEntity
  8
Shape
100
AcDbLine
 10
85.84
 20
12.7571
 30
0
 11
85.36
 21
12.7013
 31
0
  0
LINE
  5
D57
330
A02
100
AcDbEntity
  8
Shape
100
AcDbLine
 10
85.36
 20
12.7013
 30
0
 11
84.88
 21
12.6454
 31
0
  0
LINE
  5
D58
330
A02
100
AcDbEntity
  8
Shape
100
AcDbLine
 10
84.88
 20
12.6454
 30
0
 11
84.4
 21
12.5893
 31
0
  0
LINE
  5
D59
330
A02
100
AcDbEntity
  8
Shape
100
AcDbLine
 10
84.4
 20
12.5893
 30
0
 11
83.92
 21
12.533
 31
0
  0
LINE
  5
D5A
330
A02
100
AcDbEntity
  8
Shape
100
AcDbLine
 10
83.92
 20
12.533
 30
0
 11
83.44
 21
12.4767
 31
0
  0
LINE
  5
D5B
330
A02
100
AcDbEntity
  8
Shape
100
AcDbLine
 10
83.44
 20
12.4767
 30
0
 11
82.96
 21
12.4201
 31
0
  0
LINE
  5
D5C
330
A02
100
AcDbEntity
  8
Shape
100
AcDbLine
 10
82.96
 20
12.4201
 30
0
 11
82.48
 21
12.3634
 31
0
  0
LINE
  5
D5D
330
A02
100
AcDbEntity
  8
Shape
100
AcDbLine
 10
82.48
 20
12.3634
 30
0
 11
82
 21
12.3066
 31
0
  0
LINE
  5
D5E
330
A02
100
AcDbEntity
  8
Shape
100
AcDbLine
 10
82
 20
12.3066
 30
0
 11
81.52
 21
12.2496
 31
0
  0
LINE
  5
D5F
330
A02
100
AcDbEntity
  8
Shape
100
AcDbLine
 10
81.52
 20
12.2496
 30
0
 11
81.04
 21
12.1925
 31
0
  0
LINE
  5
D60
330
A02
100
AcDbEntity
  8
Shape
100
AcDbLine
 10
81.04
 20
12.1925
 30
0
 11
80.56
 21
12.1352
 31
0
  0
LINE
  5
D61
330
A02
100
AcDbEntity
  8
Shape
100
AcDbLine
 10
80.56
 20
12.1352
 30
0
 11
80.08
 21
12.0777
 31
0
  0
LINE
  5
D62
330
A02
100
AcDbEntity
  8
Shape
100
AcDbLine
 10
80.08
 20
12.0777
 30
0
 11
79.6
 21
12.0201
 31
0
  0
LINE
  5
D63
330
A02
100
AcDbEntity
  8
Shape
100
AcDbLine
 10
79.6
 20
12.0201
 30
0
 11
79.12
 21
11.9623
 31
0
  0
LINE
  5
D64
330
A02
100
AcDbEntity
  8
Shape
100
AcDbLine
 10
79.12
 20
11.9623
 30
0
 11
78.64
 21
11.9043
 31
0
  0
LINE
  5
D65
330
A02
100
AcDbEntity
  8
Shape
100
AcDbLine
 10
78.64
 20
11.9043
 30
0
 11
78.16
 21
11.8462
 31
0
  0
LINE
  5
D66
330
A02
100
AcDbEntity
  8
Shape
100
AcDbLine
 10
78.16
 20
11.8462
 30
0
 11
77.68
 21
11.788
 31
0
  0
LINE
  5
D67
330
A02
100
AcDbEntity
  8
Shape
100
AcDbLine
 10
77.68
 20
11.788
 30
0
 11
77.2
 21
11.7295
 31
0
  0
LINE
  5
D68
330
A02
100
AcDbEntity
  8
Shape
100
AcDbLine
 10
77.2
 20
11.7295
 30
0
 11
76.72
 21
11.671
 31
0
  0
LINE
  5
D69
330
A02
100
AcDbEntity
  8
Shape
100
AcDbLine
 10
76.72
 20
11.671
 30
0
 11
76.24
 21
11.6122
 31
0
  0
LINE
  5
D6A
330
A02
100
AcDbEntity
  8
Shape
100
AcDbLine
 10
76.24
 20
11.6122
 30
0
 11
75.76
 21
11.5533
 31
0
  0
LINE
  5
D6B
330
A02
100
AcDbEntity
  8
Shape
100
AcDbLine
 10
75.76
 20
11.5533
 30
0
 11
75.28
 21
11.4942
 31
0
  0
LINE
  5
D6C
330
A02
100
AcDbEntity
  8
Shape
100
AcDbLine
 10
75.28
 20
11.4942
 30
0
 11
74.8
 21
11.4349
 31
0
  0
LINE
  5
D6D
330
A02
100
AcDbEntity
  8
Shape
100
AcDbLine
 10
74.8
 20
11.4349
 30
0
 11
74.32
 21
11.3755
 31
0
  0
LINE
  5
D6E
330
A02
100
AcDbEntity
  8
Shape
100
AcDbLine
 10
74.32
 20
11.3755
 30
0
 11
73.84
 21
11.3159
 31
0
  0
LINE
  5
D6F
330
A02
100
AcDbEntity
  8
Shape
100
AcDbLine
 10
73.84
 20
11.3159
 30
0
 11
73.36
 21
11.2561
 31
0
  0
LINE
  5
D70
330
A02
100
AcDbEntity
  8
Shape
100
AcDbLine
 10
73.36
 20
11.2561
 30
0
 11
72.88
 21
11.1962
 31
0
  0
LINE
  5
D71
330
A02
100
AcDbEntity
  8
Shape
100
AcDbLine
 10
72.88
 20
11.1962
 30
0
 11
72.4
 21
11.136
 31
0
  0
LINE
  5
D72
330
A02
100
AcDbEntity
  8
Shape
100
AcDbLine
 10
72.4
 20
11.136
 30
0
 11
71.92
 21
11.0758
 31
0
  0
LINE
  5
D73
330
A02
100
AcDbEntity
  8
Shape
100
AcDbLine
 10
71.92
 20
11.0758
 30
0
 11
71.44
 21
11.0153
 31
0
  0
LINE
  5
D74
330
A02
100
AcDbEntity
  8
Shape
100
AcDbLine
 10
71.44
 20
11.0153
 30
0
 11
70.96
 21
10.9546
 31
0
  0
LINE
  5
D75
330
A02
100
AcDbEntity
  8
Shape
100
AcDbLine
 10
70.96
 20
10.9546
 30
0
 11
70.48
 21
10.8938
 31
0
  0
LINE
  5
D76
330
A02
100
AcDbEntity
  8
Shape
100
AcDbLine
 10
70.48
 20
10.8938
 30
0
 11
70
 21
10.8328
 31
0
  0
LINE
  5
D77
330
A02
100
AcDbEntity
  8
Shape
100
AcDbLine
 10
70
 20
10.8328
 30
0
 11
69.52
 21
10.7716
 31
0
  0
LINE
  5
D78
330
A02
100
AcDbEntity
  8
Shape
100
AcDbLine
 10
69.52
 20
10.7716
 30
0
 11
69.04
 21
10.7102
 31
0
  0
LINE
  5
D79
330
A02
100
AcDbEntity
  8
Shape
100
AcDbLine
 10
69.04
 20
10.7102
 30
0
 11
68.56
 21
10.6487
 31
0
  0
LINE
  5
D7A
330
A02
100
AcDbEntity
  8
Shape
100
AcDbLine
 10
68.56
 20
10.6487
 30
0
 11
68.08
 21
10.5869
 31
0
  0
LINE
  5
D7B
330
A02
100
AcDbEntity
  8
Shape
100
AcDbLine
 10
68.08
 20
10.5869
 30
0
 11
67.6
 21
10.525
 31
0
  0
LINE
  5
D7C
330
A02
100
AcDbEntity
  8
Shape
100
AcDbLine
 10
67.6
 20
10.525
 30
0
 11
67.12
 21
10.4629
 31
0
  0
LINE
  5
D7D
330
A02
100
AcDbEntity
  8
Shape
100
AcDbLine
 10
67.12
 20
10.4629
 30
0
 11
66.64
 21
10.4006
 31
0
  0
LINE
  5
D7E
330
A02
100
AcDbEntity
  8
Shape
100
AcDbLine
 10
66.64
 20
10.4006
 30
0
 11
66.16
 21
10.3381
 31
0
  0
LINE
  5
D7F
330
A02
100
AcDbEntity
  8
Shape
100
AcDbLine
 10
66.16
 20
10.3381
 30
0
 11
65.68
 21
10.2754
 31
0
  0
LINE
  5
D80
330
A02
100
AcDbEntity
  8
Shape
100
AcDbLine
 10
65.68
 20
10.2754
 30
0
 11
65.2
 21
10.2125
 31
0
  0
LINE
  5
D81
330
A02
100
AcDbEntity
  8
Shape
100
AcDbLine
 10
65.2
 20
10.2125
 30
0
 11
64.72
 21
10.1494
 31
0
  0
LINE
  5
D82
330
A02
100
AcDbEntity
  8
Shape
100
AcDbLine
 10
64.72
 20
10.1494
 30
0
 11
64.24
 21
10.0861
 31
0
  0
LINE
  5
D83
330
A02
100
AcDbEntity
  8
Shape
100
AcDbLine
 10
64.24
 20
10.0861
 30
0
 11
63.76
 21
10.0226
 31
0
  0
LINE
  5
D84
330
A02
100
AcDbEntity
  8
Shape
100
AcDbLine
 10
63.76
 20
10.0226
 30
0
 11
63.28
 21
9.95896
 31
0
  0
LINE
  5
D85
330
A02
100
AcDbEntity
  8
Shape
100
AcDbLine
 10
63.28
 20
9.95896
 30
0
 11
62.8
 21
9.89507
 31
0
  0
LINE
  5
D86
330
A02
100
AcDbEntity
  8
Shape
100
AcDbLine
 10
62.8
 20
9.89507
 30
0
 11
62.32
 21
9.83098
 31
0
  0
LINE
  5
D87
330
A02
100
AcDbEntity
  8
Shape
100
AcDbLine
 10
62.32
 20
9.83098
 30
0
 11
61.84
 21
9.76668
 31
0
  0
LINE
  5
D88
330
A02
100
AcDbEntity
  8
Shape
100
AcDbLine
 10
61.84
 20
9.76668
 30
0
 11
61.36
 21
9.70217
 31
0
  0
LINE
  5
D89
330
A02
100
AcDbEntity
  8
Shape
100
AcDbLine
 10
61.36
 20
9.70217
 30
0
 11
60.88
 21
9.63745
 31
0
  0
LINE
  5
D8A
330
A02
100
AcDbEntity
  8
Shape
100
AcDbLine
 10
60.88
 20
9.63745
 30
0
 11
60.4
 21
9.57252
 31
0
  0
LINE
  5
D8B
330
A02
100
AcDbEntity
  8
Shape
100
AcDbLine
 10
60.4
 20
9.57252
 30
0
 11
59.92
 21
9.50737
 31
0
  0
LINE
  5
D8C
330
A02
100
AcDbEntity
  8
Shape
100
AcDbLine
 10
59.92
 20
9.50737
 30
0
 11
59.44
 21
9.44201
 31
0
  0
LINE
  5
D8D
330
A02
100
AcDbEntity
  8
Shape
100
AcDbLine
 10
59.44
 20
9.44201
 30
0
 11
58.96
 21
9.37643
 31
0
  0
LINE
  5
D8E
330
A02
100
AcDbEntity
  8
Shape
100
AcDbLine
 10
58.96
 20
9.37643
 30
0
 11
58.48
 21
9.31063
 31
0
  0
LINE
  5
D8F
330
A02
100
AcDbEntity
  8
Shape
100
AcDbLine
 10
58.48
 20
9.31063
 30
0
 11
58
 21
9.2446
 31
0
  0
LINE
  5
D90
330
A02
100
AcDbEntity
  8
Shape
100
AcDbLine
 10
58
 20
9.2446
 30
0
 11
57.52
 21
9.17835
 31
0
  0
LINE
  5
D91
330
A02
100
AcDbEntity
  8
Shape
100
AcDbLine
 10
57.52
 20
9.17835
 30
0
 11
57.04
 21
9.11188
 31
0
  0
LINE
  5
D92
330
A02
100
AcDbEntity
  8
Shape
100
AcDbLine
 10
57.04
 20
9.11188
 30
0
 11
56.56
 21
9.04517
 31
0
  0
LINE
  5
D93
330
A02
100
AcDbEntity
  8
Shape
100
AcDbLine
 10
56.56
 20
9.04517
 30
0
 11
56.08
 21
8.97823
 31
0
  0
LINE
  5
D94
330
A02
100
AcDbEntity
  8
Shape
100
AcDbLine
 10
56.08
 20
8.97823
 30
0
 11
55.6
 21
8.91106
 31
0
  0
LINE
  5
D95
330
A02
100
AcDbEntity
  8
Shape
100
AcDbLine
 10
55.6
 20
8.91106
 30
0
 11
55.12
 21
8.84365
 31
0
  0
LINE
  5
D96
330
A02
100
AcDbEntity
  8
Shape
100
AcDbLine
 10
55.12
 20
8.84365
 30
0
 11
54.64
 21
8.77599
 31
0
  0
LINE
  5
D97
330
A02
100
AcDbEntity
  8
Shape
100
AcDbLine
 10
54.64
 20
8.77599
 30
0
 11
54.16
 21
8.7081
 31
0
  0
LINE
  5
D98
330
A02
100
AcDbEntity
  8
Shape
100
AcDbLine
 10
54.16
 20
8.7081
 30
0
 11
53.68
 21
8.63996
 31
0
  0
LINE
  5
D99
330
A02
100
AcDbEntity
  8
Shape
100
AcDbLine
 10
53.68
 20
8.63996
 30
0
 11
53.2
 21
8.57158
 31
0
  0
LINE
  5
D9A
330
A02
100
AcDbEntity
  8
Shape
100
AcDbLine
 10
53.2
 20
8.57158
 30
0
 11
52.72
 21
8.50294
 31
0
  0
LINE
  5
D9B
330
A02
100
AcDbEntity
  8
Shape
100
AcDbLine
 10
52.72
 20
8.50294
 30
0
 11
52.24
 21
8.43405
 31
0
  0
LINE
  5
D9C
330
A02
100
AcDbEntity
  8
Shape
100
AcDbLine
 10
52.24
 20
8.43405
 30
0
 11
51.76
 21
8.36491
 31
0
  0
LINE
  5
D9D
330
A02
100
AcDbEntity
  8
Shape
100
AcDbLine
 10
51.76
 20
8.36491
 30
0
 11
51.28
 21
8.2955
 31
0
  0
LINE
  5
D9E
330
A02
100
AcDbEntity
  8
Shape
100
AcDbLine
 10
51.28
 20
8.2955
 30
0
 11
50.8
 21
8.22584
 31
0
  0
LINE
  5
D9F
330
A02
100
AcDbEntity
  8
Shape
100
AcDbLine
 10
50.8
 20
8.22584
 30
0
 11
50.32
 21
8.1559
 31
0
  0
LINE
  5
DA0
330
A02
100
AcDbEntity
  8
Shape
100
AcDbLine
 10
50.32
 20
8.1559
 30
0
 11
49.84
 21
8.0857
 31
0
  0
LINE
  5
DA1
330
A02
100
AcDbEntity
  8
Shape
100
AcDbLine
 10
49.84
 20
8.0857
 30
0
 11
49.36
 21
8.01522
 31
0
  0
LINE
  5
DA2
330
A02
100
AcDbEntity
  8
Shape
100
AcDbLine
 10
49.36
 20
8.01522
 30
0
 11
48.88
 21
7.94447
 31
0
  0
LINE
  5
DA3
330
A02
100
AcDbEntity
  8
Shape
100
AcDbLine
 10
48.88
 20
7.94447
 30
0
 11
48.4
 21
7.87344
 31
0
  0
LINE
  5
DA4
330
A02
100
AcDbEntity
  8
Shape
100
AcDbLine
 10
48.4
 20
7.87344
 30
0
 11
47.92
 21
7.80213
 31
0
  0
LINE
  5
DA5
330
A02
100
AcDbEntity
  8
Shape
100
AcDbLine
 10
47.92
 20
7.80213
 30
0
 11
47.44
 21
7.73053
 31
0
  0
LINE
  5
DA6
330
A02
100
AcDbEntity
  8
Shape
100
AcDbLine
 10
47.44
 20
7.73053
 30
0
 11
46.96
 21
7.65864
 31
0
  0
LINE
  5
DA7
330
A02
100
AcDbEntity
  8
Shape
100
AcDbLine
 10
46.96
 20
7.65864
 30
0
 11
46.48
 21
7.58645
 31
0
  0
LINE
  5
DA8
330
A02
100
AcDbEntity
  8
Shape
100
AcDbLine
 10
46.48
 20
7.58645
 30
0
 11
46
 21
7.51396
 31
0
  0
LINE
  5
DA9
330
A02
100
AcDbEntity
  8
Shape
100
AcDbLine
 10
46
 20
7.51396
 30
0
 11
45.52
 21
7.44117
 31
0
  0
LINE
  5
DAA
330
A02
100
AcDbEntity
  8
Shape
100
AcDbLine
 10
45.52
 20
7.44117
 30
0
 11
45.04
 21
7.36808
 31
0
  0
LINE
  5
DAB
330
A02
100
AcDbEntity
  8
Shape
100
AcDbLine
 10
45.04
 20
7.36808
 30
0
 11
44.56
 21
7.29467
 31
0
  0
LINE
  5
DAC
330
A02
100
AcDbEntity
  8
Shape
100
AcDbLine
 10
44.56
 20
7.29467
 30
0
 11
44.08
 21
7.22094
 31
0
  0
LINE
  5
DAD
330
A02
100
AcDbEntity
  8
Shape
100
AcDbLine
 10
44.08
 20
7.22094
 30
0
 11
43.6
 21
7.14689
 31
0
  0
LINE
  5
DAE
330
A02
100
AcDbEntity
  8
Shape
100
AcDbLine
 10
43.6
 20
7.14689
 30
0
 11
43.12
 21
7.07252
 31
0
  0
LINE
  5
DAF
330
A02
100
AcDbEntity
  8
Shape
100
AcDbLine
 10
43.12
 20
7.07252
 30
0
 11
42.64
 21
6.99781
 31
0
  0
LINE
  5
DB0
330
A02
100
AcDbEntity
  8
Shape
100
AcDbLine
 10
42.64
 20
6.99781
 30
0
 11
42.16
 21
6.92276
 31
0
  0
LINE
  5
DB1
330
A02
100
AcDbEntity
  8
Shape
100
AcDbLine
 10
42.16
 20
6.92276
 30
0
 11
41.68
 21
6.84738
 31
0
  0
LINE
  5
DB2
330
A02
100
AcDbEntity
  8
Shape
100
AcDbLine
 10
41.68
 20
6.84738
 30
0
 11
41.2
 21
6.77164
 31
0
  0
LINE
  5
DB3
330
A02
100
AcDbEntity
  8
Shape
100
AcDbLine
 10
41.2
 20
6.77164
 30
0
 11
40.72
 21
6.69555
 31
0
  0
LINE
  5
DB4
330
A02
100
AcDbEntity
  8
Shape
100
AcDbLine
 10
40.72
 20
6.69555
 30
0
 11
40.24
 21
6.6191
 31
0
  0
LINE
  5
DB5
330
A02
100
AcDbEntity
  8
Shape
100
AcDbLine
 10
40.24
 20
6.6191
 30
0
 11
39.76
 21
6.54228
 31
0
  0
LINE
  5
DB6
330
A02
100
AcDbEntity
  8
Shape
100
AcDbLine
 10
39.76
 20
6.54228
 30
0
 11
39.28
 21
6.46509
 31
0
  0
LINE
  5
DB7
330
A02
100
AcDbEntity
  8
Shape
100
AcDbLine
 10
39.28
 20
6.46509
 30
0
 11
38.8
 21
6.38752
 31
0
  0
LINE
  5
DB8
330
A02
100
AcDbEntity
  8
Shape
100
AcDbLine
 10
38.8
 20
6.38752
 30
0
 11
38.32
 21
6.30957
 31
0
  0
LINE
  5
DB9
330
A02
100
AcDbEntity
  8
Shape
100
AcDbLine
 10
38.32
 20
6.30957
 30
0
 11
37.84
 21
6.23121
 31
0
  0
LINE
  5
DBA
330
A02
100
AcDbEntity
  8
Shape
100
AcDbLine
 10
37.84
 20
6.23121
 30
0
 11
37.36
 21
6.15246
 31
0
  0
LINE
  5
DBB
330
A02
100
AcDbEntity
  8
Shape
100
AcDbLine
 10
37.36
 20
6.15246
 30
0
 11
36.88
 21
6.0733
 31
0
  0
LINE
  5
DBC
330
A02
100
AcDbEntity
  8
Shape
100
AcDbLine
 10
36.88
 20
6.0733
 30
0
 11
36.4
 21
5.99371
 31
0
  0
LINE
  5
DBD
330
A02
100
AcDbEntity
  8
Shape
100
AcDbLine
 10
36.4
 20
5.99371
 30
0
 11
35.92
 21
5.91371
 31
0
  0
LINE
  5
DBE
330
A02
100
AcDbEntity
  8
Shape
100
AcDbLine
 10
35.92
 20
5.91371
 30
0
 11
35.44
 21
5.83326
 31
0
  0
LINE
  5
DBF
330
A02
100
AcDbEntity
  8
Shape
100
AcDbLine
 10
35.44
 20
5.83326
 30
0
 11
34.96
 21
5.75237
 31
0
  0
LINE
  5
DC0
330
A02
100
AcDbEntity
  8
Shape
100
AcDbLine
 10
34.96
 20
5.75237
 30
0
 11
34.48
 21
5.67103
 31
0
  0
LINE
  5
DC1
330
A02
100
AcDbEntity
  8
Shape
100
AcDbLine
 10
34.48
 20
5.67103
 30
0
 11
34
 21
5.58922
 31
0
  0
LINE
  5
DC2
330
A02
100
AcDbEntity
  8
Shape
100
AcDbLine
 10
34
 20
5.58922
 30
0
 11
33.52
 21
5.50694
 31
0
  0
LINE
  5
DC3
330
A02
100
AcDbEntity
  8
Shape
100
AcDbLine
 10
33.52
 20
5.50694
 30
0
 11
33.04
 21
5.42417
 31
0
  0
LINE
  5
DC4
330
A02
100
AcDbEntity
  8
Shape
100
AcDbLine
 10
33.04
 20
5.42417
 30
0
 11
32.56
 21
5.34091
 31
0
  0
LINE
  5
DC5
330
A02
100
AcDbEntity
  8
Shape
100
AcDbLine
 10
32.56
 20
5.34091
 30
0
 11
32.08
 21
5.25713
 31
0
  0
LINE
  5
DC6
330
A02
100
AcDbEntity
  8
Shape
100
AcDbLine
 10
32.08
 20
5.25713
 30
0
 11
31.6
 21
5.17283
 31
0
  0
LINE
  5
DC7
330
A02
100
AcDbEntity
  8
Shape
100
AcDbLine
 10
31.6
 20
5.17283
 30
0
 11
31.12
 21
5.088
 31
0
  0
LINE
  5
DC8
330
A02
100
AcDbEntity
  8
Shape
100
AcDbLine
 10
31.12
 20
5.088
 30
0
 11
30.64
 21
5.00261
 31
0
  0
LINE
  5
DC9
330
A02
100
AcDbEntity
  8
Shape
100
AcDbLine
 10
30.64
 20
5.00261
 30
0
 11
30.16
 21
4.91667
 31
0
  0
LINE
  5
DCA
330
A02
100
AcDbEntity
  8
Shape
100
AcDbLine
 10
30.16
 20
4.91667
 30
0
 11
29.68
 21
4.83014
 31
0
  0
LINE
  5
DCB
330
A02
100
AcDbEntity
  8
Shape
100
AcDbLine
 10
29.68
 20
4.83014
 30
0
 11
29.2
 21
4.74301
 31
0
  0
LINE
  5
DCC
330
A02
100
AcDbEntity
  8
Shape
100
AcDbLine
 10
29.2
 20
4.74301
 30
0
 11
28.72
 21
4.65527
 31
0
  0
LINE
  5
DCD
330
A02
100
AcDbEntity
  8
Shape
100
AcDbLine
 10
28.72
 20
4.65527
 30
0
 11
28.24
 21
4.5669
 31
0
  0
LINE
  5
DCE
330
A02
100
AcDbEntity
  8
Shape
100
AcDbLine
 10
28.24
 20
4.5669
 30
0
 11
27.76
 21
4.47788
 31
0
  0
LINE
  5
DCF
330
A02
100
AcDbEntity
  8
Shape
100
AcDbLine
 10
27.76
 20
4.47788
 30
0
 11
27.28
 21
4.38818
 31
0
  0
LINE
  5
DD0
330
A02
100
AcDbEntity
  8
Shape
100
AcDbLine
 10
27.28
 20
4.38818
 30
0
 11
26.8
 21
4.29779
 31
0
  0
LINE
  5
DD1
330
A02
100
AcDbEntity
  8
Shape
100
AcDbLine
 10
26.8
 20
4.29779
 30
0
 11
26.32
 21
4.20669
 31
0
  0
LINE
  5
DD2
330
A02
100
AcDbEntity
  8
Shape
100
AcDbLine
 10
26.32
 20
4.20669
 30
0
 11
25.84
 21
4.11484
 31
0
  0
LINE
  5
DD3
330
A02
100
AcDbEntity
  8
Shape
100
AcDbLine
 10
25.84
 20
4.11484
 30
0
 11
25.36
 21
4.02222
 31
0
  0
LINE
  5
DD4
330
A02
100
AcDbEntity
  8
Shape
100
AcDbLine
 10
25.36
 20
4.02222
 30
0
 11
24.88
 21
3.92881
 31
0
  0
LINE
  5
DD5
330
A02
100
AcDbEntity
  8
Shape
100
AcDbLine
 10
24.88
 20
3.92881
 30
0
 11
24.4
 21
3.83456
 31
0
  0
LINE
  5
DD6
330
A02
100
AcDbEntity
  8
Shape
100
AcDbLine
 10
24.4
 20
3.83456
 30
0
 11
23.92
 21
3.73946
 31
0
  0
LINE
  5
DD7
330
A02
100
AcDbEntity
  8
Shape
100
AcDbLine
 10
23.92
 20
3.73946
 30
0
 11
23.44
 21
3.64346
 31
0
  0
LINE
  5
DD8
330
A02
100
AcDbEntity
  8
Shape
100
AcDbLine
 10
23.44
 20
3.64346
 30
0
 11
22.96
 21
3.54653
 31
0
  0
LINE
  5
DD9
330
A02
100
AcDbEntity
  8
Shape
100
AcDbLine
 10
22.96
 20
3.54653
 30
0
 11
22.48
 21
3.44863
 31
0
  0
LINE
  5
DDA
330
A02
100
AcDbEntity
  8
Shape
100
AcDbLine
 10
22.48
 20
3.44863
 30
0
 11
22
 21
3.3497
 31
0
  0
LINE
  5
DDB
330
A02
100
AcDbEntity
  8
Shape
100
AcDbLine
 10
22
 20
3.3497
 30
0
 11
21.52
 21
3.24971
 31
0
  0
LINE
  5
DDC
330
A02
100
AcDbEntity
  8
Shape
100
AcDbLine
 10
21.52
 20
3.24971
 30
0
 11
21.04
 21
3.14859
 31
0
  0
LINE
  5
DDD
330
A02
100
AcDbEntity
  8
Shape
100
AcDbLine
 10
21.04
 20
3.14859
 30
0
 11
20.56
 21
3.04629
 31
0
  0
LINE
  5
DDE
330
A02
100
AcDbEntity
  8
Shape
100
AcDbLine
 10
20.56
 20
3.04629
 30
0
 11
20.08
 21
2.94275
 31
0
  0
LINE
  5
DDF
330
A02
100
AcDbEntity
  8
Shape
100
AcDbLine
 10
20.08
 20
2.94275
 30
0
 11
19.6
 21
2.83789
 31
0
  0
LINE
  5
DE0
330
A02
100
AcDbEntity
  8
Shape
100
AcDbLine
 10
19.6
 20
2.83789
 30
0
 11
19.12
 21
2.73163
 31
0
  0
LINE
  5
DE1
330
A02
100
AcDbEntity
  8
Shape
100
AcDbLine
 10
19.12
 20
2.73163
 30
0
 11
18.64
 21
2.62388
 31
0
  0
LINE
  5
DE2
330
A02
100
AcDbEntity
  8
Shape
100
AcDbLine
 10
18.64
 20
2.62388
 30
0
 11
18.16
 21
2.51455
 31
0
  0
LINE
  5
DE3
330
A02
100
AcDbEntity
  8
Shape
100
AcDbLine
 10
18.16
 20
2.51455
 30
0
 11
17.68
 21
2.40351
 31
0
  0
LINE
  5
DE4
330
A02
100
AcDbEntity
  8
Shape
100
AcDbLine
 10
17.68
 20
2.40351
 30
0
 11
17.2
 21
2.29064
 31
0
  0
LINE
  5
DE5
330
A02
100
AcDbEntity
  8
Shape
100
AcDbLine
 10
17.2
 20
2.29064
 30
0
 11
16.72
 21
2.1758
 31
0
  0
LINE
  5
DE6
330
A02
100
AcDbEntity
  8
Shape
100
AcDbLine
 10
16.72
 20
2.1758
 30
0
 11
16.24
 21
2.05879
 31
0
  0
LINE
  5
DE7
330
A02
100
AcDbEntity
  8
Shape
100
AcDbLine
 10
16.24
 20
2.05879
 30
0
 11
15.76
 21
1.93943
 31
0
  0
LINE
  5
DE8
330
A02
100
AcDbEntity
  8
Shape
100
AcDbLine
 10
15.76
 20
1.93943
 30
0
 11
15.28
 21
1.81746
 31
0
  0
LINE
  5
DE9
330
A02
100
AcDbEntity
  8
Shape
100
AcDbLine
 10
15.28
 20
1.81746
 30
0
 11
14.8
 21
1.69259
 31
0
  0
LINE
  5
DEA
330
A02
100
AcDbEntity
  8
Shape
100
AcDbLine
 10
14.8
 20
1.69259
 30
0
 11
14.32
 21
1.56446
 31
0
  0
LINE
  5
DEB
330
A02
100
AcDbEntity
  8
Shape
100
AcDbLine
 10
14.32
 20
1.56446
 30
0
 11
13.84
 21
1.43263
 31
0
  0
LINE
  5
DEC
330
A02
100
AcDbEntity
  8
Shape
100
AcDbLine
 10
13.84
 20
1.43263
 30
0
 11
13.36
 21
1.29649
 31
0
  0
LINE
  5
DED
330
A02
100
AcDbEntity
  8
Shape
100
AcDbLine
 10
13.36
 20
1.29649
 30
0
 11
12.88
 21
1.15529
 31
0
  0
LINE
  5
DEE
330
A02
100
AcDbEntity
  8
Shape
100
AcDbLine
 10
12.88
 20
1.15529
 30
0
 11
12.4
 21
1.00795
 31
0
  0
LINE
  5
DEF
330
A02
100
AcDbEntity
  8
Shape
100
AcDbLine
 10
12.4
 20
1.00795
 30
0
 11
11.92
 21
0.852875
 31
0
  0
LINE
  5
DF0
330
A02
100
AcDbEntity
  8
Shape
100
AcDbLine
 10
11.92
 20
0.852875
 30
0
 11
11.44
 21
0.687563
 31
0
  0
LINE
  5
DF1
330
A02
100
AcDbEntity
  8
Shape
100
AcDbLine
 10
11.44
 20
0.687563
 30
0
 11
10.96
 21
0.507428
 31
0
  0
LINE
  5
DF2
330
A02
100
AcDbEntity
  8
Shape
100
AcDbLine
 10
10.96
 20
0.507428
 30
0
 11
10.48
 21
0.301809
 31
0
  0
LINE
  5
DF3
330
A02
100
AcDbEntity
  8
Shape
100
AcDbLine
 10
10.48
 20
0.301809
 30
0
 11
10
 21
0
 31
0
  0
LINE
  5
DF4
330
A02
100
AcDbEntity
  8
Shape
100
AcDbLine
 10
10
 20
0
 30
0
 11
0
 21
0
 31
0
  0
ENDSEC
  0
SECTION
  2
OBJECTS
  0
DICTIONARY
  5
F000
330
0
100
AcDbDictionary
  3
ACAD_GROUP
350
F001
  0
DICTIONARY
  5
F001
330
F000
100
AcDbDictionary
  0
ENDSEC
  0
EOF