  0
SECTION
  2
BLOCKS
  0
ENDSEC
  0
SECTION
  2
ENTITIES
  0
LINE
  8
0
 10
1.25082
 20
-23.8672
 11
2.49823
 21
-23.7691
  0
LINE
  8
0
 10
2.49823
 20
-23.7691
 11
3.73877
 21
-23.6057
  0
LINE
  8
0
 10
3.73877
 20
-23.6057
 11
4.96909
 21
-23.3777
  0
LINE
  8
0
 10
4.96909
 20
-23.3777
 11
6.18576
 21
-23.0856
  0
LINE
  8
0
 10
6.18576
 20
-23.0856
 11
7.3855
 21
-22.7302
  0
LINE
  8
0
 10
7.3855
 20
-22.7302
 11
8.56499
 21
-22.3126
  0
LINE
  8
0
 10
8.56499
 20
-22.3126
 11
9.72099
 21
-21.8337
  0
LINE
  8
0
 10
9.72099
 20
-21.8337
 11
10.8504
 21
-21.295
  0
LINE
  8
0
 10
10.8504
 20
-21.295
 11
11.95
 21
-20.698
  0
LINE
  8
0
 10
11.95
 20
-20.698
 11
13.0169
 21
-20.0442
  0
LINE
  8
0
 10
13.0169
 20
-20.0442
 11
14.0481
 21
-19.3355
  0
LINE
  8
0
 10
14.0481
 20
-19.3355
 11
15.0408
 21
-18.5738
  0
LINE
  8
0
 10
15.0408
 20
-18.5738
 11
15.9922
 21
-17.7612
  0
LINE
  8
0
 10
15.9922
 20
-17.7612
 11
16.8998
 21
-16.8998
  0
LINE
  8
0
 10
16.8998
 20
-16.8998
 11
17.7612
 21
-15.9922
  0
LINE
  8
0
 10
17.7612
 20
-15.9922
 11
18.5738
 21
-15.0408
  0
LINE
  8
0
 10
18.5738
 20
-15.0408
 11
19.3355
 21
-14.0481
  0
LINE
  8
0
 10
19.3355
 20
-14.0481
 11
20.0442
 21
-13.0169
  0
LINE
  8
0
 10
20.0442
 20
-13.0169
 11
20.698
 21
-11.95
  0
LINE
  8
0
 10
20.698
 20
-11.95
 11
21.295
 21
-10.8504
  0
LINE
  8
0
 10
21.295
 20
-10.8504
 11
21.8337
 21
-9.72099
  0
LINE
  8
0
 10
21.8337
 20
-9.72099
 11
22.3126
 21
-8.56499
  0
LINE
  8
0
 10
22.3126
 20
-8.56499
 11
22.7302
 21
-7.3855
  0
LINE
  8
0
 10
22.7302
 20
-7.3855
 11
23.0856
 21
-6.18576
  0
LINE
  8
0
 10
23.0856
 20
-6.18576
 11
23.3777
 21
-4.96909
  0
LINE
  8
0
 10
23.3777
 20
-4.96909
 11
23.6057
 21
-3.73877
  0
LINE
  8
0
 10
23.6057
 20
-3.73877
 11
23.7691
 21
-2.49823
  0
LINE
  8
0
 10
23.7691
 20
-2.49823
 11
23.8672
 21
-1.25082
  0
LINE
  8
0
 10
23.8672
 20
-1.25082
 11
23.9
 21
0
  0
LINE
  8
0
 10
23.9
 20
0
 11
23.8672
 21
1.25082
  0
LINE
  8
0
 10
23.8672
 20
1.25082
 11
23.7691
 21
2.49823
  0
LINE
  8
0
 10
23.7691
 20
2.49823
 11
23.6057
 21
3.73877
  0
LINE
  8
0
 10
23.6057
 20
3.73877
 11
23.3777
 21
4.96909
  0
LINE
  8
0
 10
23.3777
 20
4.96909
 11
23.0856
 21
6.18576
  0
LINE
  8
0
 10
23.0856
 20
6.18576
 11
22.7302
 21
7.3855
  0
LINE
  8
0
 10
22.7302
 20
7.3855
 11
22.3126
 21
8.56499
  0
LINE
  8
0
 10
22.3126
 20
8.56499
 11
21.8337
 21
9.72099
  0
LINE
  8
0
 10
21.8337
 20
9.72099
 11
21.295
 21
10.8504
  0
LINE
  8
0
 10
21.295
 20
10.8504
 11
20.698
 21
11.95
  0
LINE
  8
0
 10
20.698
 20
11.95
 11
20.0442
 21
13.0169
  0
LINE
  8
0
 10
20.0442
 20
13.0169
 11
19.3355
 21
14.0481
  0
LINE
  8
0
 10
19.3355
 20
14.0481
 11
18.5738
 21
15.0408
  0
LINE
  8
0
 10
18.5738
 20
15.0408
 11
17.7612
 21
15.9922
  0
LINE
  8
0
 10
17.7612
 20
15.9922
 11
16.8998
 21
16.8998
  0
LINE
  8
0
 10
16.8998
 20
16.8998
 11
15.9922
 21
17.7612
  0
LINE
  8
0
 10
15.9922
 20
17.7612
 11
15.0408
 21
18.5738
  0
LINE
  8
0
 10
15.0408
 20
18.5738
 11
14.0481
 21
19.3355
  0
LINE
  8
0
 10
14.0481
 20
19.3355
 11
13.0169
 21
20.0442
  0
LINE
  8
0
 10
13.0169
 20
20.0442
 11
11.95
 21
20.698
  0
LINE
  8
0
 10
11.95
 20
20.698
 11
10.8504
 21
21.295
  0
LINE
  8
0
 10
10.8504
 20
21.295
 11
9.72099
 21
21.8337
  0
LINE
  8
0
 10
9.72099
 20
21.8337
 11
8.56499
 21
22.3126
  0
LINE
  8
0
 10
8.56499
 20
22.3126
 11
7.3855
 21
22.7302
  0
LINE
  8
0
 10
7.3855
 20
22.7302
 11
6.18576
 21
23.0856
  0
LINE
  8
0
 10
6.18576
 20
23.0856
 11
4.96909
 21
23.3777
  0
LINE
  8
0
 10
4.96909
 20
23.3777
 11
3.73877
 21
23.6057
  0
LINE
  8
0
 10
3.73877
 20
23.6057
 11
2.49823
 21
23.7691
  0
LINE
  8
0
 10
2.49823
 20
23.7691
 11
1.25082
 21
23.8672
  0
LINE
  8
0
 10
1.25082
 20
23.8672
 11
0
 21
23.9
  0
LINE
  8
0
 10
0
 20
23.9
 11
-1.25082
 21
23.8672
  0
LINE
  8
0
 10
-1.25082
 20
23.8672
 11
-2.49823
 21
23.7691
  0
LINE
  8
0
 10
-2.49823
 20
23.7691
 11
-3.73877
 21
23.6057
  0
LINE
  8
0
 10
-3.73877
 20
23.6057
 11
-4.96909
 21
23.3777
  0
LINE
  8
0
 10
-4.96909
 20
23.3777
 11
-6.18576
 21
23.0856
  0
LINE
  8
0
 10
-6.18576
 20
23.0856
 11
-7.3855
 21
22.7302
  0
LINE
  8
0
 10
-7.3855
 20
22.7302
 11
-8.56499
 21
22.3126
  0
LINE
  8
0
 10
-8.56499
 20
22.3126
 11
-9.72099
 21
21.8337
  0
LINE
  8
0
 10
-9.72099
 20
21.8337
 11
-10.8504
 21
21.295
  0
LINE
  8
0
 10
-10.8504
 20
21.295
 11
-11.95
 21
20.698
  0
LINE
  8
0
 10
-11.95
 20
20.698
 11
-13.0169
 21
20.0442
  0
LINE
  8
0
 10
-13.0169
 20
20.0442
 11
-14.0481
 21
19.3355
  0
LINE
  8
0
 10
-14.0481
 20
19.3355
 11
-15.0408
 21
18.5738
  0
LINE
  8
0
 10
-15.0408
 20
18.5738
 11
-15.9922
 21
17.7612
  0
LINE
  8
0
 10
-15.9922
 20
17.7612
 11
-16.8998
 21
16.8998
  0
LINE
  8
0
 10
-16.8998
 20
16.8998
 11
-17.7612
 21
15.9922
  0
LINE
  8
0
 10
-17.7612
 20
15.9922
 11
-18.5738
 21
15.0408
  0
LINE
  8
0
 10
-18.5738
 20
15.0408
 11
-19.3355
 21
14.0481
  0
LINE
  8
0
 10
-19.3355
 20
14.0481
 11
-20.0442
 21
13.0169
  0
LINE
  8
0
 10
-20.0442
 20
13.0169
 11
-20.698
 21
11.95
  0
LINE
  8
0
 10
-20.698
 20
11.95
 11
-21.295
 21
10.8504
  0
LINE
  8
0
 10
-21.295
 20
10.8504
 11
-21.8337
 21
9.72099
  0
LINE
  8
0
 10
-21.8337
 20
9.72099
 11
-22.3126
 21
8.56499
  0
LINE
  8
0
 10
-22.3126
 20
8.56499
 11
-22.7302
 21
7.3855
  0
LINE
  8
0
 10
-22.7302
 20
7.3855
 11
-23.0856
 21
6.18576
  0
LINE
  8
0
 10
-23.0856
 20
6.18576
 11
-23.3777
 21
4.96909
  0
LINE
  8
0
 10
-23.3777
 20
4.96909
 11
-23.6057
 21
3.73877
  0
LINE
  8
0
 10
-23.6057
 20
3.73877
 11
-23.7691
 21
2.49823
  0
LINE
  8
0
 10
-23.7691
 20
2.49823
 11
-23.8672
 21
1.25082
  0
LINE
  8
0
 10
-23.8672
 20
1.25082
 11
-23.9
 21
0
  0
LINE
  8
0
 10
-23.9
 20
0
 11
-23.8672
 21
-1.25082
  0
LINE
  8
0
 10
-23.8672
 20
-1.25082
 11
-23.7691
 21
-2.49823
  0
LINE
  8
0
 10
-23.7691
 20
-2.49823
 11
-23.6057
 21
-3.73877
  0
LINE
  8
0
 10
-23.6057
 20
-3.73877
 11
-23.3777
 21
-4.96909
  0
LINE
  8
0
 10
-23.3777
 20
-4.96909
 11
-23.0856
 21
-6.18576
  0
LINE
  8
0
 10
-23.0856
 20
-6.18576
 11
-22.7302
 21
-7.3855
  0
LINE
  8
0
 10
-22.7302
 20
-7.3855
 11
-22.3126
 21
-8.56499
  0
LINE
  8
0
 10
-22.3126
 20
-8.56499
 11
-21.8337
 21
-9.72099
  0
LINE
  8
0
 10
-21.8337
 20
-9.72099
 11
-21.295
 21
-10.8504
  0
LINE
  8
0
 10
-21.295
 20
-10.8504
 11
-20.698
 21
-11.95
  0
LINE
  8
0
 10
-20.698
 20
-11.95
 11
-20.0442
 21
-13.0169
  0
LINE
  8
0
 10
-20.0442
 20
-13.0169
 11
-19.3355
 21
-14.0481
  0
LINE
  8
0
 10
-19.3355
 20
-14.0481
 11
-18.5738
 21
-15.0408
  0
LINE
  8
0
 10
-18.5738
 20
-15.0408
 11
-17.7612
 21
-15.9922
  0
LINE
  8
0
 10
-17.7612
 20
-15.9922
 11
-16.8998
 21
-16.8998
  0
LINE
  8
0
 10
-16.8998
 20
-16.8998
 11
-15.9922
 21
-17.7612
  0
LINE
  8
0
 10
-15.9922
 20
-17.7612
 11
-15.0408
 21
-18.5738
  0
LINE
  8
0
 10
-15.0408
 20
-18.5738
 11
-14.0481
 21
-19.3355
  0
LINE
  8
0
 10
-14.0481
 20
-19.3355
 11
-13.0169
 21
-20.0442
  0
LINE
  8
0
 10
-13.0169
 20
-20.0442
 11
-11.95
 21
-20.698
  0
LINE
  8
0
 10
-11.95
 20
-20.698
 11
-10.8504
 21
-21.295
  0
LINE
  8
0
 10
-10.8504
 20
-21.295
 11
-9.72099
 21
-21.8337
  0
LINE
  8
0
 10
-9.72099
 20
-21.8337
 11
-8.56499
 21
-22.3126
  0
LINE
  8
0
 10
-8.56499
 20
-22.3126
 11
-7.3855
 21
-22.7302
  0
LINE
  8
0
 10
-7.3855
 20
-22.7302
 11
-6.18576
 21
-23.0856
  0
LINE
  8
0
 10
-6.18576
 20
-23.0856
 11
-4.96909
 21
-23.3777
  0
LINE
  8
0
 10
-4.96909
 20
-23.3777
 11
-3.73877
 21
-23.6057
  0
LINE
  8
0
 10
-3.73877
 20
-23.6057
 11
-2.49823
 21
-23.7691
  0
LINE
  8
0
 10
-2.49823
 20
-23.7691
 11
-1.25082
 21
-23.8672
  0
LINE
  8
0
 10
-1.25082
 20
-23.8672
 11
0
 21
-23.9
  0
LINE
  8
0
 10
0
 20
-23.9
 11
1.25082
 21
-23.8672
  0
LINE
  8
0
 10
-0.829514
 20
-15.8283
 11
-1.65677
 21
-15.7632
  0
LINE
  8
0
 10
-1.65677
 20
-15.7632
 11
-2.47948
 21
-15.6548
  0
LINE
  8
0
 10
-2.47948
 20
-15.6548
 11
-3.29539
 21
-15.5036
  0
LINE
  8
0
 10
-3.29539
 20
-15.5036
 11
-4.10228
 21
-15.3099
  0
LINE
  8
0
 10
-4.10228
 20
-15.3099
 11
-4.89792
 21
-15.0742
  0
LINE
  8
0
 10
-4.89792
 20
-15.0742
 11
-5.68013
 21
-14.7972
  0
LINE
  8
0
 10
-5.68013
 20
-14.7972
 11
-6.44676
 21
-14.4797
  0
LINE
  8
0
 10
-6.44676
 20
-14.4797
 11
-7.19574
 21
-14.1225
  0
LINE
  8
0
 10
-7.19574
 20
-14.1225
 11
-7.92499
 21
-13.7265
  0
LINE
  8
0
 10
-7.92499
 20
-13.7265
 11
-8.63252
 21
-13.2929
  0
LINE
  8
0
 10
-8.63252
 20
-13.2929
 11
-9.31639
 21
-12.8229
  0
LINE
  8
0
 10
-9.31639
 20
-12.8229
 11
-9.97472
 21
-12.3177
  0
LINE
  8
0
 10
-9.97472
 20
-12.3177
 11
-10.6057
 21
-11.7788
  0
LINE
  8
0
 10
-10.6057
 20
-11.7788
 11
-11.2076
 21
-11.2076
  0
LINE
  8
0
 10
-11.2076
 20
-11.2076
 11
-11.7788
 21
-10.6057
  0
LINE
  8
0
 10
-11.7788
 20
-10.6057
 11
-12.3177
 21
-9.97472
  0
LINE
  8
0
 10
-12.3177
 20
-9.97472
 11
-12.8229
 21
-9.31639
  0
LINE
  8
0
 10
-12.8229
 20
-9.31639
 11
-13.2929
 21
-8.63252
  0
LINE
  8
0
 10
-13.2929
 20
-8.63252
 11
-13.7265
 21
-7.92499
  0
LINE
  8
0
 10
-13.7265
 20
-7.92499
 11
-14.1225
 21
-7.19574
  0
LINE
  8
0
 10
-14.1225
 20
-7.19574
 11
-14.4797
 21
-6.44676
  0
LINE
  8
0
 10
-14.4797
 20
-6.44676
 11
-14.7972
 21
-5.68013
  0
LINE
  8
0
 10
-14.7972
 20
-5.68013
 11
-15.0742
 21
-4.89792
  0
LINE
  8
0
 10
-15.0742
 20
-4.89792
 11
-15.3099
 21
-4.10228
  0
LINE
  8
0
 10
-15.3099
 20
-4.10228
 11
-15.5036
 21
-3.29539
  0
LINE
  8
0
 10
-15.5036
 20
-3.29539
 11
-15.6548
 21
-2.47948
  0
LINE
  8
0
 10
-15.6548
 20
-2.47948
 11
-15.7632
 21
-1.65677
  0
LINE
  8
0
 10
-15.7632
 20
-1.65677
 11
-15.8283
 21
-0.829514
  0
LINE
  8
0
 10
-15.8283
 20
-0.829514
 11
-15.85
 21
0
  0
LINE
  8
0
 10
-15.85
 20
0
 11
-15.8283
 21
0.829514
  0
LINE
  8
0
 10
-15.8283
 20
0.829514
 11
-15.7632
 21
1.65677
  0
LINE
  8
0
 10
-15.7632
 20
1.65677
 11
-15.6548
 21
2.47948
  0
LINE
  8
0
 10
-15.6548
 20
2.47948
 11
-15.5036
 21
3.29539
  0
LINE
  8
0
 10
-15.5036
 20
3.29539
 11
-15.3099
 21
4.10228
  0
LINE
  8
0
 10
-15.3099
 20
4.10228
 11
-15.0742
 21
4.89792
  0
LINE
  8
0
 10
-15.0742
 20
4.89792
 11
-14.7972
 21
5.68013
  0
LINE
  8
0
 10
-14.7972
 20
5.68013
 11
-14.4797
 21
6.44676
  0
LINE
  8
0
 10
-14.4797
 20
6.44676
 11
-14.1225
 21
7.19574
  0
LINE
  8
0
 10
-14.1225
 20
7.19574
 11
-13.7265
 21
7.92499
  0
LINE
  8
0
 10
-13.7265
 20
7.92499
 11
-13.2929
 21
8.63252
  0
LINE
  8
0
 10
-13.2929
 20
8.63252
 11
-12.8229
 21
9.31639
  0
LINE
  8
0
 10
-12.8229
 20
9.31639
 11
-12.3177
 21
9.97472
  0
LINE
  8
0
 10
-12.3177
 20
9.97472
 11
-11.7788
 21
10.6057
  0
LINE
  8
0
 10
-11.7788
 20
10.6057
 11
-11.2076
 21
11.2076
  0
LINE
  8
0
 10
-11.2076
 20
11.2076
 11
-10.6057
 21
11.7788
  0
LINE
  8
0
 10
-10.6057
 20
11.7788
 11
-9.97472
 21
12.3177
  0
LINE
  8
0
 10
-9.97472
 20
12.3177
 11
-9.31639
 21
12.8229
  0
LINE
  8
0
 10
-9.31639
 20
12.8229
 11
-8.63252
 21
13.2929
  0
LINE
  8
0
 10
-8.63252
 20
13.2929
 11
-7.92499
 21
13.7265
  0
LINE
  8
0
 10
-7.92499
 20
13.7265
 11
-7.19574
 21
14.1225
  0
LINE
  8
0
 10
-7.19574
 20
14.1225
 11
-6.44676
 21
14.4797
  0
LINE
  8
0
 10
-6.44676
 20
14.4797
 11
-5.68013
 21
14.7972
  0
LINE
  8
0
 10
-5.68013
 20
14.7972
 11
-4.89792
 21
15.0742
  0
LINE
  8
0
 10
-4.89792
 20
15.0742
 11
-4.10228
 21
15.3099
  0
LINE
  8
0
 10
-4.10228
 20
15.3099
 11
-3.29539
 21
15.5036
  0
LINE
  8
0
 10
-3.29539
 20
15.5036
 11
-2.47948
 21
15.6548
  0
LINE
  8
0
 10
-2.47948
 20
15.6548
 11
-1.65677
 21
15.7632
  0
LINE
  8
0
 10
-1.65677
 20
15.7632
 11
-0.829514
 21
15.8283
  0
LINE
  8
0
 10
-0.829514
 20
15.8283
 11
0
 21
15.85
  0
LINE
  8
0
 10
0
 20
15.85
 11
0.829514
 21
15.8283
  0
LINE
  8
0
 10
0.829514
 20
15.8283
 11
1.65677
 21
15.7632
  0
LINE
  8
0
 10
1.65677
 20
15.7632
 11
2.47948
 21
15.6548
  0
LINE
  8
0
 10
2.47948
 20
15.6548
 11
3.29539
 21
15.5036
  0
LINE
  8
0
 10
3.29539
 20
15.5036
 11
4.10228
 21
15.3099
  0
LINE
  8
0
 10
4.10228
 20
15.3099
 11
4.89792
 21
15.0742
  0
LINE
  8
0
 10
4.89792
 20
15.0742
 11
5.68013
 21
14.7972
  0
LINE
  8
0
 10
5.68013
 20
14.7972
 11
6.44676
 21
14.4797
  0
LINE
  8
0
 10
6.44676
 20
14.4797
 11
7.19574
 21
14.1225
  0
LINE
  8
0
 10
7.19574
 20
14.1225
 11
7.92499
 21
13.7265
  0
LINE
  8
0
 10
7.92499
 20
13.7265
 11
8.63252
 21
13.2929
  0
LINE
  8
0
 10
8.63252
 20
13.2929
 11
9.31639
 21
12.8229
  0
LINE
  8
0
 10
9.31639
 20
12.8229
 11
9.97472
 21
12.3177
  0
LINE
  8
0
 10
9.97472
 20
12.3177
 11
10.6057
 21
11.7788
  0
LINE
  8
0
 10
10.6057
 20
11.7788
 11
11.2076
 21
11.2076
  0
LINE
  8
0
 10
11.2076
 20
11.2076
 11
11.7788
 21
10.6057
  0
LINE
  8
0
 10
11.7788
 20
10.6057
 11
12.3177
 21
9.97472
  0
LINE
  8
0
 10
12.3177
 20
9.97472
 11
12.8229
 21
9.31639
  0
LINE
  8
0
 10
12.8229
 20
9.31639
 11
13.2929
 21
8.63252
  0
LINE
  8
0
 10
13.2929
 20
8.63252
 11
13.7265
 21
7.92499
  0
LINE
  8
0
 10
13.7265
 20
7.92499
 11
14.1225
 21
7.19574
  0
LINE
  8
0
 10
14.1225
 20
7.19574
 11
14.4797
 21
6.44676
  0
LINE
  8
0
 10
14.4797
 20
6.44676
 11
14.7972
 21
5.68013
  0
LINE
  8
0
 10
14.7972
 20
5.68013
 11
15.0742
 21
4.89792
  0
LINE
  8
0
 10
15.0742
 20
4.89792
 11
15.3099
 21
4.10228
  0
LINE
  8
0
 10
15.3099
 20
4.10228
 11
15.5036
 21
3.29539
  0
LINE
  8
0
 10
15.5036
 20
3.29539
 11
15.6548
 21
2.47948
  0
LINE
  8
0
 10
15.6548
 20
2.47948
 11
15.7632
 21
1.65677
  0
LINE
  8
0
 10
15.7632
 20
1.65677
 11
15.8283
 21
0.829514
  0
LINE
  8
0
 10
15.8283
 20
0.829514
 11
15.85
 21
0
  0
LINE
  8
0
 10
15.85
 20
0
 11
15.8283
 21
-0.829514
  0
LINE
  8
0
 10
15.8283
 20
-0.829514
 11
15.7632
 21
-1.65677
  0
LINE
  8
0
 10
15.7632
 20
-1.65677
 11
15.6548
 21
-2.47948
  0
LINE
  8
0
 10
15.6548
 20
-2.47948
 11
15.5036
 21
-3.29539
  0
LINE
  8
0
 10
15.5036
 20
-3.29539
 11
15.3099
 21
-4.10228
  0
LINE
  8
0
 10
15.3099
 20
-4.10228
 11
15.0742
 21
-4.89792
  0
LINE
  8
0
 10
15.0742
 20
-4.89792
 11
14.7972
 21
-5.68013
  0
LINE
  8
0
 10
14.7972
 20
-5.68013
 11
14.4797
 21
-6.44676
  0
LINE
  8
0
 10
14.4797
 20
-6.44676
 11
14.1225
 21
-7.19574
  0
LINE
  8
0
 10
14.1225
 20
-7.19574
 11
13.7265
 21
-7.92499
  0
LINE
  8
0
 10
13.7265
 20
-7.92499
 11
13.2929
 21
-8.63252
  0
LINE
  8
0
 10
13.2929
 20
-8.63252
 11
12.8229
 21
-9.31639
  0
LINE
  8
0
 10
12.8229
 20
-9.31639
 11
12.3177
 21
-9.97472
  0
LINE
  8
0
 10
12.3177
 20
-9.97472
 11
11.7788
 21
-10.6057
  0
LINE
  8
0
 10
11.7788
 20
-10.6057
 11
11.2076
 21
-11.2076
  0
LINE
  8
0
 10
11.2076
 20
-11.2076
 11
10.6057
 21
-11.7788
  0
LINE
  8
0
 10
10.6057
 20
-11.7788
 11
9.97472
 21
-12.3177
  0
LINE
  8
0
 10
9.97472
 20
-12.3177
 11
9.31639
 21
-12.8229
  0
LINE
  8
0
 10
9.31639
 20
-12.8229
 11
8.63252
 21
-13.2929
  0
LINE
  8
0
 10
8.63252
 20
-13.2929
 11
7.92499
 21
-13.7265
  0
LINE
  8
0
 10
7.92499
 20
-13.7265
 11
7.19574
 21
-14.1225
  0
LINE
  8
0
 10
7.19574
 20
-14.1225
 11
6.44676
 21
-14.4797
  0
LINE
  8
0
 10
6.44676
 20
-14.4797
 11
5.68013
 21
-14.7972
  0
LINE
  8
0
 10
5.68013
 20
-14.7972
 11
4.89792
 21
-15.0742
  0
LINE
  8
0
 10
4.89792
 20
-15.0742
 11
4.10228
 21
-15.3099
  0
LINE
  8
0
 10
4.10228
 20
-15.3099
 11
3.29539
 21
-15.5036
  0
LINE
  8
0
 10
3.29539
 20
-15.5036
 11
2.47948
 21
-15.6548
  0
LINE
  8
0
 10
2.47948
 20
-15.6548
 11
1.65677
 21
-15.7632
  0
LINE
  8
0
 10
1.65677
 20
-15.7632
 11
0.829514
 21
-15.8283
  0
LINE
  8
0
 10
0.829514
 20
-15.8283
 11
0
 21
-15.85
  0
LINE
  8
0
 10
0
 20
-15.85
 11
-0.829514
 21
-15.8283
  0
ENDSEC
  0
SECTION
  2
OBJECTS
  0
DICTIONARY
  0
ENDSEC
  0
EOF
